%TF.GenerationSoftware,KiCad,Pcbnew,10.0.1*%
%TF.CreationDate,2026-08-28T09:51:09-04:00*%
%TF.ProjectId,MCR_prototype_PCB,4d43525f-7072-46f7-946f-747970655f50,rev?*%
%TF.SameCoordinates,Original*%
%TF.FileFunction,Soldermask,Bot*%
%TF.FilePolarity,Negative*%
%FSLAX46Y46*%
G04 Gerber Fmt 4.6, Leading zero omitted, Abs format (unit mm)*
G04 Created by KiCad (PCBNEW 10.0.1) date 2026-08-28 09:51:09*
%MOMM*%
%LPD*%
G01*
G04 APERTURE LIST*
G04 Aperture macros list*
%AMRoundRect*
0 Rectangle with rounded corners*
0 $1 Rounding radius*
0 $2 $3 $4 $5 $6 $7 $8 $9 X,Y pos of 4 corners*
0 Add a 4 corners polygon primitive as box body*
4,1,4,$2,$3,$4,$5,$6,$7,$8,$9,$2,$3,0*
0 Add four circle primitives for the rounded corners*
1,1,$1+$1,$2,$3*
1,1,$1+$1,$4,$5*
1,1,$1+$1,$6,$7*
1,1,$1+$1,$8,$9*
0 Add four rect primitives between the rounded corners*
20,1,$1+$1,$2,$3,$4,$5,0*
20,1,$1+$1,$4,$5,$6,$7,0*
20,1,$1+$1,$6,$7,$8,$9,0*
20,1,$1+$1,$8,$9,$2,$3,0*%
G04 Aperture macros list end*
%ADD10C,4.300000*%
%ADD11RoundRect,0.250000X0.750000X-0.750000X0.750000X0.750000X-0.750000X0.750000X-0.750000X-0.750000X0*%
%ADD12C,2.000000*%
%ADD13RoundRect,0.250000X-0.750000X0.750000X-0.750000X-0.750000X0.750000X-0.750000X0.750000X0.750000X0*%
%ADD14R,1.700000X1.700000*%
%ADD15C,1.700000*%
%ADD16RoundRect,0.250000X0.750000X0.750000X-0.750000X0.750000X-0.750000X-0.750000X0.750000X-0.750000X0*%
%ADD17R,1.600000X1.600000*%
%ADD18C,1.600000*%
%ADD19RoundRect,0.250000X-0.550000X-0.550000X0.550000X-0.550000X0.550000X0.550000X-0.550000X0.550000X0*%
%ADD20R,1.700000X2.500000*%
%ADD21O,1.700000X2.500000*%
%ADD22RoundRect,0.250000X1.350000X1.350000X-1.350000X1.350000X-1.350000X-1.350000X1.350000X-1.350000X0*%
%ADD23C,3.200000*%
%ADD24C,4.000000*%
G04 APERTURE END LIST*
D10*
%TO.C,REFLM*%
X151231600Y-169672000D03*
%TD*%
%TO.C,REFLL*%
X31648400Y-181965600D03*
%TD*%
%TO.C,REFLR*%
X252628400Y-173482000D03*
%TD*%
%TO.C,REFUR*%
X273761200Y-11074400D03*
%TD*%
%TO.C,REFUL*%
X28498800Y-44551600D03*
%TD*%
D11*
%TO.C,C10*%
X62839600Y-87092800D03*
D12*
X62839600Y-82092800D03*
%TD*%
D13*
%TO.C,C9*%
X72186800Y-124124323D03*
D12*
X72186800Y-129124323D03*
%TD*%
D14*
%TO.C,JP1*%
X63000000Y-32850000D03*
D15*
X63000000Y-35390000D03*
%TD*%
D16*
%TO.C,C7*%
X50415200Y-115722400D03*
D12*
X45415200Y-115722400D03*
%TD*%
D17*
%TO.C,RN5*%
X112420400Y-53136800D03*
D18*
X112420400Y-50596800D03*
X112420400Y-48056800D03*
X112420400Y-45516800D03*
X112420400Y-42976800D03*
X112420400Y-40436800D03*
X112420400Y-37896800D03*
X112420400Y-35356800D03*
X112420400Y-32816800D03*
%TD*%
D17*
%TO.C,RN4*%
X226466400Y-134061200D03*
D18*
X226466400Y-131521200D03*
X226466400Y-128981200D03*
X226466400Y-126441200D03*
X226466400Y-123901200D03*
X226466400Y-121361200D03*
X226466400Y-118821200D03*
X226466400Y-116281200D03*
X226466400Y-113741200D03*
%TD*%
D19*
%TO.C,SW1*%
X80380000Y-31870000D03*
D18*
X80380000Y-34410000D03*
X80380000Y-36950000D03*
X80380000Y-39490000D03*
X80380000Y-42030000D03*
X80380000Y-44570000D03*
X80380000Y-47110000D03*
X80380000Y-49650000D03*
X88000000Y-49650000D03*
X88000000Y-47110000D03*
X88000000Y-44570000D03*
X88000000Y-42030000D03*
X88000000Y-39490000D03*
X88000000Y-36950000D03*
X88000000Y-34410000D03*
X88000000Y-31870000D03*
%TD*%
D12*
%TO.C,TP2*%
X84734400Y-108966000D03*
%TD*%
D17*
%TO.C,RN6*%
X112014000Y-81026000D03*
D18*
X112014000Y-78486000D03*
X112014000Y-75946000D03*
X112014000Y-73406000D03*
X112014000Y-70866000D03*
X112014000Y-68326000D03*
X112014000Y-65786000D03*
X112014000Y-63246000D03*
X112014000Y-60706000D03*
%TD*%
D17*
%TO.C,RN1*%
X225907600Y-199034400D03*
D18*
X225907600Y-196494400D03*
X225907600Y-193954400D03*
X225907600Y-191414400D03*
X225907600Y-188874400D03*
X225907600Y-186334400D03*
X225907600Y-183794400D03*
X225907600Y-181254400D03*
X225907600Y-178714400D03*
%TD*%
D12*
%TO.C,TP5*%
X104851200Y-112826800D03*
%TD*%
D14*
%TO.C,J2_RGBS_Out1*%
X159004000Y-22961600D03*
D15*
X161544000Y-22961600D03*
X164084000Y-22961600D03*
X166624000Y-22961600D03*
X169164000Y-22961600D03*
X171704000Y-22961600D03*
X174244000Y-22961600D03*
X176784000Y-22961600D03*
X179324000Y-22961600D03*
%TD*%
D12*
%TO.C,TP6*%
X108051600Y-122072400D03*
%TD*%
D14*
%TO.C,J0*%
X125222000Y-148082000D03*
D15*
X127762000Y-148082000D03*
X125222000Y-145542000D03*
X127762000Y-145542000D03*
X125222000Y-143002000D03*
X127762000Y-143002000D03*
X125222000Y-140462000D03*
X127762000Y-140462000D03*
X125222000Y-137922000D03*
X127762000Y-137922000D03*
X125222000Y-135382000D03*
X127762000Y-135382000D03*
X125222000Y-132842000D03*
X127762000Y-132842000D03*
X125222000Y-130302000D03*
X127762000Y-130302000D03*
X125222000Y-127762000D03*
X127762000Y-127762000D03*
X125222000Y-125222000D03*
X127762000Y-125222000D03*
X125222000Y-122682000D03*
X127762000Y-122682000D03*
X125222000Y-120142000D03*
X127762000Y-120142000D03*
X125222000Y-117602000D03*
X127762000Y-117602000D03*
X125222000Y-115062000D03*
X127762000Y-115062000D03*
X125222000Y-112522000D03*
X127762000Y-112522000D03*
X125222000Y-109982000D03*
X127762000Y-109982000D03*
X125222000Y-107442000D03*
X127762000Y-107442000D03*
X125222000Y-104902000D03*
X127762000Y-104902000D03*
X125222000Y-102362000D03*
X127762000Y-102362000D03*
X125222000Y-99822000D03*
X127762000Y-99822000D03*
%TD*%
D14*
%TO.C,J1*%
X31000000Y-109080000D03*
D15*
X31000000Y-106540000D03*
X31000000Y-104000000D03*
X31000000Y-101460000D03*
X31000000Y-98920000D03*
X31000000Y-96380000D03*
X31000000Y-93840000D03*
X31000000Y-91300000D03*
X31000000Y-88760000D03*
X31000000Y-86220000D03*
X31000000Y-83680000D03*
X31000000Y-81140000D03*
X31000000Y-78600000D03*
X31000000Y-76060000D03*
X31000000Y-73520000D03*
X31000000Y-70980000D03*
X31000000Y-68440000D03*
X31000000Y-65900000D03*
X31000000Y-63360000D03*
X31000000Y-60820000D03*
%TD*%
D14*
%TO.C,JP3*%
X61264800Y-59939000D03*
D15*
X61264800Y-62479000D03*
%TD*%
D14*
%TO.C,JP4*%
X125374400Y-38100000D03*
D15*
X125374400Y-40640000D03*
X125374400Y-43180000D03*
%TD*%
D12*
%TO.C,TP3*%
X85394800Y-91592400D03*
%TD*%
D20*
%TO.C,U24*%
X77106100Y-97563700D03*
D21*
X79646100Y-97563700D03*
X82186100Y-97563700D03*
%TD*%
D12*
%TO.C,TP7*%
X191719200Y-17373600D03*
%TD*%
D17*
%TO.C,RN2*%
X226110800Y-169214800D03*
D18*
X226110800Y-166674800D03*
X226110800Y-164134800D03*
X226110800Y-161594800D03*
X226110800Y-159054800D03*
X226110800Y-156514800D03*
X226110800Y-153974800D03*
X226110800Y-151434800D03*
X226110800Y-148894800D03*
%TD*%
D19*
%TO.C,SW2*%
X79380000Y-63650000D03*
D18*
X79380000Y-66190000D03*
X79380000Y-68730000D03*
X79380000Y-71270000D03*
X79380000Y-73810000D03*
X79380000Y-76350000D03*
X79380000Y-78890000D03*
X79380000Y-81430000D03*
X87000000Y-81430000D03*
X87000000Y-78890000D03*
X87000000Y-76350000D03*
X87000000Y-73810000D03*
X87000000Y-71270000D03*
X87000000Y-68730000D03*
X87000000Y-66190000D03*
X87000000Y-63650000D03*
%TD*%
D12*
%TO.C,TP1*%
X57912000Y-128320800D03*
%TD*%
D14*
%TO.C,JP2*%
X63000000Y-45850000D03*
D15*
X63000000Y-48390000D03*
%TD*%
D20*
%TO.C,U25*%
X77571600Y-113842800D03*
D21*
X80111600Y-113842800D03*
X82651600Y-113842800D03*
%TD*%
D17*
%TO.C,RN3*%
X225958400Y-77520800D03*
D18*
X225958400Y-74980800D03*
X225958400Y-72440800D03*
X225958400Y-69900800D03*
X225958400Y-67360800D03*
X225958400Y-64820800D03*
X225958400Y-62280800D03*
X225958400Y-59740800D03*
X225958400Y-57200800D03*
%TD*%
D16*
%TO.C,C5*%
X50272100Y-99161600D03*
D12*
X45272100Y-99161600D03*
%TD*%
%TO.C,TP8*%
X191973200Y-24587200D03*
%TD*%
D14*
%TO.C,J3_DOT1*%
X253949200Y-106222800D03*
D15*
X253949200Y-103682800D03*
X253949200Y-101142800D03*
X253949200Y-98602800D03*
X253949200Y-96062800D03*
X253949200Y-93522800D03*
X253949200Y-90982800D03*
X253949200Y-88442800D03*
X253949200Y-85902800D03*
X253949200Y-83362800D03*
%TD*%
D12*
%TO.C,TP4*%
X89662000Y-141884400D03*
%TD*%
D22*
%TO.C,D4*%
X115366800Y-132791200D03*
D23*
X100126800Y-132791200D03*
%TD*%
D17*
%TO.C,J1-VGAOut1*%
X127304800Y-26304400D03*
D18*
X129594800Y-26304400D03*
X131884800Y-26304400D03*
X134174800Y-26304400D03*
X136464800Y-26304400D03*
X126159800Y-24404400D03*
X128449800Y-24404400D03*
X130739800Y-24404400D03*
X133029800Y-24404400D03*
X135319800Y-24404400D03*
X127304800Y-22504400D03*
X129594800Y-22504400D03*
X131884800Y-22504400D03*
X134174800Y-22504400D03*
X136464800Y-22504400D03*
D24*
X144119800Y-24414400D03*
X119119800Y-24414400D03*
%TD*%
D12*
%TO.C,TP9*%
X256946400Y-142138400D03*
%TD*%
D14*
%TO.C,J5*%
X273000000Y-75540000D03*
D15*
X273000000Y-73000000D03*
X273000000Y-70460000D03*
X273000000Y-67920000D03*
X273000000Y-65380000D03*
X273000000Y-62840000D03*
X273000000Y-60300000D03*
X273000000Y-57760000D03*
X273000000Y-55220000D03*
X273000000Y-52680000D03*
X273000000Y-50140000D03*
X273000000Y-47600000D03*
X273000000Y-45060000D03*
X273000000Y-42520000D03*
X273000000Y-39980000D03*
X273000000Y-37440000D03*
X273000000Y-34900000D03*
X273000000Y-32360000D03*
X273000000Y-29820000D03*
X273000000Y-27280000D03*
X273000000Y-24740000D03*
X273000000Y-22200000D03*
X273000000Y-19660000D03*
%TD*%
D14*
%TO.C,J4*%
X273862800Y-197104000D03*
D15*
X273862800Y-194564000D03*
X273862800Y-192024000D03*
X273862800Y-189484000D03*
X273862800Y-186944000D03*
X273862800Y-184404000D03*
X273862800Y-181864000D03*
X273862800Y-179324000D03*
X273862800Y-176784000D03*
X273862800Y-174244000D03*
X273862800Y-171704000D03*
X273862800Y-169164000D03*
X273862800Y-166624000D03*
X273862800Y-164084000D03*
X273862800Y-161544000D03*
X273862800Y-159004000D03*
X273862800Y-156464000D03*
X273862800Y-153924000D03*
X273862800Y-151384000D03*
%TD*%
D14*
%TO.C,J6*%
X273507200Y-140512800D03*
D15*
X273507200Y-137972800D03*
X273507200Y-135432800D03*
X273507200Y-132892800D03*
X273507200Y-130352800D03*
X273507200Y-127812800D03*
X273507200Y-125272800D03*
X273507200Y-122732800D03*
X273507200Y-120192800D03*
X273507200Y-117652800D03*
%TD*%
D14*
%TO.C,J3*%
X273304000Y-105359200D03*
D15*
X273304000Y-102819200D03*
X273304000Y-100279200D03*
X273304000Y-97739200D03*
X273304000Y-95199200D03*
X273304000Y-92659200D03*
X273304000Y-90119200D03*
X273304000Y-87579200D03*
X273304000Y-85039200D03*
%TD*%
M02*
