%TF.GenerationSoftware,KiCad,Pcbnew,10.0.1*%
%TF.CreationDate,2026-08-25T15:34:26-04:00*%
%TF.ProjectId,MCR_prototype_PCB,4d43525f-7072-46f7-946f-747970655f50,rev?*%
%TF.SameCoordinates,Original*%
%TF.FileFunction,Copper,L1,Top*%
%TF.FilePolarity,Positive*%
%FSLAX46Y46*%
G04 Gerber Fmt 4.6, Leading zero omitted, Abs format (unit mm)*
G04 Created by KiCad (PCBNEW 10.0.1) date 2026-08-25 15:34:26*
%MOMM*%
%LPD*%
G01*
G04 APERTURE LIST*
G04 Aperture macros list*
%AMRoundRect*
0 Rectangle with rounded corners*
0 $1 Rounding radius*
0 $2 $3 $4 $5 $6 $7 $8 $9 X,Y pos of 4 corners*
0 Add a 4 corners polygon primitive as box body*
4,1,4,$2,$3,$4,$5,$6,$7,$8,$9,$2,$3,0*
0 Add four circle primitives for the rounded corners*
1,1,$1+$1,$2,$3*
1,1,$1+$1,$4,$5*
1,1,$1+$1,$6,$7*
1,1,$1+$1,$8,$9*
0 Add four rect primitives between the rounded corners*
20,1,$1+$1,$2,$3,$4,$5,0*
20,1,$1+$1,$4,$5,$6,$7,0*
20,1,$1+$1,$6,$7,$8,$9,0*
20,1,$1+$1,$8,$9,$2,$3,0*%
G04 Aperture macros list end*
%ADD10C,0.300000*%
%TA.AperFunction,NonConductor*%
%ADD11C,0.300000*%
%TD*%
%TA.AperFunction,SMDPad,CuDef*%
%ADD12RoundRect,0.150000X-0.825000X-0.150000X0.825000X-0.150000X0.825000X0.150000X-0.825000X0.150000X0*%
%TD*%
%TA.AperFunction,SMDPad,CuDef*%
%ADD13RoundRect,0.100000X-0.637500X-0.100000X0.637500X-0.100000X0.637500X0.100000X-0.637500X0.100000X0*%
%TD*%
%TA.AperFunction,SMDPad,CuDef*%
%ADD14RoundRect,0.250000X-0.450000X0.325000X-0.450000X-0.325000X0.450000X-0.325000X0.450000X0.325000X0*%
%TD*%
%TA.AperFunction,SMDPad,CuDef*%
%ADD15R,2.900000X5.400000*%
%TD*%
%TA.AperFunction,ComponentPad*%
%ADD16R,1.700000X1.700000*%
%TD*%
%TA.AperFunction,ComponentPad*%
%ADD17C,1.700000*%
%TD*%
%TA.AperFunction,SMDPad,CuDef*%
%ADD18RoundRect,0.150000X-0.512500X-0.150000X0.512500X-0.150000X0.512500X0.150000X-0.512500X0.150000X0*%
%TD*%
%TA.AperFunction,SMDPad,CuDef*%
%ADD19RoundRect,0.250000X0.475000X-0.250000X0.475000X0.250000X-0.475000X0.250000X-0.475000X-0.250000X0*%
%TD*%
%TA.AperFunction,ComponentPad*%
%ADD20RoundRect,0.250000X0.750000X0.750000X-0.750000X0.750000X-0.750000X-0.750000X0.750000X-0.750000X0*%
%TD*%
%TA.AperFunction,ComponentPad*%
%ADD21C,2.000000*%
%TD*%
%TA.AperFunction,SMDPad,CuDef*%
%ADD22RoundRect,0.250000X0.450000X-0.262500X0.450000X0.262500X-0.450000X0.262500X-0.450000X-0.262500X0*%
%TD*%
%TA.AperFunction,ComponentPad*%
%ADD23R,1.600000X1.600000*%
%TD*%
%TA.AperFunction,ComponentPad*%
%ADD24C,1.600000*%
%TD*%
%TA.AperFunction,SMDPad,CuDef*%
%ADD25RoundRect,0.250000X-0.262500X-0.450000X0.262500X-0.450000X0.262500X0.450000X-0.262500X0.450000X0*%
%TD*%
%TA.AperFunction,SMDPad,CuDef*%
%ADD26RoundRect,0.250000X-0.475000X0.250000X-0.475000X-0.250000X0.475000X-0.250000X0.475000X0.250000X0*%
%TD*%
%TA.AperFunction,SMDPad,CuDef*%
%ADD27RoundRect,0.250000X-0.250000X-0.475000X0.250000X-0.475000X0.250000X0.475000X-0.250000X0.475000X0*%
%TD*%
%TA.AperFunction,SMDPad,CuDef*%
%ADD28RoundRect,0.250000X0.450000X-0.325000X0.450000X0.325000X-0.450000X0.325000X-0.450000X-0.325000X0*%
%TD*%
%TA.AperFunction,SMDPad,CuDef*%
%ADD29RoundRect,0.150000X0.825000X0.150000X-0.825000X0.150000X-0.825000X-0.150000X0.825000X-0.150000X0*%
%TD*%
%TA.AperFunction,ComponentPad*%
%ADD30RoundRect,0.250000X-0.550000X-0.550000X0.550000X-0.550000X0.550000X0.550000X-0.550000X0.550000X0*%
%TD*%
%TA.AperFunction,SMDPad,CuDef*%
%ADD31R,0.800000X0.500000*%
%TD*%
%TA.AperFunction,SMDPad,CuDef*%
%ADD32R,0.800000X0.400000*%
%TD*%
%TA.AperFunction,SMDPad,CuDef*%
%ADD33RoundRect,0.250000X-0.450000X0.350000X-0.450000X-0.350000X0.450000X-0.350000X0.450000X0.350000X0*%
%TD*%
%TA.AperFunction,SMDPad,CuDef*%
%ADD34RoundRect,0.250000X-0.350000X-0.450000X0.350000X-0.450000X0.350000X0.450000X-0.350000X0.450000X0*%
%TD*%
%TA.AperFunction,SMDPad,CuDef*%
%ADD35RoundRect,0.250000X-0.325000X-1.100000X0.325000X-1.100000X0.325000X1.100000X-0.325000X1.100000X0*%
%TD*%
%TA.AperFunction,SMDPad,CuDef*%
%ADD36RoundRect,0.150000X-0.875000X-0.150000X0.875000X-0.150000X0.875000X0.150000X-0.875000X0.150000X0*%
%TD*%
%TA.AperFunction,ComponentPad*%
%ADD37R,1.700000X2.500000*%
%TD*%
%TA.AperFunction,ComponentPad*%
%ADD38O,1.700000X2.500000*%
%TD*%
%TA.AperFunction,SMDPad,CuDef*%
%ADD39RoundRect,0.250000X-1.000000X0.375000X-1.000000X-0.375000X1.000000X-0.375000X1.000000X0.375000X0*%
%TD*%
%TA.AperFunction,SMDPad,CuDef*%
%ADD40RoundRect,0.225000X0.225000X0.375000X-0.225000X0.375000X-0.225000X-0.375000X0.225000X-0.375000X0*%
%TD*%
%TA.AperFunction,ComponentPad*%
%ADD41C,4.000000*%
%TD*%
%TA.AperFunction,SMDPad,CuDef*%
%ADD42RoundRect,0.150000X0.150000X-0.825000X0.150000X0.825000X-0.150000X0.825000X-0.150000X-0.825000X0*%
%TD*%
%TA.AperFunction,ViaPad*%
%ADD43C,0.600000*%
%TD*%
%TA.AperFunction,Conductor*%
%ADD44C,0.200000*%
%TD*%
%TA.AperFunction,Conductor*%
%ADD45C,0.150000*%
%TD*%
%TA.AperFunction,Conductor*%
%ADD46C,0.800000*%
%TD*%
%TA.AperFunction,Conductor*%
%ADD47C,1.000000*%
%TD*%
G04 APERTURE END LIST*
D10*
D11*
X21554510Y-56800828D02*
X21554510Y-55300828D01*
X21554510Y-55300828D02*
X22125939Y-55300828D01*
X22125939Y-55300828D02*
X22268796Y-55372257D01*
X22268796Y-55372257D02*
X22340225Y-55443685D01*
X22340225Y-55443685D02*
X22411653Y-55586542D01*
X22411653Y-55586542D02*
X22411653Y-55800828D01*
X22411653Y-55800828D02*
X22340225Y-55943685D01*
X22340225Y-55943685D02*
X22268796Y-56015114D01*
X22268796Y-56015114D02*
X22125939Y-56086542D01*
X22125939Y-56086542D02*
X21554510Y-56086542D01*
X23268796Y-56800828D02*
X23125939Y-56729400D01*
X23125939Y-56729400D02*
X23054510Y-56657971D01*
X23054510Y-56657971D02*
X22983082Y-56515114D01*
X22983082Y-56515114D02*
X22983082Y-56086542D01*
X22983082Y-56086542D02*
X23054510Y-55943685D01*
X23054510Y-55943685D02*
X23125939Y-55872257D01*
X23125939Y-55872257D02*
X23268796Y-55800828D01*
X23268796Y-55800828D02*
X23483082Y-55800828D01*
X23483082Y-55800828D02*
X23625939Y-55872257D01*
X23625939Y-55872257D02*
X23697368Y-55943685D01*
X23697368Y-55943685D02*
X23768796Y-56086542D01*
X23768796Y-56086542D02*
X23768796Y-56515114D01*
X23768796Y-56515114D02*
X23697368Y-56657971D01*
X23697368Y-56657971D02*
X23625939Y-56729400D01*
X23625939Y-56729400D02*
X23483082Y-56800828D01*
X23483082Y-56800828D02*
X23268796Y-56800828D01*
X24268796Y-55800828D02*
X24554511Y-56800828D01*
X24554511Y-56800828D02*
X24840225Y-56086542D01*
X24840225Y-56086542D02*
X25125939Y-56800828D01*
X25125939Y-56800828D02*
X25411653Y-55800828D01*
X26554511Y-56729400D02*
X26411654Y-56800828D01*
X26411654Y-56800828D02*
X26125940Y-56800828D01*
X26125940Y-56800828D02*
X25983082Y-56729400D01*
X25983082Y-56729400D02*
X25911654Y-56586542D01*
X25911654Y-56586542D02*
X25911654Y-56015114D01*
X25911654Y-56015114D02*
X25983082Y-55872257D01*
X25983082Y-55872257D02*
X26125940Y-55800828D01*
X26125940Y-55800828D02*
X26411654Y-55800828D01*
X26411654Y-55800828D02*
X26554511Y-55872257D01*
X26554511Y-55872257D02*
X26625940Y-56015114D01*
X26625940Y-56015114D02*
X26625940Y-56157971D01*
X26625940Y-56157971D02*
X25911654Y-56300828D01*
X27268796Y-56800828D02*
X27268796Y-55800828D01*
X27268796Y-56086542D02*
X27340225Y-55943685D01*
X27340225Y-55943685D02*
X27411654Y-55872257D01*
X27411654Y-55872257D02*
X27554511Y-55800828D01*
X27554511Y-55800828D02*
X27697368Y-55800828D01*
X29340224Y-56800828D02*
X29340224Y-55300828D01*
X30054510Y-55800828D02*
X30054510Y-56800828D01*
X30054510Y-55943685D02*
X30125939Y-55872257D01*
X30125939Y-55872257D02*
X30268796Y-55800828D01*
X30268796Y-55800828D02*
X30483082Y-55800828D01*
X30483082Y-55800828D02*
X30625939Y-55872257D01*
X30625939Y-55872257D02*
X30697368Y-56015114D01*
X30697368Y-56015114D02*
X30697368Y-56800828D01*
D12*
%TO.P,U4,1,~{PL}_1*%
%TO.N,IN_LOAD_N*%
X212931200Y-119583200D03*
%TO.P,U4,2,CP_2*%
%TO.N,IN_CLK*%
X212931200Y-120853200D03*
%TO.P,U4,3,D4_3*%
%TO.N,Net-(RN14-R1.2)*%
X212931200Y-122123200D03*
%TO.P,U4,4,D5_4*%
%TO.N,Net-(RN14-R2.2)*%
X212931200Y-123393200D03*
%TO.P,U4,5,D6_5*%
%TO.N,Net-(RN14-R3.2)*%
X212931200Y-124663200D03*
%TO.P,U4,6,D7_6*%
%TO.N,Net-(RN14-R4.2)*%
X212931200Y-125933200D03*
%TO.P,U4,7,~{Q7}_7*%
%TO.N,unconnected-(U4-~{Q7}-Pad7)*%
X212931200Y-127203200D03*
%TO.P,U4,8,GND_8*%
%TO.N,GND*%
X212931200Y-128473200D03*
%TO.P,U4,9,Q7_9*%
%TO.N,J6_Input_Stream*%
X217881200Y-128473200D03*
%TO.P,U4,10,DS_10*%
%TO.N,J5_Input_Stream*%
X217881200Y-127203200D03*
%TO.P,U4,11,D0_11*%
%TO.N,Net-(RN13-R1.2)*%
X217881200Y-125933200D03*
%TO.P,U4,12,D1_12*%
%TO.N,Net-(RN13-R2.2)*%
X217881200Y-124663200D03*
%TO.P,U4,13,D2_13*%
%TO.N,Net-(RN13-R3.2)*%
X217881200Y-123393200D03*
%TO.P,U4,14,D3_14*%
%TO.N,Net-(RN13-R4.2)*%
X217881200Y-122123200D03*
%TO.P,U4,15,~{CE}_15*%
%TO.N,GND*%
X217881200Y-120853200D03*
%TO.P,U4,16,VCC_16*%
%TO.N,+3.3V*%
X217881200Y-119583200D03*
%TD*%
D13*
%TO.P,U13,1,CH1_IN_1*%
%TO.N,Net-(U13-CH1_IN)*%
X169992200Y-36383200D03*
%TO.P,U13,2,CH2_IN_2*%
%TO.N,Net-(U13-CH2_IN)*%
X169992200Y-37033200D03*
%TO.P,U13,3,CH3_IN_3*%
%TO.N,Net-(U13-CH3_IN)*%
X169992200Y-37683200D03*
%TO.P,U13,4,CH4_IN_4*%
%TO.N,GND*%
X169992200Y-38333200D03*
%TO.P,U13,5,GND_5*%
X169992200Y-38983200D03*
%TO.P,U13,6,DISABLE_6*%
X169992200Y-39633200D03*
%TO.P,U13,7,NC_7*%
%TO.N,unconnected-(U13-NC-Pad7)*%
X169992200Y-40283200D03*
%TO.P,U13,8,NC_8*%
%TO.N,unconnected-(U13-NC-Pad8)*%
X175717200Y-40283200D03*
%TO.P,U13,9,BYPASS_9*%
%TO.N,GND*%
X175717200Y-39633200D03*
%TO.P,U13,10,V_{S+}_10*%
%TO.N,+5V*%
X175717200Y-38983200D03*
%TO.P,U13,11,CH4_OUT_11*%
%TO.N,unconnected-(U13-CH4_OUT-Pad11)*%
X175717200Y-38333200D03*
%TO.P,U13,12,CH3_OUT_12*%
%TO.N,Net-(J2_RGBS_Out1-Pin_3)*%
X175717200Y-37683200D03*
%TO.P,U13,13,CH2_OUT_13*%
%TO.N,Net-(J2_RGBS_Out1-Pin_5)*%
X175717200Y-37033200D03*
%TO.P,U13,14,CH1_OUT_14*%
%TO.N,Net-(J2_RGBS_Out1-Pin_1)*%
X175717200Y-36383200D03*
%TD*%
D14*
%TO.P,D36,1,K_1*%
%TO.N,GND*%
X146053200Y-42824400D03*
%TO.P,D36,2,A_2*%
%TO.N,LED_PIX*%
X146053200Y-44874400D03*
%TD*%
D15*
%TO.P,L1,1*%
%TO.N,+12V*%
X57735600Y-98907600D03*
%TO.P,L1,2*%
%TO.N,Net-(U24-IN)*%
X67435600Y-98907600D03*
%TD*%
D16*
%TO.P,JP1,1,A_1*%
%TO.N,MODE_15N*%
X63000000Y-32850000D03*
D17*
%TO.P,JP1,2,B_2*%
%TO.N,GND*%
X63000000Y-35390000D03*
%TD*%
D18*
%TO.P,U22,1,IO1_1*%
%TO.N,Net-(U22-IO1)*%
X242733400Y-115041600D03*
%TO.P,U22,2,VN_2*%
%TO.N,GND*%
X242733400Y-115991600D03*
%TO.P,U22,3,IO2_3*%
%TO.N,Net-(U22-IO2)*%
X242733400Y-116941600D03*
%TO.P,U22,4,IO3_4*%
%TO.N,Net-(U22-IO3)*%
X245008400Y-116941600D03*
%TO.P,U22,5,VP_5*%
%TO.N,+5V*%
X245008400Y-115991600D03*
%TO.P,U22,6,IO4_6*%
%TO.N,Net-(U22-IO4)*%
X245008400Y-115041600D03*
%TD*%
D19*
%TO.P,C15,1*%
%TO.N,Net-(RN1-R7)*%
X247192800Y-190215600D03*
%TO.P,C15,2*%
%TO.N,Net-(U17-IO3)*%
X247192800Y-188315600D03*
%TD*%
D20*
%TO.P,C7,1*%
%TO.N,+12V*%
X50415200Y-115722400D03*
D21*
%TO.P,C7,2*%
%TO.N,GND*%
X45415200Y-115722400D03*
%TD*%
D13*
%TO.P,U14,1,CH0_1*%
%TO.N,Net-(U14-CH0)*%
X239348200Y-78773600D03*
%TO.P,U14,2,CH1_2*%
%TO.N,unconnected-(U14-CH1-Pad2)*%
X239348200Y-79423600D03*
%TO.P,U14,3,CH2_3*%
%TO.N,unconnected-(U14-CH2-Pad3)*%
X239348200Y-80073600D03*
%TO.P,U14,4,CH3_4*%
%TO.N,unconnected-(U14-CH3-Pad4)*%
X239348200Y-80723600D03*
%TO.P,U14,5,CH4_5*%
%TO.N,unconnected-(U14-CH4-Pad5)*%
X239348200Y-81373600D03*
%TO.P,U14,6,CH5_6*%
%TO.N,unconnected-(U14-CH5-Pad6)*%
X239348200Y-82023600D03*
%TO.P,U14,7,CH6_7*%
%TO.N,unconnected-(U14-CH6-Pad7)*%
X239348200Y-82673600D03*
%TO.P,U14,8,CH7_8*%
%TO.N,unconnected-(U14-CH7-Pad8)*%
X239348200Y-83323600D03*
%TO.P,U14,9,GND_9*%
%TO.N,GND*%
X245073200Y-83323600D03*
%TO.P,U14,10,REFin/REFout_10*%
%TO.N,+5V*%
X245073200Y-82673600D03*
%TO.P,U14,11,COM_11*%
%TO.N,GND*%
X245073200Y-82023600D03*
%TO.P,U14,12,A0_12*%
%TO.N,ADC_A0*%
X245073200Y-81373600D03*
%TO.P,U14,13,A1_13*%
%TO.N,ADC_A1*%
X245073200Y-80723600D03*
%TO.P,U14,14,SCL_14*%
%TO.N,ADC_SCL*%
X245073200Y-80073600D03*
%TO.P,U14,15,SDA_15*%
%TO.N,ADC_SDA*%
X245073200Y-79423600D03*
%TO.P,U14,16,VDD_16*%
%TO.N,+3.3V*%
X245073200Y-78773600D03*
%TD*%
D22*
%TO.P,R100,1*%
%TO.N,Net-(U13-CH3_IN)*%
X177429200Y-49881800D03*
%TO.P,R100,2*%
%TO.N,VID_G3*%
X177429200Y-48056800D03*
%TD*%
D23*
%TO.P,RN5,1,common_1*%
%TO.N,+5V*%
X112420400Y-53136800D03*
D24*
%TO.P,RN5,2,R1_2*%
%TO.N,Net-(RN5-R1)*%
X112420400Y-50596800D03*
%TO.P,RN5,3,R2_3*%
%TO.N,Net-(RN5-R2)*%
X112420400Y-48056800D03*
%TO.P,RN5,4,R3_4*%
%TO.N,Net-(RN5-R3)*%
X112420400Y-45516800D03*
%TO.P,RN5,5,R4_5*%
%TO.N,Net-(RN5-R4)*%
X112420400Y-42976800D03*
%TO.P,RN5,6,R5_6*%
%TO.N,Net-(RN5-R5)*%
X112420400Y-40436800D03*
%TO.P,RN5,7,R6_7*%
%TO.N,Net-(RN5-R6)*%
X112420400Y-37896800D03*
%TO.P,RN5,8,R7_8*%
%TO.N,Net-(RN5-R7)*%
X112420400Y-35356800D03*
%TO.P,RN5,9,R8_9*%
%TO.N,Net-(RN5-R8)*%
X112420400Y-32816800D03*
%TD*%
D23*
%TO.P,RN4,1,common_1*%
%TO.N,+5V*%
X226466400Y-134061200D03*
D24*
%TO.P,RN4,2,R1_2*%
%TO.N,Net-(RN14-R4.2)*%
X226466400Y-131521200D03*
%TO.P,RN4,3,R2_3*%
%TO.N,Net-(RN14-R3.2)*%
X226466400Y-128981200D03*
%TO.P,RN4,4,R3_4*%
%TO.N,Net-(RN14-R2.2)*%
X226466400Y-126441200D03*
%TO.P,RN4,5,R4_5*%
%TO.N,Net-(RN14-R1.2)*%
X226466400Y-123901200D03*
%TO.P,RN4,6,R5_6*%
%TO.N,Net-(RN13-R4.2)*%
X226466400Y-121361200D03*
%TO.P,RN4,7,R6_7*%
%TO.N,Net-(RN13-R3.2)*%
X226466400Y-118821200D03*
%TO.P,RN4,8,R7_8*%
%TO.N,Net-(RN13-R2.2)*%
X226466400Y-116281200D03*
%TO.P,RN4,9,R8_9*%
%TO.N,Net-(RN13-R1.2)*%
X226466400Y-113741200D03*
%TD*%
D25*
%TO.P,R2,1*%
%TO.N,AUD_PWM_L1*%
X238930200Y-92725800D03*
%TO.P,R2,2*%
%TO.N,Net-(C2-Pad1)*%
X240755200Y-92725800D03*
%TD*%
D12*
%TO.P,U1,1,~{PL}_1*%
%TO.N,IN_CLK*%
X212931200Y-183743600D03*
%TO.P,U1,2,CP_2*%
%TO.N,IN_LOAD_N*%
X212931200Y-185013600D03*
%TO.P,U1,3,D4_3*%
%TO.N,Net-(RN1-R4)*%
X212931200Y-186283600D03*
%TO.P,U1,4,D5_4*%
%TO.N,Net-(RN1-R3)*%
X212931200Y-187553600D03*
%TO.P,U1,5,D6_5*%
%TO.N,Net-(RN1-R2)*%
X212931200Y-188823600D03*
%TO.P,U1,6,D7_6*%
%TO.N,Net-(RN1-R1)*%
X212931200Y-190093600D03*
%TO.P,U1,7,~{Q7}_7*%
%TO.N,unconnected-(U1-~{Q7}-Pad7)*%
X212931200Y-191363600D03*
%TO.P,U1,8,GND_8*%
%TO.N,GND*%
X212931200Y-192633600D03*
%TO.P,U1,9,Q7_9*%
%TO.N,Net-(U1-Q7)*%
X217881200Y-192633600D03*
%TO.P,U1,10,DS_10*%
%TO.N,GND*%
X217881200Y-191363600D03*
%TO.P,U1,11,D0_11*%
%TO.N,Net-(RN1-R8)*%
X217881200Y-190093600D03*
%TO.P,U1,12,D1_12*%
%TO.N,Net-(RN1-R7)*%
X217881200Y-188823600D03*
%TO.P,U1,13,D2_13*%
%TO.N,Net-(RN1-R6)*%
X217881200Y-187553600D03*
%TO.P,U1,14,D3_14*%
%TO.N,Net-(RN1-R5)*%
X217881200Y-186283600D03*
%TO.P,U1,15,~{CE}_15*%
%TO.N,GND*%
X217881200Y-185013600D03*
%TO.P,U1,16,VCC_16*%
%TO.N,+3.3V*%
X217881200Y-183743600D03*
%TD*%
D26*
%TO.P,C30,1*%
%TO.N,Net-(RN12-R3.2)*%
X241300000Y-69220000D03*
%TO.P,C30,2*%
%TO.N,Net-(U19-IO1)*%
X241300000Y-71120000D03*
%TD*%
D19*
%TO.P,C36,1*%
%TO.N,Net-(RN14-R1.2)*%
X254660400Y-125120400D03*
%TO.P,C36,2*%
%TO.N,Net-(U22-IO4)*%
X254660400Y-123220400D03*
%TD*%
%TO.P,C10,1*%
%TO.N,Net-(RN1-R2)*%
X241960400Y-196768800D03*
%TO.P,C10,2*%
%TO.N,Net-(U16-IO1)*%
X241960400Y-194868800D03*
%TD*%
%TO.P,C9,1*%
%TO.N,Net-(RN1-R1)*%
X236321600Y-196789200D03*
%TO.P,C9,2*%
%TO.N,Net-(U16-IO2)*%
X236321600Y-194889200D03*
%TD*%
D22*
%TO.P,R96,1*%
%TO.N,Net-(U13-CH1_IN)*%
X167429200Y-49881800D03*
%TO.P,R96,2*%
%TO.N,VID_R1*%
X167429200Y-48056800D03*
%TD*%
D19*
%TO.P,C17,1*%
%TO.N,Net-(RN2-R1)*%
X237693200Y-159344400D03*
%TO.P,C17,2*%
%TO.N,Net-(U15-IO2)*%
X237693200Y-157444400D03*
%TD*%
D12*
%TO.P,U8,1,QB_1*%
%TO.N,Net-(U10-I2)*%
X218490800Y-18948400D03*
%TO.P,U8,2,QC_2*%
%TO.N,Net-(U10-I3)*%
X218490800Y-20218400D03*
%TO.P,U8,3,QD_3*%
%TO.N,Net-(U10-I4)*%
X218490800Y-21488400D03*
%TO.P,U8,4,QE_4*%
%TO.N,Net-(U10-I5)*%
X218490800Y-22758400D03*
%TO.P,U8,5,QF_5*%
%TO.N,Net-(U10-I6)*%
X218490800Y-24028400D03*
%TO.P,U8,6,QG_6*%
%TO.N,Net-(U10-I7)*%
X218490800Y-25298400D03*
%TO.P,U8,7,QH_7*%
%TO.N,Net-(U10-I8)*%
X218490800Y-26568400D03*
%TO.P,U8,8,GND_8*%
%TO.N,GND*%
X218490800Y-27838400D03*
%TO.P,U8,9,QH'_9*%
%TO.N,Net-(U8-QH')*%
X223440800Y-27838400D03*
%TO.P,U8,10,~{SRCLR}_10*%
%TO.N,Out_Clear*%
X223440800Y-26568400D03*
%TO.P,U8,11,SRCLK_11*%
%TO.N,Out_Clock*%
X223440800Y-25298400D03*
%TO.P,U8,12,RCLK_12*%
%TO.N,Out_Latch*%
X223440800Y-24028400D03*
%TO.P,U8,13,~{OE}_13*%
%TO.N,Out_En_N*%
X223440800Y-22758400D03*
%TO.P,U8,14,SER_14*%
%TO.N,Out_Data*%
X223440800Y-21488400D03*
%TO.P,U8,15,QA_15*%
%TO.N,Net-(U10-I1)*%
X223440800Y-20218400D03*
%TO.P,U8,16,VCC_16*%
%TO.N,+5V*%
X223440800Y-18948400D03*
%TD*%
D27*
%TO.P,C41,1*%
%TO.N,+5V*%
X186654400Y-40487600D03*
%TO.P,C41,2*%
%TO.N,GND*%
X188554400Y-40487600D03*
%TD*%
D28*
%TO.P,D2,1,K_1*%
%TO.N,GND*%
X92557600Y-102828200D03*
%TO.P,D2,2,A_2*%
%TO.N,Net-(D2-A)*%
X92557600Y-100778200D03*
%TD*%
D29*
%TO.P,U6,1,~{PL}_1*%
%TO.N,IN_LOAD_N*%
X105500000Y-42770000D03*
%TO.P,U6,2,CP_2*%
%TO.N,IN_CLK*%
X105500000Y-41500000D03*
%TO.P,U6,3,D4_3*%
%TO.N,Net-(RN5-R5)*%
X105500000Y-40230000D03*
%TO.P,U6,4,D5_4*%
%TO.N,Net-(RN5-R6)*%
X105500000Y-38960000D03*
%TO.P,U6,5,D6_5*%
%TO.N,Net-(RN5-R7)*%
X105500000Y-37690000D03*
%TO.P,U6,6,D7_6*%
%TO.N,Net-(RN5-R8)*%
X105500000Y-36420000D03*
%TO.P,U6,7,~{Q7}_7*%
%TO.N,unconnected-(U6-~{Q7}-Pad7)*%
X105500000Y-35150000D03*
%TO.P,U6,8,GND_8*%
%TO.N,GND*%
X105500000Y-33880000D03*
%TO.P,U6,9,Q7_9*%
%TO.N,SW1_Input_Stream*%
X100550000Y-33880000D03*
%TO.P,U6,10,DS_10*%
%TO.N,J6_Input_Stream*%
X100550000Y-35150000D03*
%TO.P,U6,11,D0_11*%
%TO.N,Net-(RN5-R1)*%
X100550000Y-36420000D03*
%TO.P,U6,12,D1_12*%
%TO.N,Net-(RN5-R2)*%
X100550000Y-37690000D03*
%TO.P,U6,13,D2_13*%
%TO.N,Net-(RN5-R3)*%
X100550000Y-38960000D03*
%TO.P,U6,14,D3_14*%
%TO.N,Net-(RN5-R4)*%
X100550000Y-40230000D03*
%TO.P,U6,15,~{CE}_15*%
%TO.N,GND*%
X100550000Y-41500000D03*
%TO.P,U6,16,VCC_16*%
%TO.N,+3.3V*%
X100550000Y-42770000D03*
%TD*%
D30*
%TO.P,SW1,1*%
%TO.N,GND*%
X80380000Y-31870000D03*
D24*
%TO.P,SW1,2*%
X80380000Y-34410000D03*
%TO.P,SW1,3*%
X80380000Y-36950000D03*
%TO.P,SW1,4*%
X80380000Y-39490000D03*
%TO.P,SW1,5*%
X80380000Y-42030000D03*
%TO.P,SW1,6*%
X80380000Y-44570000D03*
%TO.P,SW1,7*%
X80380000Y-47110000D03*
%TO.P,SW1,8*%
X80380000Y-49650000D03*
%TO.P,SW1,9*%
%TO.N,Net-(RN5-R8)*%
X88000000Y-49650000D03*
%TO.P,SW1,10*%
%TO.N,Net-(RN5-R7)*%
X88000000Y-47110000D03*
%TO.P,SW1,11*%
%TO.N,Net-(RN5-R6)*%
X88000000Y-44570000D03*
%TO.P,SW1,12*%
%TO.N,Net-(RN5-R5)*%
X88000000Y-42030000D03*
%TO.P,SW1,13*%
%TO.N,Net-(RN5-R4)*%
X88000000Y-39490000D03*
%TO.P,SW1,14*%
%TO.N,Net-(RN5-R3)*%
X88000000Y-36950000D03*
%TO.P,SW1,15*%
%TO.N,Net-(RN5-R2)*%
X88000000Y-34410000D03*
%TO.P,SW1,16*%
%TO.N,Net-(RN5-R1)*%
X88000000Y-31870000D03*
%TD*%
D21*
%TO.P,TP2,1,1_1*%
%TO.N,+3.3V*%
X84734400Y-108966000D03*
%TD*%
D23*
%TO.P,RN6,1,common_1*%
%TO.N,+5V*%
X112014000Y-81026000D03*
D24*
%TO.P,RN6,2,R1_2*%
%TO.N,Net-(RN6-R1)*%
X112014000Y-78486000D03*
%TO.P,RN6,3,R2_3*%
%TO.N,Net-(RN6-R2)*%
X112014000Y-75946000D03*
%TO.P,RN6,4,R3_4*%
%TO.N,Net-(RN6-R3)*%
X112014000Y-73406000D03*
%TO.P,RN6,5,R4_5*%
%TO.N,Net-(RN6-R4)*%
X112014000Y-70866000D03*
%TO.P,RN6,6,R5_6*%
%TO.N,Net-(RN6-R5)*%
X112014000Y-68326000D03*
%TO.P,RN6,7,R6_7*%
%TO.N,Net-(RN6-R6)*%
X112014000Y-65786000D03*
%TO.P,RN6,8,R7_8*%
%TO.N,Net-(RN6-R7)*%
X112014000Y-63246000D03*
%TO.P,RN6,9,R8_9*%
%TO.N,Net-(RN6-R8)*%
X112014000Y-60706000D03*
%TD*%
D19*
%TO.P,C18,1*%
%TO.N,Net-(RN2-R2)*%
X243535200Y-159344400D03*
%TO.P,C18,2*%
%TO.N,Net-(U15-IO1)*%
X243535200Y-157444400D03*
%TD*%
D14*
%TO.P,D37,1,K_1*%
%TO.N,GND*%
X141093200Y-42824400D03*
%TO.P,D37,2,A_2*%
%TO.N,LED_27M*%
X141093200Y-44874400D03*
%TD*%
D19*
%TO.P,C23,1*%
%TO.N,Net-(RN10-R2.2)*%
X248513600Y-166710400D03*
%TO.P,C23,2*%
%TO.N,Net-(U5-IO3)*%
X248513600Y-164810400D03*
%TD*%
D31*
%TO.P,RN12,1,R1.1_1*%
%TO.N,/1 Plyr Move Left*%
X262534400Y-72961200D03*
D32*
%TO.P,RN12,2,R2.1_2*%
%TO.N,/1 Plyr Move Right*%
X262534400Y-72161200D03*
%TO.P,RN12,3,R3.1_3*%
%TO.N,/1 Plyr Move Up*%
X262534400Y-71361200D03*
D31*
%TO.P,RN12,4,R4.1_4*%
%TO.N,/1 Plyr Move Down*%
X262534400Y-70561200D03*
%TO.P,RN12,5,R4.2_5*%
%TO.N,Net-(RN12-R4.2)*%
X260734400Y-70561200D03*
D32*
%TO.P,RN12,6,R3.2_6*%
%TO.N,Net-(RN12-R3.2)*%
X260734400Y-71361200D03*
%TO.P,RN12,7,R2.2_7*%
%TO.N,Net-(RN12-R2.2)*%
X260734400Y-72161200D03*
D31*
%TO.P,RN12,8,R1.2_8*%
%TO.N,Net-(RN12-R1.2)*%
X260734400Y-72961200D03*
%TD*%
D23*
%TO.P,RN1,1,common_1*%
%TO.N,+5V*%
X225907600Y-199034400D03*
D24*
%TO.P,RN1,2,R1_2*%
%TO.N,Net-(RN1-R1)*%
X225907600Y-196494400D03*
%TO.P,RN1,3,R2_3*%
%TO.N,Net-(RN1-R2)*%
X225907600Y-193954400D03*
%TO.P,RN1,4,R3_4*%
%TO.N,Net-(RN1-R3)*%
X225907600Y-191414400D03*
%TO.P,RN1,5,R4_5*%
%TO.N,Net-(RN1-R4)*%
X225907600Y-188874400D03*
%TO.P,RN1,6,R5_6*%
%TO.N,Net-(RN1-R5)*%
X225907600Y-186334400D03*
%TO.P,RN1,7,R6_7*%
%TO.N,Net-(RN1-R6)*%
X225907600Y-183794400D03*
%TO.P,RN1,8,R7_8*%
%TO.N,Net-(RN1-R7)*%
X225907600Y-181254400D03*
%TO.P,RN1,9,R8_9*%
%TO.N,Net-(RN1-R8)*%
X225907600Y-178714400D03*
%TD*%
D12*
%TO.P,U2,1,~{PL}_1*%
%TO.N,IN_CLK*%
X212677200Y-154432000D03*
%TO.P,U2,2,CP_2*%
%TO.N,IN_LOAD_N*%
X212677200Y-155702000D03*
%TO.P,U2,3,D4_3*%
%TO.N,Net-(RN2-R4)*%
X212677200Y-156972000D03*
%TO.P,U2,4,D5_4*%
%TO.N,Net-(RN2-R3)*%
X212677200Y-158242000D03*
%TO.P,U2,5,D6_5*%
%TO.N,Net-(RN2-R2)*%
X212677200Y-159512000D03*
%TO.P,U2,6,D7_6*%
%TO.N,Net-(RN2-R1)*%
X212677200Y-160782000D03*
%TO.P,U2,7,~{Q7}_7*%
%TO.N,unconnected-(U2-~{Q7}-Pad7)*%
X212677200Y-162052000D03*
%TO.P,U2,8,GND_8*%
%TO.N,GND*%
X212677200Y-163322000D03*
%TO.P,U2,9,Q7_9*%
%TO.N,J4_Input_Stream*%
X217627200Y-163322000D03*
%TO.P,U2,10,DS_10*%
%TO.N,Net-(U1-Q7)*%
X217627200Y-162052000D03*
%TO.P,U2,11,D0_11*%
%TO.N,Net-(RN10-R1.2)*%
X217627200Y-160782000D03*
%TO.P,U2,12,D1_12*%
%TO.N,Net-(RN10-R2.2)*%
X217627200Y-159512000D03*
%TO.P,U2,13,D2_13*%
%TO.N,Net-(RN10-R3.2)*%
X217627200Y-158242000D03*
%TO.P,U2,14,D3_14*%
%TO.N,Net-(RN10-R4.2)*%
X217627200Y-156972000D03*
%TO.P,U2,15,~{CE}_15*%
%TO.N,GND*%
X217627200Y-155702000D03*
%TO.P,U2,16,VCC_16*%
%TO.N,+3.3V*%
X217627200Y-154432000D03*
%TD*%
D19*
%TO.P,C40,1*%
%TO.N,Net-(RN13-R1.2)*%
X255016000Y-130860800D03*
%TO.P,C40,2*%
%TO.N,Net-(U23-IO4)*%
X255016000Y-128960800D03*
%TD*%
D21*
%TO.P,TP5,1,1_1*%
%TO.N,IN_CLK*%
X104851200Y-112826800D03*
%TD*%
D16*
%TO.P,J2_RGBS_Out1,1,Pin_1_1*%
%TO.N,Net-(J2_RGBS_Out1-Pin_1)*%
X159004000Y-22961600D03*
D17*
%TO.P,J2_RGBS_Out1,2,Pin_2_2*%
%TO.N,GND*%
X161544000Y-22961600D03*
%TO.P,J2_RGBS_Out1,3,Pin_3_3*%
%TO.N,Net-(J2_RGBS_Out1-Pin_3)*%
X164084000Y-22961600D03*
%TO.P,J2_RGBS_Out1,4,Pin_4_4*%
%TO.N,GND*%
X166624000Y-22961600D03*
%TO.P,J2_RGBS_Out1,5,Pin_5_5*%
%TO.N,Net-(J2_RGBS_Out1-Pin_5)*%
X169164000Y-22961600D03*
%TO.P,J2_RGBS_Out1,6,Pin_6_6*%
%TO.N,GND*%
X171704000Y-22961600D03*
%TO.P,J2_RGBS_Out1,7,Pin_7_7*%
%TO.N,unconnected-(J2_RGBS_Out1-Pin_7-Pad7)*%
X174244000Y-22961600D03*
%TO.P,J2_RGBS_Out1,8,Pin_8_8*%
%TO.N,Net-(J2_RGBS_Out1-Pin_8)*%
X176784000Y-22961600D03*
%TO.P,J2_RGBS_Out1,9,Pin_9_9*%
%TO.N,Net-(J2_RGBS_Out1-Pin_9)*%
X179324000Y-22961600D03*
%TD*%
D33*
%TO.P,R6,1*%
%TO.N,+12V*%
X89662000Y-129946400D03*
%TO.P,R6,2*%
%TO.N,Net-(D1-A)*%
X89662000Y-131946400D03*
%TD*%
D26*
%TO.P,C28,1*%
%TO.N,Net-(RN11-R1.2)*%
X253898400Y-62717600D03*
%TO.P,C28,2*%
%TO.N,Net-(U18-IO4)*%
X253898400Y-64617600D03*
%TD*%
D19*
%TO.P,C37,1*%
%TO.N,Net-(RN13-R4.2)*%
X238470400Y-130825200D03*
%TO.P,C37,2*%
%TO.N,Net-(U23-IO2)*%
X238470400Y-128925200D03*
%TD*%
D33*
%TO.P,R8,1*%
%TO.N,+3.3V*%
X93522800Y-114011200D03*
%TO.P,R8,2*%
%TO.N,Net-(D3-A)*%
X93522800Y-116011200D03*
%TD*%
D27*
%TO.P,C1,1*%
%TO.N,Net-(U14-CH0)*%
X243855200Y-87500800D03*
%TO.P,C1,2*%
%TO.N,GND*%
X245755200Y-87500800D03*
%TD*%
D19*
%TO.P,C19,1*%
%TO.N,Net-(RN2-R3)*%
X248666000Y-159700000D03*
%TO.P,C19,2*%
%TO.N,Net-(U15-IO3)*%
X248666000Y-157800000D03*
%TD*%
D29*
%TO.P,U7,1,~{PL}_1*%
%TO.N,IN_LOAD_N*%
X105000000Y-76270000D03*
%TO.P,U7,2,CP_2*%
%TO.N,IN_CLK*%
X105000000Y-75000000D03*
%TO.P,U7,3,D4_3*%
%TO.N,Net-(RN6-R5)*%
X105000000Y-73730000D03*
%TO.P,U7,4,D5_4*%
%TO.N,Net-(RN6-R6)*%
X105000000Y-72460000D03*
%TO.P,U7,5,D6_5*%
%TO.N,Net-(RN6-R7)*%
X105000000Y-71190000D03*
%TO.P,U7,6,D7_6*%
%TO.N,Net-(RN6-R8)*%
X105000000Y-69920000D03*
%TO.P,U7,7,~{Q7}_7*%
%TO.N,unconnected-(U7-~{Q7}-Pad7)*%
X105000000Y-68650000D03*
%TO.P,U7,8,GND_8*%
%TO.N,GND*%
X105000000Y-67380000D03*
%TO.P,U7,9,Q7_9*%
%TO.N,IN_DATA*%
X100050000Y-67380000D03*
%TO.P,U7,10,DS_10*%
%TO.N,SW1_Input_Stream*%
X100050000Y-68650000D03*
%TO.P,U7,11,D0_11*%
%TO.N,Net-(RN6-R1)*%
X100050000Y-69920000D03*
%TO.P,U7,12,D1_12*%
%TO.N,Net-(RN6-R2)*%
X100050000Y-71190000D03*
%TO.P,U7,13,D2_13*%
%TO.N,Net-(RN6-R3)*%
X100050000Y-72460000D03*
%TO.P,U7,14,D3_14*%
%TO.N,Net-(RN6-R4)*%
X100050000Y-73730000D03*
%TO.P,U7,15,~{CE}_15*%
%TO.N,GND*%
X100050000Y-75000000D03*
%TO.P,U7,16,VCC_16*%
%TO.N,+3.3V*%
X100050000Y-76270000D03*
%TD*%
D19*
%TO.P,C34,1*%
%TO.N,Net-(RN14-R3.2)*%
X244652800Y-125034000D03*
%TO.P,C34,2*%
%TO.N,Net-(U22-IO1)*%
X244652800Y-123134000D03*
%TD*%
D14*
%TO.P,D38,1,K_1*%
%TO.N,GND*%
X136093200Y-42824400D03*
%TO.P,D38,2,A_2*%
%TO.N,LED_DDR_RST*%
X136093200Y-44874400D03*
%TD*%
D34*
%TO.P,R9,1*%
%TO.N,+3.3V*%
X114214400Y-138176000D03*
%TO.P,R9,2*%
%TO.N,Service Switch*%
X116214400Y-138176000D03*
%TD*%
D21*
%TO.P,TP6,1,1_1*%
%TO.N,IN_LOAD_N*%
X108051600Y-122072400D03*
%TD*%
D22*
%TO.P,R98,1*%
%TO.N,Net-(U13-CH2_IN)*%
X172429200Y-49881800D03*
%TO.P,R98,2*%
%TO.N,VID_B2*%
X172429200Y-48056800D03*
%TD*%
D35*
%TO.P,C43,1*%
%TO.N,+5V*%
X185875400Y-35052000D03*
%TO.P,C43,2*%
%TO.N,GND*%
X188825400Y-35052000D03*
%TD*%
D36*
%TO.P,U11,1,I1_1*%
%TO.N,Net-(U11-I1)*%
X229821600Y-34183800D03*
%TO.P,U11,2,I2_2*%
%TO.N,Net-(U11-I2)*%
X229821600Y-35453800D03*
%TO.P,U11,3,I3_3*%
%TO.N,Net-(U11-I3)*%
X229821600Y-36723800D03*
%TO.P,U11,4,I4_4*%
%TO.N,Net-(U11-I4)*%
X229821600Y-37993800D03*
%TO.P,U11,5,I5_5*%
%TO.N,Net-(U11-I5)*%
X229821600Y-39263800D03*
%TO.P,U11,6,I6_6*%
%TO.N,Net-(U11-I6)*%
X229821600Y-40533800D03*
%TO.P,U11,7,I7_7*%
%TO.N,Net-(U11-I7)*%
X229821600Y-41803800D03*
%TO.P,U11,8,I8_8*%
%TO.N,Net-(U11-I8)*%
X229821600Y-43073800D03*
%TO.P,U11,9,GND_9*%
%TO.N,GND*%
X229821600Y-44343800D03*
%TO.P,U11,10,COM_10*%
%TO.N,+12V*%
X239121600Y-44343800D03*
%TO.P,U11,11,O8_11*%
%TO.N,SEL*%
X239121600Y-43073800D03*
%TO.P,U11,12,O7_12*%
%TO.N,ARD*%
X239121600Y-41803800D03*
%TO.P,U11,13,O6_13*%
%TO.N,ST1*%
X239121600Y-40533800D03*
%TO.P,U11,14,O5_14*%
%TO.N,ST0*%
X239121600Y-39263800D03*
%TO.P,U11,15,O4_15*%
%TO.N,MD3*%
X239121600Y-37993800D03*
%TO.P,U11,16,O3_16*%
%TO.N,MD2*%
X239121600Y-36723800D03*
%TO.P,U11,17,O2_17*%
%TO.N,MD1*%
X239121600Y-35453800D03*
%TO.P,U11,18,O1_18*%
%TO.N,MD0*%
X239121600Y-34183800D03*
%TD*%
D18*
%TO.P,U23,1,IO1_1*%
%TO.N,Net-(U23-IO1)*%
X251115400Y-115194000D03*
%TO.P,U23,2,VN_2*%
%TO.N,GND*%
X251115400Y-116144000D03*
%TO.P,U23,3,IO2_3*%
%TO.N,Net-(U23-IO2)*%
X251115400Y-117094000D03*
%TO.P,U23,4,IO3_4*%
%TO.N,Net-(U23-IO3)*%
X253390400Y-117094000D03*
%TO.P,U23,5,VP_5*%
%TO.N,+5V*%
X253390400Y-116144000D03*
%TO.P,U23,6,IO4_6*%
%TO.N,Net-(U23-IO4)*%
X253390400Y-115194000D03*
%TD*%
D19*
%TO.P,C11,1*%
%TO.N,Net-(RN1-R3)*%
X247294400Y-196667200D03*
%TO.P,C11,2*%
%TO.N,Net-(U16-IO3)*%
X247294400Y-194767200D03*
%TD*%
D22*
%TO.P,R94,1*%
%TO.N,Net-(U13-CH1_IN)*%
X162429200Y-49881800D03*
%TO.P,R94,2*%
%TO.N,VID_R3*%
X162429200Y-48056800D03*
%TD*%
D18*
%TO.P,U18,1,IO1_1*%
%TO.N,Net-(U18-IO1)*%
X237286800Y-55642300D03*
%TO.P,U18,2,VN_2*%
%TO.N,GND*%
X237286800Y-56592300D03*
%TO.P,U18,3,IO2_3*%
%TO.N,Net-(U18-IO2)*%
X237286800Y-57542300D03*
%TO.P,U18,4,IO3_4*%
%TO.N,Net-(U18-IO3)*%
X239561800Y-57542300D03*
%TO.P,U18,5,VP_5*%
%TO.N,+5V*%
X239561800Y-56592300D03*
%TO.P,U18,6,IO4_6*%
%TO.N,Net-(U18-IO4)*%
X239561800Y-55642300D03*
%TD*%
D19*
%TO.P,C20,1*%
%TO.N,Net-(RN2-R4)*%
X254000000Y-159700000D03*
%TO.P,C20,2*%
%TO.N,Net-(U15-IO4)*%
X254000000Y-157800000D03*
%TD*%
D28*
%TO.P,D3,1,K_1*%
%TO.N,GND*%
X93573600Y-119888000D03*
%TO.P,D3,2,A_2*%
%TO.N,Net-(D3-A)*%
X93573600Y-117838000D03*
%TD*%
D16*
%TO.P,J0,1,Pin_1_1*%
%TO.N,AUD_PWM_L2*%
X125222000Y-148082000D03*
D17*
%TO.P,J0,2,Pin_2_2*%
%TO.N,VID_R1*%
X127762000Y-148082000D03*
%TO.P,J0,3,Pin_3_3*%
%TO.N,VID_R2*%
X125222000Y-145542000D03*
%TO.P,J0,4,Pin_4_4*%
%TO.N,VID_R3*%
X127762000Y-145542000D03*
%TO.P,J0,5,Pin_5_5*%
%TO.N,AUD_PWM_R2*%
X125222000Y-143002000D03*
%TO.P,J0,6,Pin_6_6*%
%TO.N,VID_B1*%
X127762000Y-143002000D03*
%TO.P,J0,7,Pin_7_7*%
%TO.N,VID_B2*%
X125222000Y-140462000D03*
%TO.P,J0,8,Pin_8_8*%
%TO.N,VID_B3*%
X127762000Y-140462000D03*
%TO.P,J0,9,Pin_9_9*%
%TO.N,Service Switch*%
X125222000Y-137922000D03*
%TO.P,J0,10,Pin_10_10*%
%TO.N,unconnected-(J0-Pin_10-Pad10)*%
X127762000Y-137922000D03*
%TO.P,J0,11,Pin_11_11*%
%TO.N,Net-(D4-K)*%
X125222000Y-135382000D03*
%TO.P,J0,12,Pin_12_12*%
%TO.N,GND*%
X127762000Y-135382000D03*
%TO.P,J0,13,Pin_13_13*%
%TO.N,unconnected-(J0-Pin_13-Pad13)*%
X125222000Y-132842000D03*
%TO.P,J0,14,Pin_14_14*%
%TO.N,VID_G1*%
X127762000Y-132842000D03*
%TO.P,J0,15,Pin_15_15*%
%TO.N,VID_G2*%
X125222000Y-130302000D03*
%TO.P,J0,16,Pin_16_16*%
%TO.N,VID_G3*%
X127762000Y-130302000D03*
%TO.P,J0,17,Pin_17_17*%
%TO.N,VID_HS*%
X125222000Y-127762000D03*
%TO.P,J0,18,Pin_18_18*%
%TO.N,VID_VS*%
X127762000Y-127762000D03*
%TO.P,J0,19,Pin_19_19*%
%TO.N,ADC_SDA*%
X125222000Y-125222000D03*
%TO.P,J0,20,Pin_20_20*%
%TO.N,ADC_SCL*%
X127762000Y-125222000D03*
%TO.P,J0,21,Pin_21_21*%
%TO.N,LED_CALIB*%
X125222000Y-122682000D03*
%TO.P,J0,22,Pin_22_22*%
%TO.N,LED_PIX*%
X127762000Y-122682000D03*
%TO.P,J0,23,Pin_23_23*%
%TO.N,LED_27M*%
X125222000Y-120142000D03*
%TO.P,J0,24,Pin_24_24*%
%TO.N,LED_DDR_RST*%
X127762000Y-120142000D03*
%TO.P,J0,25,Pin_25_25*%
%TO.N,IN_CLK*%
X125222000Y-117602000D03*
%TO.P,J0,26,Pin_26_26*%
%TO.N,IN_LOAD_N*%
X127762000Y-117602000D03*
%TO.P,J0,27,Pin_27_27*%
%TO.N,IN_DATA*%
X125222000Y-115062000D03*
%TO.P,J0,28,Pin_28_28*%
%TO.N,Out_Clock*%
X127762000Y-115062000D03*
%TO.P,J0,29,Pin_29_29*%
%TO.N,ADC_A1*%
X125222000Y-112522000D03*
%TO.P,J0,30,Pin_30_30*%
%TO.N,ADC_A0*%
X127762000Y-112522000D03*
%TO.P,J0,31,Pin_31_31*%
%TO.N,Out_Data*%
X125222000Y-109982000D03*
%TO.P,J0,32,Pin_32_32*%
%TO.N,Out_Latch*%
X127762000Y-109982000D03*
%TO.P,J0,33,Pin_33_33*%
%TO.N,Out_Clear*%
X125222000Y-107442000D03*
%TO.P,J0,34,Pin_34_34*%
%TO.N,Out_En_N*%
X127762000Y-107442000D03*
%TO.P,J0,35,Pin_35_35*%
%TO.N,AUD_PWM_L1*%
X125222000Y-104902000D03*
%TO.P,J0,36,Pin_36_36*%
%TO.N,AUD_PWM_R1*%
X127762000Y-104902000D03*
%TO.P,J0,37,Pin_37_37*%
%TO.N,MODE_15N*%
X125222000Y-102362000D03*
%TO.P,J0,38,Pin_38_38*%
%TO.N,unconnected-(J0-Pin_38-Pad38)*%
X127762000Y-102362000D03*
%TO.P,J0,39,Pin_39_39*%
%TO.N,SYNC_CSYNC_N*%
X125222000Y-99822000D03*
%TO.P,J0,40,Pin_40_40*%
%TO.N,SYNC_VSOFF_N*%
X127762000Y-99822000D03*
%TD*%
D18*
%TO.P,U5,1,IO1_1*%
%TO.N,Net-(U5-IO1)*%
X240396600Y-149794000D03*
%TO.P,U5,2,VN_2*%
%TO.N,GND*%
X240396600Y-150744000D03*
%TO.P,U5,3,IO2_3*%
%TO.N,Net-(U5-IO2)*%
X240396600Y-151694000D03*
%TO.P,U5,4,IO3_4*%
%TO.N,Net-(U5-IO3)*%
X242671600Y-151694000D03*
%TO.P,U5,5,VP_5*%
%TO.N,+5V*%
X242671600Y-150744000D03*
%TO.P,U5,6,IO4_6*%
%TO.N,Net-(U5-IO4)*%
X242671600Y-149794000D03*
%TD*%
D27*
%TO.P,C8,1*%
%TO.N,Net-(J3_DOT1-Pin_10)*%
X223982000Y-93663600D03*
%TO.P,C8,2*%
%TO.N,GND*%
X225882000Y-93663600D03*
%TD*%
D16*
%TO.P,J1,1,Pin_1_1*%
%TO.N,unconnected-(J1-Pin_1-Pad1)*%
X31000000Y-109080000D03*
D17*
%TO.P,J1,2,Pin_2_2*%
%TO.N,unconnected-(J1-Pin_2-Pad2)*%
X31000000Y-106540000D03*
%TO.P,J1,3,Pin_3_3*%
%TO.N,unconnected-(J1-Pin_3-Pad3)*%
X31000000Y-104000000D03*
%TO.P,J1,4,Pin_4_4*%
%TO.N,unconnected-(J1-Pin_4-Pad4)*%
X31000000Y-101460000D03*
%TO.P,J1,5,Pin_5_5*%
%TO.N,unconnected-(J1-Pin_5-Pad5)*%
X31000000Y-98920000D03*
%TO.P,J1,6,Pin_6_6*%
%TO.N,GND*%
X31000000Y-96380000D03*
%TO.P,J1,7,Pin_7_7*%
X31000000Y-93840000D03*
%TO.P,J1,8,Pin_8_8*%
%TO.N,unconnected-(J1-Pin_8-Pad8)*%
X31000000Y-91300000D03*
%TO.P,J1,9,Pin_9_9*%
%TO.N,unconnected-(J1-Pin_9-Pad9)*%
X31000000Y-88760000D03*
%TO.P,J1,10,Pin_10_10*%
%TO.N,GND*%
X31000000Y-86220000D03*
%TO.P,J1,11,Pin_11_11*%
%TO.N,unconnected-(J1-Pin_11-Pad11)*%
X31000000Y-83680000D03*
%TO.P,J1,12,Pin_12_12*%
%TO.N,unconnected-(J1-Pin_12-Pad12)*%
X31000000Y-81140000D03*
%TO.P,J1,13,Pin_13_13*%
%TO.N,unconnected-(J1-Pin_13-Pad13)*%
X31000000Y-78600000D03*
%TO.P,J1,14,Pin_14_14*%
%TO.N,unconnected-(J1-Pin_14-Pad14)*%
X31000000Y-76060000D03*
%TO.P,J1,15,Pin_15_15*%
%TO.N,unconnected-(J1-Pin_15-Pad15)*%
X31000000Y-73520000D03*
%TO.P,J1,16,Pin_16_16*%
%TO.N,unconnected-(J1-Pin_16-Pad16)*%
X31000000Y-70980000D03*
%TO.P,J1,17,Pin_17_17*%
%TO.N,unconnected-(J1-Pin_17-Pad17)*%
X31000000Y-68440000D03*
%TO.P,J1,18,Pin_18_18*%
%TO.N,+12V*%
X31000000Y-65900000D03*
%TO.P,J1,19,Pin_19_19*%
%TO.N,unconnected-(J1-Pin_19-Pad19)*%
X31000000Y-63360000D03*
%TO.P,J1,20,Pin_20_20*%
%TO.N,GND*%
X31000000Y-60820000D03*
%TD*%
D22*
%TO.P,R92,1*%
%TO.N,VID_HS*%
X157429200Y-49881800D03*
%TO.P,R92,2*%
%TO.N,Net-(U12-CH1_IN)*%
X157429200Y-48056800D03*
%TD*%
D19*
%TO.P,C14,1*%
%TO.N,Net-(RN1-R6)*%
X241452400Y-190215600D03*
%TO.P,C14,2*%
%TO.N,Net-(U17-IO1)*%
X241452400Y-188315600D03*
%TD*%
D16*
%TO.P,JP3,1,A_1*%
%TO.N,SYNC_VSOFF_N*%
X63000000Y-58350000D03*
D17*
%TO.P,JP3,2,B_2*%
%TO.N,GND*%
X63000000Y-60890000D03*
%TD*%
D27*
%TO.P,C4,1*%
%TO.N,Net-(J3-Pin_7)*%
X243855200Y-103000800D03*
%TO.P,C4,2*%
%TO.N,GND*%
X245755200Y-103000800D03*
%TD*%
D31*
%TO.P,RN14,1,R1.1_1*%
%TO.N,Net-(J6-Pin_5)*%
X263296400Y-118313200D03*
D32*
%TO.P,RN14,2,R2.1_2*%
%TO.N,Net-(J6-Pin_6)*%
X263296400Y-117513200D03*
%TO.P,RN14,3,R3.1_3*%
%TO.N,Net-(J6-Pin_7)*%
X263296400Y-116713200D03*
D31*
%TO.P,RN14,4,R4.1_4*%
%TO.N,Net-(J6-Pin_9)*%
X263296400Y-115913200D03*
%TO.P,RN14,5,R4.2_5*%
%TO.N,Net-(RN14-R4.2)*%
X261496400Y-115913200D03*
D32*
%TO.P,RN14,6,R3.2_6*%
%TO.N,Net-(RN14-R3.2)*%
X261496400Y-116713200D03*
%TO.P,RN14,7,R2.2_7*%
%TO.N,Net-(RN14-R2.2)*%
X261496400Y-117513200D03*
D31*
%TO.P,RN14,8,R1.2_8*%
%TO.N,Net-(RN14-R1.2)*%
X261496400Y-118313200D03*
%TD*%
D21*
%TO.P,TP3,1,1_1*%
%TO.N,+5V*%
X85394800Y-91592400D03*
%TD*%
D37*
%TO.P,U24,1,IN_1*%
%TO.N,Net-(U24-IN)*%
X77106100Y-97563700D03*
D38*
%TO.P,U24,2,GND_2*%
%TO.N,GND*%
X79646100Y-97563700D03*
%TO.P,U24,3,OUT_3*%
%TO.N,+5V*%
X82186100Y-97563700D03*
%TD*%
D22*
%TO.P,R102,1*%
%TO.N,Net-(U13-CH3_IN)*%
X182429200Y-49881800D03*
%TO.P,R102,2*%
%TO.N,VID_G1*%
X182429200Y-48056800D03*
%TD*%
D19*
%TO.P,C35,1*%
%TO.N,Net-(RN14-R2.2)*%
X249783600Y-125374400D03*
%TO.P,C35,2*%
%TO.N,Net-(U22-IO3)*%
X249783600Y-123474400D03*
%TD*%
%TO.P,C39,1*%
%TO.N,Net-(RN13-R2.2)*%
X249783600Y-130606800D03*
%TO.P,C39,2*%
%TO.N,Net-(U23-IO3)*%
X249783600Y-128706800D03*
%TD*%
D31*
%TO.P,RN9,1,R1.1_1*%
%TO.N,Net-(J4-Pin_15)*%
X263855200Y-154393600D03*
D32*
%TO.P,RN9,2,R2.1_2*%
%TO.N,Net-(J4-Pin_16)*%
X263855200Y-153593600D03*
%TO.P,RN9,3,R3.1_3*%
%TO.N,Net-(J4-Pin_17)*%
X263855200Y-152793600D03*
D31*
%TO.P,RN9,4,R4.1_4*%
%TO.N,Net-(J4-Pin_18)*%
X263855200Y-151993600D03*
%TO.P,RN9,5,R4.2_5*%
%TO.N,Net-(RN2-R1)*%
X262055200Y-151993600D03*
D32*
%TO.P,RN9,6,R3.2_6*%
%TO.N,Net-(RN2-R2)*%
X262055200Y-152793600D03*
%TO.P,RN9,7,R2.2_7*%
%TO.N,Net-(RN2-R3)*%
X262055200Y-153593600D03*
D31*
%TO.P,RN9,8,R1.2_8*%
%TO.N,Net-(RN2-R4)*%
X262055200Y-154393600D03*
%TD*%
D21*
%TO.P,TP7,1,1_1*%
%TO.N,Net-(J2_RGBS_Out1-Pin_8)*%
X191719200Y-17373600D03*
%TD*%
D23*
%TO.P,RN2,1,common_1*%
%TO.N,+5V*%
X226110800Y-169214800D03*
D24*
%TO.P,RN2,2,R1_2*%
%TO.N,Net-(RN2-R1)*%
X226110800Y-166674800D03*
%TO.P,RN2,3,R2_3*%
%TO.N,Net-(RN2-R2)*%
X226110800Y-164134800D03*
%TO.P,RN2,4,R3_4*%
%TO.N,Net-(RN2-R3)*%
X226110800Y-161594800D03*
%TO.P,RN2,5,R4_5*%
%TO.N,Net-(RN2-R4)*%
X226110800Y-159054800D03*
%TO.P,RN2,6,R5_6*%
%TO.N,Net-(RN10-R4.2)*%
X226110800Y-156514800D03*
%TO.P,RN2,7,R6_7*%
%TO.N,Net-(RN10-R3.2)*%
X226110800Y-153974800D03*
%TO.P,RN2,8,R7_8*%
%TO.N,Net-(RN10-R2.2)*%
X226110800Y-151434800D03*
%TO.P,RN2,9,R8_9*%
%TO.N,Net-(RN10-R1.2)*%
X226110800Y-148894800D03*
%TD*%
D31*
%TO.P,RN8,1,R1.1_1*%
%TO.N,Net-(J4-Pin_4)*%
X263724800Y-198843600D03*
D32*
%TO.P,RN8,2,R2.1_2*%
%TO.N,Net-(J4-Pin_3)*%
X263724800Y-198043600D03*
%TO.P,RN8,3,R3.1_3*%
%TO.N,Net-(J4-Pin_2)*%
X263724800Y-197243600D03*
D31*
%TO.P,RN8,4,R4.1_4*%
%TO.N,Net-(J4-Pin_1)*%
X263724800Y-196443600D03*
%TO.P,RN8,5,R4.2_5*%
%TO.N,Net-(RN1-R1)*%
X261924800Y-196443600D03*
D32*
%TO.P,RN8,6,R3.2_6*%
%TO.N,Net-(RN1-R2)*%
X261924800Y-197243600D03*
%TO.P,RN8,7,R2.2_7*%
%TO.N,Net-(RN1-R3)*%
X261924800Y-198043600D03*
D31*
%TO.P,RN8,8,R1.2_8*%
%TO.N,Net-(RN1-R4)*%
X261924800Y-198843600D03*
%TD*%
D25*
%TO.P,R3,1*%
%TO.N,Net-(C2-Pad1)*%
X238930200Y-98000800D03*
%TO.P,R3,2*%
%TO.N,Net-(J3-Pin_9)*%
X240755200Y-98000800D03*
%TD*%
D18*
%TO.P,U15,1,IO1_1*%
%TO.N,Net-(U15-IO1)*%
X249337400Y-150180000D03*
%TO.P,U15,2,VN_2*%
%TO.N,GND*%
X249337400Y-151130000D03*
%TO.P,U15,3,IO2_3*%
%TO.N,Net-(U15-IO2)*%
X249337400Y-152080000D03*
%TO.P,U15,4,IO3_4*%
%TO.N,Net-(U15-IO3)*%
X251612400Y-152080000D03*
%TO.P,U15,5,VP_5*%
%TO.N,+5V*%
X251612400Y-151130000D03*
%TO.P,U15,6,IO4_6*%
%TO.N,Net-(U15-IO4)*%
X251612400Y-150180000D03*
%TD*%
D22*
%TO.P,R95,1*%
%TO.N,Net-(U13-CH1_IN)*%
X164929200Y-49881800D03*
%TO.P,R95,2*%
%TO.N,VID_R2*%
X164929200Y-48056800D03*
%TD*%
D25*
%TO.P,R13,1*%
%TO.N,AUD_PWM_L2*%
X228398700Y-101041200D03*
%TO.P,R13,2*%
%TO.N,Net-(C47-Pad1)*%
X230223700Y-101041200D03*
%TD*%
D30*
%TO.P,SW2,1*%
%TO.N,GND*%
X79380000Y-63650000D03*
D24*
%TO.P,SW2,2*%
X79380000Y-66190000D03*
%TO.P,SW2,3*%
X79380000Y-68730000D03*
%TO.P,SW2,4*%
X79380000Y-71270000D03*
%TO.P,SW2,5*%
X79380000Y-73810000D03*
%TO.P,SW2,6*%
X79380000Y-76350000D03*
%TO.P,SW2,7*%
X79380000Y-78890000D03*
%TO.P,SW2,8*%
X79380000Y-81430000D03*
%TO.P,SW2,9*%
%TO.N,Net-(RN6-R8)*%
X87000000Y-81430000D03*
%TO.P,SW2,10*%
%TO.N,Net-(RN6-R7)*%
X87000000Y-78890000D03*
%TO.P,SW2,11*%
%TO.N,Net-(RN6-R6)*%
X87000000Y-76350000D03*
%TO.P,SW2,12*%
%TO.N,Net-(RN6-R5)*%
X87000000Y-73810000D03*
%TO.P,SW2,13*%
%TO.N,Net-(RN6-R4)*%
X87000000Y-71270000D03*
%TO.P,SW2,14*%
%TO.N,Net-(RN6-R3)*%
X87000000Y-68730000D03*
%TO.P,SW2,15*%
%TO.N,Net-(RN6-R2)*%
X87000000Y-66190000D03*
%TO.P,SW2,16*%
%TO.N,Net-(RN6-R1)*%
X87000000Y-63650000D03*
%TD*%
D18*
%TO.P,U19,1,IO1_1*%
%TO.N,Net-(U19-IO1)*%
X249458900Y-55692000D03*
%TO.P,U19,2,VN_2*%
%TO.N,GND*%
X249458900Y-56642000D03*
%TO.P,U19,3,IO2_3*%
%TO.N,Net-(U19-IO2)*%
X249458900Y-57592000D03*
%TO.P,U19,4,IO3_4*%
%TO.N,Net-(U19-IO3)*%
X251733900Y-57592000D03*
%TO.P,U19,5,VP_5*%
%TO.N,+5V*%
X251733900Y-56642000D03*
%TO.P,U19,6,IO4_6*%
%TO.N,Net-(U19-IO4)*%
X251733900Y-55692000D03*
%TD*%
D25*
%TO.P,R1,1*%
%TO.N,Net-(U14-CH0)*%
X238930200Y-87500800D03*
%TO.P,R1,2*%
%TO.N,Net-(J3-Pin_2)*%
X240755200Y-87500800D03*
%TD*%
D22*
%TO.P,R97,1*%
%TO.N,Net-(U13-CH2_IN)*%
X169929200Y-49881800D03*
%TO.P,R97,2*%
%TO.N,VID_B3*%
X169929200Y-48056800D03*
%TD*%
D19*
%TO.P,C24,1*%
%TO.N,Net-(RN10-R1.2)*%
X253390400Y-166456400D03*
%TO.P,C24,2*%
%TO.N,Net-(U5-IO4)*%
X253390400Y-164556400D03*
%TD*%
D35*
%TO.P,C44,1*%
%TO.N,+5V*%
X192631800Y-35052000D03*
%TO.P,C44,2*%
%TO.N,GND*%
X195581800Y-35052000D03*
%TD*%
D21*
%TO.P,TP1,1,1_1*%
%TO.N,+12V*%
X78282800Y-126593600D03*
%TD*%
D31*
%TO.P,RN11,1,R1.1_1*%
%TO.N,Net-(J5-Pin_5)*%
X262048400Y-64376000D03*
D32*
%TO.P,RN11,2,R2.1_2*%
%TO.N,Net-(J5-Pin_6)*%
X262048400Y-63576000D03*
%TO.P,RN11,3,R3.1_3*%
%TO.N,Net-(J5-Pin_7)*%
X262048400Y-62776000D03*
D31*
%TO.P,RN11,4,R4.1_4*%
%TO.N,Net-(J5-Pin_8)*%
X262048400Y-61976000D03*
%TO.P,RN11,5,R4.2_5*%
%TO.N,Net-(RN11-R4.2)*%
X260248400Y-61976000D03*
D32*
%TO.P,RN11,6,R3.2_6*%
%TO.N,Net-(RN11-R3.2)*%
X260248400Y-62776000D03*
%TO.P,RN11,7,R2.2_7*%
%TO.N,Net-(RN11-R2.2)*%
X260248400Y-63576000D03*
D31*
%TO.P,RN11,8,R1.2_8*%
%TO.N,Net-(RN11-R1.2)*%
X260248400Y-64376000D03*
%TD*%
D16*
%TO.P,JP2,1,A_1*%
%TO.N,SYNC_CSYNC_N*%
X63000000Y-45850000D03*
D17*
%TO.P,JP2,2,B_2*%
%TO.N,GND*%
X63000000Y-48390000D03*
%TD*%
D14*
%TO.P,D35,1,K_1*%
%TO.N,GND*%
X151093200Y-42824400D03*
%TO.P,D35,2,A_2*%
%TO.N,LED_CALIB*%
X151093200Y-44874400D03*
%TD*%
D25*
%TO.P,R11,1*%
%TO.N,Net-(C47-Pad1)*%
X228449500Y-93573600D03*
%TO.P,R11,2*%
%TO.N,Net-(J3_DOT1-Pin_10)*%
X230274500Y-93573600D03*
%TD*%
D19*
%TO.P,C33,1*%
%TO.N,Net-(RN14-R4.2)*%
X239217200Y-125034000D03*
%TO.P,C33,2*%
%TO.N,Net-(U22-IO2)*%
X239217200Y-123134000D03*
%TD*%
D37*
%TO.P,U25,1,IN_1*%
%TO.N,Net-(U25-IN)*%
X77571600Y-113842800D03*
D38*
%TO.P,U25,2,GND_2*%
%TO.N,GND*%
X80111600Y-113842800D03*
%TO.P,U25,3,OUT_3*%
%TO.N,+3.3V*%
X82651600Y-113842800D03*
%TD*%
D27*
%TO.P,C2,1*%
%TO.N,Net-(C2-Pad1)*%
X243855200Y-92500800D03*
%TO.P,C2,2*%
%TO.N,GND*%
X245755200Y-92500800D03*
%TD*%
D19*
%TO.P,C22,1*%
%TO.N,Net-(RN10-R3.2)*%
X243433600Y-167066000D03*
%TO.P,C22,2*%
%TO.N,Net-(U5-IO1)*%
X243433600Y-165166000D03*
%TD*%
D27*
%TO.P,C45,1*%
%TO.N,Net-(C45-Pad1)*%
X243855200Y-108000800D03*
%TO.P,C45,2*%
%TO.N,GND*%
X245755200Y-108000800D03*
%TD*%
D25*
%TO.P,R5,1*%
%TO.N,AUD_PWM_R1*%
X238930200Y-108000800D03*
%TO.P,R5,2*%
%TO.N,Net-(C45-Pad1)*%
X240755200Y-108000800D03*
%TD*%
D22*
%TO.P,R99,1*%
%TO.N,Net-(U13-CH2_IN)*%
X174929200Y-49881800D03*
%TO.P,R99,2*%
%TO.N,VID_B1*%
X174929200Y-48056800D03*
%TD*%
%TO.P,R103,1*%
%TO.N,+3.3V*%
X184879200Y-49881800D03*
%TO.P,R103,2*%
%TO.N,Out_En_N*%
X184879200Y-48056800D03*
%TD*%
D27*
%TO.P,C3,1*%
%TO.N,Net-(J3-Pin_9)*%
X243855200Y-98000800D03*
%TO.P,C3,2*%
%TO.N,GND*%
X245755200Y-98000800D03*
%TD*%
D23*
%TO.P,RN3,1,common_1*%
%TO.N,+5V*%
X225958400Y-77520800D03*
D24*
%TO.P,RN3,2,R1_2*%
%TO.N,Net-(RN11-R4.2)*%
X225958400Y-74980800D03*
%TO.P,RN3,3,R2_3*%
%TO.N,Net-(RN11-R3.2)*%
X225958400Y-72440800D03*
%TO.P,RN3,4,R3_4*%
%TO.N,Net-(RN11-R2.2)*%
X225958400Y-69900800D03*
%TO.P,RN3,5,R4_5*%
%TO.N,Net-(RN11-R1.2)*%
X225958400Y-67360800D03*
%TO.P,RN3,6,R5_6*%
%TO.N,Net-(RN12-R4.2)*%
X225958400Y-64820800D03*
%TO.P,RN3,7,R6_7*%
%TO.N,Net-(RN12-R3.2)*%
X225958400Y-62280800D03*
%TO.P,RN3,8,R7_8*%
%TO.N,Net-(RN12-R2.2)*%
X225958400Y-59740800D03*
%TO.P,RN3,9,R8_9*%
%TO.N,Net-(RN12-R1.2)*%
X225958400Y-57200800D03*
%TD*%
D20*
%TO.P,C5,1*%
%TO.N,+12V*%
X50272100Y-99161600D03*
D21*
%TO.P,C5,2*%
%TO.N,GND*%
X45272100Y-99161600D03*
%TD*%
D19*
%TO.P,C12,1*%
%TO.N,Net-(RN1-R4)*%
X252780800Y-196667200D03*
%TO.P,C12,2*%
%TO.N,Net-(U16-IO4)*%
X252780800Y-194767200D03*
%TD*%
D36*
%TO.P,U10,1,I1_1*%
%TO.N,Net-(U10-I1)*%
X229663200Y-17576800D03*
%TO.P,U10,2,I2_2*%
%TO.N,Net-(U10-I2)*%
X229663200Y-18846800D03*
%TO.P,U10,3,I3_3*%
%TO.N,Net-(U10-I3)*%
X229663200Y-20116800D03*
%TO.P,U10,4,I4_4*%
%TO.N,Net-(U10-I4)*%
X229663200Y-21386800D03*
%TO.P,U10,5,I5_5*%
%TO.N,Net-(U10-I5)*%
X229663200Y-22656800D03*
%TO.P,U10,6,I6_6*%
%TO.N,Net-(U10-I6)*%
X229663200Y-23926800D03*
%TO.P,U10,7,I7_7*%
%TO.N,Net-(U10-I7)*%
X229663200Y-25196800D03*
%TO.P,U10,8,I8_8*%
%TO.N,Net-(U10-I8)*%
X229663200Y-26466800D03*
%TO.P,U10,9,GND_9*%
%TO.N,GND*%
X229663200Y-27736800D03*
%TO.P,U10,10,COM_10*%
%TO.N,+12V*%
X238963200Y-27736800D03*
%TO.P,U10,11,O8_11*%
%TO.N,unconnected-(U10-O8-Pad11)*%
X238963200Y-26466800D03*
%TO.P,U10,12,O7_12*%
%TO.N,unconnected-(U10-O7-Pad12)*%
X238963200Y-25196800D03*
%TO.P,U10,13,O6_13*%
%TO.N,unconnected-(U10-O6-Pad13)*%
X238963200Y-23926800D03*
%TO.P,U10,14,O5_14*%
%TO.N,Start 3 Lamp*%
X238963200Y-22656800D03*
%TO.P,U10,15,O4_15*%
%TO.N,Start 2 Lamp*%
X238963200Y-21386800D03*
%TO.P,U10,16,O3_16*%
%TO.N,Start 1 Lamp*%
X238963200Y-20116800D03*
%TO.P,U10,17,O2_17*%
%TO.N,Coin_Meter_Return*%
X238963200Y-18846800D03*
%TO.P,U10,18,O1_18*%
%TO.N,Coin_Meter*%
X238963200Y-17576800D03*
%TD*%
D27*
%TO.P,C42,1*%
%TO.N,+5V*%
X193070400Y-40894000D03*
%TO.P,C42,2*%
%TO.N,GND*%
X194970400Y-40894000D03*
%TD*%
D26*
%TO.P,C31,1*%
%TO.N,Net-(RN12-R2.2)*%
X247599200Y-69118400D03*
%TO.P,C31,2*%
%TO.N,Net-(U19-IO3)*%
X247599200Y-71018400D03*
%TD*%
D19*
%TO.P,C21,1*%
%TO.N,Net-(RN10-R4.2)*%
X238302800Y-167218400D03*
%TO.P,C21,2*%
%TO.N,Net-(U5-IO2)*%
X238302800Y-165318400D03*
%TD*%
D26*
%TO.P,C32,1*%
%TO.N,Net-(RN12-R1.2)*%
X254406400Y-69220000D03*
%TO.P,C32,2*%
%TO.N,Net-(U19-IO4)*%
X254406400Y-71120000D03*
%TD*%
D28*
%TO.P,D1,1,K_1*%
%TO.N,GND*%
X89712800Y-135899000D03*
%TO.P,D1,2,A_2*%
%TO.N,Net-(D1-A)*%
X89712800Y-133849000D03*
%TD*%
D39*
%TO.P,SW4,1,A_1*%
%TO.N,unconnected-(SW4A-A-Pad1)*%
X207907800Y-21172800D03*
%TO.P,SW4,2,B_2*%
%TO.N,GND*%
X207907800Y-23672800D03*
%TO.P,SW4,3,C_3*%
%TO.N,Service Switch*%
X207907800Y-26172800D03*
%TD*%
D26*
%TO.P,C27,1*%
%TO.N,Net-(RN11-R2.2)*%
X248056400Y-62565200D03*
%TO.P,C27,2*%
%TO.N,Net-(U18-IO3)*%
X248056400Y-64465200D03*
%TD*%
D21*
%TO.P,TP8,1,1_1*%
%TO.N,Net-(J2_RGBS_Out1-Pin_9)*%
X191973200Y-24587200D03*
%TD*%
D27*
%TO.P,C46,1*%
%TO.N,Net-(C46-Pad1)*%
X223992400Y-97129600D03*
%TO.P,C46,2*%
%TO.N,GND*%
X225892400Y-97129600D03*
%TD*%
D18*
%TO.P,U16,1,IO1_1*%
%TO.N,Net-(U16-IO1)*%
X237114500Y-180564700D03*
%TO.P,U16,2,VN_2*%
%TO.N,GND*%
X237114500Y-181514700D03*
%TO.P,U16,3,IO2_3*%
%TO.N,Net-(U16-IO2)*%
X237114500Y-182464700D03*
%TO.P,U16,4,IO3_4*%
%TO.N,Net-(U16-IO3)*%
X239389500Y-182464700D03*
%TO.P,U16,5,VP_5*%
%TO.N,+5V*%
X239389500Y-181514700D03*
%TO.P,U16,6,IO4_6*%
%TO.N,Net-(U16-IO4)*%
X239389500Y-180564700D03*
%TD*%
D27*
%TO.P,C47,1*%
%TO.N,Net-(C47-Pad1)*%
X223890800Y-100990400D03*
%TO.P,C47,2*%
%TO.N,GND*%
X225790800Y-100990400D03*
%TD*%
D18*
%TO.P,U17,1,IO1_1*%
%TO.N,Net-(U17-IO1)*%
X246340200Y-180614400D03*
%TO.P,U17,2,VN_2*%
%TO.N,GND*%
X246340200Y-181564400D03*
%TO.P,U17,3,IO2_3*%
%TO.N,Net-(U17-IO2)*%
X246340200Y-182514400D03*
%TO.P,U17,4,IO3_4*%
%TO.N,Net-(U17-IO3)*%
X248615200Y-182514400D03*
%TO.P,U17,5,VP_5*%
%TO.N,+5V*%
X248615200Y-181564400D03*
%TO.P,U17,6,IO4_6*%
%TO.N,Net-(U17-IO4)*%
X248615200Y-180614400D03*
%TD*%
D19*
%TO.P,C16,1*%
%TO.N,Net-(RN1-R8)*%
X252882400Y-190215600D03*
%TO.P,C16,2*%
%TO.N,Net-(U17-IO4)*%
X252882400Y-188315600D03*
%TD*%
D22*
%TO.P,R93,1*%
%TO.N,VID_VS*%
X159929200Y-49881800D03*
%TO.P,R93,2*%
%TO.N,Net-(U12-CH2_IN)*%
X159929200Y-48056800D03*
%TD*%
D31*
%TO.P,RN13,1,R1.1_1*%
%TO.N,Net-(J6-Pin_1)*%
X263318400Y-133045200D03*
D32*
%TO.P,RN13,2,R2.1_2*%
%TO.N,Net-(J6-Pin_2)*%
X263318400Y-132245200D03*
%TO.P,RN13,3,R3.1_3*%
%TO.N,Net-(J6-Pin_3)*%
X263318400Y-131445200D03*
D31*
%TO.P,RN13,4,R4.1_4*%
%TO.N,Net-(J6-Pin_4)*%
X263318400Y-130645200D03*
%TO.P,RN13,5,R4.2_5*%
%TO.N,Net-(RN13-R4.2)*%
X261518400Y-130645200D03*
D32*
%TO.P,RN13,6,R3.2_6*%
%TO.N,Net-(RN13-R3.2)*%
X261518400Y-131445200D03*
%TO.P,RN13,7,R2.2_7*%
%TO.N,Net-(RN13-R2.2)*%
X261518400Y-132245200D03*
D31*
%TO.P,RN13,8,R1.2_8*%
%TO.N,Net-(RN13-R1.2)*%
X261518400Y-133045200D03*
%TD*%
D33*
%TO.P,R7,1*%
%TO.N,+5V*%
X92608400Y-96993200D03*
%TO.P,R7,2*%
%TO.N,Net-(D2-A)*%
X92608400Y-98993200D03*
%TD*%
D19*
%TO.P,C38,1*%
%TO.N,Net-(RN13-R3.2)*%
X244297200Y-130505200D03*
%TO.P,C38,2*%
%TO.N,Net-(U23-IO1)*%
X244297200Y-128605200D03*
%TD*%
%TO.P,C13,1*%
%TO.N,Net-(RN1-R5)*%
X236220000Y-190215600D03*
%TO.P,C13,2*%
%TO.N,Net-(U17-IO2)*%
X236220000Y-188315600D03*
%TD*%
D22*
%TO.P,R101,1*%
%TO.N,Net-(U13-CH3_IN)*%
X179929200Y-49881800D03*
%TO.P,R101,2*%
%TO.N,VID_G2*%
X179929200Y-48056800D03*
%TD*%
D15*
%TO.P,L2,1*%
%TO.N,+12V*%
X57962800Y-115671600D03*
%TO.P,L2,2*%
%TO.N,Net-(U25-IN)*%
X67662800Y-115671600D03*
%TD*%
D16*
%TO.P,J3_DOT1,1,Pin_1_1*%
%TO.N,+5V*%
X253949200Y-106222800D03*
D17*
%TO.P,J3_DOT1,2,Pin_2_2*%
%TO.N,Net-(J3-Pin_2)*%
X253949200Y-103682800D03*
%TO.P,J3_DOT1,3,Pin_3_3*%
%TO.N,GND*%
X253949200Y-101142800D03*
%TO.P,J3_DOT1,4,Pin_4_4*%
%TO.N,unconnected-(J3_DOT1-Pin_4-Pad4)*%
X253949200Y-98602800D03*
%TO.P,J3_DOT1,5,Pin_5_5*%
%TO.N,GND*%
X253949200Y-96062800D03*
%TO.P,J3_DOT1,6,Pin_6_6*%
%TO.N,Net-(J3-Pin_7)*%
X253949200Y-93522800D03*
%TO.P,J3_DOT1,7,Pin_7_7*%
%TO.N,Net-(J3-Pin_9)*%
X253949200Y-90982800D03*
%TO.P,J3_DOT1,8,Pin_8_8*%
%TO.N,GND*%
X253949200Y-88442800D03*
%TO.P,J3_DOT1,9,Pin_9_9*%
%TO.N,Net-(J3_DOT1-Pin_9)*%
X253949200Y-85902800D03*
%TO.P,J3_DOT1,10,Pin_10_10*%
%TO.N,Net-(J3_DOT1-Pin_10)*%
X253949200Y-83362800D03*
%TD*%
D26*
%TO.P,C29,1*%
%TO.N,Net-(RN12-R4.2)*%
X235356400Y-68849200D03*
%TO.P,C29,2*%
%TO.N,Net-(U19-IO2)*%
X235356400Y-70749200D03*
%TD*%
D25*
%TO.P,R10,1*%
%TO.N,Net-(C46-Pad1)*%
X228449500Y-90017600D03*
%TO.P,R10,2*%
%TO.N,Net-(J3_DOT1-Pin_9)*%
X230274500Y-90017600D03*
%TD*%
D21*
%TO.P,TP4,1,1_1*%
%TO.N,GND*%
X77876400Y-136702800D03*
%TD*%
D19*
%TO.P,C25,1*%
%TO.N,Net-(RN11-R4.2)*%
X235422400Y-64246800D03*
%TO.P,C25,2*%
%TO.N,Net-(U18-IO2)*%
X235422400Y-62346800D03*
%TD*%
D25*
%TO.P,R4,1*%
%TO.N,Net-(C45-Pad1)*%
X238930200Y-103050800D03*
%TO.P,R4,2*%
%TO.N,Net-(J3-Pin_7)*%
X240755200Y-103050800D03*
%TD*%
D40*
%TO.P,D4,1,K_1*%
%TO.N,Net-(D4-K)*%
X117016800Y-132791200D03*
%TO.P,D4,2,A_2*%
%TO.N,+5V*%
X113716800Y-132791200D03*
%TD*%
D27*
%TO.P,C6,1*%
%TO.N,Net-(J3_DOT1-Pin_9)*%
X224094000Y-90119200D03*
%TO.P,C6,2*%
%TO.N,GND*%
X225994000Y-90119200D03*
%TD*%
D23*
%TO.P,J1-VGAOut1,1*%
%TO.N,Net-(J2_RGBS_Out1-Pin_1)*%
X127304800Y-26304400D03*
D24*
%TO.P,J1-VGAOut1,2*%
%TO.N,Net-(J2_RGBS_Out1-Pin_3)*%
X129594800Y-26304400D03*
%TO.P,J1-VGAOut1,3*%
%TO.N,Net-(J2_RGBS_Out1-Pin_5)*%
X131884800Y-26304400D03*
%TO.P,J1-VGAOut1,4*%
%TO.N,unconnected-(J1-VGAOut1-Pad4)*%
X134174800Y-26304400D03*
%TO.P,J1-VGAOut1,5*%
%TO.N,GND*%
X136464800Y-26304400D03*
%TO.P,J1-VGAOut1,6*%
X126159800Y-24404400D03*
%TO.P,J1-VGAOut1,7*%
X128449800Y-24404400D03*
%TO.P,J1-VGAOut1,8*%
X130739800Y-24404400D03*
%TO.P,J1-VGAOut1,9*%
%TO.N,unconnected-(J1-VGAOut1-Pad9)*%
X133029800Y-24404400D03*
%TO.P,J1-VGAOut1,10*%
%TO.N,GND*%
X135319800Y-24404400D03*
%TO.P,J1-VGAOut1,11*%
%TO.N,unconnected-(J1-VGAOut1-Pad11)*%
X127304800Y-22504400D03*
%TO.P,J1-VGAOut1,12*%
%TO.N,unconnected-(J1-VGAOut1-Pad12)*%
X129594800Y-22504400D03*
%TO.P,J1-VGAOut1,13*%
%TO.N,Net-(J2_RGBS_Out1-Pin_8)*%
X131884800Y-22504400D03*
%TO.P,J1-VGAOut1,14*%
%TO.N,Net-(J2_RGBS_Out1-Pin_9)*%
X134174800Y-22504400D03*
%TO.P,J1-VGAOut1,15*%
%TO.N,unconnected-(J1-VGAOut1-Pad15)*%
X136464800Y-22504400D03*
D41*
%TO.P,J1-VGAOut1,SH*%
%TO.N,N/C*%
X144119800Y-24414400D03*
X119119800Y-24414400D03*
%TD*%
D26*
%TO.P,C26,1*%
%TO.N,Net-(RN11-R3.2)*%
X241518400Y-62491000D03*
%TO.P,C26,2*%
%TO.N,Net-(U18-IO1)*%
X241518400Y-64391000D03*
%TD*%
D25*
%TO.P,R12,1*%
%TO.N,AUD_PWM_R2*%
X228449500Y-97231200D03*
%TO.P,R12,2*%
%TO.N,Net-(C46-Pad1)*%
X230274500Y-97231200D03*
%TD*%
D42*
%TO.P,U3,1,~{PL}_1*%
%TO.N,IN_LOAD_N*%
X210159600Y-69720000D03*
%TO.P,U3,2,CP_2*%
%TO.N,IN_CLK*%
X211429600Y-69720000D03*
%TO.P,U3,3,D4_3*%
%TO.N,Net-(RN11-R1.2)*%
X212699600Y-69720000D03*
%TO.P,U3,4,D5_4*%
%TO.N,Net-(RN11-R2.2)*%
X213969600Y-69720000D03*
%TO.P,U3,5,D6_5*%
%TO.N,Net-(RN11-R3.2)*%
X215239600Y-69720000D03*
%TO.P,U3,6,D7_6*%
%TO.N,Net-(RN11-R4.2)*%
X216509600Y-69720000D03*
%TO.P,U3,7,~{Q7}_7*%
%TO.N,unconnected-(U3-~{Q7}-Pad7)*%
X217779600Y-69720000D03*
%TO.P,U3,8,GND_8*%
%TO.N,GND*%
X219049600Y-69720000D03*
%TO.P,U3,9,Q7_9*%
%TO.N,J5_Input_Stream*%
X219049600Y-64770000D03*
%TO.P,U3,10,DS_10*%
%TO.N,J4_Input_Stream*%
X217779600Y-64770000D03*
%TO.P,U3,11,D0_11*%
%TO.N,Net-(RN12-R1.2)*%
X216509600Y-64770000D03*
%TO.P,U3,12,D1_12*%
%TO.N,Net-(RN12-R2.2)*%
X215239600Y-64770000D03*
%TO.P,U3,13,D2_13*%
%TO.N,Net-(RN12-R3.2)*%
X213969600Y-64770000D03*
%TO.P,U3,14,D3_14*%
%TO.N,Net-(RN12-R4.2)*%
X212699600Y-64770000D03*
%TO.P,U3,15,~{CE}_15*%
%TO.N,GND*%
X211429600Y-64770000D03*
%TO.P,U3,16,VCC_16*%
%TO.N,+3.3V*%
X210159600Y-64770000D03*
%TD*%
D13*
%TO.P,U12,1,CH1_IN_1*%
%TO.N,Net-(U12-CH1_IN)*%
X158038800Y-36372800D03*
%TO.P,U12,2,CH2_IN_2*%
%TO.N,Net-(U12-CH2_IN)*%
X158038800Y-37022800D03*
%TO.P,U12,3,CH3_IN_3*%
%TO.N,GND*%
X158038800Y-37672800D03*
%TO.P,U12,4,CH4_IN_4*%
X158038800Y-38322800D03*
%TO.P,U12,5,GND_5*%
X158038800Y-38972800D03*
%TO.P,U12,6,DISABLE_6*%
X158038800Y-39622800D03*
%TO.P,U12,7,NC_7*%
%TO.N,unconnected-(U12-NC-Pad7)*%
X158038800Y-40272800D03*
%TO.P,U12,8,NC_8*%
%TO.N,unconnected-(U12-NC-Pad8)*%
X163763800Y-40272800D03*
%TO.P,U12,9,BYPASS_9*%
%TO.N,GND*%
X163763800Y-39622800D03*
%TO.P,U12,10,V_{S+}_10*%
%TO.N,+5V*%
X163763800Y-38972800D03*
%TO.P,U12,11,CH4_OUT_11*%
%TO.N,unconnected-(U12-CH4_OUT-Pad11)*%
X163763800Y-38322800D03*
%TO.P,U12,12,CH3_OUT_12*%
%TO.N,unconnected-(U12-CH3_OUT-Pad12)*%
X163763800Y-37672800D03*
%TO.P,U12,13,CH2_OUT_13*%
%TO.N,Net-(J2_RGBS_Out1-Pin_9)*%
X163763800Y-37022800D03*
%TO.P,U12,14,CH1_OUT_14*%
%TO.N,Net-(J2_RGBS_Out1-Pin_8)*%
X163763800Y-36372800D03*
%TD*%
D31*
%TO.P,RN10,1,R1.1_1*%
%TO.N,Net-(J4-Pin_10)*%
X263956800Y-166179200D03*
D32*
%TO.P,RN10,2,R2.1_2*%
%TO.N,Net-(J4-Pin_11)*%
X263956800Y-165379200D03*
%TO.P,RN10,3,R3.1_3*%
%TO.N,Net-(J4-Pin_12)*%
X263956800Y-164579200D03*
D31*
%TO.P,RN10,4,R4.1_4*%
%TO.N,Net-(J4-Pin_13)*%
X263956800Y-163779200D03*
%TO.P,RN10,5,R4.2_5*%
%TO.N,Net-(RN10-R4.2)*%
X262156800Y-163779200D03*
D32*
%TO.P,RN10,6,R3.2_6*%
%TO.N,Net-(RN10-R3.2)*%
X262156800Y-164579200D03*
%TO.P,RN10,7,R2.2_7*%
%TO.N,Net-(RN10-R2.2)*%
X262156800Y-165379200D03*
D31*
%TO.P,RN10,8,R1.2_8*%
%TO.N,Net-(RN10-R1.2)*%
X262156800Y-166179200D03*
%TD*%
D12*
%TO.P,U9,1,QB_1*%
%TO.N,Net-(U11-I2)*%
X218671600Y-35458400D03*
%TO.P,U9,2,QC_2*%
%TO.N,Net-(U11-I3)*%
X218671600Y-36728400D03*
%TO.P,U9,3,QD_3*%
%TO.N,Net-(U11-I4)*%
X218671600Y-37998400D03*
%TO.P,U9,4,QE_4*%
%TO.N,Net-(U11-I5)*%
X218671600Y-39268400D03*
%TO.P,U9,5,QF_5*%
%TO.N,Net-(U11-I6)*%
X218671600Y-40538400D03*
%TO.P,U9,6,QG_6*%
%TO.N,Net-(U11-I7)*%
X218671600Y-41808400D03*
%TO.P,U9,7,QH_7*%
%TO.N,Net-(U11-I8)*%
X218671600Y-43078400D03*
%TO.P,U9,8,GND_8*%
%TO.N,GND*%
X218671600Y-44348400D03*
%TO.P,U9,9,QH'_9*%
%TO.N,unconnected-(U9-QH'-Pad9)*%
X223621600Y-44348400D03*
%TO.P,U9,10,~{SRCLR}_10*%
%TO.N,Out_Clear*%
X223621600Y-43078400D03*
%TO.P,U9,11,SRCLK_11*%
%TO.N,Out_Clock*%
X223621600Y-41808400D03*
%TO.P,U9,12,RCLK_12*%
%TO.N,Out_Latch*%
X223621600Y-40538400D03*
%TO.P,U9,13,~{OE}_13*%
%TO.N,Out_En_N*%
X223621600Y-39268400D03*
%TO.P,U9,14,SER_14*%
%TO.N,Net-(U8-QH')*%
X223621600Y-37998400D03*
%TO.P,U9,15,QA_15*%
%TO.N,Net-(U11-I1)*%
X223621600Y-36728400D03*
%TO.P,U9,16,VCC_16*%
%TO.N,+5V*%
X223621600Y-35458400D03*
%TD*%
D31*
%TO.P,RN7,1,R1.1_1*%
%TO.N,Net-(J4-Pin_5)*%
X263315600Y-187776000D03*
D32*
%TO.P,RN7,2,R2.1_2*%
%TO.N,Net-(J4-Pin_6)*%
X263315600Y-186976000D03*
%TO.P,RN7,3,R3.1_3*%
%TO.N,Net-(J4-Pin_7)*%
X263315600Y-186176000D03*
D31*
%TO.P,RN7,4,R4.1_4*%
%TO.N,Net-(J4-Pin_8)*%
X263315600Y-185376000D03*
%TO.P,RN7,5,R4.2_5*%
%TO.N,Net-(RN1-R8)*%
X261515600Y-185376000D03*
D32*
%TO.P,RN7,6,R3.2_6*%
%TO.N,Net-(RN1-R7)*%
X261515600Y-186176000D03*
%TO.P,RN7,7,R2.2_7*%
%TO.N,Net-(RN1-R6)*%
X261515600Y-186976000D03*
D31*
%TO.P,RN7,8,R1.2_8*%
%TO.N,Net-(RN1-R5)*%
X261515600Y-187776000D03*
%TD*%
D21*
%TO.P,TP9,1,1_1*%
%TO.N,GND*%
X256946400Y-142138400D03*
%TD*%
D16*
%TO.P,J5,1,Pin_1_1*%
%TO.N,/1 Plyr Move Left*%
X273000000Y-75540000D03*
D17*
%TO.P,J5,2,Pin_2_2*%
%TO.N,/1 Plyr Move Right*%
X273000000Y-73000000D03*
%TO.P,J5,3,Pin_3_3*%
%TO.N,/1 Plyr Move Up*%
X273000000Y-70460000D03*
%TO.P,J5,4,Pin_4_4*%
%TO.N,/1 Plyr Move Down*%
X273000000Y-67920000D03*
%TO.P,J5,5,Pin_5_5*%
%TO.N,Net-(J5-Pin_5)*%
X273000000Y-65380000D03*
%TO.P,J5,6,Pin_6_6*%
%TO.N,Net-(J5-Pin_6)*%
X273000000Y-62840000D03*
%TO.P,J5,7,Pin_7_7*%
%TO.N,Net-(J5-Pin_7)*%
X273000000Y-60300000D03*
%TO.P,J5,8,Pin_8_8*%
%TO.N,Net-(J5-Pin_8)*%
X273000000Y-57760000D03*
%TO.P,J5,9,Pin_9_9*%
%TO.N,unconnected-(J5-Pin_9-Pad9)*%
X273000000Y-55220000D03*
%TO.P,J5,10,Pin_10_10*%
%TO.N,MD0*%
X273000000Y-52680000D03*
%TO.P,J5,11,Pin_11_11*%
%TO.N,MD1*%
X273000000Y-50140000D03*
%TO.P,J5,12,Pin_12_12*%
%TO.N,MD2*%
X273000000Y-47600000D03*
%TO.P,J5,13,Pin_13_13*%
%TO.N,MD3*%
X273000000Y-45060000D03*
%TO.P,J5,14,Pin_14_14*%
%TO.N,ST0*%
X273000000Y-42520000D03*
%TO.P,J5,15,Pin_15_15*%
%TO.N,ST1*%
X273000000Y-39980000D03*
%TO.P,J5,16,Pin_16_16*%
%TO.N,ARD*%
X273000000Y-37440000D03*
%TO.P,J5,17,Pin_17_17*%
%TO.N,SEL*%
X273000000Y-34900000D03*
%TO.P,J5,18,Pin_18_18*%
%TO.N,unconnected-(J5-Pin_18-Pad18)*%
X273000000Y-32360000D03*
%TO.P,J5,19,Pin_19_19*%
%TO.N,unconnected-(J5-Pin_19-Pad19)*%
X273000000Y-29820000D03*
%TO.P,J5,20,Pin_20_20*%
%TO.N,Coin_Meter*%
X273000000Y-27280000D03*
%TO.P,J5,21,Pin_21_21*%
%TO.N,Coin_Meter_Return*%
X273000000Y-24740000D03*
%TO.P,J5,22,Pin_22_22*%
%TO.N,unconnected-(J5-Pin_22-Pad22)*%
X273000000Y-22200000D03*
%TO.P,J5,23,Pin_23_23*%
%TO.N,unconnected-(J5-Pin_23-Pad23)*%
X273000000Y-19660000D03*
%TD*%
D16*
%TO.P,J4,1,Pin_1_1*%
%TO.N,Net-(J4-Pin_1)*%
X273862800Y-197104000D03*
D17*
%TO.P,J4,2,Pin_2_2*%
%TO.N,Net-(J4-Pin_2)*%
X273862800Y-194564000D03*
%TO.P,J4,3,Pin_3_3*%
%TO.N,Net-(J4-Pin_3)*%
X273862800Y-192024000D03*
%TO.P,J4,4,Pin_4_4*%
%TO.N,Net-(J4-Pin_4)*%
X273862800Y-189484000D03*
%TO.P,J4,5,Pin_5_5*%
%TO.N,Net-(J4-Pin_5)*%
X273862800Y-186944000D03*
%TO.P,J4,6,Pin_6_6*%
%TO.N,Net-(J4-Pin_6)*%
X273862800Y-184404000D03*
%TO.P,J4,7,Pin_7_7*%
%TO.N,Net-(J4-Pin_7)*%
X273862800Y-181864000D03*
%TO.P,J4,8,Pin_8_8*%
%TO.N,Net-(J4-Pin_8)*%
X273862800Y-179324000D03*
%TO.P,J4,9,Pin_9_9*%
%TO.N,GND*%
X273862800Y-176784000D03*
%TO.P,J4,10,Pin_10_10*%
%TO.N,Net-(J4-Pin_10)*%
X273862800Y-174244000D03*
%TO.P,J4,11,Pin_11_11*%
%TO.N,Net-(J4-Pin_11)*%
X273862800Y-171704000D03*
%TO.P,J4,12,Pin_12_12*%
%TO.N,Net-(J4-Pin_12)*%
X273862800Y-169164000D03*
%TO.P,J4,13,Pin_13_13*%
%TO.N,Net-(J4-Pin_13)*%
X273862800Y-166624000D03*
%TO.P,J4,14,Pin_14_14*%
%TO.N,unconnected-(J4-Pin_14-Pad14)*%
X273862800Y-164084000D03*
%TO.P,J4,15,Pin_15_15*%
%TO.N,Net-(J4-Pin_15)*%
X273862800Y-161544000D03*
%TO.P,J4,16,Pin_16_16*%
%TO.N,Net-(J4-Pin_16)*%
X273862800Y-159004000D03*
%TO.P,J4,17,Pin_17_17*%
%TO.N,Net-(J4-Pin_17)*%
X273862800Y-156464000D03*
%TO.P,J4,18,Pin_18_18*%
%TO.N,Net-(J4-Pin_18)*%
X273862800Y-153924000D03*
%TO.P,J4,19,Pin_19_19*%
%TO.N,GND*%
X273862800Y-151384000D03*
%TD*%
D16*
%TO.P,J6,1,Pin_1_1*%
%TO.N,Net-(J6-Pin_1)*%
X273507200Y-140512800D03*
D17*
%TO.P,J6,2,Pin_2_2*%
%TO.N,Net-(J6-Pin_2)*%
X273507200Y-137972800D03*
%TO.P,J6,3,Pin_3_3*%
%TO.N,Net-(J6-Pin_3)*%
X273507200Y-135432800D03*
%TO.P,J6,4,Pin_4_4*%
%TO.N,Net-(J6-Pin_4)*%
X273507200Y-132892800D03*
%TO.P,J6,5,Pin_5_5*%
%TO.N,Net-(J6-Pin_5)*%
X273507200Y-130352800D03*
%TO.P,J6,6,Pin_6_6*%
%TO.N,Net-(J6-Pin_6)*%
X273507200Y-127812800D03*
%TO.P,J6,7,Pin_7_7*%
%TO.N,Net-(J6-Pin_7)*%
X273507200Y-125272800D03*
%TO.P,J6,8,Pin_8_8*%
%TO.N,unconnected-(J6-Pin_8-Pad8)*%
X273507200Y-122732800D03*
%TO.P,J6,9,Pin_9_9*%
%TO.N,Net-(J6-Pin_9)*%
X273507200Y-120192800D03*
%TO.P,J6,10,Pin_10_10*%
%TO.N,unconnected-(J6-Pin_10-Pad10)*%
X273507200Y-117652800D03*
%TD*%
D16*
%TO.P,J3,1,Pin_1_1*%
%TO.N,+5V*%
X273304000Y-105359200D03*
D17*
%TO.P,J3,2,Pin_2_2*%
%TO.N,Net-(J3-Pin_2)*%
X273304000Y-102819200D03*
%TO.P,J3,3,Pin_3_3*%
%TO.N,GND*%
X273304000Y-100279200D03*
%TO.P,J3,4,Pin_4_4*%
%TO.N,unconnected-(J3-Pin_4-Pad4)*%
X273304000Y-97739200D03*
%TO.P,J3,5,Pin_5_5*%
%TO.N,unconnected-(J3-Pin_5-Pad5)*%
X273304000Y-95199200D03*
%TO.P,J3,6,Pin_6_6*%
%TO.N,GND*%
X273304000Y-92659200D03*
%TO.P,J3,7,Pin_7_7*%
%TO.N,Net-(J3-Pin_7)*%
X273304000Y-90119200D03*
%TO.P,J3,8,Pin_8_8*%
%TO.N,unconnected-(J3-Pin_8-Pad8)*%
X273304000Y-87579200D03*
%TO.P,J3,9,Pin_9_9*%
%TO.N,Net-(J3-Pin_9)*%
X273304000Y-85039200D03*
%TD*%
D43*
%TO.N,IN_LOAD_N*%
X105001200Y-77089300D03*
X212931200Y-118741400D03*
X105500000Y-43608500D03*
X211377300Y-156371200D03*
X214415200Y-184705800D03*
X107467700Y-113585000D03*
X209488000Y-70970700D03*
%TO.N,IN_CLK*%
X104166700Y-42169200D03*
X106320500Y-74332400D03*
X211429600Y-68217000D03*
X211632200Y-121522400D03*
X212123100Y-182935500D03*
X106856800Y-111224900D03*
X211849800Y-153604600D03*
%TO.N,Net-(RN14-R1.2)*%
X253621400Y-124362900D03*
X260567400Y-118540500D03*
X214241900Y-122792400D03*
%TO.N,Net-(RN14-R2.2)*%
X260083400Y-117630300D03*
X250689700Y-126280500D03*
X214247400Y-124062400D03*
%TO.N,Net-(RN14-R3.2)*%
X260576100Y-116956800D03*
X214247400Y-125330800D03*
X243421400Y-125007000D03*
%TO.N,Net-(RN14-R4.2)*%
X214245000Y-126604000D03*
X238270800Y-124157900D03*
X258307600Y-116213000D03*
%TO.N,GND*%
X241554500Y-116340800D03*
X101869600Y-40832000D03*
X98298000Y-74980800D03*
X160336200Y-39622800D03*
X124358400Y-24638000D03*
X63855600Y-37693600D03*
X138176000Y-24688800D03*
X90639200Y-136825400D03*
X211429600Y-66249900D03*
X236117100Y-56243100D03*
X105500000Y-33065400D03*
X216394800Y-120853200D03*
X130454400Y-135382000D03*
X63144400Y-63246000D03*
X227911400Y-43674600D03*
X245155600Y-182193000D03*
X239220600Y-151093200D03*
X248272000Y-56292800D03*
X63042800Y-50901600D03*
X213735300Y-129277300D03*
X209036300Y-22544300D03*
X139165500Y-42824400D03*
X93529900Y-103851300D03*
X211874500Y-164124700D03*
X248151000Y-150780800D03*
X227685600Y-27736800D03*
X225272100Y-92461100D03*
X106919800Y-66954400D03*
X245755200Y-105300000D03*
X235948500Y-181167100D03*
X226687700Y-101887300D03*
X252100800Y-114580200D03*
X219970600Y-27604000D03*
X219884500Y-69665700D03*
X188825400Y-37422000D03*
X214245000Y-191964400D03*
X174276700Y-39633200D03*
X216122800Y-155629000D03*
X94785900Y-120131900D03*
X216559900Y-185682800D03*
%TO.N,J6_Input_Stream*%
X216400400Y-128303200D03*
X210772300Y-80564500D03*
X101851600Y-35819200D03*
X113598000Y-60759900D03*
%TO.N,J5_Input_Stream*%
X219862600Y-65583000D03*
X219703200Y-126537600D03*
%TO.N,Net-(RN13-R1.2)*%
X219157100Y-125305900D03*
X236544400Y-132719200D03*
%TO.N,Net-(RN13-R2.2)*%
X250680200Y-131503400D03*
X259024300Y-132123400D03*
X219195800Y-123992400D03*
%TO.N,Net-(RN13-R3.2)*%
X260107200Y-131520800D03*
X245211900Y-131419900D03*
%TO.N,Net-(RN13-R4.2)*%
X237547700Y-131747900D03*
X260603400Y-130858500D03*
%TO.N,+3.3V*%
X218454600Y-153604600D03*
X112522000Y-138125200D03*
X100050000Y-77094400D03*
X93522800Y-112890400D03*
X218690300Y-182934500D03*
X209345900Y-63956300D03*
X244353100Y-78053500D03*
X99183700Y-58336900D03*
X99735700Y-43584300D03*
X185775600Y-50778200D03*
X217881200Y-118748500D03*
%TO.N,+5V*%
X252783000Y-151479200D03*
X240742700Y-56941500D03*
X252906100Y-56292800D03*
X249791900Y-181913600D03*
X224444200Y-34635800D03*
X112522000Y-132740400D03*
X241401600Y-181965600D03*
X246183000Y-116340800D03*
X222618000Y-18125600D03*
X178128400Y-39132600D03*
X243841700Y-150143600D03*
X192631800Y-37422000D03*
X165008600Y-39122200D03*
X254555800Y-116143600D03*
X246318500Y-82673600D03*
%TO.N,Net-(J2_RGBS_Out1-Pin_3)*%
X174466300Y-37533800D03*
%TO.N,Net-(J2_RGBS_Out1-Pin_1)*%
X175008600Y-35674600D03*
X154371600Y-34042500D03*
%TO.N,LED_PIX*%
X114344600Y-121310400D03*
X145108400Y-45819200D03*
%TO.N,+12V*%
X238310500Y-45154900D03*
X238963200Y-28565600D03*
%TO.N,MODE_15N*%
X65283600Y-87477300D03*
%TO.N,Net-(U22-IO1)*%
X243740800Y-117551100D03*
X244652800Y-122116500D03*
%TO.N,Net-(U22-IO4)*%
X254660400Y-122209000D03*
X245802400Y-114247600D03*
%TO.N,Net-(RN1-R7)*%
X248101200Y-191124000D03*
X260595300Y-186419600D03*
X219197400Y-188154400D03*
%TO.N,Net-(U14-CH0)*%
X240490000Y-86278700D03*
X237520400Y-78923000D03*
%TO.N,ADC_A0*%
X142493200Y-102132400D03*
X243795500Y-81273200D03*
%TO.N,ADC_A1*%
X137699800Y-103093000D03*
X246318500Y-80723600D03*
%TO.N,ADC_SCL*%
X243303900Y-80388700D03*
X162517600Y-101476900D03*
%TO.N,ADC_SDA*%
X243571200Y-79571400D03*
X157341200Y-102111200D03*
%TO.N,VID_G3*%
X132826700Y-95625800D03*
X178137300Y-45916900D03*
%TO.N,Net-(RN5-R1)*%
X103414000Y-37071400D03*
%TO.N,Net-(RN5-R2)*%
X99109300Y-37210600D03*
%TO.N,Net-(RN5-R3)*%
X97949200Y-39630800D03*
%TO.N,Net-(RN5-R4)*%
X101837600Y-39589400D03*
%TO.N,AUD_PWM_L1*%
X238015900Y-93640100D03*
%TO.N,Net-(RN1-R4)*%
X251532300Y-196377200D03*
X214428000Y-186416200D03*
%TO.N,Net-(RN1-R3)*%
X260027500Y-197961500D03*
X246385500Y-197576100D03*
X214242100Y-188222800D03*
%TO.N,Net-(RN1-R2)*%
X260986500Y-197243600D03*
X214247400Y-189492800D03*
X241065000Y-195873400D03*
%TO.N,Net-(RN1-R1)*%
X260650400Y-196443600D03*
X214243400Y-190764400D03*
%TO.N,Net-(U1-Q7)*%
X218684300Y-193436700D03*
X218943400Y-161384400D03*
%TO.N,Net-(RN1-R8)*%
X253790800Y-191124000D03*
X260596200Y-185441100D03*
X219192400Y-189424400D03*
%TO.N,Net-(RN1-R6)*%
X242539100Y-189482000D03*
X260069300Y-187375800D03*
X222517900Y-186884400D03*
%TO.N,Net-(RN1-R5)*%
X235217600Y-189397300D03*
X260606000Y-187982300D03*
%TO.N,Net-(RN12-R3.2)*%
X215054900Y-66272400D03*
X259826400Y-71567500D03*
X241300000Y-68203000D03*
%TO.N,Net-(U19-IO1)*%
X248643900Y-54877000D03*
X242535400Y-71120000D03*
%TO.N,Net-(U16-IO1)*%
X241960400Y-193845800D03*
X236318900Y-179769100D03*
%TO.N,Net-(U16-IO2)*%
X236321600Y-193880900D03*
X235948600Y-182472500D03*
%TO.N,VID_R1*%
X126269700Y-53447700D03*
X166526400Y-47154000D03*
%TO.N,Net-(RN2-R1)*%
X213983200Y-161451200D03*
X236837800Y-158406800D03*
X258307600Y-152293400D03*
%TO.N,Net-(U15-IO2)*%
X238590600Y-156547000D03*
X248527800Y-152889600D03*
%TO.N,Net-(U10-I4)*%
X228112600Y-21661800D03*
X217215500Y-22129600D03*
%TO.N,Net-(U10-I5)*%
X219985400Y-23105000D03*
X227897800Y-22493800D03*
%TO.N,Out_Clear*%
X225821600Y-27237600D03*
X222140900Y-43220100D03*
X192976400Y-106222800D03*
%TO.N,Out_Clock*%
X221944200Y-25293800D03*
X222131000Y-42016600D03*
%TO.N,Out_Latch*%
X221942900Y-24028400D03*
X222101500Y-40813100D03*
%TO.N,Out_En_N*%
X185782000Y-47154000D03*
X221244300Y-39226500D03*
X221576400Y-22775000D03*
%TO.N,Out_Data*%
X222135500Y-22157600D03*
%TO.N,Net-(U10-I1)*%
X227531000Y-20184700D03*
X228292100Y-18246000D03*
%TO.N,SW1_Input_Stream*%
X99054100Y-34042500D03*
X98734400Y-67979700D03*
%TO.N,Net-(RN6-R1)*%
X98559400Y-69665700D03*
%TO.N,Net-(RN6-R2)*%
X101382800Y-71856700D03*
%TO.N,Net-(RN6-R3)*%
X101918500Y-72461100D03*
%TO.N,Net-(RN6-R4)*%
X101367400Y-73063000D03*
%TO.N,Net-(RN6-R5)*%
X106376400Y-73095000D03*
%TO.N,Net-(RN6-R7)*%
X97983800Y-68557000D03*
%TO.N,Net-(RN6-R8)*%
X106319800Y-69249200D03*
%TO.N,Net-(RN2-R2)*%
X244715000Y-158723700D03*
X261134900Y-153037200D03*
X213993400Y-160181200D03*
%TO.N,Net-(U15-IO1)*%
X248139900Y-149817900D03*
X243535200Y-156437800D03*
%TO.N,LED_27M*%
X115336500Y-119519300D03*
X139863700Y-45473200D03*
%TO.N,Net-(RN10-R2.2)*%
X261140400Y-165629000D03*
X219122600Y-159509200D03*
X249773700Y-166710400D03*
%TO.N,Net-(U5-IO3)*%
X243465400Y-152487800D03*
X247602400Y-163899200D03*
%TO.N,/1 Plyr Move Left*%
X263445100Y-73170200D03*
%TO.N,/1 Plyr Move Down*%
X263460000Y-70337300D03*
%TO.N,Net-(RN12-R4.2)*%
X259808800Y-70337300D03*
X213296700Y-66106400D03*
X234485700Y-69794800D03*
%TO.N,Net-(RN12-R2.2)*%
X215239600Y-63249600D03*
X247599200Y-68101700D03*
X258091700Y-72064000D03*
%TO.N,Net-(RN12-R1.2)*%
X216509600Y-63262600D03*
X256137900Y-71151100D03*
%TO.N,Net-(RN2-R4)*%
X261140800Y-154606300D03*
X254915300Y-158784700D03*
X214187500Y-157306000D03*
%TO.N,Net-(RN2-R3)*%
X260587600Y-153993400D03*
X213995400Y-158911200D03*
X249581300Y-158784700D03*
%TO.N,J4_Input_Stream*%
X217779600Y-66270800D03*
X218937500Y-162677400D03*
%TO.N,Net-(RN10-R1.2)*%
X258307600Y-166456400D03*
%TO.N,Net-(RN10-R3.2)*%
X261255100Y-164686300D03*
X242280500Y-166389600D03*
X218943400Y-157572800D03*
%TO.N,Net-(RN10-R4.2)*%
X237068300Y-167218400D03*
X263617700Y-163020000D03*
%TO.N,Net-(U23-IO4)*%
X253750300Y-129007100D03*
X255094900Y-115544800D03*
%TO.N,Net-(J2_RGBS_Out1-Pin_8)*%
X164469200Y-35667400D03*
X175158800Y-19088000D03*
%TO.N,Net-(J2_RGBS_Out1-Pin_9)*%
X165022000Y-36873400D03*
%TO.N,Net-(RN11-R1.2)*%
X212699600Y-68233100D03*
X255671400Y-64376000D03*
%TO.N,Net-(U18-IO4)*%
X240355800Y-54848300D03*
X252647800Y-64617600D03*
%TO.N,Net-(U23-IO2)*%
X250306300Y-117903100D03*
X241296600Y-128023700D03*
%TO.N,IN_DATA*%
X102653300Y-73512300D03*
X103888400Y-108257500D03*
%TO.N,LED_DDR_RST*%
X135148400Y-45819200D03*
X115011200Y-123850400D03*
%TO.N,Service Switch*%
X208026000Y-28244800D03*
X204439400Y-43251000D03*
X117342400Y-137942300D03*
%TO.N,VID_B2*%
X171516700Y-48969300D03*
%TO.N,Net-(U11-I1)*%
X224935200Y-36060400D03*
X229012400Y-33374600D03*
%TO.N,Net-(U11-I2)*%
X220168900Y-35366900D03*
X228440700Y-34784600D03*
%TO.N,Net-(U11-I3)*%
X220152400Y-36420600D03*
X228287500Y-37011100D03*
%TO.N,Net-(U11-I4)*%
X220169700Y-37737200D03*
X228474800Y-38662000D03*
%TO.N,Net-(U11-I5)*%
X219967900Y-38616700D03*
X227903700Y-39263800D03*
%TO.N,SEL*%
X241109400Y-42407800D03*
%TO.N,ARD*%
X240484000Y-41134600D03*
%TO.N,ST0*%
X240522700Y-39845000D03*
%TO.N,MD3*%
X240484000Y-38663000D03*
%TO.N,MD2*%
X240484000Y-37393000D03*
%TO.N,MD1*%
X240484000Y-36123000D03*
%TO.N,MD0*%
X240488800Y-34853000D03*
%TO.N,Net-(U23-IO1)*%
X245360500Y-127866800D03*
X249941500Y-115543200D03*
%TO.N,Net-(U23-IO3)*%
X250679500Y-127810900D03*
X253390400Y-117913000D03*
%TO.N,Net-(U16-IO3)*%
X240571600Y-182472500D03*
X246027900Y-194346900D03*
%TO.N,VID_R3*%
X156449300Y-48886700D03*
%TO.N,Net-(U18-IO1)*%
X240619500Y-63493700D03*
X236492800Y-54848300D03*
%TO.N,Net-(U18-IO3)*%
X247147500Y-63556300D03*
X241382500Y-57791300D03*
%TO.N,Net-(U15-IO4)*%
X252815400Y-149817900D03*
X253092200Y-156892200D03*
%TO.N,AUD_PWM_L2*%
X226747700Y-102692200D03*
X220994800Y-123400200D03*
%TO.N,VID_R2*%
X164929200Y-47024700D03*
X129238900Y-50478700D03*
X123441200Y-145924400D03*
%TO.N,AUD_PWM_R2*%
X220599600Y-124845300D03*
X227621000Y-98198300D03*
%TO.N,VID_B1*%
X175797000Y-47147200D03*
%TO.N,VID_B3*%
X122051800Y-130048000D03*
X169037700Y-48948300D03*
%TO.N,Net-(D4-K)*%
X118262400Y-132740400D03*
%TO.N,VID_G1*%
X181516700Y-48969300D03*
%TO.N,VID_G2*%
X179032300Y-48953700D03*
%TO.N,VID_HS*%
X156535500Y-50775700D03*
%TO.N,VID_VS*%
X129812500Y-86612000D03*
X159038500Y-50774100D03*
%TO.N,LED_CALIB*%
X123868300Y-80733300D03*
X150146300Y-45821300D03*
%TO.N,AUD_PWM_R1*%
X238930200Y-106762300D03*
%TO.N,SYNC_CSYNC_N*%
X89040400Y-99351700D03*
%TO.N,Net-(U5-IO1)*%
X243433600Y-164142500D03*
X239214000Y-149817900D03*
%TO.N,Net-(U5-IO2)*%
X238302800Y-164296400D03*
X239602800Y-152487800D03*
%TO.N,Net-(U5-IO4)*%
X244351900Y-149496200D03*
X252137200Y-164556400D03*
%TO.N,Net-(J3_DOT1-Pin_10)*%
X229380000Y-92679100D03*
X224003500Y-92432200D03*
%TO.N,Net-(U12-CH1_IN)*%
X157430400Y-47035800D03*
X158713300Y-35640000D03*
%TO.N,Net-(U17-IO1)*%
X242702200Y-188409700D03*
X245542000Y-179816200D03*
%TO.N,Net-(J3-Pin_7)*%
X244458500Y-101802100D03*
%TO.N,Net-(J6-Pin_5)*%
X263998100Y-118999200D03*
%TO.N,Net-(J6-Pin_6)*%
X264279100Y-117716400D03*
%TO.N,Net-(J6-Pin_7)*%
X264740500Y-116771600D03*
%TO.N,Net-(J6-Pin_9)*%
X264216700Y-116156800D03*
%TO.N,Net-(J4-Pin_15)*%
X264759900Y-154596600D03*
%TO.N,Net-(J4-Pin_16)*%
X265151600Y-153843400D03*
%TO.N,Net-(J4-Pin_17)*%
X265560900Y-153093400D03*
%TO.N,Net-(J4-Pin_4)*%
X264645100Y-198600000D03*
%TO.N,Net-(J4-Pin_3)*%
X265046100Y-197857500D03*
%TO.N,Net-(J4-Pin_2)*%
X266677800Y-197320500D03*
%TO.N,Net-(J3-Pin_9)*%
X243855200Y-96754100D03*
%TO.N,Net-(U19-IO2)*%
X248286700Y-57791300D03*
X236590400Y-70749200D03*
%TO.N,Net-(U19-IO3)*%
X248829200Y-71018400D03*
X250939100Y-58388400D03*
%TO.N,Net-(U19-IO4)*%
X253482900Y-70196500D03*
X252548900Y-54877000D03*
%TO.N,Net-(J3-Pin_2)*%
X241600300Y-88458900D03*
%TO.N,Net-(J5-Pin_7)*%
X263776700Y-61993800D03*
%TO.N,Net-(J5-Pin_8)*%
X262973900Y-61743800D03*
%TO.N,Net-(RN11-R4.2)*%
X216509600Y-71213000D03*
X235422400Y-65250400D03*
X259344600Y-61773900D03*
%TO.N,Net-(RN11-R3.2)*%
X230841600Y-66532100D03*
X215239600Y-71217300D03*
%TO.N,Net-(RN11-R2.2)*%
X259309500Y-63576000D03*
X213969600Y-68222300D03*
X248951100Y-63459800D03*
%TO.N,Net-(U16-IO4)*%
X251511900Y-194346900D03*
X240185100Y-179769100D03*
%TO.N,Coin_Meter_Return*%
X240325600Y-19516000D03*
%TO.N,Coin_Meter*%
X241031800Y-18246000D03*
%TO.N,Net-(C46-Pad1)*%
X231229700Y-96383100D03*
X229305600Y-90949800D03*
X224765700Y-98183600D03*
%TO.N,Net-(U17-IO2)*%
X237468900Y-188409700D03*
X245575000Y-183325700D03*
%TO.N,Net-(U17-IO4)*%
X251641200Y-188408100D03*
X249413400Y-179816200D03*
%TO.N,Net-(U12-CH2_IN)*%
X159730600Y-37752400D03*
X159929200Y-47038900D03*
%TO.N,Net-(J6-Pin_1)*%
X264221000Y-133246100D03*
%TO.N,Net-(J6-Pin_2)*%
X264622700Y-132495000D03*
%TO.N,Net-(J6-Pin_3)*%
X265028200Y-131745000D03*
%TO.N,Net-(J6-Pin_4)*%
X267216400Y-130945000D03*
%TO.N,Net-(J3_DOT1-Pin_9)*%
X224094000Y-88876700D03*
X230274500Y-88784000D03*
%TO.N,Net-(J4-Pin_10)*%
X264876100Y-166396800D03*
%TO.N,Net-(J4-Pin_11)*%
X265259800Y-165629000D03*
%TO.N,Net-(J4-Pin_12)*%
X265379200Y-164660900D03*
%TO.N,Net-(J4-Pin_13)*%
X264877100Y-164022800D03*
%TO.N,Net-(J4-Pin_7)*%
X265043800Y-185393900D03*
%TO.N,Net-(J4-Pin_8)*%
X264220800Y-185172500D03*
%TD*%
%TO.N,IN_LOAD_N*%
D44*
X213239000Y-184705800D02*
X212931200Y-185013600D01*
X105000000Y-76270000D02*
X105000000Y-77088100D01*
X209488000Y-70970700D02*
X210159600Y-70299100D01*
D45*
X212008000Y-156371200D02*
X212677200Y-155702000D01*
D44*
X105500000Y-43608500D02*
X105500000Y-42770000D01*
X210159600Y-70299100D02*
X210159600Y-69720000D01*
D45*
X211377300Y-156371200D02*
X212008000Y-156371200D01*
D44*
X105000000Y-77088100D02*
X105001200Y-77089300D01*
X214415200Y-184705800D02*
X213239000Y-184705800D01*
X212931200Y-118741400D02*
X212931200Y-119583200D01*
%TO.N,IN_CLK*%
X211429600Y-69720000D02*
X211429600Y-68217000D01*
D45*
X212262000Y-121522400D02*
X212931200Y-120853200D01*
X104830800Y-42169200D02*
X105500000Y-41500000D01*
X105000000Y-75000000D02*
X105667600Y-74332400D01*
D44*
X211849800Y-153604600D02*
X212677200Y-154432000D01*
D45*
X211632200Y-121522400D02*
X212262000Y-121522400D01*
X105667600Y-74332400D02*
X106320500Y-74332400D01*
D44*
X212123100Y-182935500D02*
X212931200Y-183743600D01*
D45*
X104166700Y-42169200D02*
X104830800Y-42169200D01*
%TO.N,Net-(RN14-R1.2)*%
D44*
X253621400Y-124362900D02*
X254378900Y-125120400D01*
D45*
X214241900Y-122792400D02*
X213600400Y-122792400D01*
D44*
X254378900Y-125120400D02*
X254660400Y-125120400D01*
D45*
X213600400Y-122792400D02*
X212931200Y-122123200D01*
D44*
X261496400Y-118313200D02*
X260794700Y-118313200D01*
X260794700Y-118313200D02*
X260567400Y-118540500D01*
%TO.N,Net-(RN14-R2.2)*%
X261379300Y-117630300D02*
X261496400Y-117513200D01*
X260083400Y-117630300D02*
X261379300Y-117630300D01*
D45*
X214247400Y-124062400D02*
X213600400Y-124062400D01*
D44*
X249783600Y-125374400D02*
X250689700Y-126280500D01*
D45*
X213600400Y-124062400D02*
X212931200Y-123393200D01*
%TO.N,Net-(RN14-R3.2)*%
X260819700Y-116713200D02*
X260576100Y-116956800D01*
D44*
X244625800Y-125007000D02*
X244652800Y-125034000D01*
D45*
X213598800Y-125330800D02*
X214247400Y-125330800D01*
X212931200Y-124663200D02*
X213598800Y-125330800D01*
X261496400Y-116713200D02*
X260819700Y-116713200D01*
D44*
X243421400Y-125007000D02*
X244625800Y-125007000D01*
%TO.N,Net-(RN14-R4.2)*%
D45*
X261496400Y-115913200D02*
X260819700Y-115913200D01*
X213602000Y-126604000D02*
X214245000Y-126604000D01*
D44*
X226466400Y-131521200D02*
X232953600Y-125034000D01*
X238270800Y-124157900D02*
X238270800Y-125034000D01*
X238270800Y-125034000D02*
X239217200Y-125034000D01*
D45*
X212931200Y-125933200D02*
X213602000Y-126604000D01*
D44*
X232953600Y-125034000D02*
X238270800Y-125034000D01*
D45*
X258307600Y-116213000D02*
X260519900Y-116213000D01*
X260519900Y-116213000D02*
X260819700Y-115913200D01*
%TO.N,GND*%
D44*
X243979000Y-146608800D02*
X237642400Y-146608800D01*
X64150000Y-59740000D02*
X64150000Y-49540000D01*
D45*
X213600400Y-191964400D02*
X212931200Y-192633600D01*
D44*
X252100800Y-115572100D02*
X251528900Y-116144000D01*
X215392000Y-127620600D02*
X213735300Y-129277300D01*
X245755200Y-103000800D02*
X245755200Y-98000800D01*
D45*
X245435000Y-181913600D02*
X245991000Y-181913600D01*
D44*
X89712800Y-135899000D02*
X78680200Y-135899000D01*
X216394800Y-120853200D02*
X215392000Y-121856000D01*
D45*
X237114500Y-181514700D02*
X236766900Y-181167100D01*
X216559900Y-185682800D02*
X217212000Y-185682800D01*
D44*
X160336200Y-39622800D02*
X163763800Y-39622800D01*
X219970600Y-27604000D02*
X218725200Y-27604000D01*
X136464800Y-26304400D02*
X138080400Y-24688800D01*
X215392000Y-121856000D02*
X215392000Y-127620600D01*
X251528900Y-116144000D02*
X251115400Y-116144000D01*
X217280400Y-191964400D02*
X217881200Y-191363600D01*
X63000000Y-60890000D02*
X64150000Y-59740000D01*
X248151000Y-150780800D02*
X243979000Y-146608800D01*
X98317200Y-75000000D02*
X98298000Y-74980800D01*
D45*
X214245000Y-191964400D02*
X213600400Y-191964400D01*
D44*
X78680200Y-135899000D02*
X77876400Y-136702800D01*
X245755200Y-87500800D02*
X245755200Y-84005600D01*
D45*
X248988200Y-150780800D02*
X249337400Y-151130000D01*
D44*
X209036300Y-22544300D02*
X207907800Y-23672800D01*
X226687700Y-101887300D02*
X225790800Y-100990400D01*
X63000000Y-63101600D02*
X63000000Y-60890000D01*
X194970400Y-40894000D02*
X194970400Y-35663400D01*
X225882000Y-90231200D02*
X225994000Y-90119200D01*
X128449800Y-24404400D02*
X130739800Y-24404400D01*
X158038800Y-38322800D02*
X158038800Y-38972800D01*
X244388900Y-82023600D02*
X244030500Y-82382000D01*
D45*
X242384200Y-116340800D02*
X242733400Y-115991600D01*
D44*
X174276700Y-39633200D02*
X175717200Y-39633200D01*
X63000000Y-35390000D02*
X63855600Y-36245600D01*
X217554200Y-155629000D02*
X217627200Y-155702000D01*
X225892400Y-97129600D02*
X225882000Y-97119200D01*
X158038800Y-38322800D02*
X158038800Y-37672800D01*
X245755200Y-105300000D02*
X245755200Y-103000800D01*
D45*
X101218000Y-40832000D02*
X101869600Y-40832000D01*
X244923800Y-83174200D02*
X245073200Y-83323600D01*
D44*
X141093200Y-42824400D02*
X146053200Y-42824400D01*
X245155600Y-182193000D02*
X245435000Y-181913600D01*
D45*
X236937600Y-56243100D02*
X237286800Y-56592300D01*
D44*
X216122800Y-155629000D02*
X217554200Y-155629000D01*
D45*
X236766900Y-181167100D02*
X235948500Y-181167100D01*
D44*
X64150000Y-49540000D02*
X63000000Y-48390000D01*
D45*
X239220600Y-151093200D02*
X240047400Y-151093200D01*
D44*
X138176000Y-24688800D02*
X138125200Y-24638000D01*
D45*
X245991000Y-181913600D02*
X246340200Y-181564400D01*
D44*
X169992200Y-38333200D02*
X169992200Y-38983200D01*
D45*
X244030500Y-83174200D02*
X244923800Y-83174200D01*
D44*
X245755200Y-92500800D02*
X245755200Y-87500800D01*
X245755200Y-84005600D02*
X245073200Y-83323600D01*
X188825400Y-35052000D02*
X188825400Y-37422000D01*
X139165500Y-42824400D02*
X141093200Y-42824400D01*
X225882000Y-92461100D02*
X225882000Y-93663600D01*
X126159800Y-24404400D02*
X128449800Y-24404400D01*
X215900000Y-186342700D02*
X215900000Y-191964400D01*
X135319800Y-25159400D02*
X135319800Y-24404400D01*
D45*
X227911400Y-43674600D02*
X229152400Y-43674600D01*
D44*
X244030500Y-82382000D02*
X244030500Y-83174200D01*
X169992200Y-39633200D02*
X174276700Y-39633200D01*
X225882000Y-97119200D02*
X225882000Y-93663600D01*
X229663200Y-27736800D02*
X227685600Y-27736800D01*
X63855600Y-36245600D02*
X63855600Y-37693600D01*
D45*
X241554500Y-116340800D02*
X242384200Y-116340800D01*
D44*
X219103900Y-69665700D02*
X219049600Y-69720000D01*
X217881200Y-120853200D02*
X216394800Y-120853200D01*
X215900000Y-191964400D02*
X217280400Y-191964400D01*
X146053200Y-42824400D02*
X151093200Y-42824400D01*
X222506700Y-43705200D02*
X227819600Y-43705200D01*
X63000000Y-48390000D02*
X63000000Y-50858800D01*
X225882000Y-92461100D02*
X225272100Y-92461100D01*
X63000000Y-50858800D02*
X63042800Y-50901600D01*
D45*
X100550000Y-41500000D02*
X101218000Y-40832000D01*
D44*
X90639200Y-136825400D02*
X89712800Y-135899000D01*
X169992200Y-38983200D02*
X169992200Y-39633200D01*
X237642400Y-146608800D02*
X237642400Y-149515000D01*
X63144400Y-63246000D02*
X63000000Y-63101600D01*
X211874500Y-164124700D02*
X212677200Y-163322000D01*
D45*
X227850200Y-43674600D02*
X227911400Y-43674600D01*
D44*
X225882000Y-92461100D02*
X225882000Y-90231200D01*
D45*
X236117100Y-56243100D02*
X236937600Y-56243100D01*
X217212000Y-185682800D02*
X217881200Y-185013600D01*
D44*
X135590600Y-24638000D02*
X135370400Y-24417800D01*
X252100800Y-114580200D02*
X252100800Y-115572100D01*
X94785900Y-120131900D02*
X93817500Y-120131900D01*
X227819600Y-43705200D02*
X227850200Y-43674600D01*
X158038800Y-38972800D02*
X158038800Y-39622800D01*
D45*
X229152400Y-43674600D02*
X229821600Y-44343800D01*
X240047400Y-151093200D02*
X240396600Y-150744000D01*
X248151000Y-150780800D02*
X248988200Y-150780800D01*
X249109700Y-56292800D02*
X249458900Y-56642000D01*
D46*
X127762000Y-135382000D02*
X130454400Y-135382000D01*
D44*
X218671600Y-44348400D02*
X221863500Y-44348400D01*
X216559900Y-185682800D02*
X215900000Y-186342700D01*
X125926200Y-24638000D02*
X126159800Y-24404400D01*
X190028400Y-41961600D02*
X193902800Y-41961600D01*
X212931200Y-128473200D02*
X213735300Y-129277300D01*
X221863500Y-44348400D02*
X222506700Y-43705200D01*
X214245000Y-191964400D02*
X215900000Y-191964400D01*
X188825400Y-37422000D02*
X188825400Y-40216600D01*
X136464800Y-26304400D02*
X135319800Y-25159400D01*
X219884500Y-69665700D02*
X219103900Y-69665700D01*
X188825400Y-40216600D02*
X188554400Y-40487600D01*
X92608400Y-102929800D02*
X93529900Y-103851300D01*
X158038800Y-39622800D02*
X160336200Y-39622800D01*
X138080400Y-24688800D02*
X138176000Y-24688800D01*
X237642400Y-149515000D02*
X239220600Y-151093200D01*
X194970400Y-35663400D02*
X195581800Y-35052000D01*
X105500000Y-33065400D02*
X105500000Y-33880000D01*
X193902800Y-41961600D02*
X194970400Y-40894000D01*
X100050000Y-75000000D02*
X98317200Y-75000000D01*
X218725200Y-27604000D02*
X218490800Y-27838400D01*
X245073200Y-82023600D02*
X244388900Y-82023600D01*
D45*
X248272000Y-56292800D02*
X249109700Y-56292800D01*
D44*
X93817500Y-120131900D02*
X93573600Y-119888000D01*
X188554400Y-40487600D02*
X190028400Y-41961600D01*
X245755200Y-98000800D02*
X245755200Y-92500800D01*
X136093200Y-42824400D02*
X139165500Y-42824400D01*
X106494200Y-67380000D02*
X106919800Y-66954400D01*
X211429600Y-64770000D02*
X211429600Y-66249900D01*
X105000000Y-67380000D02*
X106494200Y-67380000D01*
X124358400Y-24638000D02*
X125926200Y-24638000D01*
X245755200Y-108000800D02*
X245755200Y-105300000D01*
%TO.N,J6_Input_Stream*%
D45*
X101851600Y-35819200D02*
X101219200Y-35819200D01*
D44*
X217711200Y-128303200D02*
X217881200Y-128473200D01*
D45*
X101219200Y-35819200D02*
X100550000Y-35150000D01*
D44*
X216400400Y-128303200D02*
X217711200Y-128303200D01*
%TO.N,J5_Input_Stream*%
D45*
X218546800Y-126537600D02*
X217881200Y-127203200D01*
D44*
X219862600Y-65583000D02*
X219049600Y-64770000D01*
D45*
X219703200Y-126537600D02*
X218546800Y-126537600D01*
%TO.N,Net-(RN13-R1.2)*%
D44*
X253157600Y-132719200D02*
X236544400Y-132719200D01*
X256900600Y-132745400D02*
X259228600Y-132745400D01*
D45*
X259228600Y-132745400D02*
X260541900Y-132745400D01*
X260541900Y-132745400D02*
X260841700Y-133045200D01*
X217881200Y-125933200D02*
X218508500Y-125305900D01*
D44*
X255016000Y-130860800D02*
X256900600Y-132745400D01*
D45*
X261518400Y-133045200D02*
X260841700Y-133045200D01*
X218508500Y-125305900D02*
X219157100Y-125305900D01*
D44*
X255016000Y-130860800D02*
X253157600Y-132719200D01*
%TO.N,Net-(RN13-R2.2)*%
X261518400Y-132245200D02*
X260816700Y-132245200D01*
X259024300Y-132123400D02*
X259146100Y-132245200D01*
X259146100Y-132245200D02*
X260816700Y-132245200D01*
D45*
X218552000Y-123992400D02*
X219195800Y-123992400D01*
X217881200Y-124663200D02*
X218552000Y-123992400D01*
D44*
X250680200Y-131503400D02*
X249783600Y-130606800D01*
%TO.N,Net-(RN13-R3.2)*%
X261442800Y-131520800D02*
X261518400Y-131445200D01*
D45*
X216883900Y-121508000D02*
X216738200Y-121653700D01*
X216738200Y-121653700D02*
X216701200Y-121653700D01*
D44*
X226466400Y-118821200D02*
X223779600Y-121508000D01*
X245211900Y-131419900D02*
X244297200Y-130505200D01*
X260107200Y-131520800D02*
X261442800Y-131520800D01*
D45*
X216588400Y-122724000D02*
X217212000Y-122724000D01*
D44*
X223779600Y-121508000D02*
X216883900Y-121508000D01*
X216701200Y-121653700D02*
X216588400Y-121766500D01*
D45*
X217212000Y-122724000D02*
X217881200Y-123393200D01*
D44*
X216588400Y-121766500D02*
X216588400Y-122724000D01*
%TO.N,Net-(RN13-R4.2)*%
X261518400Y-130645200D02*
X260816700Y-130645200D01*
X237547700Y-131747900D02*
X238470400Y-130825200D01*
X225704400Y-122123200D02*
X217881200Y-122123200D01*
X226466400Y-121361200D02*
X225704400Y-122123200D01*
X260603400Y-130858500D02*
X260816700Y-130645200D01*
%TO.N,+3.3V*%
X93522800Y-112890400D02*
X93522800Y-114011200D01*
D46*
X112522000Y-138125200D02*
X114163600Y-138125200D01*
D44*
X217881200Y-118748500D02*
X217881200Y-119583200D01*
X82820000Y-114011200D02*
X82651600Y-113842800D01*
D46*
X93522800Y-114011200D02*
X82820000Y-114011200D01*
D44*
X114163600Y-138125200D02*
X114214400Y-138176000D01*
X185775600Y-50778200D02*
X184879200Y-49881800D01*
X209345900Y-63956300D02*
X210159600Y-64770000D01*
X99735700Y-43584300D02*
X100550000Y-42770000D01*
X82651600Y-113842800D02*
X82651600Y-111048800D01*
X100050000Y-76270000D02*
X100050000Y-77094400D01*
X82651600Y-111048800D02*
X84734400Y-108966000D01*
X218454600Y-153604600D02*
X217627200Y-154432000D01*
X245073200Y-78773600D02*
X244353100Y-78053500D01*
X218690300Y-182934500D02*
X217881200Y-183743600D01*
%TO.N,Net-(U13-CH1_IN)*%
X163913400Y-49881800D02*
X163913400Y-42762000D01*
X163913400Y-49881800D02*
X162429200Y-49881800D01*
X163913400Y-42762000D02*
X167370800Y-39304600D01*
X164929200Y-49881800D02*
X163913400Y-49881800D01*
X167370800Y-39304600D02*
X167370800Y-37906500D01*
D45*
X169842800Y-36532600D02*
X168744700Y-36532600D01*
X169992200Y-36383200D02*
X169842800Y-36532600D01*
D44*
X167370800Y-37906500D02*
X168744700Y-36532600D01*
X164929200Y-49881800D02*
X167429200Y-49881800D01*
%TO.N,Net-(U13-CH2_IN)*%
X168541800Y-37584300D02*
X168541800Y-41055000D01*
X174929200Y-49881800D02*
X173449400Y-49881800D01*
X173449400Y-45962600D02*
X173449400Y-49881800D01*
X169929200Y-49881800D02*
X172429200Y-49881800D01*
X173449400Y-49881800D02*
X172429200Y-49881800D01*
D45*
X168943500Y-37182600D02*
X169842800Y-37182600D01*
X169842800Y-37182600D02*
X169992200Y-37033200D01*
D44*
X168541800Y-41055000D02*
X173449400Y-45962600D01*
X168943500Y-37182600D02*
X168541800Y-37584300D01*
%TO.N,Net-(U13-CH3_IN)*%
X168943500Y-40618300D02*
X168943500Y-38075700D01*
X176395200Y-47424200D02*
X176461300Y-47358100D01*
X176461300Y-47358100D02*
X176461300Y-46853300D01*
X176461300Y-46853300D02*
X170653900Y-41045900D01*
X169371100Y-41045900D02*
X168943500Y-40618300D01*
X179929200Y-49881800D02*
X182429200Y-49881800D01*
X176395200Y-48847800D02*
X176395200Y-47424200D01*
X170653900Y-41045900D02*
X169371100Y-41045900D01*
X169336000Y-37683200D02*
X169992200Y-37683200D01*
X168943500Y-38075700D02*
X169336000Y-37683200D01*
X179929200Y-49881800D02*
X177429200Y-49881800D01*
X177429200Y-49881800D02*
X176395200Y-48847800D01*
%TO.N,+5V*%
D45*
X252083100Y-56292800D02*
X251733900Y-56642000D01*
D44*
X112014000Y-81026000D02*
X108575600Y-81026000D01*
X192631800Y-40455400D02*
X193070400Y-40894000D01*
D45*
X163913200Y-39122200D02*
X163763800Y-38972800D01*
D46*
X113716800Y-132791200D02*
X112572800Y-132791200D01*
D45*
X239911000Y-56941500D02*
X239561800Y-56592300D01*
X248964400Y-181913600D02*
X248615200Y-181564400D01*
D44*
X108575600Y-81026000D02*
X92608400Y-96993200D01*
X246318500Y-82673600D02*
X245073200Y-82673600D01*
X185299400Y-39132600D02*
X186654400Y-40487600D01*
D45*
X240742700Y-56941500D02*
X239911000Y-56941500D01*
D44*
X112572800Y-132791200D02*
X112522000Y-132740400D01*
D45*
X252906100Y-56292800D02*
X252083100Y-56292800D01*
X246183000Y-116340800D02*
X245357600Y-116340800D01*
X245357600Y-116340800D02*
X245008400Y-115991600D01*
D44*
X223440800Y-18948400D02*
X222618000Y-18125600D01*
X185299400Y-35628000D02*
X185875400Y-35052000D01*
X82186100Y-97563700D02*
X92037900Y-97563700D01*
X239389500Y-181514700D02*
X240950700Y-181514700D01*
X224444200Y-34635800D02*
X223621600Y-35458400D01*
D45*
X178353600Y-39132600D02*
X178128400Y-39132600D01*
D44*
X243841700Y-150143600D02*
X243590500Y-150394800D01*
D45*
X243020800Y-150394800D02*
X242671600Y-150744000D01*
D44*
X178353600Y-39132600D02*
X185299400Y-39132600D01*
X192631800Y-35052000D02*
X192631800Y-37422000D01*
X253390400Y-116144000D02*
X254555400Y-116144000D01*
X82186100Y-97563700D02*
X82186100Y-94801100D01*
X92037900Y-97563700D02*
X92608400Y-96993200D01*
D45*
X252783000Y-151479200D02*
X251961600Y-151479200D01*
D44*
X192631800Y-37422000D02*
X192631800Y-40455400D01*
X240950700Y-181514700D02*
X241401600Y-181965600D01*
D45*
X165008600Y-39122200D02*
X163913200Y-39122200D01*
X251961600Y-151479200D02*
X251612400Y-151130000D01*
X243590500Y-150394800D02*
X243020800Y-150394800D01*
D44*
X185299400Y-39132600D02*
X185299400Y-35628000D01*
D45*
X178128400Y-39132600D02*
X175866600Y-39132600D01*
X249791900Y-181913600D02*
X248964400Y-181913600D01*
D44*
X254555400Y-116144000D02*
X254555800Y-116143600D01*
X82186100Y-94801100D02*
X85394800Y-91592400D01*
D45*
X175866600Y-39132600D02*
X175717200Y-38983200D01*
%TO.N,Net-(J2_RGBS_Out1-Pin_3)*%
X174466300Y-37533800D02*
X175567800Y-37533800D01*
X175567800Y-37533800D02*
X175717200Y-37683200D01*
%TO.N,Net-(J2_RGBS_Out1-Pin_5)*%
D44*
X175040200Y-37033200D02*
X175717200Y-37033200D01*
X169164000Y-31157000D02*
X175040200Y-37033200D01*
X169164000Y-22961600D02*
X169164000Y-31157000D01*
%TO.N,Net-(J2_RGBS_Out1-Pin_1)*%
X175008600Y-35674600D02*
X175717200Y-36383200D01*
%TO.N,LED_PIX*%
X145108400Y-45819200D02*
X146053200Y-44874400D01*
X127762000Y-122682000D02*
X126492000Y-121412000D01*
X126492000Y-121412000D02*
X116380500Y-121412000D01*
X116278900Y-121310400D02*
X114344600Y-121310400D01*
X116380500Y-121412000D02*
X116278900Y-121310400D01*
%TO.N,+12V*%
D46*
X50415200Y-115722400D02*
X64476000Y-129783200D01*
D47*
X57962800Y-115671600D02*
X56211100Y-115671600D01*
D44*
X238310500Y-45154900D02*
X239121600Y-44343800D01*
D47*
X50272100Y-99161600D02*
X55729900Y-99161600D01*
D44*
X50272100Y-115579300D02*
X50415200Y-115722400D01*
X78282800Y-126593600D02*
X78282800Y-129692400D01*
D47*
X50272100Y-85172100D02*
X50272100Y-99161600D01*
X31000000Y-65900000D02*
X50272100Y-85172100D01*
D46*
X78028800Y-129946400D02*
X89662000Y-129946400D01*
D44*
X238963200Y-28565600D02*
X238963200Y-27736800D01*
D47*
X50272100Y-99161600D02*
X50272100Y-115579300D01*
X50415200Y-115722400D02*
X56160300Y-115722400D01*
D44*
X56160300Y-115722400D02*
X56211100Y-115671600D01*
X55729900Y-99161600D02*
X55983900Y-98907600D01*
D47*
X57735600Y-98907600D02*
X55983900Y-98907600D01*
D44*
X78282800Y-129692400D02*
X78028800Y-129946400D01*
D46*
X64639200Y-129946400D02*
X78028800Y-129946400D01*
X64476000Y-129783200D02*
X64639200Y-129946400D01*
%TO.N,Net-(U24-IN)*%
D47*
X77106100Y-97563700D02*
X70531200Y-97563700D01*
X67435600Y-98907600D02*
X69187300Y-98907600D01*
X70531200Y-97563700D02*
X69187300Y-98907600D01*
%TO.N,Net-(U22-IO1)*%
D44*
X244652800Y-122116500D02*
X244652800Y-123134000D01*
X243740800Y-117551100D02*
X243740800Y-115390800D01*
D45*
X243740800Y-115390800D02*
X243082600Y-115390800D01*
X243082600Y-115390800D02*
X242733400Y-115041600D01*
%TO.N,Net-(U22-IO2)*%
D44*
X242733400Y-119617800D02*
X239217200Y-123134000D01*
X242733400Y-116941600D02*
X242733400Y-119617800D01*
%TO.N,Net-(U22-IO3)*%
X249783600Y-121716800D02*
X249783600Y-123474400D01*
X245008400Y-116941600D02*
X249783600Y-121716800D01*
%TO.N,Net-(U22-IO4)*%
X254660400Y-123220400D02*
X254660400Y-122209000D01*
X245802400Y-114247600D02*
X245008400Y-115041600D01*
%TO.N,Net-(RN1-R7)*%
D45*
X218550400Y-188154400D02*
X217881200Y-188823600D01*
X260838900Y-186176000D02*
X260595300Y-186419600D01*
X261515600Y-186176000D02*
X260838900Y-186176000D01*
D44*
X248101200Y-191124000D02*
X247192800Y-190215600D01*
D45*
X219197400Y-188154400D02*
X218550400Y-188154400D01*
%TO.N,Net-(U17-IO3)*%
D44*
X248615200Y-182514400D02*
X248615200Y-186893200D01*
X248615200Y-186893200D02*
X247192800Y-188315600D01*
%TO.N,Net-(U14-CH0)*%
D45*
X237520400Y-78923000D02*
X239198800Y-78923000D01*
D44*
X240490000Y-86488700D02*
X240490000Y-86278700D01*
X242843100Y-86488700D02*
X240490000Y-86488700D01*
X239942300Y-86488700D02*
X238930200Y-87500800D01*
D45*
X239198800Y-78923000D02*
X239348200Y-78773600D01*
D44*
X240490000Y-86488700D02*
X239942300Y-86488700D01*
X243855200Y-87500800D02*
X242843100Y-86488700D01*
%TO.N,ADC_A0*%
X243795500Y-81273200D02*
X244183300Y-81273200D01*
D45*
X244923900Y-81224300D02*
X245073200Y-81373600D01*
D44*
X244183300Y-81273200D02*
X244232200Y-81224300D01*
D45*
X244232200Y-81224300D02*
X244923900Y-81224300D01*
%TO.N,ADC_A1*%
D44*
X245073200Y-80723600D02*
X246318500Y-80723600D01*
%TO.N,ADC_SCL*%
D45*
X243303900Y-80223000D02*
X244923800Y-80223000D01*
D44*
X243303900Y-80223000D02*
X243303900Y-80388700D01*
D45*
X244923800Y-80223000D02*
X245073200Y-80073600D01*
%TO.N,ADC_SDA*%
X243571200Y-79571400D02*
X244925400Y-79571400D01*
X244925400Y-79571400D02*
X245073200Y-79423600D01*
%TO.N,VID_G3*%
D44*
X178137300Y-45916900D02*
X177429200Y-46625000D01*
X177429200Y-46625000D02*
X177429200Y-48056800D01*
%TO.N,Net-(RN5-R1)*%
X90598100Y-34468100D02*
X90598100Y-35750800D01*
X101201400Y-37071400D02*
X100550000Y-36420000D01*
X103414000Y-37071400D02*
X101201400Y-37071400D01*
X88000000Y-31870000D02*
X90598100Y-34468100D01*
D45*
X99880800Y-35750800D02*
X100550000Y-36420000D01*
X90598100Y-35750800D02*
X99880800Y-35750800D01*
%TO.N,Net-(RN5-R2)*%
D44*
X99109300Y-37210600D02*
X100070600Y-37210600D01*
X100070600Y-37210600D02*
X100550000Y-37690000D01*
%TO.N,Net-(RN5-R3)*%
D45*
X99879200Y-39630800D02*
X97949200Y-39630800D01*
D44*
X102066800Y-38960000D02*
X103974900Y-40868100D01*
D45*
X100550000Y-38960000D02*
X99879200Y-39630800D01*
D44*
X107771700Y-40868100D02*
X112420400Y-45516800D01*
X103974900Y-40868100D02*
X107771700Y-40868100D01*
X100550000Y-38960000D02*
X102066800Y-38960000D01*
%TO.N,Net-(RN5-R4)*%
D45*
X101190600Y-39589400D02*
X101837600Y-39589400D01*
X100550000Y-40230000D02*
X101190600Y-39589400D01*
%TO.N,Net-(RN5-R5)*%
D44*
X112420400Y-40436800D02*
X105706800Y-40436800D01*
X105706800Y-40436800D02*
X105500000Y-40230000D01*
%TO.N,Net-(RN5-R6)*%
D45*
X112420400Y-38290800D02*
X106169200Y-38290800D01*
X106169200Y-38290800D02*
X105500000Y-38960000D01*
D44*
X112420400Y-37896800D02*
X112420400Y-38290800D01*
%TO.N,Net-(RN5-R7)*%
X112420400Y-35356800D02*
X111964400Y-35356800D01*
X107778400Y-36151000D02*
X106908600Y-37020800D01*
X105500000Y-37690000D02*
X104866400Y-38323600D01*
X104866400Y-38323600D02*
X96786400Y-38323600D01*
X111964400Y-35356800D02*
X111170200Y-36151000D01*
X96786400Y-38323600D02*
X88000000Y-47110000D01*
D45*
X106908600Y-37020800D02*
X106169200Y-37020800D01*
X106169200Y-37020800D02*
X105500000Y-37690000D01*
X111170200Y-36151000D02*
X107778400Y-36151000D01*
%TO.N,Net-(RN5-R8)*%
X108192700Y-35750800D02*
X106169200Y-35750800D01*
X106169200Y-35750800D02*
X105500000Y-36420000D01*
D44*
X112420400Y-32816800D02*
X111126700Y-32816800D01*
X111126700Y-32816800D02*
X108192700Y-35750800D01*
%TO.N,AUD_PWM_L1*%
X238015900Y-93640100D02*
X238930200Y-92725800D01*
%TO.N,Net-(C2-Pad1)*%
X243855200Y-92500800D02*
X240980200Y-92500800D01*
X240755200Y-96175800D02*
X238930200Y-98000800D01*
X240980200Y-92500800D02*
X240755200Y-92725800D01*
X240755200Y-92725800D02*
X240755200Y-96175800D01*
%TO.N,Net-(RN1-R4)*%
X214428000Y-186416200D02*
X213063800Y-186416200D01*
X251532300Y-196377200D02*
X251822300Y-196667200D01*
X213063800Y-186416200D02*
X212931200Y-186283600D01*
D45*
X261924800Y-198843600D02*
X261248100Y-198843600D01*
D44*
X252780800Y-196667200D02*
X257447100Y-196667200D01*
X257447100Y-196667200D02*
X259323700Y-198543800D01*
D45*
X259323700Y-198543800D02*
X260948300Y-198543800D01*
D44*
X251822300Y-196667200D02*
X252780800Y-196667200D01*
D45*
X260948300Y-198543800D02*
X261248100Y-198843600D01*
%TO.N,Net-(RN1-R3)*%
D44*
X260109600Y-198043600D02*
X260027500Y-197961500D01*
X247294400Y-196667200D02*
X246385500Y-197576100D01*
D45*
X214242100Y-188222800D02*
X213600400Y-188222800D01*
X213600400Y-188222800D02*
X212931200Y-187553600D01*
D44*
X261924800Y-198043600D02*
X260109600Y-198043600D01*
%TO.N,Net-(RN1-R2)*%
X261924800Y-197243600D02*
X260986500Y-197243600D01*
D45*
X214247400Y-189492800D02*
X213600400Y-189492800D01*
D44*
X241960400Y-196768800D02*
X241065000Y-195873400D01*
D45*
X213600400Y-189492800D02*
X212931200Y-188823600D01*
%TO.N,Net-(RN1-R1)*%
X212931200Y-190093600D02*
X213602000Y-190764400D01*
X213602000Y-190764400D02*
X214243400Y-190764400D01*
D44*
X260650400Y-196443600D02*
X261924800Y-196443600D01*
X225907600Y-196494400D02*
X236026800Y-196494400D01*
X236026800Y-196494400D02*
X236321600Y-196789200D01*
%TO.N,Net-(U1-Q7)*%
D45*
X217627200Y-162052000D02*
X218294800Y-161384400D01*
D44*
X218684300Y-193436700D02*
X217881200Y-192633600D01*
D45*
X218294800Y-161384400D02*
X218943400Y-161384400D01*
%TO.N,Net-(RN1-R8)*%
D44*
X260748800Y-185441100D02*
X260813900Y-185376000D01*
X253790800Y-191124000D02*
X252882400Y-190215600D01*
X261515600Y-185376000D02*
X260813900Y-185376000D01*
X260596200Y-185441100D02*
X260748800Y-185441100D01*
D45*
X218550400Y-189424400D02*
X217881200Y-190093600D01*
X219192400Y-189424400D02*
X218550400Y-189424400D01*
%TO.N,Net-(RN1-R6)*%
D44*
X261035100Y-186976000D02*
X261515600Y-186976000D01*
X222517900Y-186884400D02*
X219289800Y-186884400D01*
D45*
X219289800Y-186884400D02*
X218550400Y-186884400D01*
D44*
X241805500Y-190215600D02*
X241452400Y-190215600D01*
X260069300Y-187375800D02*
X260635300Y-187375800D01*
D45*
X218550400Y-186884400D02*
X217881200Y-187553600D01*
D44*
X260635300Y-187375800D02*
X261035100Y-186976000D01*
X242539100Y-189482000D02*
X241805500Y-190215600D01*
%TO.N,Net-(RN1-R5)*%
X222423300Y-186128200D02*
X222217100Y-186334400D01*
X223127800Y-186334400D02*
X222921600Y-186128200D01*
X225907600Y-186334400D02*
X223127800Y-186334400D01*
X261515600Y-187776000D02*
X260813900Y-187776000D01*
X260607600Y-187982300D02*
X260606000Y-187982300D01*
X222921600Y-186128200D02*
X222423300Y-186128200D01*
X236035900Y-190215600D02*
X236220000Y-190215600D01*
X217932000Y-186334400D02*
X217881200Y-186283600D01*
X260813900Y-187776000D02*
X260607600Y-187982300D01*
X235217600Y-189397300D02*
X236035900Y-190215600D01*
X222217100Y-186334400D02*
X217932000Y-186334400D01*
%TO.N,Net-(RN12-R3.2)*%
X230592500Y-67133800D02*
X240230800Y-67133800D01*
X225958400Y-62499700D02*
X230592500Y-67133800D01*
X260734400Y-71361200D02*
X260032700Y-71361200D01*
X213969600Y-64770000D02*
X213969600Y-65187100D01*
X259826400Y-71567500D02*
X260032700Y-71361200D01*
X241300000Y-68203000D02*
X241300000Y-69220000D01*
X225958400Y-62280800D02*
X225958400Y-62499700D01*
X213969600Y-65187100D02*
X215054900Y-66272400D01*
X240230800Y-67133800D02*
X241300000Y-68203000D01*
%TO.N,Net-(U19-IO1)*%
X241300000Y-71120000D02*
X242535400Y-71120000D01*
X248643900Y-54877000D02*
X249458900Y-55692000D01*
%TO.N,Net-(U16-IO1)*%
X241960400Y-194868800D02*
X241960400Y-193845800D01*
X236318900Y-179769100D02*
X237114500Y-180564700D01*
%TO.N,Net-(U16-IO2)*%
X236321600Y-193880900D02*
X236321600Y-194889200D01*
X235948600Y-182472500D02*
X237106700Y-182472500D01*
X237106700Y-182472500D02*
X237114500Y-182464700D01*
%TO.N,VID_R1*%
X166526400Y-47154000D02*
X167429200Y-48056800D01*
%TO.N,Net-(RN2-R1)*%
D45*
X213983200Y-161451200D02*
X213346400Y-161451200D01*
D44*
X237693200Y-159344400D02*
X236837800Y-158489000D01*
D45*
X262055200Y-151993600D02*
X261378500Y-151993600D01*
D44*
X236837800Y-158489000D02*
X236837800Y-158406800D01*
D45*
X213346400Y-161451200D02*
X212677200Y-160782000D01*
X258307600Y-152293400D02*
X261078700Y-152293400D01*
X261078700Y-152293400D02*
X261378500Y-151993600D01*
%TO.N,Net-(U15-IO2)*%
D44*
X238590600Y-156547000D02*
X237693200Y-157444400D01*
X249337400Y-152080000D02*
X248527800Y-152889600D01*
%TO.N,Net-(U10-I2)*%
D45*
X228994000Y-19516000D02*
X229663200Y-18846800D01*
D44*
X227281900Y-19583000D02*
X227281500Y-19583400D01*
D45*
X228300800Y-19516000D02*
X228994000Y-19516000D01*
D44*
X227780200Y-19583000D02*
X227281900Y-19583000D01*
X228300800Y-19516000D02*
X228233400Y-19583400D01*
X228233400Y-19583400D02*
X227780600Y-19583400D01*
X219125800Y-19583400D02*
X218490800Y-18948400D01*
X227281500Y-19583400D02*
X219125800Y-19583400D01*
X227780600Y-19583400D02*
X227780200Y-19583000D01*
%TO.N,Net-(U10-I3)*%
D45*
X219160000Y-20887600D02*
X218490800Y-20218400D01*
X228300800Y-20786000D02*
X228994000Y-20786000D01*
D44*
X228300800Y-20786000D02*
X228233400Y-20853400D01*
D45*
X219864100Y-20887600D02*
X219160000Y-20887600D01*
D44*
X228233400Y-20853400D02*
X219898300Y-20853400D01*
X219898300Y-20853400D02*
X219864100Y-20887600D01*
D45*
X228994000Y-20786000D02*
X229663200Y-20116800D01*
%TO.N,Net-(U10-I4)*%
X217849600Y-22129600D02*
X217215500Y-22129600D01*
D44*
X229388200Y-21661800D02*
X228112600Y-21661800D01*
X229663200Y-21386800D02*
X229388200Y-21661800D01*
D45*
X218490800Y-21488400D02*
X217849600Y-22129600D01*
%TO.N,Net-(U10-I5)*%
D44*
X229500200Y-22493800D02*
X229663200Y-22656800D01*
X218837400Y-23105000D02*
X218490800Y-22758400D01*
X227897800Y-22493800D02*
X229500200Y-22493800D01*
X219985400Y-23105000D02*
X218837400Y-23105000D01*
%TO.N,Net-(U10-I6)*%
X228165000Y-23393400D02*
X220569300Y-23393400D01*
D45*
X228994000Y-23257600D02*
X229663200Y-23926800D01*
D44*
X220569300Y-23393400D02*
X219934300Y-24028400D01*
D45*
X228300800Y-23257600D02*
X228994000Y-23257600D01*
D44*
X228300800Y-23257600D02*
X228165000Y-23393400D01*
X219934300Y-24028400D02*
X218490800Y-24028400D01*
%TO.N,Net-(U10-I7)*%
X220352200Y-24946800D02*
X220850500Y-24946800D01*
X220068800Y-24663400D02*
X220352200Y-24946800D01*
X219899400Y-24629200D02*
X219933600Y-24663400D01*
D45*
X219899400Y-24629200D02*
X219160000Y-24629200D01*
D44*
X219933600Y-24663400D02*
X220068800Y-24663400D01*
D45*
X228300800Y-24527600D02*
X228994000Y-24527600D01*
D44*
X228165000Y-24663400D02*
X228300800Y-24527600D01*
D45*
X219160000Y-24629200D02*
X218490800Y-25298400D01*
D44*
X221133900Y-24663400D02*
X228165000Y-24663400D01*
D45*
X228994000Y-24527600D02*
X229663200Y-25196800D01*
D44*
X220850500Y-24946800D02*
X221133900Y-24663400D01*
%TO.N,Net-(U10-I8)*%
X220862500Y-25933400D02*
X220828300Y-25899200D01*
X228313100Y-25797600D02*
X228177300Y-25933400D01*
D45*
X220828300Y-25899200D02*
X219160000Y-25899200D01*
X228994000Y-25797600D02*
X229663200Y-26466800D01*
D44*
X228177300Y-25933400D02*
X220862500Y-25933400D01*
D45*
X219160000Y-25899200D02*
X218490800Y-26568400D01*
X228313100Y-25797600D02*
X228994000Y-25797600D01*
%TO.N,Net-(U8-QH')*%
X222952400Y-37329200D02*
X223621600Y-37998400D01*
D44*
X222287300Y-28991900D02*
X222287300Y-37329200D01*
D45*
X222287300Y-37329200D02*
X222952400Y-37329200D01*
D44*
X223440800Y-27838400D02*
X222287300Y-28991900D01*
%TO.N,Out_Clear*%
X222282600Y-43078400D02*
X222140900Y-43220100D01*
D45*
X224110000Y-27237600D02*
X223440800Y-26568400D01*
X225821600Y-27237600D02*
X224110000Y-27237600D01*
D44*
X223621600Y-43078400D02*
X222282600Y-43078400D01*
%TO.N,Out_Clock*%
X222131000Y-42016600D02*
X223413400Y-42016600D01*
X223413400Y-42016600D02*
X223621600Y-41808400D01*
X221944200Y-25293800D02*
X223436200Y-25293800D01*
X223436200Y-25293800D02*
X223440800Y-25298400D01*
%TO.N,Out_Latch*%
X222101500Y-40813100D02*
X222376200Y-40538400D01*
X221942900Y-24028400D02*
X223440800Y-24028400D01*
X222376200Y-40538400D02*
X223621600Y-40538400D01*
%TO.N,Out_En_N*%
X221286200Y-39268400D02*
X221244300Y-39226500D01*
X223621600Y-39268400D02*
X221286200Y-39268400D01*
X223440800Y-22758400D02*
X223424200Y-22775000D01*
X185782000Y-47154000D02*
X184879200Y-48056800D01*
X223424200Y-22775000D02*
X221576400Y-22775000D01*
%TO.N,Out_Data*%
D45*
X222135500Y-22157600D02*
X222771600Y-22157600D01*
X222771600Y-22157600D02*
X223440800Y-21488400D01*
%TO.N,Net-(U10-I1)*%
D44*
X227531000Y-20184700D02*
X223474500Y-20184700D01*
D45*
X228292100Y-18246000D02*
X228994000Y-18246000D01*
X228994000Y-18246000D02*
X229663200Y-17576800D01*
D44*
X223474500Y-20184700D02*
X223440800Y-20218400D01*
%TO.N,Net-(D2-A)*%
X92608400Y-98993200D02*
X92608400Y-100879800D01*
%TO.N,SW1_Input_Stream*%
X100387500Y-34042500D02*
X100550000Y-33880000D01*
X99054100Y-34042500D02*
X100387500Y-34042500D01*
D45*
X99379700Y-67979700D02*
X98734400Y-67979700D01*
X100050000Y-68650000D02*
X99379700Y-67979700D01*
%TO.N,Net-(RN6-R1)*%
D44*
X99795700Y-69665700D02*
X100050000Y-69920000D01*
X98559400Y-69665700D02*
X99795700Y-69665700D01*
%TO.N,Net-(RN6-R2)*%
D45*
X100716700Y-71856700D02*
X101382800Y-71856700D01*
X100050000Y-71190000D02*
X100716700Y-71856700D01*
%TO.N,Net-(RN6-R3)*%
D44*
X101917400Y-72460000D02*
X101918500Y-72461100D01*
X100050000Y-72460000D02*
X101917400Y-72460000D01*
%TO.N,Net-(RN6-R4)*%
D45*
X100050000Y-73730000D02*
X100717000Y-73063000D01*
X100717000Y-73063000D02*
X101367400Y-73063000D01*
%TO.N,Net-(RN6-R5)*%
D44*
X111143400Y-68326000D02*
X106408600Y-73060800D01*
D45*
X106408600Y-73060800D02*
X106376400Y-73060800D01*
X105635000Y-73095000D02*
X105000000Y-73730000D01*
X106376400Y-73095000D02*
X105635000Y-73095000D01*
D44*
X112014000Y-68326000D02*
X111143400Y-68326000D01*
X106376400Y-73095000D02*
X106376400Y-73060800D01*
%TO.N,Net-(RN6-R6)*%
X87000000Y-76350000D02*
X88985000Y-74365000D01*
X104647600Y-72460000D02*
X105000000Y-72460000D01*
X88985000Y-74365000D02*
X102742600Y-74365000D01*
X112014000Y-66185400D02*
X112014000Y-65786000D01*
D45*
X106408600Y-71790800D02*
X105669200Y-71790800D01*
X105669200Y-71790800D02*
X105000000Y-72460000D01*
D44*
X106408600Y-71790800D02*
X112014000Y-66185400D01*
X102742600Y-74365000D02*
X104647600Y-72460000D01*
%TO.N,Net-(RN6-R7)*%
X105388400Y-71190000D02*
X110574200Y-66004200D01*
X110574200Y-66004200D02*
X110574200Y-64685800D01*
X105000000Y-71190000D02*
X105388400Y-71190000D01*
X110574200Y-64685800D02*
X112014000Y-63246000D01*
%TO.N,Net-(RN6-R8)*%
D45*
X105670800Y-69249200D02*
X106319800Y-69249200D01*
X105000000Y-69920000D02*
X105670800Y-69249200D01*
%TO.N,Net-(RN2-R2)*%
X213346400Y-160181200D02*
X212677200Y-159512000D01*
X213993400Y-160181200D02*
X213346400Y-160181200D01*
D44*
X244715000Y-158723700D02*
X244155900Y-158723700D01*
D45*
X261378500Y-152793600D02*
X261134900Y-153037200D01*
D44*
X244155900Y-158723700D02*
X243535200Y-159344400D01*
D45*
X262055200Y-152793600D02*
X261378500Y-152793600D01*
%TO.N,Net-(U15-IO1)*%
D44*
X248139900Y-149817900D02*
X248975300Y-149817900D01*
X248975300Y-149817900D02*
X249337400Y-150180000D01*
X243535200Y-157444400D02*
X243535200Y-156437800D01*
%TO.N,LED_27M*%
X140494400Y-45473200D02*
X141093200Y-44874400D01*
X139863700Y-45473200D02*
X140494400Y-45473200D01*
%TO.N,Net-(RN10-R2.2)*%
D45*
X261140400Y-165629000D02*
X261230300Y-165629000D01*
X262156800Y-165379200D02*
X261480100Y-165379200D01*
D44*
X219119800Y-159512000D02*
X219122600Y-159509200D01*
X249773700Y-166710400D02*
X248513600Y-166710400D01*
D45*
X261230300Y-165629000D02*
X261480100Y-165379200D01*
D44*
X217627200Y-159512000D02*
X219119800Y-159512000D01*
%TO.N,Net-(U5-IO3)*%
X243465400Y-152487800D02*
X242671600Y-151694000D01*
X248513600Y-164810400D02*
X247602400Y-163899200D01*
%TO.N,/1 Plyr Move Left*%
X262534400Y-72961200D02*
X263236100Y-72961200D01*
X263445100Y-73170200D02*
X263236100Y-72961200D01*
%TO.N,/1 Plyr Move Right*%
X272161200Y-72161200D02*
X262534400Y-72161200D01*
X273000000Y-73000000D02*
X272161200Y-72161200D01*
%TO.N,/1 Plyr Move Up*%
D45*
X263460900Y-71111400D02*
X263211100Y-71361200D01*
D44*
X266955600Y-70460000D02*
X266304200Y-71111400D01*
D45*
X266304200Y-71111400D02*
X263460900Y-71111400D01*
X262534400Y-71361200D02*
X263211100Y-71361200D01*
D44*
X273000000Y-70460000D02*
X266955600Y-70460000D01*
%TO.N,/1 Plyr Move Down*%
X262534400Y-70561200D02*
X263236100Y-70561200D01*
X263460000Y-70337300D02*
X263236100Y-70561200D01*
%TO.N,Net-(RN12-R4.2)*%
X260734400Y-70561200D02*
X260032700Y-70561200D01*
X212699600Y-65509300D02*
X212699600Y-64770000D01*
X213296700Y-66106400D02*
X212699600Y-65509300D01*
X234485700Y-69719900D02*
X234485700Y-69794800D01*
X259808800Y-70337300D02*
X260032700Y-70561200D01*
X235356400Y-68849200D02*
X234485700Y-69719900D01*
%TO.N,Net-(RN12-R2.2)*%
X260722400Y-72173200D02*
X260734400Y-72161200D01*
X258200900Y-72173200D02*
X260722400Y-72173200D01*
X215239600Y-63249600D02*
X215239600Y-64770000D01*
X247599200Y-68101700D02*
X247599200Y-69118400D01*
X258091700Y-72064000D02*
X258200900Y-72173200D01*
%TO.N,Net-(RN12-R1.2)*%
D45*
X259757900Y-72661400D02*
X260057700Y-72961200D01*
D44*
X256137900Y-71151200D02*
X256137900Y-71151100D01*
X257648100Y-72661400D02*
X256137900Y-71151200D01*
D45*
X260734400Y-72961200D02*
X260057700Y-72961200D01*
D44*
X216509600Y-63262600D02*
X216509600Y-64770000D01*
X254406400Y-69419600D02*
X256137900Y-71151100D01*
D45*
X257648100Y-72661400D02*
X259757900Y-72661400D01*
D44*
X254406400Y-69220000D02*
X254406400Y-69419600D01*
%TO.N,Net-(RN2-R4)*%
X261353500Y-154393600D02*
X261140800Y-154606300D01*
X213011200Y-157306000D02*
X212677200Y-156972000D01*
X254915300Y-158784700D02*
X254000000Y-159700000D01*
X262055200Y-154393600D02*
X261353500Y-154393600D01*
X214187500Y-157306000D02*
X213011200Y-157306000D01*
%TO.N,Net-(RN2-R3)*%
X260587600Y-153993400D02*
X261174900Y-153993400D01*
X248666000Y-159700000D02*
X246771200Y-161594800D01*
D45*
X213346400Y-158911200D02*
X212677200Y-158242000D01*
D44*
X261574700Y-153593600D02*
X262055200Y-153593600D01*
D45*
X213995400Y-158911200D02*
X213346400Y-158911200D01*
D44*
X261174900Y-153993400D02*
X261574700Y-153593600D01*
X249581300Y-158784700D02*
X248666000Y-159700000D01*
X246771200Y-161594800D02*
X226110800Y-161594800D01*
%TO.N,J4_Input_Stream*%
X217779600Y-64770000D02*
X217779600Y-66270800D01*
D45*
X217627200Y-163322000D02*
X218271800Y-162677400D01*
X218271800Y-162677400D02*
X218937500Y-162677400D01*
%TO.N,Net-(RN10-R1.2)*%
D44*
X217627200Y-160782000D02*
X217228500Y-160782000D01*
X261177900Y-166456400D02*
X261455100Y-166179200D01*
X262156800Y-166179200D02*
X261455100Y-166179200D01*
X215499700Y-159053200D02*
X215499700Y-154898200D01*
X217228500Y-160782000D02*
X215499700Y-159053200D01*
X215499700Y-154898200D02*
X221503100Y-148894800D01*
X221503100Y-148894800D02*
X226110800Y-148894800D01*
X253390400Y-166456400D02*
X258307600Y-166456400D01*
X258307600Y-166456400D02*
X261177900Y-166456400D01*
%TO.N,Net-(RN10-R3.2)*%
X261348100Y-164686200D02*
X261255100Y-164686200D01*
D45*
X217627200Y-158242000D02*
X218296400Y-157572800D01*
D44*
X242956900Y-167066000D02*
X243433600Y-167066000D01*
X261455100Y-164579200D02*
X261348100Y-164686200D01*
X262156800Y-164579200D02*
X261455100Y-164579200D01*
D45*
X218296400Y-157572800D02*
X218943400Y-157572800D01*
D44*
X242280500Y-166389600D02*
X242956900Y-167066000D01*
X261255100Y-164686200D02*
X261255100Y-164686300D01*
%TO.N,Net-(RN10-R4.2)*%
X218084400Y-156514800D02*
X217627200Y-156972000D01*
X226110800Y-156514800D02*
X218084400Y-156514800D01*
X238302800Y-167218400D02*
X237068300Y-167218400D01*
X263617700Y-163020000D02*
X262858500Y-163779200D01*
X262156800Y-163779200D02*
X262858500Y-163779200D01*
%TO.N,Net-(U23-IO4)*%
D45*
X253390400Y-115194000D02*
X253741200Y-115544800D01*
D44*
X254969700Y-129007100D02*
X255016000Y-128960800D01*
X253750300Y-129007100D02*
X254969700Y-129007100D01*
D45*
X253741200Y-115544800D02*
X255094900Y-115544800D01*
%TO.N,Net-(J2_RGBS_Out1-Pin_8)*%
D44*
X182372000Y-17373600D02*
X176784000Y-22961600D01*
X164469200Y-35667400D02*
X163763800Y-36372800D01*
X191719200Y-17373600D02*
X182372000Y-17373600D01*
%TO.N,Net-(J2_RGBS_Out1-Pin_9)*%
D45*
X163913200Y-36873400D02*
X163763800Y-37022800D01*
X165022000Y-36873400D02*
X163913200Y-36873400D01*
D44*
X191973200Y-24587200D02*
X190347600Y-22961600D01*
X190347600Y-22961600D02*
X179324000Y-22961600D01*
%TO.N,Net-(D1-A)*%
X89712800Y-131997200D02*
X89712800Y-133849000D01*
X89662000Y-131946400D02*
X89712800Y-131997200D01*
%TO.N,Net-(RN11-R1.2)*%
X253898400Y-62717600D02*
X254074000Y-62717600D01*
X255671400Y-64376000D02*
X255671400Y-64076200D01*
D45*
X255432600Y-64076200D02*
X255671400Y-64076200D01*
X255671400Y-64376000D02*
X259571700Y-64376000D01*
D44*
X254074000Y-62717600D02*
X255432600Y-64076200D01*
X212699600Y-69720000D02*
X212699600Y-68233100D01*
D45*
X260248400Y-64376000D02*
X259571700Y-64376000D01*
%TO.N,Net-(U18-IO4)*%
D44*
X240355800Y-54848300D02*
X239561800Y-55642300D01*
X253898400Y-64617600D02*
X252647800Y-64617600D01*
%TO.N,Net-(U23-IO2)*%
X251115400Y-117094000D02*
X250306300Y-117903100D01*
X239371900Y-128023700D02*
X241296600Y-128023700D01*
X238470400Y-128925200D02*
X239371900Y-128023700D01*
%TO.N,Net-(D3-A)*%
X93522800Y-116011200D02*
X93573600Y-116062000D01*
X93573600Y-116062000D02*
X93573600Y-117838000D01*
%TO.N,Net-(U15-IO3)*%
X248666000Y-157800000D02*
X251612400Y-154853600D01*
X251612400Y-154853600D02*
X251612400Y-152080000D01*
%TO.N,IN_DATA*%
X102653300Y-69568600D02*
X102653300Y-73512300D01*
X100050000Y-67380000D02*
X100464700Y-67380000D01*
X100464700Y-67380000D02*
X102653300Y-69568600D01*
%TO.N,LED_DDR_RST*%
X135148400Y-45819200D02*
X136093200Y-44874400D01*
%TO.N,Service Switch*%
X208026000Y-28244800D02*
X207975200Y-28194000D01*
X116214400Y-138176000D02*
X116448100Y-137942300D01*
X207975200Y-28194000D02*
X207975200Y-26240200D01*
X116448100Y-137942300D02*
X117342400Y-137942300D01*
X207975200Y-26240200D02*
X207907800Y-26172800D01*
%TO.N,VID_B2*%
X172429200Y-48056800D02*
X171516700Y-48969300D01*
%TO.N,Net-(U11-I1)*%
X229821600Y-34183800D02*
X229012400Y-33374600D01*
D45*
X224289600Y-36060400D02*
X224935200Y-36060400D01*
X223621600Y-36728400D02*
X224289600Y-36060400D01*
%TO.N,Net-(U11-I2)*%
D44*
X218763100Y-35366900D02*
X220168900Y-35366900D01*
X218671600Y-35458400D02*
X218763100Y-35366900D01*
D45*
X228440700Y-34784600D02*
X229152400Y-34784600D01*
X229152400Y-34784600D02*
X229821600Y-35453800D01*
%TO.N,Net-(U11-I3)*%
D44*
X228287500Y-37011100D02*
X229534300Y-37011100D01*
X220152400Y-36420600D02*
X218979400Y-36420600D01*
X229534300Y-37011100D02*
X229821600Y-36723800D01*
X218979400Y-36420600D02*
X218671600Y-36728400D01*
%TO.N,Net-(U11-I4)*%
D45*
X229152400Y-38663000D02*
X228474800Y-38663000D01*
X228474800Y-38663000D02*
X228474800Y-38662000D01*
X229821600Y-37993800D02*
X229152400Y-38663000D01*
D44*
X218671600Y-37998400D02*
X218932800Y-37737200D01*
X218932800Y-37737200D02*
X220169700Y-37737200D01*
%TO.N,Net-(U11-I5)*%
D45*
X219323300Y-38616700D02*
X219967900Y-38616700D01*
X218671600Y-39268400D02*
X219323300Y-38616700D01*
D44*
X227903700Y-39263800D02*
X229821600Y-39263800D01*
%TO.N,Net-(U11-I6)*%
D45*
X220080200Y-39869200D02*
X219340800Y-39869200D01*
D44*
X220080200Y-39869200D02*
X220114400Y-39903400D01*
X220114400Y-39903400D02*
X228421400Y-39903400D01*
X228421400Y-39903400D02*
X228459200Y-39865600D01*
D45*
X229821600Y-40533800D02*
X229153400Y-39865600D01*
X219340800Y-39869200D02*
X218671600Y-40538400D01*
X229153400Y-39865600D02*
X228459200Y-39865600D01*
%TO.N,Net-(U11-I7)*%
D44*
X228421900Y-41171900D02*
X228459200Y-41134600D01*
X220080200Y-41139200D02*
X220355800Y-41414800D01*
D45*
X220080200Y-41139200D02*
X219340800Y-41139200D01*
D44*
X220355800Y-41414800D02*
X222350700Y-41414800D01*
D45*
X228459200Y-41134600D02*
X229152400Y-41134600D01*
D44*
X222593600Y-41171900D02*
X228421900Y-41171900D01*
X222350700Y-41414800D02*
X222593600Y-41171900D01*
D45*
X219340800Y-41139200D02*
X218671600Y-41808400D01*
X229152400Y-41134600D02*
X229821600Y-41803800D01*
%TO.N,Net-(U11-I8)*%
D44*
X222555100Y-42443400D02*
X228420400Y-42443400D01*
X228420400Y-42443400D02*
X228459200Y-42404600D01*
X220044900Y-42409200D02*
X220254000Y-42618300D01*
D45*
X219340800Y-42409200D02*
X218671600Y-43078400D01*
D44*
X220254000Y-42618300D02*
X222380200Y-42618300D01*
X222380200Y-42618300D02*
X222555100Y-42443400D01*
D45*
X228459200Y-42404600D02*
X229152400Y-42404600D01*
X229152400Y-42404600D02*
X229821600Y-43073800D01*
X220044900Y-42409200D02*
X219340800Y-42409200D01*
%TO.N,SEL*%
X239121600Y-43073800D02*
X239787600Y-42407800D01*
X239787600Y-42407800D02*
X241109400Y-42407800D01*
%TO.N,ARD*%
X239790800Y-41134600D02*
X239121600Y-41803800D01*
X240484000Y-41134600D02*
X239790800Y-41134600D01*
%TO.N,ST1*%
D44*
X272500300Y-40479700D02*
X239175700Y-40479700D01*
X273000000Y-39980000D02*
X272500300Y-40479700D01*
X239175700Y-40479700D02*
X239121600Y-40533800D01*
%TO.N,ST0*%
X239121600Y-39263800D02*
X239941500Y-39263800D01*
X239941500Y-39263800D02*
X240522700Y-39845000D01*
%TO.N,MD3*%
D45*
X239790800Y-38663000D02*
X239121600Y-37993800D01*
X240484000Y-38663000D02*
X239790800Y-38663000D01*
%TO.N,MD2*%
X240484000Y-37393000D02*
X239790800Y-37393000D01*
X239790800Y-37393000D02*
X239121600Y-36723800D01*
%TO.N,MD1*%
X240484000Y-36123000D02*
X239790800Y-36123000D01*
X239790800Y-36123000D02*
X239121600Y-35453800D01*
%TO.N,MD0*%
X239790800Y-34853000D02*
X239121600Y-34183800D01*
X240488800Y-34853000D02*
X239790800Y-34853000D01*
%TO.N,Net-(U23-IO1)*%
X249941500Y-115543200D02*
X250766200Y-115543200D01*
D44*
X245035600Y-127866800D02*
X244297200Y-128605200D01*
D45*
X250766200Y-115543200D02*
X251115400Y-115194000D01*
D44*
X245360500Y-127866800D02*
X245035600Y-127866800D01*
%TO.N,Net-(U23-IO3)*%
X249783600Y-128706800D02*
X250679500Y-127810900D01*
X253390400Y-117913000D02*
X253390400Y-117094000D01*
%TO.N,Net-(U16-IO3)*%
X240571600Y-182472500D02*
X239397300Y-182472500D01*
X239397300Y-182472500D02*
X239389500Y-182464700D01*
X246874100Y-194346900D02*
X247294400Y-194767200D01*
X246027900Y-194346900D02*
X246874100Y-194346900D01*
%TO.N,VID_R3*%
X161599300Y-48886700D02*
X156449300Y-48886700D01*
X162429200Y-48056800D02*
X161599300Y-48886700D01*
%TO.N,Net-(U18-IO1)*%
X240621100Y-63493700D02*
X240619500Y-63493700D01*
X241518400Y-64391000D02*
X240621100Y-63493700D01*
X236492800Y-54848300D02*
X237286800Y-55642300D01*
%TO.N,Net-(U18-IO2)*%
X237286800Y-57542300D02*
X235422400Y-59406700D01*
X235422400Y-59406700D02*
X235422400Y-62346800D01*
%TO.N,Net-(U18-IO3)*%
X239561800Y-57542300D02*
X239810800Y-57791300D01*
X248056400Y-64465200D02*
X247147500Y-63556300D01*
X239810800Y-57791300D02*
X241382500Y-57791300D01*
%TO.N,Net-(U15-IO4)*%
X253092200Y-156892200D02*
X254000000Y-157800000D01*
X252815400Y-149817900D02*
X251974500Y-149817900D01*
X251974500Y-149817900D02*
X251612400Y-150180000D01*
%TO.N,AUD_PWM_L2*%
X226747700Y-102692200D02*
X228398700Y-101041200D01*
%TO.N,VID_R2*%
X125222000Y-145542000D02*
X123823600Y-145542000D01*
X164929200Y-48056800D02*
X164929200Y-47024700D01*
X123823600Y-145542000D02*
X123441200Y-145924400D01*
%TO.N,AUD_PWM_R2*%
X227621000Y-98198300D02*
X228449500Y-97369800D01*
X228449500Y-97369800D02*
X228449500Y-97231200D01*
%TO.N,VID_B1*%
X175797000Y-47189000D02*
X175797000Y-47147200D01*
X174929200Y-48056800D02*
X175797000Y-47189000D01*
%TO.N,VID_B3*%
X169929200Y-48056800D02*
X169037700Y-48948300D01*
%TO.N,Net-(D4-K)*%
X117067600Y-132740400D02*
X117016800Y-132791200D01*
D46*
X118262400Y-132740400D02*
X117067600Y-132740400D01*
%TO.N,VID_G1*%
D44*
X181516700Y-48969300D02*
X182429200Y-48056800D01*
%TO.N,VID_G2*%
X179929200Y-48056800D02*
X179032300Y-48953700D01*
%TO.N,VID_HS*%
X156535500Y-50775500D02*
X156535500Y-50775700D01*
X157429200Y-49881800D02*
X156535500Y-50775500D01*
%TO.N,VID_VS*%
X159929200Y-49881800D02*
X159038500Y-50772500D01*
X159038500Y-50772500D02*
X159038500Y-50774100D01*
%TO.N,LED_CALIB*%
X151093200Y-44874400D02*
X150146300Y-45821300D01*
%TO.N,AUD_PWM_R1*%
X238930200Y-106762300D02*
X238930200Y-108000800D01*
%TO.N,Net-(U5-IO1)*%
X239214000Y-149817900D02*
X240372700Y-149817900D01*
X243433600Y-164142500D02*
X243433600Y-165166000D01*
X240372700Y-149817900D02*
X240396600Y-149794000D01*
%TO.N,Net-(U5-IO2)*%
X238302800Y-164296400D02*
X238302800Y-165318400D01*
X239602800Y-152487800D02*
X240396600Y-151694000D01*
%TO.N,Net-(U5-IO4)*%
X242969400Y-149496200D02*
X242671600Y-149794000D01*
X244351900Y-149496200D02*
X242969400Y-149496200D01*
X252137200Y-164556400D02*
X253390400Y-164556400D01*
%TO.N,Net-(J3_DOT1-Pin_10)*%
X223982000Y-93663600D02*
X223982000Y-92453700D01*
X229380000Y-92679100D02*
X230274500Y-93573600D01*
X223982000Y-92453700D02*
X224003500Y-92432200D01*
%TO.N,Net-(U12-CH1_IN)*%
X158038800Y-36314500D02*
X158038800Y-36372800D01*
X157429200Y-47037000D02*
X157430400Y-47035800D01*
X158713300Y-35640000D02*
X158038800Y-36314500D01*
X157429200Y-48056800D02*
X157429200Y-47037000D01*
%TO.N,Net-(U17-IO1)*%
X245542000Y-179816200D02*
X246340200Y-180614400D01*
X241546500Y-188409700D02*
X241452400Y-188315600D01*
X242702200Y-188409700D02*
X241546500Y-188409700D01*
%TO.N,Net-(J3-Pin_7)*%
X240805200Y-103000800D02*
X240755200Y-103050800D01*
X243855200Y-103000800D02*
X240805200Y-103000800D01*
X243855200Y-102405400D02*
X243855200Y-103000800D01*
X244458500Y-101802100D02*
X243855200Y-102405400D01*
%TO.N,Net-(J6-Pin_5)*%
X263296400Y-118313200D02*
X263998100Y-118313200D01*
X263998100Y-118999200D02*
X263998100Y-118313200D01*
%TO.N,Net-(J6-Pin_6)*%
D45*
X263296400Y-117513200D02*
X263973100Y-117513200D01*
X263973100Y-117513200D02*
X264176300Y-117716400D01*
X264176300Y-117716400D02*
X264279100Y-117716400D01*
%TO.N,Net-(J6-Pin_7)*%
D44*
X263354800Y-116771600D02*
X264740500Y-116771600D01*
X263296400Y-116713200D02*
X263354800Y-116771600D01*
%TO.N,Net-(J6-Pin_9)*%
D45*
X263296400Y-115913200D02*
X263973100Y-115913200D01*
X264216700Y-116156800D02*
X263973100Y-115913200D01*
%TO.N,Net-(J4-Pin_15)*%
D44*
X263855200Y-154393600D02*
X264556900Y-154393600D01*
X264759900Y-154596600D02*
X264556900Y-154393600D01*
%TO.N,Net-(J4-Pin_16)*%
D45*
X265151600Y-153843400D02*
X264781700Y-153843400D01*
X264781700Y-153843400D02*
X264531900Y-153593600D01*
X263855200Y-153593600D02*
X264531900Y-153593600D01*
%TO.N,Net-(J4-Pin_17)*%
D44*
X265560900Y-153093400D02*
X265101100Y-153093400D01*
D45*
X264831700Y-153093400D02*
X264531900Y-152793600D01*
X265101100Y-153093400D02*
X264831700Y-153093400D01*
X263855200Y-152793600D02*
X264531900Y-152793600D01*
%TO.N,Net-(J4-Pin_18)*%
X263855200Y-151993600D02*
X264531900Y-151993600D01*
X272712600Y-152293400D02*
X264831700Y-152293400D01*
D44*
X273862800Y-153924000D02*
X272712600Y-152773800D01*
X272712600Y-152773800D02*
X272712600Y-152293400D01*
D45*
X264831700Y-152293400D02*
X264531900Y-151993600D01*
%TO.N,Net-(J4-Pin_4)*%
X264645100Y-198600000D02*
X264401500Y-198843600D01*
X263724800Y-198843600D02*
X264401500Y-198843600D01*
%TO.N,Net-(J4-Pin_3)*%
D44*
X263724800Y-198043600D02*
X263910900Y-197857500D01*
X263910900Y-197857500D02*
X265046100Y-197857500D01*
%TO.N,Net-(J4-Pin_2)*%
X266600900Y-197243600D02*
X263724800Y-197243600D01*
X266677800Y-197320500D02*
X266600900Y-197243600D01*
%TO.N,Net-(J4-Pin_1)*%
D45*
X264701300Y-196743400D02*
X264401500Y-196443600D01*
X272712600Y-196743400D02*
X264701300Y-196743400D01*
X263724800Y-196443600D02*
X264401500Y-196443600D01*
D44*
X273862800Y-197104000D02*
X273073200Y-197104000D01*
X273073200Y-197104000D02*
X272712600Y-196743400D01*
%TO.N,Net-(J3-Pin_9)*%
X243855200Y-96754100D02*
X243855200Y-98000800D01*
X243855200Y-98000800D02*
X240755200Y-98000800D01*
%TO.N,Net-(C47-Pad1)*%
X229305000Y-99958500D02*
X224922700Y-99958500D01*
X229305000Y-94429100D02*
X228449500Y-93573600D01*
X229305000Y-100122500D02*
X229305000Y-99958500D01*
X224922700Y-99958500D02*
X223890800Y-100990400D01*
X230223700Y-101041200D02*
X229305000Y-100122500D01*
X229305000Y-99958500D02*
X229305000Y-94429100D01*
%TO.N,Net-(U19-IO2)*%
X248286700Y-57791300D02*
X249259600Y-57791300D01*
X235356400Y-70749200D02*
X236590400Y-70749200D01*
X249259600Y-57791300D02*
X249458900Y-57592000D01*
%TO.N,Net-(U19-IO3)*%
X251733900Y-57592000D02*
X250939100Y-58386800D01*
X248829200Y-71018400D02*
X247599200Y-71018400D01*
X250939100Y-58386800D02*
X250939100Y-58388400D01*
%TO.N,Net-(U19-IO4)*%
X252548900Y-54877000D02*
X251733900Y-55692000D01*
X253482900Y-70196500D02*
X254406400Y-71120000D01*
%TO.N,Net-(J3-Pin_2)*%
X240755200Y-87613800D02*
X240755200Y-87500800D01*
X241600300Y-88458900D02*
X240755200Y-87613800D01*
%TO.N,Net-(J5-Pin_5)*%
X263754100Y-65380000D02*
X262750100Y-64376000D01*
X273000000Y-65380000D02*
X263754100Y-65380000D01*
X262048400Y-64376000D02*
X262750100Y-64376000D01*
%TO.N,Net-(J5-Pin_6)*%
D45*
X263024900Y-63276200D02*
X262725100Y-63576000D01*
X266590500Y-63276200D02*
X263024900Y-63276200D01*
X262048400Y-63576000D02*
X262725100Y-63576000D01*
D44*
X267026700Y-62840000D02*
X266590500Y-63276200D01*
X273000000Y-62840000D02*
X267026700Y-62840000D01*
%TO.N,Net-(J5-Pin_7)*%
D45*
X262974900Y-62526200D02*
X262725100Y-62776000D01*
D44*
X263776700Y-61993800D02*
X263244300Y-62526200D01*
D45*
X262048400Y-62776000D02*
X262725100Y-62776000D01*
X263244300Y-62526200D02*
X262974900Y-62526200D01*
%TO.N,Net-(J5-Pin_8)*%
D44*
X262048400Y-61976000D02*
X262750100Y-61976000D01*
X262750100Y-61976000D02*
X262978100Y-61748000D01*
X262978100Y-61748000D02*
X262973900Y-61743800D01*
%TO.N,Net-(RN11-R4.2)*%
X260248400Y-61976000D02*
X259546700Y-61976000D01*
X259344600Y-61773900D02*
X259546700Y-61976000D01*
X235422400Y-65250400D02*
X235422400Y-64246800D01*
X216509600Y-69720000D02*
X216509600Y-71213000D01*
%TO.N,Net-(RN11-R3.2)*%
X242263600Y-61745800D02*
X258328100Y-61745800D01*
X241518400Y-62491000D02*
X242263600Y-61745800D01*
X230841600Y-66532100D02*
X236418500Y-66532100D01*
X259358300Y-62776000D02*
X260248400Y-62776000D01*
X240459600Y-62491000D02*
X241518400Y-62491000D01*
X236418500Y-66532100D02*
X240459600Y-62491000D01*
X258328100Y-61745800D02*
X259358300Y-62776000D01*
X215239600Y-71217300D02*
X215239600Y-69720000D01*
%TO.N,Net-(RN11-R2.2)*%
X248056400Y-62565200D02*
X248950900Y-63459700D01*
X248950900Y-63459700D02*
X248951100Y-63459700D01*
X213969600Y-69720000D02*
X213969600Y-68222300D01*
X259309500Y-63576000D02*
X260248400Y-63576000D01*
X248951100Y-63459700D02*
X248951100Y-63459800D01*
%TO.N,Net-(U25-IN)*%
D47*
X67662800Y-115671600D02*
X69414500Y-115671600D01*
X77309300Y-113921300D02*
X71164800Y-113921300D01*
X71164800Y-113921300D02*
X69414500Y-115671600D01*
%TO.N,Net-(C45-Pad1)*%
D44*
X240755200Y-104875800D02*
X238930200Y-103050800D01*
X243855200Y-108000800D02*
X240755200Y-108000800D01*
X240755200Y-108000800D02*
X240755200Y-104875800D01*
%TO.N,Net-(U16-IO4)*%
X240185100Y-179769100D02*
X239389500Y-180564700D01*
X252360500Y-194346900D02*
X252780800Y-194767200D01*
X251511900Y-194346900D02*
X252360500Y-194346900D01*
%TO.N,Coin_Meter_Return*%
D45*
X240325600Y-19516000D02*
X239632400Y-19516000D01*
X239632400Y-19516000D02*
X238963200Y-18846800D01*
%TO.N,Coin_Meter*%
X241031800Y-18246000D02*
X239632400Y-18246000D01*
X239632400Y-18246000D02*
X238963200Y-17576800D01*
%TO.N,Net-(C46-Pad1)*%
D44*
X228449500Y-90093700D02*
X228449500Y-90017600D01*
X223992400Y-97410300D02*
X224765700Y-98183600D01*
X229305600Y-90949800D02*
X228449500Y-90093700D01*
X231229700Y-96383100D02*
X231122600Y-96383100D01*
X231122600Y-96383100D02*
X230274500Y-97231200D01*
X223992400Y-97129600D02*
X223992400Y-97410300D01*
%TO.N,Net-(U17-IO2)*%
X246340200Y-182560500D02*
X246340200Y-182514400D01*
X236314100Y-188409700D02*
X236220000Y-188315600D01*
X237468900Y-188409700D02*
X236314100Y-188409700D01*
X245575000Y-183325700D02*
X246340200Y-182560500D01*
%TO.N,Net-(U17-IO4)*%
X249413400Y-179816200D02*
X248615200Y-180614400D01*
X252882400Y-188315600D02*
X252789900Y-188408100D01*
X252789900Y-188408100D02*
X251641200Y-188408100D01*
%TO.N,Net-(U12-CH2_IN)*%
D45*
X159001000Y-37022800D02*
X159730600Y-37752400D01*
D44*
X159929200Y-48056800D02*
X159929200Y-47038900D01*
D45*
X158038800Y-37022800D02*
X159001000Y-37022800D01*
%TO.N,Net-(J6-Pin_1)*%
D44*
X263318400Y-133045200D02*
X264020100Y-133045200D01*
X264221000Y-133246100D02*
X264020100Y-133045200D01*
%TO.N,Net-(J6-Pin_2)*%
D45*
X264622700Y-132495000D02*
X264244900Y-132495000D01*
X263318400Y-132245200D02*
X263995100Y-132245200D01*
X264244900Y-132495000D02*
X263995100Y-132245200D01*
%TO.N,Net-(J6-Pin_3)*%
X264564300Y-131745000D02*
X264294900Y-131745000D01*
X264294900Y-131745000D02*
X263995100Y-131445200D01*
D44*
X265028200Y-131745000D02*
X264564300Y-131745000D01*
D45*
X263318400Y-131445200D02*
X263995100Y-131445200D01*
%TO.N,Net-(J6-Pin_4)*%
X264294900Y-130945000D02*
X263995100Y-130645200D01*
X267216400Y-130945000D02*
X264294900Y-130945000D01*
X263318400Y-130645200D02*
X263995100Y-130645200D01*
%TO.N,Net-(J3_DOT1-Pin_9)*%
D44*
X224094000Y-90119200D02*
X224094000Y-88876700D01*
X230274500Y-88784000D02*
X230274500Y-90017600D01*
%TO.N,Net-(J4-Pin_10)*%
X263956800Y-166179200D02*
X264658500Y-166179200D01*
X264876100Y-166396800D02*
X264658500Y-166179200D01*
%TO.N,Net-(J4-Pin_11)*%
D45*
X264883300Y-165629000D02*
X264633500Y-165379200D01*
X265259800Y-165629000D02*
X264883300Y-165629000D01*
X263956800Y-165379200D02*
X264633500Y-165379200D01*
%TO.N,Net-(J4-Pin_12)*%
D44*
X264038500Y-164660900D02*
X263956800Y-164579200D01*
X265379200Y-164660900D02*
X264038500Y-164660900D01*
%TO.N,Net-(J4-Pin_13)*%
D45*
X263956800Y-163779200D02*
X264633500Y-163779200D01*
X264877100Y-164022800D02*
X264633500Y-163779200D01*
%TO.N,Net-(J4-Pin_5)*%
D44*
X273244800Y-186944000D02*
X272712600Y-187476200D01*
D45*
X263315600Y-187776000D02*
X263992300Y-187776000D01*
D44*
X273862800Y-186944000D02*
X273244800Y-186944000D01*
D45*
X272712600Y-187476200D02*
X264292100Y-187476200D01*
X264292100Y-187476200D02*
X263992300Y-187776000D01*
%TO.N,Net-(J4-Pin_6)*%
D44*
X271590600Y-186676200D02*
X264561500Y-186676200D01*
D45*
X264561500Y-186676200D02*
X264292100Y-186676200D01*
D44*
X273862800Y-184404000D02*
X271590600Y-186676200D01*
D45*
X263315600Y-186976000D02*
X263992300Y-186976000D01*
X264292100Y-186676200D02*
X263992300Y-186976000D01*
%TO.N,Net-(J4-Pin_7)*%
X264242100Y-185926200D02*
X263992300Y-186176000D01*
X264511500Y-185926200D02*
X264242100Y-185926200D01*
X263315600Y-186176000D02*
X263992300Y-186176000D01*
D44*
X265043800Y-185393900D02*
X264511500Y-185926200D01*
%TO.N,Net-(J4-Pin_8)*%
X264017300Y-185376000D02*
X264220800Y-185172500D01*
X263315600Y-185376000D02*
X264017300Y-185376000D01*
%TD*%
M02*
