%TF.GenerationSoftware,KiCad,Pcbnew,10.0.1*%
%TF.CreationDate,2026-08-27T14:33:28-04:00*%
%TF.ProjectId,MCR_prototype_PCB,4d43525f-7072-46f7-946f-747970655f50,rev?*%
%TF.SameCoordinates,Original*%
%TF.FileFunction,Copper,L1,Top*%
%TF.FilePolarity,Positive*%
%FSLAX46Y46*%
G04 Gerber Fmt 4.6, Leading zero omitted, Abs format (unit mm)*
G04 Created by KiCad (PCBNEW 10.0.1) date 2026-08-27 14:33:28*
%MOMM*%
%LPD*%
G01*
G04 APERTURE LIST*
G04 Aperture macros list*
%AMRoundRect*
0 Rectangle with rounded corners*
0 $1 Rounding radius*
0 $2 $3 $4 $5 $6 $7 $8 $9 X,Y pos of 4 corners*
0 Add a 4 corners polygon primitive as box body*
4,1,4,$2,$3,$4,$5,$6,$7,$8,$9,$2,$3,0*
0 Add four circle primitives for the rounded corners*
1,1,$1+$1,$2,$3*
1,1,$1+$1,$4,$5*
1,1,$1+$1,$6,$7*
1,1,$1+$1,$8,$9*
0 Add four rect primitives between the rounded corners*
20,1,$1+$1,$2,$3,$4,$5,0*
20,1,$1+$1,$4,$5,$6,$7,0*
20,1,$1+$1,$6,$7,$8,$9,0*
20,1,$1+$1,$8,$9,$2,$3,0*%
G04 Aperture macros list end*
%ADD10C,0.300000*%
%TA.AperFunction,NonConductor*%
%ADD11C,0.300000*%
%TD*%
%TA.AperFunction,SMDPad,CuDef*%
%ADD12RoundRect,0.250000X-0.525000X-0.400000X0.525000X-0.400000X0.525000X0.400000X-0.525000X0.400000X0*%
%TD*%
%TA.AperFunction,SMDPad,CuDef*%
%ADD13RoundRect,0.250000X-0.262500X-0.450000X0.262500X-0.450000X0.262500X0.450000X-0.262500X0.450000X0*%
%TD*%
%TA.AperFunction,SMDPad,CuDef*%
%ADD14RoundRect,0.250000X-0.250000X-0.475000X0.250000X-0.475000X0.250000X0.475000X-0.250000X0.475000X0*%
%TD*%
%TA.AperFunction,ComponentPad*%
%ADD15R,1.700000X1.700000*%
%TD*%
%TA.AperFunction,ComponentPad*%
%ADD16C,1.700000*%
%TD*%
%TA.AperFunction,ComponentPad*%
%ADD17RoundRect,0.250000X1.350000X1.350000X-1.350000X1.350000X-1.350000X-1.350000X1.350000X-1.350000X0*%
%TD*%
%TA.AperFunction,ComponentPad*%
%ADD18C,3.200000*%
%TD*%
%TA.AperFunction,SMDPad,CuDef*%
%ADD19RoundRect,0.250000X-0.550000X1.500000X-0.550000X-1.500000X0.550000X-1.500000X0.550000X1.500000X0*%
%TD*%
%TA.AperFunction,SMDPad,CuDef*%
%ADD20RoundRect,0.250000X-0.475000X0.250000X-0.475000X-0.250000X0.475000X-0.250000X0.475000X0.250000X0*%
%TD*%
%TA.AperFunction,SMDPad,CuDef*%
%ADD21RoundRect,0.150000X-0.825000X-0.150000X0.825000X-0.150000X0.825000X0.150000X-0.825000X0.150000X0*%
%TD*%
%TA.AperFunction,SMDPad,CuDef*%
%ADD22RoundRect,0.100000X-0.637500X-0.100000X0.637500X-0.100000X0.637500X0.100000X-0.637500X0.100000X0*%
%TD*%
%TA.AperFunction,SMDPad,CuDef*%
%ADD23RoundRect,0.250000X-0.450000X0.325000X-0.450000X-0.325000X0.450000X-0.325000X0.450000X0.325000X0*%
%TD*%
%TA.AperFunction,SMDPad,CuDef*%
%ADD24R,2.900000X5.400000*%
%TD*%
%TA.AperFunction,SMDPad,CuDef*%
%ADD25RoundRect,0.150000X-0.512500X-0.150000X0.512500X-0.150000X0.512500X0.150000X-0.512500X0.150000X0*%
%TD*%
%TA.AperFunction,ComponentPad*%
%ADD26RoundRect,0.250000X0.750000X0.750000X-0.750000X0.750000X-0.750000X-0.750000X0.750000X-0.750000X0*%
%TD*%
%TA.AperFunction,ComponentPad*%
%ADD27C,2.000000*%
%TD*%
%TA.AperFunction,SMDPad,CuDef*%
%ADD28RoundRect,0.250000X0.450000X-0.262500X0.450000X0.262500X-0.450000X0.262500X-0.450000X-0.262500X0*%
%TD*%
%TA.AperFunction,ComponentPad*%
%ADD29R,1.600000X1.600000*%
%TD*%
%TA.AperFunction,ComponentPad*%
%ADD30C,1.600000*%
%TD*%
%TA.AperFunction,SMDPad,CuDef*%
%ADD31RoundRect,0.250000X0.450000X-0.325000X0.450000X0.325000X-0.450000X0.325000X-0.450000X-0.325000X0*%
%TD*%
%TA.AperFunction,SMDPad,CuDef*%
%ADD32RoundRect,0.150000X0.825000X0.150000X-0.825000X0.150000X-0.825000X-0.150000X0.825000X-0.150000X0*%
%TD*%
%TA.AperFunction,ComponentPad*%
%ADD33RoundRect,0.250000X-0.550000X-0.550000X0.550000X-0.550000X0.550000X0.550000X-0.550000X0.550000X0*%
%TD*%
%TA.AperFunction,SMDPad,CuDef*%
%ADD34R,0.800000X0.500000*%
%TD*%
%TA.AperFunction,SMDPad,CuDef*%
%ADD35R,0.800000X0.400000*%
%TD*%
%TA.AperFunction,SMDPad,CuDef*%
%ADD36RoundRect,0.250000X-0.450000X0.350000X-0.450000X-0.350000X0.450000X-0.350000X0.450000X0.350000X0*%
%TD*%
%TA.AperFunction,SMDPad,CuDef*%
%ADD37RoundRect,0.250000X-0.350000X-0.450000X0.350000X-0.450000X0.350000X0.450000X-0.350000X0.450000X0*%
%TD*%
%TA.AperFunction,SMDPad,CuDef*%
%ADD38RoundRect,0.250000X-0.325000X-1.100000X0.325000X-1.100000X0.325000X1.100000X-0.325000X1.100000X0*%
%TD*%
%TA.AperFunction,SMDPad,CuDef*%
%ADD39RoundRect,0.150000X-0.875000X-0.150000X0.875000X-0.150000X0.875000X0.150000X-0.875000X0.150000X0*%
%TD*%
%TA.AperFunction,ComponentPad*%
%ADD40R,1.700000X2.500000*%
%TD*%
%TA.AperFunction,ComponentPad*%
%ADD41O,1.700000X2.500000*%
%TD*%
%TA.AperFunction,ComponentPad*%
%ADD42C,4.000000*%
%TD*%
%TA.AperFunction,SMDPad,CuDef*%
%ADD43RoundRect,0.150000X0.150000X-0.825000X0.150000X0.825000X-0.150000X0.825000X-0.150000X-0.825000X0*%
%TD*%
%TA.AperFunction,ViaPad*%
%ADD44C,0.600000*%
%TD*%
%TA.AperFunction,Conductor*%
%ADD45C,0.200000*%
%TD*%
%TA.AperFunction,Conductor*%
%ADD46C,1.000000*%
%TD*%
%TA.AperFunction,Conductor*%
%ADD47C,0.150000*%
%TD*%
%TA.AperFunction,Conductor*%
%ADD48C,0.300000*%
%TD*%
%TA.AperFunction,Conductor*%
%ADD49C,0.100000*%
%TD*%
%TA.AperFunction,Conductor*%
%ADD50C,0.120000*%
%TD*%
G04 APERTURE END LIST*
D10*
D11*
X21554510Y-56800828D02*
X21554510Y-55300828D01*
X21554510Y-55300828D02*
X22125939Y-55300828D01*
X22125939Y-55300828D02*
X22268796Y-55372257D01*
X22268796Y-55372257D02*
X22340225Y-55443685D01*
X22340225Y-55443685D02*
X22411653Y-55586542D01*
X22411653Y-55586542D02*
X22411653Y-55800828D01*
X22411653Y-55800828D02*
X22340225Y-55943685D01*
X22340225Y-55943685D02*
X22268796Y-56015114D01*
X22268796Y-56015114D02*
X22125939Y-56086542D01*
X22125939Y-56086542D02*
X21554510Y-56086542D01*
X23268796Y-56800828D02*
X23125939Y-56729400D01*
X23125939Y-56729400D02*
X23054510Y-56657971D01*
X23054510Y-56657971D02*
X22983082Y-56515114D01*
X22983082Y-56515114D02*
X22983082Y-56086542D01*
X22983082Y-56086542D02*
X23054510Y-55943685D01*
X23054510Y-55943685D02*
X23125939Y-55872257D01*
X23125939Y-55872257D02*
X23268796Y-55800828D01*
X23268796Y-55800828D02*
X23483082Y-55800828D01*
X23483082Y-55800828D02*
X23625939Y-55872257D01*
X23625939Y-55872257D02*
X23697368Y-55943685D01*
X23697368Y-55943685D02*
X23768796Y-56086542D01*
X23768796Y-56086542D02*
X23768796Y-56515114D01*
X23768796Y-56515114D02*
X23697368Y-56657971D01*
X23697368Y-56657971D02*
X23625939Y-56729400D01*
X23625939Y-56729400D02*
X23483082Y-56800828D01*
X23483082Y-56800828D02*
X23268796Y-56800828D01*
X24268796Y-55800828D02*
X24554511Y-56800828D01*
X24554511Y-56800828D02*
X24840225Y-56086542D01*
X24840225Y-56086542D02*
X25125939Y-56800828D01*
X25125939Y-56800828D02*
X25411653Y-55800828D01*
X26554511Y-56729400D02*
X26411654Y-56800828D01*
X26411654Y-56800828D02*
X26125940Y-56800828D01*
X26125940Y-56800828D02*
X25983082Y-56729400D01*
X25983082Y-56729400D02*
X25911654Y-56586542D01*
X25911654Y-56586542D02*
X25911654Y-56015114D01*
X25911654Y-56015114D02*
X25983082Y-55872257D01*
X25983082Y-55872257D02*
X26125940Y-55800828D01*
X26125940Y-55800828D02*
X26411654Y-55800828D01*
X26411654Y-55800828D02*
X26554511Y-55872257D01*
X26554511Y-55872257D02*
X26625940Y-56015114D01*
X26625940Y-56015114D02*
X26625940Y-56157971D01*
X26625940Y-56157971D02*
X25911654Y-56300828D01*
X27268796Y-56800828D02*
X27268796Y-55800828D01*
X27268796Y-56086542D02*
X27340225Y-55943685D01*
X27340225Y-55943685D02*
X27411654Y-55872257D01*
X27411654Y-55872257D02*
X27554511Y-55800828D01*
X27554511Y-55800828D02*
X27697368Y-55800828D01*
X29340224Y-56800828D02*
X29340224Y-55300828D01*
X30054510Y-55800828D02*
X30054510Y-56800828D01*
X30054510Y-55943685D02*
X30125939Y-55872257D01*
X30125939Y-55872257D02*
X30268796Y-55800828D01*
X30268796Y-55800828D02*
X30483082Y-55800828D01*
X30483082Y-55800828D02*
X30625939Y-55872257D01*
X30625939Y-55872257D02*
X30697368Y-56015114D01*
X30697368Y-56015114D02*
X30697368Y-56800828D01*
D12*
%TO.P,SW3,1,1_1*%
%TO.N,GND*%
X201602600Y-16415000D03*
X209562600Y-16415000D03*
%TO.P,SW3,2,2_2*%
%TO.N,Service Switch*%
X201602600Y-20915000D03*
X209562600Y-20915000D03*
%TD*%
D13*
%TO.P,R104,1*%
%TO.N,+3.3V*%
X213615900Y-30886400D03*
%TO.P,R104,2*%
%TO.N,Out_Clear*%
X215440900Y-30886400D03*
%TD*%
D14*
%TO.P,R18,1*%
%TO.N,Net-(U13-CH2_OUT)*%
X178846400Y-34290000D03*
%TO.P,R18,2*%
%TO.N,Net-(J2_RGBS_Out1-Pin_5)*%
X180746400Y-34290000D03*
%TD*%
D13*
%TO.P,R17,1*%
%TO.N,Net-(U13-CH3_OUT)*%
X173585500Y-32054800D03*
%TO.P,R17,2*%
%TO.N,Net-(J2_RGBS_Out1-Pin_3)*%
X175410500Y-32054800D03*
%TD*%
%TO.P,R16,1*%
%TO.N,Net-(U13-CH1_OUT)*%
X169216700Y-32054800D03*
%TO.P,R16,2*%
%TO.N,Net-(J2_RGBS_Out1-Pin_1)*%
X171041700Y-32054800D03*
%TD*%
%TO.P,R15,1*%
%TO.N,Net-(U12-CH2_OUT)*%
X164595800Y-32054800D03*
%TO.P,R15,2*%
%TO.N,Net-(J2_RGBS_Out1-Pin_9)*%
X166420800Y-32054800D03*
%TD*%
%TO.P,R14,1*%
%TO.N,Net-(U12-CH1_OUT)*%
X160074600Y-31953200D03*
%TO.P,R14,2*%
%TO.N,Net-(J2_RGBS_Out1-Pin_8)*%
X161899600Y-31953200D03*
%TD*%
D15*
%TO.P,JP4,1,A_1*%
%TO.N,+5V*%
X125374400Y-38100000D03*
D16*
%TO.P,JP4,2,C_2*%
%TO.N,Net-(JP4-C)*%
X125374400Y-40640000D03*
%TO.P,JP4,3,B_3*%
%TO.N,GND*%
X125374400Y-43180000D03*
%TD*%
D17*
%TO.P,D4,1,K_1*%
%TO.N,Net-(D4-K)*%
X115366800Y-132791200D03*
D18*
%TO.P,D4,2,A_2*%
%TO.N,+5V*%
X100126800Y-132791200D03*
%TD*%
D14*
%TO.P,C64,1*%
%TO.N,GND*%
X251896800Y-110998000D03*
%TO.P,C64,2*%
%TO.N,+5V*%
X253796800Y-110998000D03*
%TD*%
%TO.P,C63,1*%
%TO.N,GND*%
X237723600Y-116230400D03*
%TO.P,C63,2*%
%TO.N,+5V*%
X239623600Y-116230400D03*
%TD*%
%TO.P,C62,1*%
%TO.N,GND*%
X254675600Y-54356000D03*
%TO.P,C62,2*%
%TO.N,+5V*%
X256575600Y-54356000D03*
%TD*%
%TO.P,C61,1*%
%TO.N,GND*%
X231510800Y-53898800D03*
%TO.P,C61,2*%
%TO.N,+5V*%
X233410800Y-53898800D03*
%TD*%
%TO.P,C60,1*%
%TO.N,+5V*%
X214238800Y-16154400D03*
%TO.P,C60,2*%
%TO.N,GND*%
X216138800Y-16154400D03*
%TD*%
%TO.P,C59,1*%
%TO.N,+5V*%
X233507200Y-79248000D03*
%TO.P,C59,2*%
%TO.N,GND*%
X235407200Y-79248000D03*
%TD*%
%TO.P,C58,1*%
%TO.N,+5V*%
X213527600Y-35814000D03*
%TO.P,C58,2*%
%TO.N,GND*%
X215427600Y-35814000D03*
%TD*%
%TO.P,C57,1*%
%TO.N,+3.3V*%
X101513600Y-63042800D03*
%TO.P,C57,2*%
%TO.N,GND*%
X103413600Y-63042800D03*
%TD*%
%TO.P,C56,1*%
%TO.N,+3.3V*%
X102189200Y-29413200D03*
%TO.P,C56,2*%
%TO.N,GND*%
X104089200Y-29413200D03*
%TD*%
%TO.P,C55,1*%
%TO.N,+3.3V*%
X214543600Y-132638800D03*
%TO.P,C55,2*%
%TO.N,GND*%
X216443600Y-132638800D03*
%TD*%
%TO.P,C54,1*%
%TO.N,+3.3V*%
X204551200Y-67614800D03*
%TO.P,C54,2*%
%TO.N,GND*%
X206451200Y-67614800D03*
%TD*%
%TO.P,C53,1*%
%TO.N,+3.3V*%
X214289600Y-149453600D03*
%TO.P,C53,2*%
%TO.N,GND*%
X216189600Y-149453600D03*
%TD*%
%TO.P,C52,1*%
%TO.N,+3.3V*%
X214457200Y-178714400D03*
%TO.P,C52,2*%
%TO.N,GND*%
X216357200Y-178714400D03*
%TD*%
D19*
%TO.P,C51,1*%
%TO.N,+3.3V*%
X100482400Y-116128800D03*
%TO.P,C51,2*%
%TO.N,GND*%
X100482400Y-121728800D03*
%TD*%
D20*
%TO.P,C50,1*%
%TO.N,+3.3V*%
X89001600Y-118160800D03*
%TO.P,C50,2*%
%TO.N,GND*%
X89001600Y-120060800D03*
%TD*%
D19*
%TO.P,C49,1*%
%TO.N,+5V*%
X103225600Y-97434400D03*
%TO.P,C49,2*%
%TO.N,GND*%
X103225600Y-103034400D03*
%TD*%
D20*
%TO.P,C48,1*%
%TO.N,+5V*%
X88036400Y-101041200D03*
%TO.P,C48,2*%
%TO.N,GND*%
X88036400Y-102941200D03*
%TD*%
D21*
%TO.P,U4,1,~{PL}_1*%
%TO.N,IN_LOAD_N*%
X212931200Y-119583200D03*
%TO.P,U4,2,CP_2*%
%TO.N,IN_CLK*%
X212931200Y-120853200D03*
%TO.P,U4,3,D4_3*%
%TO.N,Net-(RN14-R1.2)*%
X212931200Y-122123200D03*
%TO.P,U4,4,D5_4*%
%TO.N,Net-(RN14-R2.2)*%
X212931200Y-123393200D03*
%TO.P,U4,5,D6_5*%
%TO.N,Net-(RN14-R3.2)*%
X212931200Y-124663200D03*
%TO.P,U4,6,D7_6*%
%TO.N,Net-(RN14-R4.2)*%
X212931200Y-125933200D03*
%TO.P,U4,7,~{Q7}_7*%
%TO.N,unconnected-(U4-~{Q7}-Pad7)*%
X212931200Y-127203200D03*
%TO.P,U4,8,GND_8*%
%TO.N,GND*%
X212931200Y-128473200D03*
%TO.P,U4,9,Q7_9*%
%TO.N,J6_Input_Stream*%
X217881200Y-128473200D03*
%TO.P,U4,10,DS_10*%
%TO.N,J5_Input_Stream*%
X217881200Y-127203200D03*
%TO.P,U4,11,D0_11*%
%TO.N,Net-(RN13-R1.2)*%
X217881200Y-125933200D03*
%TO.P,U4,12,D1_12*%
%TO.N,Net-(RN13-R2.2)*%
X217881200Y-124663200D03*
%TO.P,U4,13,D2_13*%
%TO.N,Net-(RN13-R3.2)*%
X217881200Y-123393200D03*
%TO.P,U4,14,D3_14*%
%TO.N,Net-(RN13-R4.2)*%
X217881200Y-122123200D03*
%TO.P,U4,15,~{CE}_15*%
%TO.N,GND*%
X217881200Y-120853200D03*
%TO.P,U4,16,VCC_16*%
%TO.N,+3.3V*%
X217881200Y-119583200D03*
%TD*%
D22*
%TO.P,U13,1,CH1_IN_1*%
%TO.N,Net-(U13-CH1_IN)*%
X169992200Y-36383200D03*
%TO.P,U13,2,CH2_IN_2*%
%TO.N,Net-(U13-CH2_IN)*%
X169992200Y-37033200D03*
%TO.P,U13,3,CH3_IN_3*%
%TO.N,Net-(U13-CH3_IN)*%
X169992200Y-37683200D03*
%TO.P,U13,4,CH4_IN_4*%
%TO.N,GND*%
X169992200Y-38333200D03*
%TO.P,U13,5,GND_5*%
X169992200Y-38983200D03*
%TO.P,U13,6,DISABLE_6*%
X169992200Y-39633200D03*
%TO.P,U13,7,NC_7*%
%TO.N,unconnected-(U13-NC-Pad7)*%
X169992200Y-40283200D03*
%TO.P,U13,8,NC_8*%
%TO.N,unconnected-(U13-NC-Pad8)*%
X175717200Y-40283200D03*
%TO.P,U13,9,BYPASS_9*%
%TO.N,Net-(JP4-C)*%
X175717200Y-39633200D03*
%TO.P,U13,10,V_{S+}_10*%
%TO.N,+5V*%
X175717200Y-38983200D03*
%TO.P,U13,11,CH4_OUT_11*%
%TO.N,unconnected-(U13-CH4_OUT-Pad11)*%
X175717200Y-38333200D03*
%TO.P,U13,12,CH3_OUT_12*%
%TO.N,Net-(U13-CH3_OUT)*%
X175717200Y-37683200D03*
%TO.P,U13,13,CH2_OUT_13*%
%TO.N,Net-(U13-CH2_OUT)*%
X175717200Y-37033200D03*
%TO.P,U13,14,CH1_OUT_14*%
%TO.N,Net-(U13-CH1_OUT)*%
X175717200Y-36383200D03*
%TD*%
D23*
%TO.P,D36,1,K_1*%
%TO.N,GND*%
X146053200Y-42824400D03*
%TO.P,D36,2,A_2*%
%TO.N,LED_PIX*%
X146053200Y-44874400D03*
%TD*%
D24*
%TO.P,L1,1*%
%TO.N,+12V*%
X57735600Y-98907600D03*
%TO.P,L1,2*%
%TO.N,Net-(U24-IN)*%
X67435600Y-98907600D03*
%TD*%
D15*
%TO.P,JP1,1,A_1*%
%TO.N,MODE_15N*%
X63000000Y-32850000D03*
D16*
%TO.P,JP1,2,B_2*%
%TO.N,GND*%
X63000000Y-35390000D03*
%TD*%
D25*
%TO.P,U22,1,IO1_1*%
%TO.N,Net-(RN14-R3.2)*%
X242733400Y-115041600D03*
%TO.P,U22,2,VN_2*%
%TO.N,GND*%
X242733400Y-115991600D03*
%TO.P,U22,3,IO2_3*%
%TO.N,Net-(RN14-R4.2)*%
X242733400Y-116941600D03*
%TO.P,U22,4,IO3_4*%
%TO.N,Net-(RN14-R2.2)*%
X245008400Y-116941600D03*
%TO.P,U22,5,VP_5*%
%TO.N,+5V*%
X245008400Y-115991600D03*
%TO.P,U22,6,IO4_6*%
%TO.N,Net-(RN14-R1.2)*%
X245008400Y-115041600D03*
%TD*%
D26*
%TO.P,C7,1*%
%TO.N,+12V*%
X50415200Y-115722400D03*
D27*
%TO.P,C7,2*%
%TO.N,GND*%
X45415200Y-115722400D03*
%TD*%
D22*
%TO.P,U14,1,CH0_1*%
%TO.N,Net-(U14-CH0)*%
X239348200Y-78773600D03*
%TO.P,U14,2,CH1_2*%
%TO.N,unconnected-(U14-CH1-Pad2)*%
X239348200Y-79423600D03*
%TO.P,U14,3,CH2_3*%
%TO.N,unconnected-(U14-CH2-Pad3)*%
X239348200Y-80073600D03*
%TO.P,U14,4,CH3_4*%
%TO.N,unconnected-(U14-CH3-Pad4)*%
X239348200Y-80723600D03*
%TO.P,U14,5,CH4_5*%
%TO.N,unconnected-(U14-CH4-Pad5)*%
X239348200Y-81373600D03*
%TO.P,U14,6,CH5_6*%
%TO.N,unconnected-(U14-CH5-Pad6)*%
X239348200Y-82023600D03*
%TO.P,U14,7,CH6_7*%
%TO.N,unconnected-(U14-CH6-Pad7)*%
X239348200Y-82673600D03*
%TO.P,U14,8,CH7_8*%
%TO.N,unconnected-(U14-CH7-Pad8)*%
X239348200Y-83323600D03*
%TO.P,U14,9,GND_9*%
%TO.N,GND*%
X245073200Y-83323600D03*
%TO.P,U14,10,REFin/REFout_10*%
%TO.N,+5V*%
X245073200Y-82673600D03*
%TO.P,U14,11,COM_11*%
%TO.N,GND*%
X245073200Y-82023600D03*
%TO.P,U14,12,A0_12*%
%TO.N,ADC_A0*%
X245073200Y-81373600D03*
%TO.P,U14,13,A1_13*%
%TO.N,ADC_A1*%
X245073200Y-80723600D03*
%TO.P,U14,14,SCL_14*%
%TO.N,ADC_SCL*%
X245073200Y-80073600D03*
%TO.P,U14,15,SDA_15*%
%TO.N,ADC_SDA*%
X245073200Y-79423600D03*
%TO.P,U14,16,VDD_16*%
%TO.N,+5V*%
X245073200Y-78773600D03*
%TD*%
D28*
%TO.P,R100,1*%
%TO.N,Net-(U13-CH3_IN)*%
X177429200Y-49881800D03*
%TO.P,R100,2*%
%TO.N,VID_G3*%
X177429200Y-48056800D03*
%TD*%
D29*
%TO.P,RN5,1,common_1*%
%TO.N,+5V*%
X112420400Y-53136800D03*
D30*
%TO.P,RN5,2,R1_2*%
%TO.N,Net-(RN5-R1)*%
X112420400Y-50596800D03*
%TO.P,RN5,3,R2_3*%
%TO.N,Net-(RN5-R2)*%
X112420400Y-48056800D03*
%TO.P,RN5,4,R3_4*%
%TO.N,Net-(RN5-R3)*%
X112420400Y-45516800D03*
%TO.P,RN5,5,R4_5*%
%TO.N,Net-(RN5-R4)*%
X112420400Y-42976800D03*
%TO.P,RN5,6,R5_6*%
%TO.N,Net-(RN5-R5)*%
X112420400Y-40436800D03*
%TO.P,RN5,7,R6_7*%
%TO.N,Net-(RN5-R6)*%
X112420400Y-37896800D03*
%TO.P,RN5,8,R7_8*%
%TO.N,Net-(RN5-R7)*%
X112420400Y-35356800D03*
%TO.P,RN5,9,R8_9*%
%TO.N,Net-(RN5-R8)*%
X112420400Y-32816800D03*
%TD*%
D29*
%TO.P,RN4,1,common_1*%
%TO.N,+5V*%
X226466400Y-134061200D03*
D30*
%TO.P,RN4,2,R1_2*%
%TO.N,Net-(RN14-R4.2)*%
X226466400Y-131521200D03*
%TO.P,RN4,3,R2_3*%
%TO.N,Net-(RN14-R3.2)*%
X226466400Y-128981200D03*
%TO.P,RN4,4,R3_4*%
%TO.N,Net-(RN14-R2.2)*%
X226466400Y-126441200D03*
%TO.P,RN4,5,R4_5*%
%TO.N,Net-(RN14-R1.2)*%
X226466400Y-123901200D03*
%TO.P,RN4,6,R5_6*%
%TO.N,Net-(RN13-R4.2)*%
X226466400Y-121361200D03*
%TO.P,RN4,7,R6_7*%
%TO.N,Net-(RN13-R3.2)*%
X226466400Y-118821200D03*
%TO.P,RN4,8,R7_8*%
%TO.N,Net-(RN13-R2.2)*%
X226466400Y-116281200D03*
%TO.P,RN4,9,R8_9*%
%TO.N,Net-(RN13-R1.2)*%
X226466400Y-113741200D03*
%TD*%
D13*
%TO.P,R2,1*%
%TO.N,AUD_PWM_L1*%
X238930200Y-92725800D03*
%TO.P,R2,2*%
%TO.N,Net-(C2-Pad1)*%
X240755200Y-92725800D03*
%TD*%
D21*
%TO.P,U1,1,~{PL}_1*%
%TO.N,IN_LOAD_N*%
X212931200Y-183743600D03*
%TO.P,U1,2,CP_2*%
%TO.N,IN_CLK*%
X212931200Y-185013600D03*
%TO.P,U1,3,D4_3*%
%TO.N,Net-(RN1-R4)*%
X212931200Y-186283600D03*
%TO.P,U1,4,D5_4*%
%TO.N,Net-(RN1-R3)*%
X212931200Y-187553600D03*
%TO.P,U1,5,D6_5*%
%TO.N,Net-(RN1-R2)*%
X212931200Y-188823600D03*
%TO.P,U1,6,D7_6*%
%TO.N,Net-(RN1-R1)*%
X212931200Y-190093600D03*
%TO.P,U1,7,~{Q7}_7*%
%TO.N,unconnected-(U1-~{Q7}-Pad7)*%
X212931200Y-191363600D03*
%TO.P,U1,8,GND_8*%
%TO.N,GND*%
X212931200Y-192633600D03*
%TO.P,U1,9,Q7_9*%
%TO.N,Net-(U1-Q7)*%
X217881200Y-192633600D03*
%TO.P,U1,10,DS_10*%
%TO.N,GND*%
X217881200Y-191363600D03*
%TO.P,U1,11,D0_11*%
%TO.N,Net-(RN1-R8)*%
X217881200Y-190093600D03*
%TO.P,U1,12,D1_12*%
%TO.N,Net-(RN1-R7)*%
X217881200Y-188823600D03*
%TO.P,U1,13,D2_13*%
%TO.N,Net-(RN1-R6)*%
X217881200Y-187553600D03*
%TO.P,U1,14,D3_14*%
%TO.N,Net-(RN1-R5)*%
X217881200Y-186283600D03*
%TO.P,U1,15,~{CE}_15*%
%TO.N,GND*%
X217881200Y-185013600D03*
%TO.P,U1,16,VCC_16*%
%TO.N,+3.3V*%
X217881200Y-183743600D03*
%TD*%
D28*
%TO.P,R96,1*%
%TO.N,Net-(U13-CH1_IN)*%
X167429200Y-49881800D03*
%TO.P,R96,2*%
%TO.N,VID_R1*%
X167429200Y-48056800D03*
%TD*%
D21*
%TO.P,U8,1,QB_1*%
%TO.N,Net-(U10-I2)*%
X218490800Y-18948400D03*
%TO.P,U8,2,QC_2*%
%TO.N,Net-(U10-I3)*%
X218490800Y-20218400D03*
%TO.P,U8,3,QD_3*%
%TO.N,Net-(U10-I4)*%
X218490800Y-21488400D03*
%TO.P,U8,4,QE_4*%
%TO.N,Net-(U10-I5)*%
X218490800Y-22758400D03*
%TO.P,U8,5,QF_5*%
%TO.N,Net-(U10-I6)*%
X218490800Y-24028400D03*
%TO.P,U8,6,QG_6*%
%TO.N,Net-(U10-I7)*%
X218490800Y-25298400D03*
%TO.P,U8,7,QH_7*%
%TO.N,Net-(U10-I8)*%
X218490800Y-26568400D03*
%TO.P,U8,8,GND_8*%
%TO.N,GND*%
X218490800Y-27838400D03*
%TO.P,U8,9,QH'_9*%
%TO.N,Net-(U8-QH')*%
X223440800Y-27838400D03*
%TO.P,U8,10,~{SRCLR}_10*%
%TO.N,Out_Clear*%
X223440800Y-26568400D03*
%TO.P,U8,11,SRCLK_11*%
%TO.N,Out_Clock*%
X223440800Y-25298400D03*
%TO.P,U8,12,RCLK_12*%
%TO.N,Out_Latch*%
X223440800Y-24028400D03*
%TO.P,U8,13,~{OE}_13*%
%TO.N,Out_En_N*%
X223440800Y-22758400D03*
%TO.P,U8,14,SER_14*%
%TO.N,Out_Data*%
X223440800Y-21488400D03*
%TO.P,U8,15,QA_15*%
%TO.N,Net-(U10-I1)*%
X223440800Y-20218400D03*
%TO.P,U8,16,VCC_16*%
%TO.N,+5V*%
X223440800Y-18948400D03*
%TD*%
D14*
%TO.P,C41,1*%
%TO.N,+5V*%
X186654400Y-40487600D03*
%TO.P,C41,2*%
%TO.N,GND*%
X188554400Y-40487600D03*
%TD*%
D31*
%TO.P,D2,1,K_1*%
%TO.N,GND*%
X92557600Y-102828200D03*
%TO.P,D2,2,A_2*%
%TO.N,Net-(D2-A)*%
X92557600Y-100778200D03*
%TD*%
D32*
%TO.P,U6,1,~{PL}_1*%
%TO.N,IN_LOAD_N*%
X105500000Y-42770000D03*
%TO.P,U6,2,CP_2*%
%TO.N,IN_CLK*%
X105500000Y-41500000D03*
%TO.P,U6,3,D4_3*%
%TO.N,Net-(RN5-R5)*%
X105500000Y-40230000D03*
%TO.P,U6,4,D5_4*%
%TO.N,Net-(RN5-R6)*%
X105500000Y-38960000D03*
%TO.P,U6,5,D6_5*%
%TO.N,Net-(RN5-R7)*%
X105500000Y-37690000D03*
%TO.P,U6,6,D7_6*%
%TO.N,Net-(RN5-R8)*%
X105500000Y-36420000D03*
%TO.P,U6,7,~{Q7}_7*%
%TO.N,unconnected-(U6-~{Q7}-Pad7)*%
X105500000Y-35150000D03*
%TO.P,U6,8,GND_8*%
%TO.N,GND*%
X105500000Y-33880000D03*
%TO.P,U6,9,Q7_9*%
%TO.N,SW1_Input_Stream*%
X100550000Y-33880000D03*
%TO.P,U6,10,DS_10*%
%TO.N,J6_Input_Stream*%
X100550000Y-35150000D03*
%TO.P,U6,11,D0_11*%
%TO.N,Net-(RN5-R1)*%
X100550000Y-36420000D03*
%TO.P,U6,12,D1_12*%
%TO.N,Net-(RN5-R2)*%
X100550000Y-37690000D03*
%TO.P,U6,13,D2_13*%
%TO.N,Net-(RN5-R3)*%
X100550000Y-38960000D03*
%TO.P,U6,14,D3_14*%
%TO.N,Net-(RN5-R4)*%
X100550000Y-40230000D03*
%TO.P,U6,15,~{CE}_15*%
%TO.N,GND*%
X100550000Y-41500000D03*
%TO.P,U6,16,VCC_16*%
%TO.N,+3.3V*%
X100550000Y-42770000D03*
%TD*%
D33*
%TO.P,SW1,1*%
%TO.N,GND*%
X80380000Y-31870000D03*
D30*
%TO.P,SW1,2*%
X80380000Y-34410000D03*
%TO.P,SW1,3*%
X80380000Y-36950000D03*
%TO.P,SW1,4*%
X80380000Y-39490000D03*
%TO.P,SW1,5*%
X80380000Y-42030000D03*
%TO.P,SW1,6*%
X80380000Y-44570000D03*
%TO.P,SW1,7*%
X80380000Y-47110000D03*
%TO.P,SW1,8*%
X80380000Y-49650000D03*
%TO.P,SW1,9*%
%TO.N,Net-(RN5-R8)*%
X88000000Y-49650000D03*
%TO.P,SW1,10*%
%TO.N,Net-(RN5-R7)*%
X88000000Y-47110000D03*
%TO.P,SW1,11*%
%TO.N,Net-(RN5-R6)*%
X88000000Y-44570000D03*
%TO.P,SW1,12*%
%TO.N,Net-(RN5-R5)*%
X88000000Y-42030000D03*
%TO.P,SW1,13*%
%TO.N,Net-(RN5-R4)*%
X88000000Y-39490000D03*
%TO.P,SW1,14*%
%TO.N,Net-(RN5-R3)*%
X88000000Y-36950000D03*
%TO.P,SW1,15*%
%TO.N,Net-(RN5-R2)*%
X88000000Y-34410000D03*
%TO.P,SW1,16*%
%TO.N,Net-(RN5-R1)*%
X88000000Y-31870000D03*
%TD*%
D27*
%TO.P,TP2,1,1_1*%
%TO.N,+3.3V*%
X84734400Y-108966000D03*
%TD*%
D29*
%TO.P,RN6,1,common_1*%
%TO.N,+5V*%
X112014000Y-81026000D03*
D30*
%TO.P,RN6,2,R1_2*%
%TO.N,Net-(RN6-R1)*%
X112014000Y-78486000D03*
%TO.P,RN6,3,R2_3*%
%TO.N,Net-(RN6-R2)*%
X112014000Y-75946000D03*
%TO.P,RN6,4,R3_4*%
%TO.N,Net-(RN6-R3)*%
X112014000Y-73406000D03*
%TO.P,RN6,5,R4_5*%
%TO.N,Net-(RN6-R4)*%
X112014000Y-70866000D03*
%TO.P,RN6,6,R5_6*%
%TO.N,Net-(RN6-R5)*%
X112014000Y-68326000D03*
%TO.P,RN6,7,R6_7*%
%TO.N,Net-(RN6-R6)*%
X112014000Y-65786000D03*
%TO.P,RN6,8,R7_8*%
%TO.N,Net-(RN6-R7)*%
X112014000Y-63246000D03*
%TO.P,RN6,9,R8_9*%
%TO.N,Net-(RN6-R8)*%
X112014000Y-60706000D03*
%TD*%
D23*
%TO.P,D37,1,K_1*%
%TO.N,GND*%
X141093200Y-42824400D03*
%TO.P,D37,2,A_2*%
%TO.N,LED_27M*%
X141093200Y-44874400D03*
%TD*%
D34*
%TO.P,RN12,1,R1.1_1*%
%TO.N,/1 Plyr Move Left*%
X262534400Y-72961200D03*
D35*
%TO.P,RN12,2,R2.1_2*%
%TO.N,/1 Plyr Move Right*%
X262534400Y-72161200D03*
%TO.P,RN12,3,R3.1_3*%
%TO.N,/1 Plyr Move Up*%
X262534400Y-71361200D03*
D34*
%TO.P,RN12,4,R4.1_4*%
%TO.N,/1 Plyr Move Down*%
X262534400Y-70561200D03*
%TO.P,RN12,5,R4.2_5*%
%TO.N,Net-(RN12-R4.2)*%
X260734400Y-70561200D03*
D35*
%TO.P,RN12,6,R3.2_6*%
%TO.N,Net-(RN12-R3.2)*%
X260734400Y-71361200D03*
%TO.P,RN12,7,R2.2_7*%
%TO.N,Net-(RN12-R2.2)*%
X260734400Y-72161200D03*
D34*
%TO.P,RN12,8,R1.2_8*%
%TO.N,Net-(RN12-R1.2)*%
X260734400Y-72961200D03*
%TD*%
D29*
%TO.P,RN1,1,common_1*%
%TO.N,+5V*%
X225907600Y-199034400D03*
D30*
%TO.P,RN1,2,R1_2*%
%TO.N,Net-(RN1-R1)*%
X225907600Y-196494400D03*
%TO.P,RN1,3,R2_3*%
%TO.N,Net-(RN1-R2)*%
X225907600Y-193954400D03*
%TO.P,RN1,4,R3_4*%
%TO.N,Net-(RN1-R3)*%
X225907600Y-191414400D03*
%TO.P,RN1,5,R4_5*%
%TO.N,Net-(RN1-R4)*%
X225907600Y-188874400D03*
%TO.P,RN1,6,R5_6*%
%TO.N,Net-(RN1-R5)*%
X225907600Y-186334400D03*
%TO.P,RN1,7,R6_7*%
%TO.N,Net-(RN1-R6)*%
X225907600Y-183794400D03*
%TO.P,RN1,8,R7_8*%
%TO.N,Net-(RN1-R7)*%
X225907600Y-181254400D03*
%TO.P,RN1,9,R8_9*%
%TO.N,Net-(RN1-R8)*%
X225907600Y-178714400D03*
%TD*%
D21*
%TO.P,U2,1,~{PL}_1*%
%TO.N,IN_LOAD_N*%
X212677200Y-154432000D03*
%TO.P,U2,2,CP_2*%
%TO.N,IN_CLK*%
X212677200Y-155702000D03*
%TO.P,U2,3,D4_3*%
%TO.N,Net-(RN2-R4)*%
X212677200Y-156972000D03*
%TO.P,U2,4,D5_4*%
%TO.N,Net-(RN2-R3)*%
X212677200Y-158242000D03*
%TO.P,U2,5,D6_5*%
%TO.N,Net-(RN2-R2)*%
X212677200Y-159512000D03*
%TO.P,U2,6,D7_6*%
%TO.N,Net-(RN2-R1)*%
X212677200Y-160782000D03*
%TO.P,U2,7,~{Q7}_7*%
%TO.N,unconnected-(U2-~{Q7}-Pad7)*%
X212677200Y-162052000D03*
%TO.P,U2,8,GND_8*%
%TO.N,GND*%
X212677200Y-163322000D03*
%TO.P,U2,9,Q7_9*%
%TO.N,J4_Input_Stream*%
X217627200Y-163322000D03*
%TO.P,U2,10,DS_10*%
%TO.N,Net-(U1-Q7)*%
X217627200Y-162052000D03*
%TO.P,U2,11,D0_11*%
%TO.N,Net-(RN10-R1.2)*%
X217627200Y-160782000D03*
%TO.P,U2,12,D1_12*%
%TO.N,Net-(RN10-R2.2)*%
X217627200Y-159512000D03*
%TO.P,U2,13,D2_13*%
%TO.N,Net-(RN10-R3.2)*%
X217627200Y-158242000D03*
%TO.P,U2,14,D3_14*%
%TO.N,Net-(RN10-R4.2)*%
X217627200Y-156972000D03*
%TO.P,U2,15,~{CE}_15*%
%TO.N,GND*%
X217627200Y-155702000D03*
%TO.P,U2,16,VCC_16*%
%TO.N,+3.3V*%
X217627200Y-154432000D03*
%TD*%
D27*
%TO.P,TP5,1,1_1*%
%TO.N,IN_CLK*%
X104851200Y-112826800D03*
%TD*%
D15*
%TO.P,J2_RGBS_Out1,1,Pin_1_1*%
%TO.N,Net-(J2_RGBS_Out1-Pin_1)*%
X159004000Y-22961600D03*
D16*
%TO.P,J2_RGBS_Out1,2,Pin_2_2*%
%TO.N,GND*%
X161544000Y-22961600D03*
%TO.P,J2_RGBS_Out1,3,Pin_3_3*%
%TO.N,Net-(J2_RGBS_Out1-Pin_3)*%
X164084000Y-22961600D03*
%TO.P,J2_RGBS_Out1,4,Pin_4_4*%
%TO.N,GND*%
X166624000Y-22961600D03*
%TO.P,J2_RGBS_Out1,5,Pin_5_5*%
%TO.N,Net-(J2_RGBS_Out1-Pin_5)*%
X169164000Y-22961600D03*
%TO.P,J2_RGBS_Out1,6,Pin_6_6*%
%TO.N,GND*%
X171704000Y-22961600D03*
%TO.P,J2_RGBS_Out1,7,Pin_7_7*%
%TO.N,unconnected-(J2_RGBS_Out1-Pin_7-Pad7)*%
X174244000Y-22961600D03*
%TO.P,J2_RGBS_Out1,8,Pin_8_8*%
%TO.N,Net-(J2_RGBS_Out1-Pin_8)*%
X176784000Y-22961600D03*
%TO.P,J2_RGBS_Out1,9,Pin_9_9*%
%TO.N,Net-(J2_RGBS_Out1-Pin_9)*%
X179324000Y-22961600D03*
%TD*%
D36*
%TO.P,R6,1*%
%TO.N,+12V*%
X89662000Y-129946400D03*
%TO.P,R6,2*%
%TO.N,Net-(D1-A)*%
X89662000Y-131946400D03*
%TD*%
%TO.P,R8,1*%
%TO.N,+3.3V*%
X93522800Y-114011200D03*
%TO.P,R8,2*%
%TO.N,Net-(D3-A)*%
X93522800Y-116011200D03*
%TD*%
D14*
%TO.P,C1,1*%
%TO.N,Net-(U14-CH0)*%
X243855200Y-87500800D03*
%TO.P,C1,2*%
%TO.N,GND*%
X245755200Y-87500800D03*
%TD*%
D32*
%TO.P,U7,1,~{PL}_1*%
%TO.N,IN_LOAD_N*%
X105000000Y-76270000D03*
%TO.P,U7,2,CP_2*%
%TO.N,IN_CLK*%
X105000000Y-75000000D03*
%TO.P,U7,3,D4_3*%
%TO.N,Net-(RN6-R5)*%
X105000000Y-73730000D03*
%TO.P,U7,4,D5_4*%
%TO.N,Net-(RN6-R6)*%
X105000000Y-72460000D03*
%TO.P,U7,5,D6_5*%
%TO.N,Net-(RN6-R7)*%
X105000000Y-71190000D03*
%TO.P,U7,6,D7_6*%
%TO.N,Net-(RN6-R8)*%
X105000000Y-69920000D03*
%TO.P,U7,7,~{Q7}_7*%
%TO.N,unconnected-(U7-~{Q7}-Pad7)*%
X105000000Y-68650000D03*
%TO.P,U7,8,GND_8*%
%TO.N,GND*%
X105000000Y-67380000D03*
%TO.P,U7,9,Q7_9*%
%TO.N,IN_DATA*%
X100050000Y-67380000D03*
%TO.P,U7,10,DS_10*%
%TO.N,SW1_Input_Stream*%
X100050000Y-68650000D03*
%TO.P,U7,11,D0_11*%
%TO.N,Net-(RN6-R1)*%
X100050000Y-69920000D03*
%TO.P,U7,12,D1_12*%
%TO.N,Net-(RN6-R2)*%
X100050000Y-71190000D03*
%TO.P,U7,13,D2_13*%
%TO.N,Net-(RN6-R3)*%
X100050000Y-72460000D03*
%TO.P,U7,14,D3_14*%
%TO.N,Net-(RN6-R4)*%
X100050000Y-73730000D03*
%TO.P,U7,15,~{CE}_15*%
%TO.N,GND*%
X100050000Y-75000000D03*
%TO.P,U7,16,VCC_16*%
%TO.N,+3.3V*%
X100050000Y-76270000D03*
%TD*%
D23*
%TO.P,D38,1,K_1*%
%TO.N,GND*%
X136093200Y-42824400D03*
%TO.P,D38,2,A_2*%
%TO.N,LED_DDR_RST*%
X136093200Y-44874400D03*
%TD*%
D37*
%TO.P,R9,1*%
%TO.N,+3.3V*%
X114214400Y-138176000D03*
%TO.P,R9,2*%
%TO.N,Service Switch*%
X116214400Y-138176000D03*
%TD*%
D27*
%TO.P,TP6,1,1_1*%
%TO.N,IN_LOAD_N*%
X108051600Y-122072400D03*
%TD*%
D28*
%TO.P,R98,1*%
%TO.N,Net-(U13-CH2_IN)*%
X172429200Y-49881800D03*
%TO.P,R98,2*%
%TO.N,VID_B2*%
X172429200Y-48056800D03*
%TD*%
D38*
%TO.P,C43,1*%
%TO.N,+5V*%
X185875400Y-35052000D03*
%TO.P,C43,2*%
%TO.N,GND*%
X188825400Y-35052000D03*
%TD*%
D39*
%TO.P,U11,1,I1_1*%
%TO.N,Net-(U11-I1)*%
X229821600Y-34183800D03*
%TO.P,U11,2,I2_2*%
%TO.N,Net-(U11-I2)*%
X229821600Y-35453800D03*
%TO.P,U11,3,I3_3*%
%TO.N,Net-(U11-I3)*%
X229821600Y-36723800D03*
%TO.P,U11,4,I4_4*%
%TO.N,Net-(U11-I4)*%
X229821600Y-37993800D03*
%TO.P,U11,5,I5_5*%
%TO.N,Net-(U11-I5)*%
X229821600Y-39263800D03*
%TO.P,U11,6,I6_6*%
%TO.N,Net-(U11-I6)*%
X229821600Y-40533800D03*
%TO.P,U11,7,I7_7*%
%TO.N,Net-(U11-I7)*%
X229821600Y-41803800D03*
%TO.P,U11,8,I8_8*%
%TO.N,Net-(U11-I8)*%
X229821600Y-43073800D03*
%TO.P,U11,9,GND_9*%
%TO.N,GND*%
X229821600Y-44343800D03*
%TO.P,U11,10,COM_10*%
%TO.N,+12V*%
X239121600Y-44343800D03*
%TO.P,U11,11,O8_11*%
%TO.N,SEL*%
X239121600Y-43073800D03*
%TO.P,U11,12,O7_12*%
%TO.N,ARD*%
X239121600Y-41803800D03*
%TO.P,U11,13,O6_13*%
%TO.N,ST1*%
X239121600Y-40533800D03*
%TO.P,U11,14,O5_14*%
%TO.N,ST0*%
X239121600Y-39263800D03*
%TO.P,U11,15,O4_15*%
%TO.N,MD3*%
X239121600Y-37993800D03*
%TO.P,U11,16,O3_16*%
%TO.N,MD2*%
X239121600Y-36723800D03*
%TO.P,U11,17,O2_17*%
%TO.N,MD1*%
X239121600Y-35453800D03*
%TO.P,U11,18,O1_18*%
%TO.N,MD0*%
X239121600Y-34183800D03*
%TD*%
D25*
%TO.P,U23,1,IO1_1*%
%TO.N,Net-(RN13-R3.2)*%
X251115400Y-115194000D03*
%TO.P,U23,2,VN_2*%
%TO.N,GND*%
X251115400Y-116144000D03*
%TO.P,U23,3,IO2_3*%
%TO.N,Net-(RN13-R4.2)*%
X251115400Y-117094000D03*
%TO.P,U23,4,IO3_4*%
%TO.N,Net-(RN13-R2.2)*%
X253390400Y-117094000D03*
%TO.P,U23,5,VP_5*%
%TO.N,+5V*%
X253390400Y-116144000D03*
%TO.P,U23,6,IO4_6*%
%TO.N,Net-(RN13-R1.2)*%
X253390400Y-115194000D03*
%TD*%
D28*
%TO.P,R94,1*%
%TO.N,Net-(U13-CH1_IN)*%
X162429200Y-49881800D03*
%TO.P,R94,2*%
%TO.N,VID_R3*%
X162429200Y-48056800D03*
%TD*%
D25*
%TO.P,U18,1,IO1_1*%
%TO.N,Net-(RN11-R3.2)*%
X237286800Y-55642300D03*
%TO.P,U18,2,VN_2*%
%TO.N,GND*%
X237286800Y-56592300D03*
%TO.P,U18,3,IO2_3*%
%TO.N,Net-(RN11-R4.2)*%
X237286800Y-57542300D03*
%TO.P,U18,4,IO3_4*%
%TO.N,Net-(RN11-R2.2)*%
X239561800Y-57542300D03*
%TO.P,U18,5,VP_5*%
%TO.N,+5V*%
X239561800Y-56592300D03*
%TO.P,U18,6,IO4_6*%
%TO.N,Net-(RN11-R1.2)*%
X239561800Y-55642300D03*
%TD*%
D31*
%TO.P,D3,1,K_1*%
%TO.N,GND*%
X93573600Y-119888000D03*
%TO.P,D3,2,A_2*%
%TO.N,Net-(D3-A)*%
X93573600Y-117838000D03*
%TD*%
D15*
%TO.P,J0,1,Pin_1_1*%
%TO.N,AUD_PWM_L2*%
X125222000Y-148082000D03*
D16*
%TO.P,J0,2,Pin_2_2*%
%TO.N,VID_R1*%
X127762000Y-148082000D03*
%TO.P,J0,3,Pin_3_3*%
%TO.N,VID_R2*%
X125222000Y-145542000D03*
%TO.P,J0,4,Pin_4_4*%
%TO.N,VID_R3*%
X127762000Y-145542000D03*
%TO.P,J0,5,Pin_5_5*%
%TO.N,AUD_PWM_R2*%
X125222000Y-143002000D03*
%TO.P,J0,6,Pin_6_6*%
%TO.N,VID_B1*%
X127762000Y-143002000D03*
%TO.P,J0,7,Pin_7_7*%
%TO.N,VID_B2*%
X125222000Y-140462000D03*
%TO.P,J0,8,Pin_8_8*%
%TO.N,VID_B3*%
X127762000Y-140462000D03*
%TO.P,J0,9,Pin_9_9*%
%TO.N,Service Switch*%
X125222000Y-137922000D03*
%TO.P,J0,10,Pin_10_10*%
%TO.N,unconnected-(J0-Pin_10-Pad10)*%
X127762000Y-137922000D03*
%TO.P,J0,11,Pin_11_11*%
%TO.N,Net-(D4-K)*%
X125222000Y-135382000D03*
%TO.P,J0,12,Pin_12_12*%
%TO.N,GND*%
X127762000Y-135382000D03*
%TO.P,J0,13,Pin_13_13*%
%TO.N,unconnected-(J0-Pin_13-Pad13)*%
X125222000Y-132842000D03*
%TO.P,J0,14,Pin_14_14*%
%TO.N,VID_G1*%
X127762000Y-132842000D03*
%TO.P,J0,15,Pin_15_15*%
%TO.N,VID_G2*%
X125222000Y-130302000D03*
%TO.P,J0,16,Pin_16_16*%
%TO.N,VID_G3*%
X127762000Y-130302000D03*
%TO.P,J0,17,Pin_17_17*%
%TO.N,VID_HS*%
X125222000Y-127762000D03*
%TO.P,J0,18,Pin_18_18*%
%TO.N,VID_VS*%
X127762000Y-127762000D03*
%TO.P,J0,19,Pin_19_19*%
%TO.N,ADC_SDA*%
X125222000Y-125222000D03*
%TO.P,J0,20,Pin_20_20*%
%TO.N,ADC_SCL*%
X127762000Y-125222000D03*
%TO.P,J0,21,Pin_21_21*%
%TO.N,LED_CALIB*%
X125222000Y-122682000D03*
%TO.P,J0,22,Pin_22_22*%
%TO.N,LED_PIX*%
X127762000Y-122682000D03*
%TO.P,J0,23,Pin_23_23*%
%TO.N,LED_27M*%
X125222000Y-120142000D03*
%TO.P,J0,24,Pin_24_24*%
%TO.N,LED_DDR_RST*%
X127762000Y-120142000D03*
%TO.P,J0,25,Pin_25_25*%
%TO.N,IN_CLK*%
X125222000Y-117602000D03*
%TO.P,J0,26,Pin_26_26*%
%TO.N,IN_LOAD_N*%
X127762000Y-117602000D03*
%TO.P,J0,27,Pin_27_27*%
%TO.N,IN_DATA*%
X125222000Y-115062000D03*
%TO.P,J0,28,Pin_28_28*%
%TO.N,Out_Clock*%
X127762000Y-115062000D03*
%TO.P,J0,29,Pin_29_29*%
%TO.N,ADC_A1*%
X125222000Y-112522000D03*
%TO.P,J0,30,Pin_30_30*%
%TO.N,ADC_A0*%
X127762000Y-112522000D03*
%TO.P,J0,31,Pin_31_31*%
%TO.N,Out_Data*%
X125222000Y-109982000D03*
%TO.P,J0,32,Pin_32_32*%
%TO.N,Out_Latch*%
X127762000Y-109982000D03*
%TO.P,J0,33,Pin_33_33*%
%TO.N,Out_Clear*%
X125222000Y-107442000D03*
%TO.P,J0,34,Pin_34_34*%
%TO.N,Out_En_N*%
X127762000Y-107442000D03*
%TO.P,J0,35,Pin_35_35*%
%TO.N,AUD_PWM_L1*%
X125222000Y-104902000D03*
%TO.P,J0,36,Pin_36_36*%
%TO.N,AUD_PWM_R1*%
X127762000Y-104902000D03*
%TO.P,J0,37,Pin_37_37*%
%TO.N,MODE_15N*%
X125222000Y-102362000D03*
%TO.P,J0,38,Pin_38_38*%
%TO.N,unconnected-(J0-Pin_38-Pad38)*%
X127762000Y-102362000D03*
%TO.P,J0,39,Pin_39_39*%
%TO.N,SYNC_CSYNC_N*%
X125222000Y-99822000D03*
%TO.P,J0,40,Pin_40_40*%
%TO.N,SYNC_VSOFF_N*%
X127762000Y-99822000D03*
%TD*%
D25*
%TO.P,U5,1,IO1_1*%
%TO.N,Net-(RN10-R3.2)*%
X240396600Y-149794000D03*
%TO.P,U5,2,VN_2*%
%TO.N,GND*%
X240396600Y-150744000D03*
%TO.P,U5,3,IO2_3*%
%TO.N,Net-(RN10-R4.2)*%
X240396600Y-151694000D03*
%TO.P,U5,4,IO3_4*%
%TO.N,Net-(RN10-R2.2)*%
X242671600Y-151694000D03*
%TO.P,U5,5,VP_5*%
%TO.N,+5V*%
X242671600Y-150744000D03*
%TO.P,U5,6,IO4_6*%
%TO.N,Net-(RN10-R1.2)*%
X242671600Y-149794000D03*
%TD*%
D14*
%TO.P,C8,1*%
%TO.N,Net-(J3_DOT1-Pin_10)*%
X223982000Y-93663600D03*
%TO.P,C8,2*%
%TO.N,GND*%
X225882000Y-93663600D03*
%TD*%
D15*
%TO.P,J1,1,Pin_1_1*%
%TO.N,unconnected-(J1-Pin_1-Pad1)*%
X31000000Y-109080000D03*
D16*
%TO.P,J1,2,Pin_2_2*%
%TO.N,unconnected-(J1-Pin_2-Pad2)*%
X31000000Y-106540000D03*
%TO.P,J1,3,Pin_3_3*%
%TO.N,unconnected-(J1-Pin_3-Pad3)*%
X31000000Y-104000000D03*
%TO.P,J1,4,Pin_4_4*%
%TO.N,unconnected-(J1-Pin_4-Pad4)*%
X31000000Y-101460000D03*
%TO.P,J1,5,Pin_5_5*%
%TO.N,unconnected-(J1-Pin_5-Pad5)*%
X31000000Y-98920000D03*
%TO.P,J1,6,Pin_6_6*%
%TO.N,GND*%
X31000000Y-96380000D03*
%TO.P,J1,7,Pin_7_7*%
X31000000Y-93840000D03*
%TO.P,J1,8,Pin_8_8*%
%TO.N,unconnected-(J1-Pin_8-Pad8)*%
X31000000Y-91300000D03*
%TO.P,J1,9,Pin_9_9*%
%TO.N,unconnected-(J1-Pin_9-Pad9)*%
X31000000Y-88760000D03*
%TO.P,J1,10,Pin_10_10*%
%TO.N,GND*%
X31000000Y-86220000D03*
%TO.P,J1,11,Pin_11_11*%
%TO.N,unconnected-(J1-Pin_11-Pad11)*%
X31000000Y-83680000D03*
%TO.P,J1,12,Pin_12_12*%
%TO.N,unconnected-(J1-Pin_12-Pad12)*%
X31000000Y-81140000D03*
%TO.P,J1,13,Pin_13_13*%
%TO.N,unconnected-(J1-Pin_13-Pad13)*%
X31000000Y-78600000D03*
%TO.P,J1,14,Pin_14_14*%
%TO.N,unconnected-(J1-Pin_14-Pad14)*%
X31000000Y-76060000D03*
%TO.P,J1,15,Pin_15_15*%
%TO.N,unconnected-(J1-Pin_15-Pad15)*%
X31000000Y-73520000D03*
%TO.P,J1,16,Pin_16_16*%
%TO.N,unconnected-(J1-Pin_16-Pad16)*%
X31000000Y-70980000D03*
%TO.P,J1,17,Pin_17_17*%
%TO.N,unconnected-(J1-Pin_17-Pad17)*%
X31000000Y-68440000D03*
%TO.P,J1,18,Pin_18_18*%
%TO.N,+12V*%
X31000000Y-65900000D03*
%TO.P,J1,19,Pin_19_19*%
%TO.N,unconnected-(J1-Pin_19-Pad19)*%
X31000000Y-63360000D03*
%TO.P,J1,20,Pin_20_20*%
%TO.N,GND*%
X31000000Y-60820000D03*
%TD*%
D28*
%TO.P,R92,1*%
%TO.N,VID_HS*%
X157429200Y-49881800D03*
%TO.P,R92,2*%
%TO.N,Net-(U12-CH1_IN)*%
X157429200Y-48056800D03*
%TD*%
D15*
%TO.P,JP3,1,A_1*%
%TO.N,SYNC_VSOFF_N*%
X61264800Y-59939000D03*
D16*
%TO.P,JP3,2,B_2*%
%TO.N,GND*%
X61264800Y-62479000D03*
%TD*%
D14*
%TO.P,C4,1*%
%TO.N,Net-(J3-Pin_7)*%
X243855200Y-103000800D03*
%TO.P,C4,2*%
%TO.N,GND*%
X245755200Y-103000800D03*
%TD*%
D34*
%TO.P,RN14,1,R1.1_1*%
%TO.N,Net-(J6-Pin_5)*%
X263296400Y-118313200D03*
D35*
%TO.P,RN14,2,R2.1_2*%
%TO.N,Net-(J6-Pin_6)*%
X263296400Y-117513200D03*
%TO.P,RN14,3,R3.1_3*%
%TO.N,Net-(J6-Pin_7)*%
X263296400Y-116713200D03*
D34*
%TO.P,RN14,4,R4.1_4*%
%TO.N,Net-(J6-Pin_9)*%
X263296400Y-115913200D03*
%TO.P,RN14,5,R4.2_5*%
%TO.N,Net-(RN14-R4.2)*%
X261496400Y-115913200D03*
D35*
%TO.P,RN14,6,R3.2_6*%
%TO.N,Net-(RN14-R3.2)*%
X261496400Y-116713200D03*
%TO.P,RN14,7,R2.2_7*%
%TO.N,Net-(RN14-R2.2)*%
X261496400Y-117513200D03*
D34*
%TO.P,RN14,8,R1.2_8*%
%TO.N,Net-(RN14-R1.2)*%
X261496400Y-118313200D03*
%TD*%
D27*
%TO.P,TP3,1,1_1*%
%TO.N,+5V*%
X85394800Y-91592400D03*
%TD*%
D40*
%TO.P,U24,1,IN_1*%
%TO.N,Net-(U24-IN)*%
X77106100Y-97563700D03*
D41*
%TO.P,U24,2,GND_2*%
%TO.N,GND*%
X79646100Y-97563700D03*
%TO.P,U24,3,OUT_3*%
%TO.N,+5V*%
X82186100Y-97563700D03*
%TD*%
D28*
%TO.P,R102,1*%
%TO.N,Net-(U13-CH3_IN)*%
X182429200Y-49881800D03*
%TO.P,R102,2*%
%TO.N,VID_G1*%
X182429200Y-48056800D03*
%TD*%
D34*
%TO.P,RN9,1,R1.1_1*%
%TO.N,Net-(J4-Pin_15)*%
X263855200Y-154393600D03*
D35*
%TO.P,RN9,2,R2.1_2*%
%TO.N,Net-(J4-Pin_16)*%
X263855200Y-153593600D03*
%TO.P,RN9,3,R3.1_3*%
%TO.N,Net-(J4-Pin_17)*%
X263855200Y-152793600D03*
D34*
%TO.P,RN9,4,R4.1_4*%
%TO.N,Net-(J4-Pin_18)*%
X263855200Y-151993600D03*
%TO.P,RN9,5,R4.2_5*%
%TO.N,Net-(RN2-R1)*%
X262055200Y-151993600D03*
D35*
%TO.P,RN9,6,R3.2_6*%
%TO.N,Net-(RN2-R2)*%
X262055200Y-152793600D03*
%TO.P,RN9,7,R2.2_7*%
%TO.N,Net-(RN2-R3)*%
X262055200Y-153593600D03*
D34*
%TO.P,RN9,8,R1.2_8*%
%TO.N,Net-(RN2-R4)*%
X262055200Y-154393600D03*
%TD*%
D27*
%TO.P,TP7,1,1_1*%
%TO.N,Net-(J2_RGBS_Out1-Pin_8)*%
X191719200Y-17373600D03*
%TD*%
D29*
%TO.P,RN2,1,common_1*%
%TO.N,+5V*%
X226110800Y-169214800D03*
D30*
%TO.P,RN2,2,R1_2*%
%TO.N,Net-(RN2-R1)*%
X226110800Y-166674800D03*
%TO.P,RN2,3,R2_3*%
%TO.N,Net-(RN2-R2)*%
X226110800Y-164134800D03*
%TO.P,RN2,4,R3_4*%
%TO.N,Net-(RN2-R3)*%
X226110800Y-161594800D03*
%TO.P,RN2,5,R4_5*%
%TO.N,Net-(RN2-R4)*%
X226110800Y-159054800D03*
%TO.P,RN2,6,R5_6*%
%TO.N,Net-(RN10-R4.2)*%
X226110800Y-156514800D03*
%TO.P,RN2,7,R6_7*%
%TO.N,Net-(RN10-R3.2)*%
X226110800Y-153974800D03*
%TO.P,RN2,8,R7_8*%
%TO.N,Net-(RN10-R2.2)*%
X226110800Y-151434800D03*
%TO.P,RN2,9,R8_9*%
%TO.N,Net-(RN10-R1.2)*%
X226110800Y-148894800D03*
%TD*%
D34*
%TO.P,RN8,1,R1.1_1*%
%TO.N,Net-(J4-Pin_4)*%
X263724800Y-198843600D03*
D35*
%TO.P,RN8,2,R2.1_2*%
%TO.N,Net-(J4-Pin_3)*%
X263724800Y-198043600D03*
%TO.P,RN8,3,R3.1_3*%
%TO.N,Net-(J4-Pin_2)*%
X263724800Y-197243600D03*
D34*
%TO.P,RN8,4,R4.1_4*%
%TO.N,Net-(J4-Pin_1)*%
X263724800Y-196443600D03*
%TO.P,RN8,5,R4.2_5*%
%TO.N,Net-(RN1-R1)*%
X261924800Y-196443600D03*
D35*
%TO.P,RN8,6,R3.2_6*%
%TO.N,Net-(RN1-R2)*%
X261924800Y-197243600D03*
%TO.P,RN8,7,R2.2_7*%
%TO.N,Net-(RN1-R3)*%
X261924800Y-198043600D03*
D34*
%TO.P,RN8,8,R1.2_8*%
%TO.N,Net-(RN1-R4)*%
X261924800Y-198843600D03*
%TD*%
D13*
%TO.P,R3,1*%
%TO.N,Net-(C2-Pad1)*%
X238930200Y-98000800D03*
%TO.P,R3,2*%
%TO.N,Net-(J3-Pin_9)*%
X240755200Y-98000800D03*
%TD*%
D25*
%TO.P,U15,1,IO1_1*%
%TO.N,Net-(RN2-R2)*%
X249337400Y-150180000D03*
%TO.P,U15,2,VN_2*%
%TO.N,GND*%
X249337400Y-151130000D03*
%TO.P,U15,3,IO2_3*%
%TO.N,Net-(RN2-R1)*%
X249337400Y-152080000D03*
%TO.P,U15,4,IO3_4*%
%TO.N,Net-(RN2-R3)*%
X251612400Y-152080000D03*
%TO.P,U15,5,VP_5*%
%TO.N,+5V*%
X251612400Y-151130000D03*
%TO.P,U15,6,IO4_6*%
%TO.N,Net-(RN2-R4)*%
X251612400Y-150180000D03*
%TD*%
D28*
%TO.P,R95,1*%
%TO.N,Net-(U13-CH1_IN)*%
X164929200Y-49881800D03*
%TO.P,R95,2*%
%TO.N,VID_R2*%
X164929200Y-48056800D03*
%TD*%
D13*
%TO.P,R13,1*%
%TO.N,AUD_PWM_L2*%
X228398700Y-101041200D03*
%TO.P,R13,2*%
%TO.N,Net-(C47-Pad1)*%
X230223700Y-101041200D03*
%TD*%
D33*
%TO.P,SW2,1*%
%TO.N,GND*%
X79380000Y-63650000D03*
D30*
%TO.P,SW2,2*%
X79380000Y-66190000D03*
%TO.P,SW2,3*%
X79380000Y-68730000D03*
%TO.P,SW2,4*%
X79380000Y-71270000D03*
%TO.P,SW2,5*%
X79380000Y-73810000D03*
%TO.P,SW2,6*%
X79380000Y-76350000D03*
%TO.P,SW2,7*%
X79380000Y-78890000D03*
%TO.P,SW2,8*%
X79380000Y-81430000D03*
%TO.P,SW2,9*%
%TO.N,Net-(RN6-R8)*%
X87000000Y-81430000D03*
%TO.P,SW2,10*%
%TO.N,Net-(RN6-R7)*%
X87000000Y-78890000D03*
%TO.P,SW2,11*%
%TO.N,Net-(RN6-R6)*%
X87000000Y-76350000D03*
%TO.P,SW2,12*%
%TO.N,Net-(RN6-R5)*%
X87000000Y-73810000D03*
%TO.P,SW2,13*%
%TO.N,Net-(RN6-R4)*%
X87000000Y-71270000D03*
%TO.P,SW2,14*%
%TO.N,Net-(RN6-R3)*%
X87000000Y-68730000D03*
%TO.P,SW2,15*%
%TO.N,Net-(RN6-R2)*%
X87000000Y-66190000D03*
%TO.P,SW2,16*%
%TO.N,Net-(RN6-R1)*%
X87000000Y-63650000D03*
%TD*%
D25*
%TO.P,U19,1,IO1_1*%
%TO.N,Net-(RN12-R3.2)*%
X249458900Y-55692000D03*
%TO.P,U19,2,VN_2*%
%TO.N,GND*%
X249458900Y-56642000D03*
%TO.P,U19,3,IO2_3*%
%TO.N,Net-(RN12-R4.2)*%
X249458900Y-57592000D03*
%TO.P,U19,4,IO3_4*%
%TO.N,Net-(RN12-R2.2)*%
X251733900Y-57592000D03*
%TO.P,U19,5,VP_5*%
%TO.N,+5V*%
X251733900Y-56642000D03*
%TO.P,U19,6,IO4_6*%
%TO.N,Net-(RN12-R1.2)*%
X251733900Y-55692000D03*
%TD*%
D13*
%TO.P,R1,1*%
%TO.N,Net-(U14-CH0)*%
X238930200Y-87500800D03*
%TO.P,R1,2*%
%TO.N,Net-(J3-Pin_2)*%
X240755200Y-87500800D03*
%TD*%
D28*
%TO.P,R97,1*%
%TO.N,Net-(U13-CH2_IN)*%
X169929200Y-49881800D03*
%TO.P,R97,2*%
%TO.N,VID_B3*%
X169929200Y-48056800D03*
%TD*%
D38*
%TO.P,C44,1*%
%TO.N,+5V*%
X192631800Y-35052000D03*
%TO.P,C44,2*%
%TO.N,GND*%
X195581800Y-35052000D03*
%TD*%
D27*
%TO.P,TP1,1,1_1*%
%TO.N,+12V*%
X57912000Y-128320800D03*
%TD*%
D34*
%TO.P,RN11,1,R1.1_1*%
%TO.N,Net-(J5-Pin_5)*%
X262048400Y-64376000D03*
D35*
%TO.P,RN11,2,R2.1_2*%
%TO.N,Net-(J5-Pin_6)*%
X262048400Y-63576000D03*
%TO.P,RN11,3,R3.1_3*%
%TO.N,Net-(J5-Pin_7)*%
X262048400Y-62776000D03*
D34*
%TO.P,RN11,4,R4.1_4*%
%TO.N,Net-(J5-Pin_8)*%
X262048400Y-61976000D03*
%TO.P,RN11,5,R4.2_5*%
%TO.N,Net-(RN11-R4.2)*%
X260248400Y-61976000D03*
D35*
%TO.P,RN11,6,R3.2_6*%
%TO.N,Net-(RN11-R3.2)*%
X260248400Y-62776000D03*
%TO.P,RN11,7,R2.2_7*%
%TO.N,Net-(RN11-R2.2)*%
X260248400Y-63576000D03*
D34*
%TO.P,RN11,8,R1.2_8*%
%TO.N,Net-(RN11-R1.2)*%
X260248400Y-64376000D03*
%TD*%
D15*
%TO.P,JP2,1,A_1*%
%TO.N,SYNC_CSYNC_N*%
X63000000Y-45850000D03*
D16*
%TO.P,JP2,2,B_2*%
%TO.N,GND*%
X63000000Y-48390000D03*
%TD*%
D23*
%TO.P,D35,1,K_1*%
%TO.N,GND*%
X151093200Y-42824400D03*
%TO.P,D35,2,A_2*%
%TO.N,LED_CALIB*%
X151093200Y-44874400D03*
%TD*%
D13*
%TO.P,R11,1*%
%TO.N,Net-(C47-Pad1)*%
X228449500Y-93573600D03*
%TO.P,R11,2*%
%TO.N,Net-(J3_DOT1-Pin_10)*%
X230274500Y-93573600D03*
%TD*%
D40*
%TO.P,U25,1,IN_1*%
%TO.N,Net-(U25-IN)*%
X77571600Y-113842800D03*
D41*
%TO.P,U25,2,GND_2*%
%TO.N,GND*%
X80111600Y-113842800D03*
%TO.P,U25,3,OUT_3*%
%TO.N,+3.3V*%
X82651600Y-113842800D03*
%TD*%
D14*
%TO.P,C2,1*%
%TO.N,Net-(C2-Pad1)*%
X243855200Y-92500800D03*
%TO.P,C2,2*%
%TO.N,GND*%
X245755200Y-92500800D03*
%TD*%
%TO.P,C45,1*%
%TO.N,Net-(C45-Pad1)*%
X243855200Y-108000800D03*
%TO.P,C45,2*%
%TO.N,GND*%
X245755200Y-108000800D03*
%TD*%
D13*
%TO.P,R5,1*%
%TO.N,AUD_PWM_R1*%
X238930200Y-108000800D03*
%TO.P,R5,2*%
%TO.N,Net-(C45-Pad1)*%
X240755200Y-108000800D03*
%TD*%
D28*
%TO.P,R99,1*%
%TO.N,Net-(U13-CH2_IN)*%
X174929200Y-49881800D03*
%TO.P,R99,2*%
%TO.N,VID_B1*%
X174929200Y-48056800D03*
%TD*%
%TO.P,R103,1*%
%TO.N,+3.3V*%
X184879200Y-49881800D03*
%TO.P,R103,2*%
%TO.N,Out_En_N*%
X184879200Y-48056800D03*
%TD*%
D14*
%TO.P,C3,1*%
%TO.N,Net-(J3-Pin_9)*%
X243855200Y-98000800D03*
%TO.P,C3,2*%
%TO.N,GND*%
X245755200Y-98000800D03*
%TD*%
D29*
%TO.P,RN3,1,common_1*%
%TO.N,+5V*%
X225958400Y-77520800D03*
D30*
%TO.P,RN3,2,R1_2*%
%TO.N,Net-(RN11-R4.2)*%
X225958400Y-74980800D03*
%TO.P,RN3,3,R2_3*%
%TO.N,Net-(RN11-R3.2)*%
X225958400Y-72440800D03*
%TO.P,RN3,4,R3_4*%
%TO.N,Net-(RN11-R2.2)*%
X225958400Y-69900800D03*
%TO.P,RN3,5,R4_5*%
%TO.N,Net-(RN11-R1.2)*%
X225958400Y-67360800D03*
%TO.P,RN3,6,R5_6*%
%TO.N,Net-(RN12-R4.2)*%
X225958400Y-64820800D03*
%TO.P,RN3,7,R6_7*%
%TO.N,Net-(RN12-R3.2)*%
X225958400Y-62280800D03*
%TO.P,RN3,8,R7_8*%
%TO.N,Net-(RN12-R2.2)*%
X225958400Y-59740800D03*
%TO.P,RN3,9,R8_9*%
%TO.N,Net-(RN12-R1.2)*%
X225958400Y-57200800D03*
%TD*%
D26*
%TO.P,C5,1*%
%TO.N,+12V*%
X50272100Y-99161600D03*
D27*
%TO.P,C5,2*%
%TO.N,GND*%
X45272100Y-99161600D03*
%TD*%
D39*
%TO.P,U10,1,I1_1*%
%TO.N,Net-(U10-I1)*%
X229663200Y-17576800D03*
%TO.P,U10,2,I2_2*%
%TO.N,Net-(U10-I2)*%
X229663200Y-18846800D03*
%TO.P,U10,3,I3_3*%
%TO.N,Net-(U10-I3)*%
X229663200Y-20116800D03*
%TO.P,U10,4,I4_4*%
%TO.N,Net-(U10-I4)*%
X229663200Y-21386800D03*
%TO.P,U10,5,I5_5*%
%TO.N,Net-(U10-I5)*%
X229663200Y-22656800D03*
%TO.P,U10,6,I6_6*%
%TO.N,Net-(U10-I6)*%
X229663200Y-23926800D03*
%TO.P,U10,7,I7_7*%
%TO.N,Net-(U10-I7)*%
X229663200Y-25196800D03*
%TO.P,U10,8,I8_8*%
%TO.N,Net-(U10-I8)*%
X229663200Y-26466800D03*
%TO.P,U10,9,GND_9*%
%TO.N,GND*%
X229663200Y-27736800D03*
%TO.P,U10,10,COM_10*%
%TO.N,+12V*%
X238963200Y-27736800D03*
%TO.P,U10,11,O8_11*%
%TO.N,unconnected-(U10-O8-Pad11)*%
X238963200Y-26466800D03*
%TO.P,U10,12,O7_12*%
%TO.N,unconnected-(U10-O7-Pad12)*%
X238963200Y-25196800D03*
%TO.P,U10,13,O6_13*%
%TO.N,unconnected-(U10-O6-Pad13)*%
X238963200Y-23926800D03*
%TO.P,U10,14,O5_14*%
%TO.N,Start 3 Lamp*%
X238963200Y-22656800D03*
%TO.P,U10,15,O4_15*%
%TO.N,Start 2 Lamp*%
X238963200Y-21386800D03*
%TO.P,U10,16,O3_16*%
%TO.N,Start 1 Lamp*%
X238963200Y-20116800D03*
%TO.P,U10,17,O2_17*%
%TO.N,unconnected-(U10-O2-Pad17)*%
X238963200Y-18846800D03*
%TO.P,U10,18,O1_18*%
%TO.N,Coin_Meter*%
X238963200Y-17576800D03*
%TD*%
D14*
%TO.P,C42,1*%
%TO.N,+5V*%
X193070400Y-40894000D03*
%TO.P,C42,2*%
%TO.N,GND*%
X194970400Y-40894000D03*
%TD*%
D31*
%TO.P,D1,1,K_1*%
%TO.N,GND*%
X89712800Y-135899000D03*
%TO.P,D1,2,A_2*%
%TO.N,Net-(D1-A)*%
X89712800Y-133849000D03*
%TD*%
D27*
%TO.P,TP8,1,1_1*%
%TO.N,Net-(J2_RGBS_Out1-Pin_9)*%
X191973200Y-24587200D03*
%TD*%
D14*
%TO.P,C46,1*%
%TO.N,Net-(C46-Pad1)*%
X223992400Y-97129600D03*
%TO.P,C46,2*%
%TO.N,GND*%
X225892400Y-97129600D03*
%TD*%
D25*
%TO.P,U16,1,IO1_1*%
%TO.N,Net-(RN1-R2)*%
X237114500Y-180564700D03*
%TO.P,U16,2,VN_2*%
%TO.N,GND*%
X237114500Y-181514700D03*
%TO.P,U16,3,IO2_3*%
%TO.N,Net-(RN1-R1)*%
X237114500Y-182464700D03*
%TO.P,U16,4,IO3_4*%
%TO.N,Net-(RN1-R3)*%
X239389500Y-182464700D03*
%TO.P,U16,5,VP_5*%
%TO.N,+5V*%
X239389500Y-181514700D03*
%TO.P,U16,6,IO4_6*%
%TO.N,Net-(RN1-R4)*%
X239389500Y-180564700D03*
%TD*%
D14*
%TO.P,C47,1*%
%TO.N,Net-(C47-Pad1)*%
X223890800Y-100990400D03*
%TO.P,C47,2*%
%TO.N,GND*%
X225790800Y-100990400D03*
%TD*%
D25*
%TO.P,U17,1,IO1_1*%
%TO.N,Net-(RN1-R6)*%
X246340200Y-180614400D03*
%TO.P,U17,2,VN_2*%
%TO.N,GND*%
X246340200Y-181564400D03*
%TO.P,U17,3,IO2_3*%
%TO.N,Net-(RN1-R5)*%
X246340200Y-182514400D03*
%TO.P,U17,4,IO3_4*%
%TO.N,Net-(RN1-R7)*%
X248615200Y-182514400D03*
%TO.P,U17,5,VP_5*%
%TO.N,+5V*%
X248615200Y-181564400D03*
%TO.P,U17,6,IO4_6*%
%TO.N,Net-(RN1-R8)*%
X248615200Y-180614400D03*
%TD*%
D28*
%TO.P,R93,1*%
%TO.N,VID_VS*%
X159929200Y-49881800D03*
%TO.P,R93,2*%
%TO.N,Net-(U12-CH2_IN)*%
X159929200Y-48056800D03*
%TD*%
D34*
%TO.P,RN13,1,R1.1_1*%
%TO.N,Net-(J6-Pin_1)*%
X263318400Y-133045200D03*
D35*
%TO.P,RN13,2,R2.1_2*%
%TO.N,Net-(J6-Pin_2)*%
X263318400Y-132245200D03*
%TO.P,RN13,3,R3.1_3*%
%TO.N,Net-(J6-Pin_3)*%
X263318400Y-131445200D03*
D34*
%TO.P,RN13,4,R4.1_4*%
%TO.N,Net-(J6-Pin_4)*%
X263318400Y-130645200D03*
%TO.P,RN13,5,R4.2_5*%
%TO.N,Net-(RN13-R4.2)*%
X261518400Y-130645200D03*
D35*
%TO.P,RN13,6,R3.2_6*%
%TO.N,Net-(RN13-R3.2)*%
X261518400Y-131445200D03*
%TO.P,RN13,7,R2.2_7*%
%TO.N,Net-(RN13-R2.2)*%
X261518400Y-132245200D03*
D34*
%TO.P,RN13,8,R1.2_8*%
%TO.N,Net-(RN13-R1.2)*%
X261518400Y-133045200D03*
%TD*%
D36*
%TO.P,R7,1*%
%TO.N,+5V*%
X92608400Y-96993200D03*
%TO.P,R7,2*%
%TO.N,Net-(D2-A)*%
X92608400Y-98993200D03*
%TD*%
D28*
%TO.P,R101,1*%
%TO.N,Net-(U13-CH3_IN)*%
X179929200Y-49881800D03*
%TO.P,R101,2*%
%TO.N,VID_G2*%
X179929200Y-48056800D03*
%TD*%
D24*
%TO.P,L2,1*%
%TO.N,+12V*%
X57962800Y-115671600D03*
%TO.P,L2,2*%
%TO.N,Net-(U25-IN)*%
X67662800Y-115671600D03*
%TD*%
D15*
%TO.P,J3_DOT1,1,Pin_1_1*%
%TO.N,+5V*%
X253949200Y-106222800D03*
D16*
%TO.P,J3_DOT1,2,Pin_2_2*%
%TO.N,Net-(J3-Pin_2)*%
X253949200Y-103682800D03*
%TO.P,J3_DOT1,3,Pin_3_3*%
%TO.N,GND*%
X253949200Y-101142800D03*
%TO.P,J3_DOT1,4,Pin_4_4*%
%TO.N,unconnected-(J3_DOT1-Pin_4-Pad4)*%
X253949200Y-98602800D03*
%TO.P,J3_DOT1,5,Pin_5_5*%
%TO.N,GND*%
X253949200Y-96062800D03*
%TO.P,J3_DOT1,6,Pin_6_6*%
%TO.N,Net-(J3-Pin_7)*%
X253949200Y-93522800D03*
%TO.P,J3_DOT1,7,Pin_7_7*%
%TO.N,Net-(J3-Pin_9)*%
X253949200Y-90982800D03*
%TO.P,J3_DOT1,8,Pin_8_8*%
%TO.N,GND*%
X253949200Y-88442800D03*
%TO.P,J3_DOT1,9,Pin_9_9*%
%TO.N,Net-(J3_DOT1-Pin_9)*%
X253949200Y-85902800D03*
%TO.P,J3_DOT1,10,Pin_10_10*%
%TO.N,Net-(J3_DOT1-Pin_10)*%
X253949200Y-83362800D03*
%TD*%
D13*
%TO.P,R10,1*%
%TO.N,Net-(C46-Pad1)*%
X228449500Y-90017600D03*
%TO.P,R10,2*%
%TO.N,Net-(J3_DOT1-Pin_9)*%
X230274500Y-90017600D03*
%TD*%
D27*
%TO.P,TP4,1,1_1*%
%TO.N,GND*%
X89662000Y-141884400D03*
%TD*%
D13*
%TO.P,R4,1*%
%TO.N,Net-(C45-Pad1)*%
X238930200Y-103050800D03*
%TO.P,R4,2*%
%TO.N,Net-(J3-Pin_7)*%
X240755200Y-103050800D03*
%TD*%
D14*
%TO.P,C6,1*%
%TO.N,Net-(J3_DOT1-Pin_9)*%
X224094000Y-90119200D03*
%TO.P,C6,2*%
%TO.N,GND*%
X225994000Y-90119200D03*
%TD*%
D29*
%TO.P,J1-VGAOut1,1*%
%TO.N,Net-(J2_RGBS_Out1-Pin_1)*%
X127304800Y-26304400D03*
D30*
%TO.P,J1-VGAOut1,2*%
%TO.N,Net-(J2_RGBS_Out1-Pin_3)*%
X129594800Y-26304400D03*
%TO.P,J1-VGAOut1,3*%
%TO.N,Net-(J2_RGBS_Out1-Pin_5)*%
X131884800Y-26304400D03*
%TO.P,J1-VGAOut1,4*%
%TO.N,unconnected-(J1-VGAOut1-Pad4)*%
X134174800Y-26304400D03*
%TO.P,J1-VGAOut1,5*%
%TO.N,GND*%
X136464800Y-26304400D03*
%TO.P,J1-VGAOut1,6*%
X126159800Y-24404400D03*
%TO.P,J1-VGAOut1,7*%
X128449800Y-24404400D03*
%TO.P,J1-VGAOut1,8*%
X130739800Y-24404400D03*
%TO.P,J1-VGAOut1,9*%
%TO.N,unconnected-(J1-VGAOut1-Pad9)*%
X133029800Y-24404400D03*
%TO.P,J1-VGAOut1,10*%
%TO.N,GND*%
X135319800Y-24404400D03*
%TO.P,J1-VGAOut1,11*%
%TO.N,unconnected-(J1-VGAOut1-Pad11)*%
X127304800Y-22504400D03*
%TO.P,J1-VGAOut1,12*%
%TO.N,unconnected-(J1-VGAOut1-Pad12)*%
X129594800Y-22504400D03*
%TO.P,J1-VGAOut1,13*%
%TO.N,Net-(J2_RGBS_Out1-Pin_8)*%
X131884800Y-22504400D03*
%TO.P,J1-VGAOut1,14*%
%TO.N,Net-(J2_RGBS_Out1-Pin_9)*%
X134174800Y-22504400D03*
%TO.P,J1-VGAOut1,15*%
%TO.N,unconnected-(J1-VGAOut1-Pad15)*%
X136464800Y-22504400D03*
D42*
%TO.P,J1-VGAOut1,SH*%
%TO.N,N/C*%
X144119800Y-24414400D03*
X119119800Y-24414400D03*
%TD*%
D13*
%TO.P,R12,1*%
%TO.N,AUD_PWM_R2*%
X228449500Y-97231200D03*
%TO.P,R12,2*%
%TO.N,Net-(C46-Pad1)*%
X230274500Y-97231200D03*
%TD*%
D43*
%TO.P,U3,1,~{PL}_1*%
%TO.N,IN_LOAD_N*%
X210159600Y-69720000D03*
%TO.P,U3,2,CP_2*%
%TO.N,IN_CLK*%
X211429600Y-69720000D03*
%TO.P,U3,3,D4_3*%
%TO.N,Net-(RN11-R1.2)*%
X212699600Y-69720000D03*
%TO.P,U3,4,D5_4*%
%TO.N,Net-(RN11-R2.2)*%
X213969600Y-69720000D03*
%TO.P,U3,5,D6_5*%
%TO.N,Net-(RN11-R3.2)*%
X215239600Y-69720000D03*
%TO.P,U3,6,D7_6*%
%TO.N,Net-(RN11-R4.2)*%
X216509600Y-69720000D03*
%TO.P,U3,7,~{Q7}_7*%
%TO.N,unconnected-(U3-~{Q7}-Pad7)*%
X217779600Y-69720000D03*
%TO.P,U3,8,GND_8*%
%TO.N,GND*%
X219049600Y-69720000D03*
%TO.P,U3,9,Q7_9*%
%TO.N,J5_Input_Stream*%
X219049600Y-64770000D03*
%TO.P,U3,10,DS_10*%
%TO.N,J4_Input_Stream*%
X217779600Y-64770000D03*
%TO.P,U3,11,D0_11*%
%TO.N,Net-(RN12-R1.2)*%
X216509600Y-64770000D03*
%TO.P,U3,12,D1_12*%
%TO.N,Net-(RN12-R2.2)*%
X215239600Y-64770000D03*
%TO.P,U3,13,D2_13*%
%TO.N,Net-(RN12-R3.2)*%
X213969600Y-64770000D03*
%TO.P,U3,14,D3_14*%
%TO.N,Net-(RN12-R4.2)*%
X212699600Y-64770000D03*
%TO.P,U3,15,~{CE}_15*%
%TO.N,GND*%
X211429600Y-64770000D03*
%TO.P,U3,16,VCC_16*%
%TO.N,+3.3V*%
X210159600Y-64770000D03*
%TD*%
D22*
%TO.P,U12,1,CH1_IN_1*%
%TO.N,Net-(U12-CH1_IN)*%
X158038800Y-36372800D03*
%TO.P,U12,2,CH2_IN_2*%
%TO.N,Net-(U12-CH2_IN)*%
X158038800Y-37022800D03*
%TO.P,U12,3,CH3_IN_3*%
%TO.N,GND*%
X158038800Y-37672800D03*
%TO.P,U12,4,CH4_IN_4*%
X158038800Y-38322800D03*
%TO.P,U12,5,GND_5*%
X158038800Y-38972800D03*
%TO.P,U12,6,DISABLE_6*%
X158038800Y-39622800D03*
%TO.P,U12,7,NC_7*%
%TO.N,unconnected-(U12-NC-Pad7)*%
X158038800Y-40272800D03*
%TO.P,U12,8,NC_8*%
%TO.N,unconnected-(U12-NC-Pad8)*%
X163763800Y-40272800D03*
%TO.P,U12,9,BYPASS_9*%
%TO.N,Net-(JP4-C)*%
X163763800Y-39622800D03*
%TO.P,U12,10,V_{S+}_10*%
%TO.N,+5V*%
X163763800Y-38972800D03*
%TO.P,U12,11,CH4_OUT_11*%
%TO.N,unconnected-(U12-CH4_OUT-Pad11)*%
X163763800Y-38322800D03*
%TO.P,U12,12,CH3_OUT_12*%
%TO.N,unconnected-(U12-CH3_OUT-Pad12)*%
X163763800Y-37672800D03*
%TO.P,U12,13,CH2_OUT_13*%
%TO.N,Net-(U12-CH2_OUT)*%
X163763800Y-37022800D03*
%TO.P,U12,14,CH1_OUT_14*%
%TO.N,Net-(U12-CH1_OUT)*%
X163763800Y-36372800D03*
%TD*%
D34*
%TO.P,RN10,1,R1.1_1*%
%TO.N,Net-(J4-Pin_10)*%
X263956800Y-166179200D03*
D35*
%TO.P,RN10,2,R2.1_2*%
%TO.N,Net-(J4-Pin_11)*%
X263956800Y-165379200D03*
%TO.P,RN10,3,R3.1_3*%
%TO.N,Net-(J4-Pin_12)*%
X263956800Y-164579200D03*
D34*
%TO.P,RN10,4,R4.1_4*%
%TO.N,Net-(J4-Pin_13)*%
X263956800Y-163779200D03*
%TO.P,RN10,5,R4.2_5*%
%TO.N,Net-(RN10-R4.2)*%
X262156800Y-163779200D03*
D35*
%TO.P,RN10,6,R3.2_6*%
%TO.N,Net-(RN10-R3.2)*%
X262156800Y-164579200D03*
%TO.P,RN10,7,R2.2_7*%
%TO.N,Net-(RN10-R2.2)*%
X262156800Y-165379200D03*
D34*
%TO.P,RN10,8,R1.2_8*%
%TO.N,Net-(RN10-R1.2)*%
X262156800Y-166179200D03*
%TD*%
D21*
%TO.P,U9,1,QB_1*%
%TO.N,Net-(U11-I2)*%
X218671600Y-35458400D03*
%TO.P,U9,2,QC_2*%
%TO.N,Net-(U11-I3)*%
X218671600Y-36728400D03*
%TO.P,U9,3,QD_3*%
%TO.N,Net-(U11-I4)*%
X218671600Y-37998400D03*
%TO.P,U9,4,QE_4*%
%TO.N,Net-(U11-I5)*%
X218671600Y-39268400D03*
%TO.P,U9,5,QF_5*%
%TO.N,Net-(U11-I6)*%
X218671600Y-40538400D03*
%TO.P,U9,6,QG_6*%
%TO.N,Net-(U11-I7)*%
X218671600Y-41808400D03*
%TO.P,U9,7,QH_7*%
%TO.N,Net-(U11-I8)*%
X218671600Y-43078400D03*
%TO.P,U9,8,GND_8*%
%TO.N,GND*%
X218671600Y-44348400D03*
%TO.P,U9,9,QH'_9*%
%TO.N,unconnected-(U9-QH'-Pad9)*%
X223621600Y-44348400D03*
%TO.P,U9,10,~{SRCLR}_10*%
%TO.N,Out_Clear*%
X223621600Y-43078400D03*
%TO.P,U9,11,SRCLK_11*%
%TO.N,Out_Clock*%
X223621600Y-41808400D03*
%TO.P,U9,12,RCLK_12*%
%TO.N,Out_Latch*%
X223621600Y-40538400D03*
%TO.P,U9,13,~{OE}_13*%
%TO.N,Out_En_N*%
X223621600Y-39268400D03*
%TO.P,U9,14,SER_14*%
%TO.N,Net-(U8-QH')*%
X223621600Y-37998400D03*
%TO.P,U9,15,QA_15*%
%TO.N,Net-(U11-I1)*%
X223621600Y-36728400D03*
%TO.P,U9,16,VCC_16*%
%TO.N,+5V*%
X223621600Y-35458400D03*
%TD*%
D34*
%TO.P,RN7,1,R1.1_1*%
%TO.N,Net-(J4-Pin_5)*%
X263315600Y-187776000D03*
D35*
%TO.P,RN7,2,R2.1_2*%
%TO.N,Net-(J4-Pin_6)*%
X263315600Y-186976000D03*
%TO.P,RN7,3,R3.1_3*%
%TO.N,Net-(J4-Pin_7)*%
X263315600Y-186176000D03*
D34*
%TO.P,RN7,4,R4.1_4*%
%TO.N,Net-(J4-Pin_8)*%
X263315600Y-185376000D03*
%TO.P,RN7,5,R4.2_5*%
%TO.N,Net-(RN1-R8)*%
X261515600Y-185376000D03*
D35*
%TO.P,RN7,6,R3.2_6*%
%TO.N,Net-(RN1-R7)*%
X261515600Y-186176000D03*
%TO.P,RN7,7,R2.2_7*%
%TO.N,Net-(RN1-R6)*%
X261515600Y-186976000D03*
D34*
%TO.P,RN7,8,R1.2_8*%
%TO.N,Net-(RN1-R5)*%
X261515600Y-187776000D03*
%TD*%
D27*
%TO.P,TP9,1,1_1*%
%TO.N,GND*%
X256946400Y-142138400D03*
%TD*%
D15*
%TO.P,J5,1,Pin_1_1*%
%TO.N,/1 Plyr Move Left*%
X273000000Y-75540000D03*
D16*
%TO.P,J5,2,Pin_2_2*%
%TO.N,/1 Plyr Move Right*%
X273000000Y-73000000D03*
%TO.P,J5,3,Pin_3_3*%
%TO.N,/1 Plyr Move Up*%
X273000000Y-70460000D03*
%TO.P,J5,4,Pin_4_4*%
%TO.N,/1 Plyr Move Down*%
X273000000Y-67920000D03*
%TO.P,J5,5,Pin_5_5*%
%TO.N,Net-(J5-Pin_5)*%
X273000000Y-65380000D03*
%TO.P,J5,6,Pin_6_6*%
%TO.N,Net-(J5-Pin_6)*%
X273000000Y-62840000D03*
%TO.P,J5,7,Pin_7_7*%
%TO.N,Net-(J5-Pin_7)*%
X273000000Y-60300000D03*
%TO.P,J5,8,Pin_8_8*%
%TO.N,Net-(J5-Pin_8)*%
X273000000Y-57760000D03*
%TO.P,J5,9,Pin_9_9*%
%TO.N,GND*%
X273000000Y-55220000D03*
%TO.P,J5,10,Pin_10_10*%
%TO.N,MD0*%
X273000000Y-52680000D03*
%TO.P,J5,11,Pin_11_11*%
%TO.N,MD1*%
X273000000Y-50140000D03*
%TO.P,J5,12,Pin_12_12*%
%TO.N,MD2*%
X273000000Y-47600000D03*
%TO.P,J5,13,Pin_13_13*%
%TO.N,MD3*%
X273000000Y-45060000D03*
%TO.P,J5,14,Pin_14_14*%
%TO.N,ST0*%
X273000000Y-42520000D03*
%TO.P,J5,15,Pin_15_15*%
%TO.N,ST1*%
X273000000Y-39980000D03*
%TO.P,J5,16,Pin_16_16*%
%TO.N,ARD*%
X273000000Y-37440000D03*
%TO.P,J5,17,Pin_17_17*%
%TO.N,SEL*%
X273000000Y-34900000D03*
%TO.P,J5,18,Pin_18_18*%
%TO.N,GND*%
X273000000Y-32360000D03*
%TO.P,J5,19,Pin_19_19*%
%TO.N,unconnected-(J5-Pin_19-Pad19)*%
X273000000Y-29820000D03*
%TO.P,J5,20,Pin_20_20*%
%TO.N,Coin_Meter*%
X273000000Y-27280000D03*
%TO.P,J5,21,Pin_21_21*%
%TO.N,+12V*%
X273000000Y-24740000D03*
%TO.P,J5,22,Pin_22_22*%
%TO.N,unconnected-(J5-Pin_22-Pad22)*%
X273000000Y-22200000D03*
%TO.P,J5,23,Pin_23_23*%
%TO.N,unconnected-(J5-Pin_23-Pad23)*%
X273000000Y-19660000D03*
%TD*%
D15*
%TO.P,J4,1,Pin_1_1*%
%TO.N,Net-(J4-Pin_1)*%
X273862800Y-197104000D03*
D16*
%TO.P,J4,2,Pin_2_2*%
%TO.N,Net-(J4-Pin_2)*%
X273862800Y-194564000D03*
%TO.P,J4,3,Pin_3_3*%
%TO.N,Net-(J4-Pin_3)*%
X273862800Y-192024000D03*
%TO.P,J4,4,Pin_4_4*%
%TO.N,Net-(J4-Pin_4)*%
X273862800Y-189484000D03*
%TO.P,J4,5,Pin_5_5*%
%TO.N,Net-(J4-Pin_5)*%
X273862800Y-186944000D03*
%TO.P,J4,6,Pin_6_6*%
%TO.N,Net-(J4-Pin_6)*%
X273862800Y-184404000D03*
%TO.P,J4,7,Pin_7_7*%
%TO.N,Net-(J4-Pin_7)*%
X273862800Y-181864000D03*
%TO.P,J4,8,Pin_8_8*%
%TO.N,Net-(J4-Pin_8)*%
X273862800Y-179324000D03*
%TO.P,J4,9,Pin_9_9*%
%TO.N,GND*%
X273862800Y-176784000D03*
%TO.P,J4,10,Pin_10_10*%
%TO.N,Net-(J4-Pin_10)*%
X273862800Y-174244000D03*
%TO.P,J4,11,Pin_11_11*%
%TO.N,Net-(J4-Pin_11)*%
X273862800Y-171704000D03*
%TO.P,J4,12,Pin_12_12*%
%TO.N,Net-(J4-Pin_12)*%
X273862800Y-169164000D03*
%TO.P,J4,13,Pin_13_13*%
%TO.N,Net-(J4-Pin_13)*%
X273862800Y-166624000D03*
%TO.P,J4,14,Pin_14_14*%
%TO.N,unconnected-(J4-Pin_14-Pad14)*%
X273862800Y-164084000D03*
%TO.P,J4,15,Pin_15_15*%
%TO.N,Net-(J4-Pin_15)*%
X273862800Y-161544000D03*
%TO.P,J4,16,Pin_16_16*%
%TO.N,Net-(J4-Pin_16)*%
X273862800Y-159004000D03*
%TO.P,J4,17,Pin_17_17*%
%TO.N,Net-(J4-Pin_17)*%
X273862800Y-156464000D03*
%TO.P,J4,18,Pin_18_18*%
%TO.N,Net-(J4-Pin_18)*%
X273862800Y-153924000D03*
%TO.P,J4,19,Pin_19_19*%
%TO.N,GND*%
X273862800Y-151384000D03*
%TD*%
D15*
%TO.P,J6,1,Pin_1_1*%
%TO.N,Net-(J6-Pin_1)*%
X273507200Y-140512800D03*
D16*
%TO.P,J6,2,Pin_2_2*%
%TO.N,Net-(J6-Pin_2)*%
X273507200Y-137972800D03*
%TO.P,J6,3,Pin_3_3*%
%TO.N,Net-(J6-Pin_3)*%
X273507200Y-135432800D03*
%TO.P,J6,4,Pin_4_4*%
%TO.N,Net-(J6-Pin_4)*%
X273507200Y-132892800D03*
%TO.P,J6,5,Pin_5_5*%
%TO.N,Net-(J6-Pin_5)*%
X273507200Y-130352800D03*
%TO.P,J6,6,Pin_6_6*%
%TO.N,Net-(J6-Pin_6)*%
X273507200Y-127812800D03*
%TO.P,J6,7,Pin_7_7*%
%TO.N,Net-(J6-Pin_7)*%
X273507200Y-125272800D03*
%TO.P,J6,8,Pin_8_8*%
%TO.N,unconnected-(J6-Pin_8-Pad8)*%
X273507200Y-122732800D03*
%TO.P,J6,9,Pin_9_9*%
%TO.N,Net-(J6-Pin_9)*%
X273507200Y-120192800D03*
%TO.P,J6,10,Pin_10_10*%
%TO.N,unconnected-(J6-Pin_10-Pad10)*%
X273507200Y-117652800D03*
%TD*%
D15*
%TO.P,J3,1,Pin_1_1*%
%TO.N,+5V*%
X273304000Y-105359200D03*
D16*
%TO.P,J3,2,Pin_2_2*%
%TO.N,Net-(J3-Pin_2)*%
X273304000Y-102819200D03*
%TO.P,J3,3,Pin_3_3*%
%TO.N,GND*%
X273304000Y-100279200D03*
%TO.P,J3,4,Pin_4_4*%
%TO.N,unconnected-(J3-Pin_4-Pad4)*%
X273304000Y-97739200D03*
%TO.P,J3,5,Pin_5_5*%
%TO.N,unconnected-(J3-Pin_5-Pad5)*%
X273304000Y-95199200D03*
%TO.P,J3,6,Pin_6_6*%
%TO.N,GND*%
X273304000Y-92659200D03*
%TO.P,J3,7,Pin_7_7*%
%TO.N,Net-(J3-Pin_7)*%
X273304000Y-90119200D03*
%TO.P,J3,8,Pin_8_8*%
%TO.N,unconnected-(J3-Pin_8-Pad8)*%
X273304000Y-87579200D03*
%TO.P,J3,9,Pin_9_9*%
%TO.N,Net-(J3-Pin_9)*%
X273304000Y-85039200D03*
%TD*%
D44*
%TO.N,+5V*%
X235204000Y-89306400D03*
X224993200Y-82600800D03*
X255422400Y-115519200D03*
X243687600Y-180797200D03*
%TO.N,GND*%
X137109200Y-24688800D03*
X124612400Y-24892000D03*
%TO.N,Net-(U13-CH1_OUT)*%
X175008600Y-35674600D03*
X170118000Y-32956100D03*
%TO.N,Net-(U12-CH2_OUT)*%
X165005900Y-36835800D03*
X164595800Y-33261300D03*
%TO.N,Net-(JP4-C)*%
X174474500Y-39782600D03*
X166250000Y-39772200D03*
%TO.N,Net-(J4-Pin_8)*%
X264220800Y-185172500D03*
%TO.N,Net-(J4-Pin_7)*%
X265043800Y-185393900D03*
%TO.N,Net-(J4-Pin_13)*%
X264877100Y-164022800D03*
%TO.N,Net-(J4-Pin_12)*%
X265379200Y-164660900D03*
%TO.N,Net-(J4-Pin_11)*%
X265259800Y-165629000D03*
%TO.N,Net-(J4-Pin_10)*%
X264876100Y-166396800D03*
%TO.N,Net-(J3_DOT1-Pin_9)*%
X230275700Y-88785200D03*
X224094000Y-88876700D03*
%TO.N,Net-(J6-Pin_4)*%
X267216400Y-130945000D03*
%TO.N,Net-(J6-Pin_3)*%
X265028200Y-131745000D03*
%TO.N,Net-(J6-Pin_2)*%
X264622700Y-132495000D03*
%TO.N,Net-(J6-Pin_1)*%
X264221000Y-133246100D03*
%TO.N,Net-(U12-CH2_IN)*%
X154570400Y-37341100D03*
X159929200Y-47020000D03*
%TO.N,Net-(C46-Pad1)*%
X229305600Y-90949800D03*
X231229700Y-96383100D03*
X224765700Y-98183600D03*
%TO.N,Coin_Meter*%
X241031800Y-18246000D03*
%TO.N,Net-(RN11-R2.2)*%
X213971200Y-68222300D03*
X258788200Y-63517600D03*
X239561800Y-58363500D03*
%TO.N,Net-(RN11-R3.2)*%
X215239600Y-71217300D03*
%TO.N,Net-(RN11-R4.2)*%
X216509600Y-71213000D03*
X259318700Y-61748000D03*
X237286800Y-58405300D03*
%TO.N,Net-(J5-Pin_8)*%
X262973900Y-61743800D03*
%TO.N,Net-(J5-Pin_7)*%
X263776700Y-61993800D03*
%TO.N,Net-(J3-Pin_2)*%
X241600300Y-88458900D03*
%TO.N,Net-(J3-Pin_9)*%
X244775800Y-97080200D03*
%TO.N,Net-(J4-Pin_2)*%
X266677800Y-197320500D03*
%TO.N,Net-(J4-Pin_3)*%
X265046100Y-197857500D03*
%TO.N,Net-(J4-Pin_4)*%
X264645100Y-198600000D03*
%TO.N,Net-(J4-Pin_17)*%
X265560900Y-153093400D03*
%TO.N,Net-(J4-Pin_16)*%
X265151600Y-153843400D03*
%TO.N,Net-(J4-Pin_15)*%
X264759900Y-154596600D03*
%TO.N,Net-(J6-Pin_9)*%
X264216700Y-116156800D03*
%TO.N,Net-(J6-Pin_7)*%
X264740500Y-116771600D03*
%TO.N,Net-(J6-Pin_6)*%
X264253400Y-117716400D03*
%TO.N,Net-(J6-Pin_5)*%
X263998100Y-118999200D03*
%TO.N,Net-(J3-Pin_7)*%
X244459700Y-101803300D03*
%TO.N,Net-(U12-CH1_IN)*%
X154371600Y-36522200D03*
X157429200Y-47037000D03*
%TO.N,Net-(J3_DOT1-Pin_10)*%
X229380000Y-92679100D03*
X223982000Y-92410700D03*
%TO.N,SYNC_CSYNC_N*%
X65283600Y-84508700D03*
%TO.N,AUD_PWM_R1*%
X238930200Y-106762300D03*
X220878800Y-92584000D03*
%TO.N,LED_CALIB*%
X150622000Y-46228000D03*
X121687600Y-120349800D03*
%TO.N,VID_VS*%
X159038500Y-50772500D03*
%TO.N,VID_HS*%
X156535500Y-50775500D03*
%TO.N,VID_G2*%
X178663600Y-46583600D03*
%TO.N,VID_G1*%
X181515500Y-48968100D03*
X181739700Y-61401100D03*
%TO.N,VID_B3*%
X169026400Y-47154000D03*
%TO.N,VID_B1*%
X173886600Y-48792100D03*
X173475400Y-91731600D03*
%TO.N,AUD_PWM_R2*%
X227621000Y-98198300D03*
%TO.N,VID_R2*%
X164929200Y-47024700D03*
%TO.N,AUD_PWM_L2*%
X227486400Y-101953500D03*
%TO.N,VID_R3*%
X156450500Y-48883900D03*
%TO.N,MD0*%
X240488800Y-34853000D03*
%TO.N,MD1*%
X240484000Y-36123000D03*
%TO.N,MD2*%
X240484000Y-37393000D03*
%TO.N,MD3*%
X240657200Y-38357700D03*
%TO.N,ST0*%
X240989200Y-39263800D03*
%TO.N,ST1*%
X240444200Y-39906000D03*
%TO.N,SEL*%
X240492200Y-42404600D03*
%TO.N,Net-(U11-I5)*%
X227903700Y-39263800D03*
X219987800Y-38599200D03*
%TO.N,Net-(U11-I4)*%
X228474800Y-38662000D03*
X220169700Y-37737200D03*
%TO.N,Net-(U11-I3)*%
X228287500Y-37011100D03*
X220152400Y-36420600D03*
%TO.N,Net-(U11-I2)*%
X228440700Y-34784600D03*
X219490200Y-34639800D03*
%TO.N,Net-(U11-I1)*%
X229012400Y-33374600D03*
X224934000Y-36059200D03*
%TO.N,VID_B2*%
X171519200Y-48966800D03*
X129581900Y-104141100D03*
%TO.N,Service Switch*%
X206773200Y-25038200D03*
X117341200Y-137943500D03*
%TO.N,LED_DDR_RST*%
X135737600Y-46482000D03*
X120895500Y-119510600D03*
%TO.N,IN_DATA*%
X101545200Y-67161700D03*
X112797200Y-108257500D03*
X118733200Y-72634300D03*
%TO.N,Net-(RN11-R1.2)*%
X212699600Y-68231500D03*
X259328100Y-64132400D03*
X240736100Y-55991500D03*
%TO.N,Net-(J2_RGBS_Out1-Pin_9)*%
X167313900Y-31161700D03*
%TO.N,Net-(J2_RGBS_Out1-Pin_8)*%
X162943200Y-31953200D03*
%TO.N,Net-(RN10-R4.2)*%
X261226800Y-163550900D03*
X240396600Y-152498300D03*
%TO.N,Net-(RN10-R3.2)*%
X260854700Y-164327800D03*
%TO.N,Net-(RN10-R1.2)*%
X261251200Y-166383100D03*
X218943400Y-160111200D03*
X242671600Y-148985200D03*
%TO.N,J4_Input_Stream*%
X218957000Y-162651500D03*
X217779600Y-66272400D03*
%TO.N,Net-(RN2-R3)*%
X213995400Y-158911200D03*
%TO.N,Net-(RN2-R4)*%
X214187500Y-157306000D03*
X261140800Y-154606300D03*
X250589200Y-152659200D03*
%TO.N,Net-(RN12-R1.2)*%
X261434600Y-69196300D03*
X216509600Y-66254100D03*
X253394000Y-55612100D03*
%TO.N,Net-(RN12-R2.2)*%
X215238500Y-63285600D03*
X259829100Y-72604700D03*
X252912400Y-57791300D03*
%TO.N,Net-(RN12-R4.2)*%
X213295100Y-66106400D03*
X259810400Y-70338900D03*
X249400100Y-58424500D03*
%TO.N,/1 Plyr Move Down*%
X263460000Y-70337300D03*
%TO.N,/1 Plyr Move Left*%
X263445100Y-73170200D03*
%TO.N,Net-(RN10-R2.2)*%
X218943400Y-158842800D03*
X260459600Y-165078200D03*
X243466600Y-152489400D03*
%TO.N,LED_27M*%
X140512800Y-46329600D03*
X120458400Y-118224800D03*
X124614100Y-51915600D03*
%TO.N,Net-(RN2-R2)*%
X213993400Y-160181200D03*
X248139900Y-149817900D03*
X260609900Y-152850800D03*
%TO.N,Net-(RN6-R8)*%
X107207600Y-69252400D03*
X101746800Y-70505500D03*
%TO.N,Net-(RN6-R6)*%
X97022800Y-67623000D03*
%TO.N,Net-(RN6-R5)*%
X103389700Y-73690800D03*
%TO.N,Net-(RN6-R4)*%
X101367400Y-73061400D03*
%TO.N,Net-(RN6-R3)*%
X101918500Y-72461100D03*
%TO.N,Net-(RN6-R2)*%
X101353400Y-71856700D03*
%TO.N,Net-(RN6-R1)*%
X98559400Y-69665700D03*
X103287300Y-69490500D03*
%TO.N,SW1_Input_Stream*%
X99054100Y-34042500D03*
X98734500Y-67983600D03*
%TO.N,Net-(U10-I1)*%
X228304200Y-18246000D03*
X227531000Y-20184700D03*
%TO.N,Out_Data*%
X222135500Y-22157600D03*
X209634400Y-106572600D03*
%TO.N,Out_En_N*%
X221576400Y-22773400D03*
X185782000Y-47154000D03*
X220787000Y-39351300D03*
%TO.N,Out_Latch*%
X221942900Y-24028400D03*
X222136300Y-40511300D03*
X182419900Y-53175500D03*
%TO.N,Out_Clock*%
X221944200Y-25293800D03*
X222131000Y-41808400D03*
X195957800Y-57779500D03*
%TO.N,Out_Clear*%
X221607700Y-26540300D03*
X222140900Y-43074300D03*
X215442500Y-29677800D03*
X216237200Y-102320300D03*
%TO.N,Net-(U10-I5)*%
X219985400Y-23105000D03*
X227897800Y-22493800D03*
%TO.N,Net-(U10-I4)*%
X217215500Y-22126400D03*
X228112600Y-21661800D03*
%TO.N,Net-(RN2-R1)*%
X213982000Y-161452800D03*
X248527500Y-152889900D03*
X261134900Y-152237200D03*
%TO.N,VID_R1*%
X166526400Y-47154000D03*
%TO.N,Net-(RN12-R3.2)*%
X215053700Y-66269700D03*
X259814100Y-71604800D03*
X248292400Y-55718300D03*
X246429200Y-61962000D03*
%TO.N,Net-(RN1-R5)*%
X260590500Y-187776000D03*
X246341500Y-183355500D03*
%TO.N,Net-(RN1-R6)*%
X259629300Y-187088000D03*
X245543200Y-179817400D03*
%TO.N,Net-(RN1-R8)*%
X219192400Y-189424400D03*
X260596200Y-185441100D03*
X249413400Y-179816200D03*
%TO.N,Net-(U1-Q7)*%
X217548500Y-193436700D03*
X218914700Y-161413100D03*
%TO.N,Net-(RN1-R1)*%
X214243400Y-190764400D03*
X237114500Y-183278000D03*
X261022500Y-196243000D03*
%TO.N,Net-(RN1-R2)*%
X214247400Y-189492800D03*
X261017900Y-197315500D03*
X228249000Y-179794600D03*
%TO.N,Net-(RN1-R3)*%
X260468200Y-197986400D03*
X239389500Y-183271300D03*
%TO.N,Net-(RN1-R4)*%
X214428000Y-186416200D03*
X261004500Y-198600000D03*
X241063700Y-180913900D03*
%TO.N,AUD_PWM_L1*%
X238015900Y-93640100D03*
%TO.N,Net-(RN5-R4)*%
X101839200Y-39589400D03*
%TO.N,Net-(RN5-R3)*%
X97947600Y-39630800D03*
%TO.N,Net-(RN5-R2)*%
X99110900Y-37212200D03*
%TO.N,VID_G3*%
X176345700Y-47186600D03*
X145552600Y-89205800D03*
%TO.N,ADC_SDA*%
X243831200Y-79423600D03*
%TO.N,ADC_SCL*%
X160022400Y-83122700D03*
X241080500Y-79971500D03*
%TO.N,ADC_A1*%
X243817100Y-80723600D03*
%TO.N,ADC_A0*%
X246902300Y-81343900D03*
X141069500Y-100897000D03*
%TO.N,Net-(U14-CH0)*%
X238097400Y-78923000D03*
X239886500Y-86542900D03*
%TO.N,Net-(RN1-R7)*%
X219197400Y-188154400D03*
%TO.N,MODE_15N*%
X65283600Y-90445900D03*
%TO.N,+12V*%
X239932700Y-45154900D03*
X237425800Y-28105300D03*
%TO.N,LED_PIX*%
X145592800Y-46278800D03*
%TO.N,Net-(J2_RGBS_Out1-Pin_1)*%
X170148600Y-31161700D03*
%TO.N,Net-(J2_RGBS_Out1-Pin_3)*%
X174932300Y-30848400D03*
%TO.N,Net-(U13-CH3_IN)*%
X172189200Y-37732400D03*
X176145500Y-47988400D03*
%TO.N,Net-(U13-CH2_IN)*%
X171164900Y-49746600D03*
X172008000Y-36762600D03*
%TO.N,Net-(U13-CH1_IN)*%
X168744700Y-36532600D03*
X168679200Y-49577900D03*
%TO.N,+3.3V*%
X217881200Y-118748500D03*
X99736100Y-43583900D03*
X100050000Y-77094400D03*
X209345900Y-63956300D03*
X213615900Y-32093100D03*
X100468100Y-63728500D03*
X101281000Y-30321400D03*
X213521500Y-132006300D03*
X216733200Y-152666800D03*
X216731600Y-182165600D03*
X99166900Y-117163300D03*
X185775600Y-50778200D03*
X114187100Y-139385200D03*
%TO.N,Net-(RN13-R4.2)*%
X260602200Y-130430700D03*
X251115400Y-117919800D03*
%TO.N,Net-(RN13-R3.2)*%
X255338000Y-131195400D03*
X252101200Y-117725400D03*
%TO.N,Net-(RN13-R2.2)*%
X219197400Y-123992400D03*
X260060600Y-132189600D03*
X253390400Y-117911700D03*
%TO.N,Net-(RN13-R1.2)*%
X219155500Y-125307500D03*
X260598100Y-132801600D03*
X252579200Y-114382800D03*
%TO.N,J5_Input_Stream*%
X219703200Y-126536000D03*
X219862600Y-65583000D03*
%TO.N,J6_Input_Stream*%
X216395100Y-128751200D03*
X101853200Y-35819200D03*
X133584400Y-58003400D03*
X188397100Y-76760800D03*
X202919700Y-127103100D03*
%TO.N,Net-(RN14-R4.2)*%
X214245000Y-126604000D03*
X241560700Y-116592400D03*
X260209900Y-115911700D03*
%TO.N,Net-(RN14-R3.2)*%
X214247400Y-125332400D03*
X260555000Y-116713200D03*
X243066300Y-114237900D03*
%TO.N,Net-(RN14-R2.2)*%
X214245800Y-124062400D03*
X246175400Y-117293500D03*
%TO.N,Net-(RN14-R1.2)*%
X214241900Y-122792400D03*
X260567400Y-118540500D03*
%TO.N,IN_CLK*%
X211632200Y-121522400D03*
X214415200Y-184705800D03*
X211377300Y-156371200D03*
X104166700Y-42169200D03*
X106318900Y-74334000D03*
X211429600Y-68241000D03*
X212311300Y-106805700D03*
%TO.N,IN_LOAD_N*%
X212931200Y-118739800D03*
X212123100Y-182935500D03*
X211849800Y-153604600D03*
X105500000Y-43608500D03*
X105000000Y-77085700D03*
X210159600Y-68230700D03*
X106138300Y-85227900D03*
%TO.N,+5V*%
X222618000Y-18125600D03*
X224444200Y-34635800D03*
X246333300Y-78923000D03*
X178128400Y-39132600D03*
X162521100Y-39122200D03*
X246173900Y-115980600D03*
X240749900Y-56940200D03*
X243842900Y-150142400D03*
X252779900Y-151479200D03*
X252910300Y-56294000D03*
X240853160Y-116965751D03*
X234034700Y-52710300D03*
X232783400Y-80336300D03*
X212953600Y-37236400D03*
X101891000Y-96383100D03*
X192631800Y-37422000D03*
X246454800Y-82673600D03*
%TO.N,GND*%
X228836700Y-28563300D03*
X216397200Y-120853200D03*
X214243400Y-191964400D03*
X216559900Y-185682800D03*
X219972200Y-27604000D03*
X211874500Y-164124700D03*
X216122800Y-155629000D03*
X245073200Y-84047300D03*
X101870800Y-40830800D03*
X101526300Y-75426500D03*
X219884500Y-69665700D03*
X171262800Y-39973100D03*
X241546800Y-115347500D03*
X236119600Y-56941800D03*
X239209500Y-151093200D03*
X248151000Y-150780800D03*
X235933200Y-181514700D03*
X245160400Y-181912000D03*
X199847200Y-14579600D03*
X254675600Y-53091300D03*
X217141700Y-16230900D03*
X236106900Y-80371800D03*
X216128300Y-34700100D03*
X103413600Y-61789700D03*
X105500000Y-31073900D03*
X213763600Y-129697900D03*
X210258300Y-66302400D03*
X217193500Y-149817900D03*
X217266400Y-179623600D03*
X245755200Y-105300000D03*
X224886700Y-101906400D03*
X225272100Y-92461100D03*
X99160000Y-120406400D03*
X101922200Y-104337800D03*
X139165500Y-42824400D03*
X89693800Y-102828200D03*
X90639200Y-136825400D03*
X188825400Y-37422000D03*
X194500500Y-33849800D03*
%TD*%
%TO.N,Service Switch*%
D45*
X202650000Y-20915000D02*
X201602600Y-20915000D01*
X206773200Y-25038200D02*
X202650000Y-20915000D01*
X209562600Y-22248800D02*
X209562600Y-20915000D01*
X206773200Y-25038200D02*
X209562600Y-22248800D01*
%TO.N,GND*%
X209562600Y-16415000D02*
X201602600Y-16415000D01*
X201602600Y-16335000D02*
X199847200Y-14579600D01*
X201602600Y-16415000D02*
X201602600Y-16335000D01*
%TO.N,SYNC_VSOFF_N*%
X93319600Y-86309200D02*
X93218000Y-86207600D01*
X94488000Y-86309200D02*
X93319600Y-86309200D01*
X94488000Y-86309200D02*
X114249200Y-86309200D01*
%TO.N,LED_CALIB*%
X150622000Y-45345600D02*
X151093200Y-44874400D01*
X150622000Y-46228000D02*
X150622000Y-45345600D01*
%TO.N,LED_PIX*%
X145592800Y-46278800D02*
X145592800Y-45334800D01*
X145592800Y-45334800D02*
X146053200Y-44874400D01*
%TO.N,LED_DDR_RST*%
X135737600Y-45230000D02*
X135737600Y-46482000D01*
X136093200Y-44874400D02*
X135737600Y-45230000D01*
%TO.N,GND*%
X89662000Y-135949800D02*
X89712800Y-135899000D01*
D46*
X89662000Y-141884400D02*
X89662000Y-135949800D01*
%TO.N,+12V*%
D45*
X57912000Y-115722400D02*
X57962800Y-115671600D01*
D46*
X57912000Y-128320800D02*
X57912000Y-115722400D01*
X59537600Y-129946400D02*
X89662000Y-129946400D01*
X57912000Y-128320800D02*
X59537600Y-129946400D01*
%TO.N,Net-(U24-IN)*%
X67435600Y-98907600D02*
X69187300Y-98907600D01*
X70531200Y-97563700D02*
X77106100Y-97563700D01*
X69187300Y-98907600D02*
X70531200Y-97563700D01*
%TO.N,+5V*%
D45*
X212953600Y-37236400D02*
X212953600Y-36388000D01*
X212953600Y-36388000D02*
X213527600Y-35814000D01*
%TO.N,LED_27M*%
X140494400Y-45473200D02*
X141093200Y-44874400D01*
X140512800Y-46329600D02*
X140494400Y-46311200D01*
X140494400Y-46311200D02*
X140494400Y-45473200D01*
%TO.N,SYNC_VSOFF_N*%
X64460200Y-59939000D02*
X70967600Y-66446400D01*
X70967600Y-66446400D02*
X70967600Y-86207600D01*
X61264800Y-59939000D02*
X64460200Y-59939000D01*
%TO.N,+5V*%
X235204000Y-82756900D02*
X232783400Y-80336300D01*
X235204000Y-89306400D02*
X235204000Y-82756900D01*
X225958400Y-81635600D02*
X224993200Y-82600800D01*
X225958400Y-77520800D02*
X225958400Y-81635600D01*
X227257700Y-80336300D02*
X224993200Y-82600800D01*
X232783400Y-80336300D02*
X227257700Y-80336300D01*
%TO.N,SYNC_VSOFF_N*%
X93980000Y-86309200D02*
X94488000Y-86309200D01*
X70967600Y-86207600D02*
X93218000Y-86207600D01*
X93434835Y-86309200D02*
X93980000Y-86309200D01*
X114249200Y-86309200D02*
X127762000Y-99822000D01*
%TO.N,Net-(U25-IN)*%
D46*
X69491600Y-113842800D02*
X67662800Y-115671600D01*
X77571600Y-113842800D02*
X69491600Y-113842800D01*
%TO.N,Net-(D4-K)*%
X122631200Y-132791200D02*
X125222000Y-135382000D01*
X115366800Y-132791200D02*
X122631200Y-132791200D01*
%TO.N,+5V*%
D45*
X240358951Y-116965751D02*
X240853160Y-116965751D01*
X239623600Y-116230400D02*
X240358951Y-116965751D01*
X254797600Y-116144000D02*
X255422400Y-115519200D01*
X253390400Y-116144000D02*
X254797600Y-116144000D01*
X233608529Y-169214800D02*
X226110800Y-169214800D01*
X243609929Y-179216200D02*
X233608529Y-169214800D01*
X243687600Y-180797200D02*
X243036065Y-180145665D01*
X242680465Y-180145665D02*
X241311429Y-181514700D01*
X243036065Y-180145665D02*
X242680465Y-180145665D01*
X241311429Y-181514700D02*
X239389500Y-181514700D01*
X243609929Y-179216200D02*
X242680465Y-180145665D01*
X251510800Y-179425600D02*
X251301400Y-179216200D01*
X251301400Y-179216200D02*
X243609929Y-179216200D01*
X249372000Y-181564400D02*
X251510800Y-179425600D01*
X248615200Y-181564400D02*
X249372000Y-181564400D01*
%TO.N,GND*%
X215427600Y-42199600D02*
X217576400Y-44348400D01*
X217576400Y-44348400D02*
X218671600Y-44348400D01*
X215427600Y-35814000D02*
X215427600Y-42199600D01*
X229217000Y-44948400D02*
X219271600Y-44948400D01*
X229821600Y-44343800D02*
X229217000Y-44948400D01*
X219271600Y-44948400D02*
X218671600Y-44348400D01*
X156804200Y-40772800D02*
X155803600Y-39772200D01*
X168115101Y-40772800D02*
X156804200Y-40772800D01*
X169254701Y-39633200D02*
X168115101Y-40772800D01*
X169992200Y-39633200D02*
X169254701Y-39633200D01*
D47*
X155803600Y-39772200D02*
X157889400Y-39772200D01*
D45*
X213306901Y-67622300D02*
X217926899Y-67622300D01*
X219049600Y-68745001D02*
X219049600Y-69720000D01*
X211429600Y-65744999D02*
X213306901Y-67622300D01*
X211429600Y-64770000D02*
X211429600Y-65744999D01*
X217926899Y-67622300D02*
X219049600Y-68745001D01*
%TO.N,Net-(U13-CH3_OUT)*%
X173585500Y-36288999D02*
X173585500Y-32054800D01*
X174979701Y-37683200D02*
X173585500Y-36288999D01*
X175717200Y-37683200D02*
X174979701Y-37683200D01*
%TO.N,GND*%
X134630435Y-21404400D02*
X135319800Y-22093765D01*
X126849165Y-21404400D02*
X134630435Y-21404400D01*
X124612400Y-24892000D02*
X124612400Y-23641165D01*
X124612400Y-23641165D02*
X126849165Y-21404400D01*
X135319800Y-22093765D02*
X135319800Y-24404400D01*
X136464800Y-25333200D02*
X137109200Y-24688800D01*
X136464800Y-26304400D02*
X136464800Y-25333200D01*
X130739800Y-24404400D02*
X128449800Y-24404400D01*
X128449800Y-24404400D02*
X126159800Y-24404400D01*
X125100000Y-24404400D02*
X124612400Y-24892000D01*
X126159800Y-24404400D02*
X125100000Y-24404400D01*
X136824800Y-24404400D02*
X137109200Y-24688800D01*
X135319800Y-24404400D02*
X136824800Y-24404400D01*
%TO.N,VID_G2*%
X179929200Y-47849200D02*
X179929200Y-48056800D01*
X178663600Y-46583600D02*
X179929200Y-47849200D01*
%TO.N,Net-(U13-CH2_OUT)*%
X178846400Y-35672900D02*
X177635500Y-36883800D01*
X178846400Y-34290000D02*
X178846400Y-35672900D01*
D47*
X175866600Y-36883800D02*
X175717200Y-37033200D01*
X177635500Y-36883800D02*
X175866600Y-36883800D01*
%TO.N,Net-(U13-CH3_OUT)*%
X175567800Y-37533800D02*
X175717200Y-37683200D01*
%TO.N,Net-(U13-CH1_OUT)*%
D45*
X175008600Y-35674600D02*
X175717200Y-36383200D01*
X170118000Y-32956100D02*
X169216700Y-32054800D01*
%TO.N,Net-(U12-CH2_OUT)*%
X164595800Y-32054800D02*
X164595800Y-33261300D01*
X164818900Y-37022800D02*
X165005900Y-36835800D01*
X163763800Y-37022800D02*
X164818900Y-37022800D01*
%TO.N,Net-(U12-CH1_OUT)*%
D47*
X163614400Y-36522200D02*
X163763800Y-36372800D01*
X162521100Y-36522200D02*
X163614400Y-36522200D01*
D45*
X160074600Y-34075700D02*
X160074600Y-31953200D01*
X162521100Y-36522200D02*
X160074600Y-34075700D01*
%TO.N,Net-(JP4-C)*%
D47*
X175567800Y-39782600D02*
X175717200Y-39633200D01*
X174474500Y-39782600D02*
X175567800Y-39782600D01*
X163913200Y-39772200D02*
X163763800Y-39622800D01*
X166250000Y-39772200D02*
X163913200Y-39772200D01*
%TO.N,Net-(J4-Pin_8)*%
D45*
X263315600Y-185376000D02*
X264017300Y-185376000D01*
X264017300Y-185376000D02*
X264220800Y-185172500D01*
%TO.N,Net-(J4-Pin_7)*%
D47*
X264242100Y-185926200D02*
X263992300Y-186176000D01*
X264511500Y-185926200D02*
X264242100Y-185926200D01*
X263315600Y-186176000D02*
X263992300Y-186176000D01*
D45*
X265043800Y-185393900D02*
X264511500Y-185926200D01*
%TO.N,Net-(J4-Pin_6)*%
X271590600Y-186676200D02*
X264561500Y-186676200D01*
X273862800Y-184404000D02*
X271590600Y-186676200D01*
D47*
X264292100Y-186676200D02*
X263992300Y-186976000D01*
X264561500Y-186676200D02*
X264292100Y-186676200D01*
X263315600Y-186976000D02*
X263992300Y-186976000D01*
%TO.N,Net-(J4-Pin_5)*%
D45*
X273244800Y-186944000D02*
X272712600Y-187476200D01*
X273862800Y-186944000D02*
X273244800Y-186944000D01*
D47*
X264292100Y-187476200D02*
X263992300Y-187776000D01*
X272712600Y-187476200D02*
X264292100Y-187476200D01*
X263315600Y-187776000D02*
X263992300Y-187776000D01*
%TO.N,Net-(J4-Pin_13)*%
X263956800Y-163779200D02*
X264633500Y-163779200D01*
X264877100Y-164022800D02*
X264633500Y-163779200D01*
%TO.N,Net-(J4-Pin_12)*%
D45*
X264038500Y-164660900D02*
X263956800Y-164579200D01*
X265379200Y-164660900D02*
X264038500Y-164660900D01*
%TO.N,Net-(J4-Pin_11)*%
D47*
X263956800Y-165379200D02*
X264633500Y-165379200D01*
X264883300Y-165629000D02*
X264633500Y-165379200D01*
X265259800Y-165629000D02*
X264883300Y-165629000D01*
%TO.N,Net-(J4-Pin_10)*%
D45*
X263956800Y-166179200D02*
X264658500Y-166179200D01*
X264876100Y-166396800D02*
X264658500Y-166179200D01*
%TO.N,Net-(J3_DOT1-Pin_9)*%
X224094000Y-90119200D02*
X224094000Y-88876700D01*
X230274500Y-88786400D02*
X230275700Y-88785200D01*
X230274500Y-90017600D02*
X230274500Y-88786400D01*
%TO.N,Net-(J6-Pin_4)*%
D47*
X263318400Y-130645200D02*
X263995100Y-130645200D01*
X264294900Y-130945000D02*
X263995100Y-130645200D01*
X267216400Y-130945000D02*
X264294900Y-130945000D01*
%TO.N,Net-(J6-Pin_3)*%
X264294900Y-131745000D02*
X263995100Y-131445200D01*
X264564300Y-131745000D02*
X264294900Y-131745000D01*
X263318400Y-131445200D02*
X263995100Y-131445200D01*
D45*
X265028200Y-131745000D02*
X264564300Y-131745000D01*
%TO.N,Net-(J6-Pin_2)*%
D47*
X263318400Y-132245200D02*
X263995100Y-132245200D01*
X264244900Y-132495000D02*
X263995100Y-132245200D01*
X264622700Y-132495000D02*
X264244900Y-132495000D01*
%TO.N,Net-(J6-Pin_1)*%
D45*
X263318400Y-133045200D02*
X264020100Y-133045200D01*
X264221000Y-133246100D02*
X264020100Y-133045200D01*
%TO.N,Net-(U12-CH2_IN)*%
D47*
X157889400Y-37172200D02*
X158038800Y-37022800D01*
X154570400Y-37172200D02*
X157889400Y-37172200D01*
D45*
X154570400Y-37341100D02*
X154570400Y-37172200D01*
X159929200Y-48056800D02*
X159929200Y-47020000D01*
%TO.N,Net-(C46-Pad1)*%
X228449500Y-90093700D02*
X228449500Y-90017600D01*
X229305600Y-90949800D02*
X228449500Y-90093700D01*
X231122600Y-96383100D02*
X230274500Y-97231200D01*
X231229700Y-96383100D02*
X231122600Y-96383100D01*
X223992400Y-97410300D02*
X224765700Y-98183600D01*
X223992400Y-97129600D02*
X223992400Y-97410300D01*
%TO.N,Coin_Meter*%
D47*
X239632400Y-18246000D02*
X238963200Y-17576800D01*
X241031800Y-18246000D02*
X239632400Y-18246000D01*
%TO.N,Net-(C45-Pad1)*%
D45*
X243855200Y-108000800D02*
X240755200Y-108000800D01*
X240755200Y-104875800D02*
X238930200Y-103050800D01*
X240755200Y-108000800D02*
X240755200Y-104875800D01*
%TO.N,Net-(RN11-R2.2)*%
X260190000Y-63517600D02*
X258788200Y-63517600D01*
X260248400Y-63576000D02*
X260190000Y-63517600D01*
X239561800Y-57542300D02*
X239561800Y-58363500D01*
X213969600Y-68223900D02*
X213971200Y-68222300D01*
X213969600Y-69720000D02*
X213969600Y-68223900D01*
%TO.N,Net-(RN11-R3.2)*%
X215239600Y-71217300D02*
X215239600Y-69720000D01*
D47*
X260248400Y-62776000D02*
X259571700Y-62776000D01*
X259571700Y-62776000D02*
X259323500Y-62527800D01*
D45*
X238267900Y-56174400D02*
X238267900Y-62176000D01*
X237735800Y-55642300D02*
X238267900Y-56174400D01*
X237286800Y-55642300D02*
X237735800Y-55642300D01*
X236223200Y-62176000D02*
X238267900Y-62176000D01*
X225958400Y-72440800D02*
X236223200Y-62176000D01*
X259287600Y-62563700D02*
X259323500Y-62527800D01*
X238655600Y-62563700D02*
X259287600Y-62563700D01*
X238267900Y-62176000D02*
X238655600Y-62563700D01*
%TO.N,Net-(RN11-R4.2)*%
X216509600Y-69720000D02*
X216509600Y-71213000D01*
X260248400Y-61976000D02*
X259546700Y-61976000D01*
X259318700Y-61748000D02*
X259546700Y-61976000D01*
X237286800Y-57542300D02*
X237286800Y-58405300D01*
%TO.N,Net-(J5-Pin_8)*%
X262048400Y-61976000D02*
X262750100Y-61976000D01*
X262978100Y-61748000D02*
X262973900Y-61743800D01*
X262750100Y-61976000D02*
X262978100Y-61748000D01*
%TO.N,Net-(J5-Pin_7)*%
D47*
X262974900Y-62526200D02*
X262725100Y-62776000D01*
X263244300Y-62526200D02*
X262974900Y-62526200D01*
X262048400Y-62776000D02*
X262725100Y-62776000D01*
D45*
X263776700Y-61993800D02*
X263244300Y-62526200D01*
%TO.N,Net-(J5-Pin_6)*%
X267026700Y-62840000D02*
X266590500Y-63276200D01*
X273000000Y-62840000D02*
X267026700Y-62840000D01*
D47*
X263024900Y-63276200D02*
X262725100Y-63576000D01*
X266590500Y-63276200D02*
X263024900Y-63276200D01*
X262048400Y-63576000D02*
X262725100Y-63576000D01*
%TO.N,Net-(J5-Pin_5)*%
D45*
X263754100Y-65380000D02*
X262750100Y-64376000D01*
X273000000Y-65380000D02*
X263754100Y-65380000D01*
X262048400Y-64376000D02*
X262750100Y-64376000D01*
%TO.N,Net-(J3-Pin_2)*%
X240755200Y-87613800D02*
X240755200Y-87500800D01*
X241600300Y-88458900D02*
X240755200Y-87613800D01*
%TO.N,Net-(C47-Pad1)*%
X224922700Y-99958500D02*
X223890800Y-100990400D01*
X229305000Y-99958500D02*
X224922700Y-99958500D01*
X229305000Y-100122500D02*
X229305000Y-99958500D01*
X230223700Y-101041200D02*
X229305000Y-100122500D01*
X229305000Y-94429100D02*
X228449500Y-93573600D01*
X229305000Y-99958500D02*
X229305000Y-94429100D01*
%TO.N,Net-(J3-Pin_9)*%
X243855200Y-98000800D02*
X240755200Y-98000800D01*
X244775800Y-97080200D02*
X243855200Y-98000800D01*
%TO.N,Net-(J4-Pin_1)*%
X273073200Y-197104000D02*
X272712600Y-196743400D01*
X273862800Y-197104000D02*
X273073200Y-197104000D01*
D47*
X264701300Y-196743400D02*
X264401500Y-196443600D01*
X272712600Y-196743400D02*
X264701300Y-196743400D01*
X263724800Y-196443600D02*
X264401500Y-196443600D01*
%TO.N,Net-(J4-Pin_2)*%
D45*
X266600900Y-197243600D02*
X263724800Y-197243600D01*
X266677800Y-197320500D02*
X266600900Y-197243600D01*
%TO.N,Net-(J4-Pin_3)*%
X263910900Y-197857500D02*
X265046100Y-197857500D01*
X263724800Y-198043600D02*
X263910900Y-197857500D01*
%TO.N,Net-(J4-Pin_4)*%
D47*
X263724800Y-198843600D02*
X264401500Y-198843600D01*
X264645100Y-198600000D02*
X264401500Y-198843600D01*
%TO.N,Net-(J4-Pin_18)*%
D45*
X272712600Y-152773800D02*
X272712600Y-152293400D01*
X273862800Y-153924000D02*
X272712600Y-152773800D01*
D47*
X264831700Y-152293400D02*
X264531900Y-151993600D01*
X272712600Y-152293400D02*
X264831700Y-152293400D01*
X263855200Y-151993600D02*
X264531900Y-151993600D01*
%TO.N,Net-(J4-Pin_17)*%
X264831700Y-153093400D02*
X264531900Y-152793600D01*
X265101100Y-153093400D02*
X264831700Y-153093400D01*
X263855200Y-152793600D02*
X264531900Y-152793600D01*
D45*
X265560900Y-153093400D02*
X265101100Y-153093400D01*
%TO.N,Net-(J4-Pin_16)*%
D47*
X263855200Y-153593600D02*
X264531900Y-153593600D01*
X264781700Y-153843400D02*
X264531900Y-153593600D01*
X265151600Y-153843400D02*
X264781700Y-153843400D01*
%TO.N,Net-(J4-Pin_15)*%
D45*
X263855200Y-154393600D02*
X264556900Y-154393600D01*
X264759900Y-154596600D02*
X264556900Y-154393600D01*
%TO.N,Net-(J6-Pin_9)*%
D47*
X263296400Y-115913200D02*
X263973100Y-115913200D01*
X264216700Y-116156800D02*
X263973100Y-115913200D01*
%TO.N,Net-(J6-Pin_7)*%
D45*
X263354800Y-116771600D02*
X264740500Y-116771600D01*
X263296400Y-116713200D02*
X263354800Y-116771600D01*
%TO.N,Net-(J6-Pin_6)*%
D47*
X263296400Y-117513200D02*
X263973100Y-117513200D01*
X264176300Y-117716400D02*
X264253400Y-117716400D01*
X263973100Y-117513200D02*
X264176300Y-117716400D01*
%TO.N,Net-(J6-Pin_5)*%
D45*
X263296400Y-118313200D02*
X263998100Y-118313200D01*
X263998100Y-118999200D02*
X263998100Y-118313200D01*
%TO.N,Net-(J3-Pin_7)*%
X240805200Y-103000800D02*
X240755200Y-103050800D01*
X243855200Y-103000800D02*
X240805200Y-103000800D01*
X243855200Y-102407800D02*
X244459700Y-101803300D01*
X243855200Y-103000800D02*
X243855200Y-102407800D01*
%TO.N,Net-(U12-CH1_IN)*%
D47*
X157889400Y-36522200D02*
X158038800Y-36372800D01*
X154371600Y-36522200D02*
X157889400Y-36522200D01*
D45*
X157429200Y-48056800D02*
X157429200Y-47037000D01*
%TO.N,Net-(J3_DOT1-Pin_10)*%
X229380000Y-92679100D02*
X230274500Y-93573600D01*
X223982000Y-93663600D02*
X223982000Y-92410700D01*
%TO.N,AUD_PWM_R1*%
X238930200Y-106762300D02*
X238930200Y-108000800D01*
%TO.N,VID_VS*%
X159038500Y-50772500D02*
X159929200Y-49881800D01*
%TO.N,VID_HS*%
X156535600Y-50775500D02*
X156535500Y-50775500D01*
X156535600Y-50775400D02*
X156535600Y-50775500D01*
X157429200Y-49881800D02*
X156535600Y-50775400D01*
%TO.N,VID_G1*%
X181517900Y-48968100D02*
X181515500Y-48968100D01*
X182429200Y-48056800D02*
X181517900Y-48968100D01*
%TO.N,VID_B3*%
X169026400Y-47154000D02*
X169929200Y-48056800D01*
%TO.N,VID_B1*%
X174193900Y-48792100D02*
X173886600Y-48792100D01*
X174929200Y-48056800D02*
X174193900Y-48792100D01*
%TO.N,AUD_PWM_R2*%
X228449500Y-97369800D02*
X228449500Y-97231200D01*
X227621000Y-98198300D02*
X228449500Y-97369800D01*
%TO.N,VID_R2*%
X164929200Y-48056800D02*
X164929200Y-47024700D01*
%TO.N,AUD_PWM_L2*%
X227486400Y-101953500D02*
X228398700Y-101041200D01*
%TO.N,VID_R3*%
X161602100Y-48883900D02*
X156450500Y-48883900D01*
X162429200Y-48056800D02*
X161602100Y-48883900D01*
%TO.N,MD0*%
D47*
X239790800Y-34853000D02*
X239121600Y-34183800D01*
X240488800Y-34853000D02*
X239790800Y-34853000D01*
%TO.N,MD1*%
X239790800Y-36123000D02*
X239121600Y-35453800D01*
X240484000Y-36123000D02*
X239790800Y-36123000D01*
%TO.N,MD2*%
X239790800Y-37393000D02*
X239121600Y-36723800D01*
X240484000Y-37393000D02*
X239790800Y-37393000D01*
%TO.N,MD3*%
D45*
X239485500Y-38357700D02*
X239121600Y-37993800D01*
X240657200Y-38357700D02*
X239485500Y-38357700D01*
%TO.N,ST0*%
X239121600Y-39263800D02*
X240989200Y-39263800D01*
%TO.N,ST1*%
X239816400Y-40533800D02*
X239121600Y-40533800D01*
X240444200Y-39906000D02*
X239816400Y-40533800D01*
%TO.N,ARD*%
X268705200Y-41734800D02*
X273000000Y-37440000D01*
X239190600Y-41734800D02*
X268705200Y-41734800D01*
X239121600Y-41803800D02*
X239190600Y-41734800D01*
%TO.N,SEL*%
D47*
X239790800Y-42404600D02*
X239121600Y-43073800D01*
X240492200Y-42404600D02*
X239790800Y-42404600D01*
%TO.N,Net-(U11-I8)*%
X229152400Y-42404600D02*
X229821600Y-43073800D01*
X228459200Y-42404600D02*
X229152400Y-42404600D01*
D45*
X220079100Y-42443400D02*
X220044900Y-42409200D01*
X228420400Y-42443400D02*
X220079100Y-42443400D01*
X228459200Y-42404600D02*
X228420400Y-42443400D01*
D47*
X219340800Y-42409200D02*
X218671600Y-43078400D01*
X220044900Y-42409200D02*
X219340800Y-42409200D01*
%TO.N,Net-(U11-I7)*%
X229152400Y-41134600D02*
X229821600Y-41803800D01*
X228459200Y-41134600D02*
X229152400Y-41134600D01*
X219340800Y-41139200D02*
X218671600Y-41808400D01*
X220080200Y-41139200D02*
X219340800Y-41139200D01*
D45*
X228421900Y-41171900D02*
X228459200Y-41134600D01*
X220112900Y-41171900D02*
X228421900Y-41171900D01*
X220080200Y-41139200D02*
X220112900Y-41171900D01*
%TO.N,Net-(U11-I6)*%
D47*
X229153400Y-39865600D02*
X228459200Y-39865600D01*
X229821600Y-40533800D02*
X229153400Y-39865600D01*
X219340800Y-39869200D02*
X218671600Y-40538400D01*
X220080200Y-39869200D02*
X219340800Y-39869200D01*
D45*
X228421400Y-39903400D02*
X228459200Y-39865600D01*
X221087400Y-39903400D02*
X228421400Y-39903400D01*
X221037400Y-39953400D02*
X221087400Y-39903400D01*
X220164400Y-39953400D02*
X221037400Y-39953400D01*
X220080200Y-39869200D02*
X220164400Y-39953400D01*
%TO.N,Net-(U11-I5)*%
X227903700Y-39263800D02*
X229821600Y-39263800D01*
D47*
X219340800Y-38599200D02*
X218671600Y-39268400D01*
X219987800Y-38599200D02*
X219340800Y-38599200D01*
%TO.N,Net-(U11-I4)*%
X229153400Y-38662000D02*
X228474800Y-38662000D01*
X229821600Y-37993800D02*
X229153400Y-38662000D01*
D45*
X218932800Y-37737200D02*
X220169700Y-37737200D01*
X218671600Y-37998400D02*
X218932800Y-37737200D01*
%TO.N,Net-(U11-I3)*%
X229534300Y-37011100D02*
X229821600Y-36723800D01*
X228287500Y-37011100D02*
X229534300Y-37011100D01*
X218979400Y-36420600D02*
X218671600Y-36728400D01*
X220152400Y-36420600D02*
X218979400Y-36420600D01*
%TO.N,Net-(U11-I2)*%
D47*
X229152400Y-34784600D02*
X229821600Y-35453800D01*
X228440700Y-34784600D02*
X229152400Y-34784600D01*
D45*
X219490200Y-34639800D02*
X218671600Y-35458400D01*
%TO.N,Net-(U11-I1)*%
X229821600Y-34183800D02*
X229012400Y-33374600D01*
D47*
X224290800Y-36059200D02*
X223621600Y-36728400D01*
X224934000Y-36059200D02*
X224290800Y-36059200D01*
%TO.N,VID_B2*%
D45*
X172429200Y-48056800D02*
X171519200Y-48966800D01*
%TO.N,Service Switch*%
X116446900Y-137943500D02*
X116214400Y-138176000D01*
D48*
X117341200Y-137943500D02*
X116446900Y-137943500D01*
%TO.N,IN_DATA*%
D45*
X100268300Y-67161700D02*
X100050000Y-67380000D01*
X101545200Y-67161700D02*
X100268300Y-67161700D01*
%TO.N,Net-(D3-A)*%
D46*
X93573600Y-116062000D02*
X93573600Y-117838000D01*
D45*
X93522800Y-116011200D02*
X93573600Y-116062000D01*
%TO.N,Net-(RN11-R1.2)*%
D47*
X260248400Y-64376000D02*
X259571700Y-64376000D01*
X259328100Y-64132400D02*
X259571700Y-64376000D01*
X239911000Y-55991500D02*
X239561800Y-55642300D01*
X240736100Y-55991500D02*
X239911000Y-55991500D01*
D45*
X212699600Y-69720000D02*
X212699600Y-68231500D01*
%TO.N,Net-(D1-A)*%
D46*
X89712800Y-131997200D02*
X89712800Y-133849000D01*
D45*
X89662000Y-131946400D02*
X89712800Y-131997200D01*
%TO.N,Net-(J2_RGBS_Out1-Pin_9)*%
X167313900Y-31161700D02*
X166420800Y-32054800D01*
%TO.N,Net-(J2_RGBS_Out1-Pin_8)*%
X161899600Y-31953200D02*
X162943200Y-31953200D01*
%TO.N,Net-(RN10-R4.2)*%
X218084400Y-156514800D02*
X217627200Y-156972000D01*
X226110800Y-156514800D02*
X218084400Y-156514800D01*
X262156800Y-163779200D02*
X261455100Y-163779200D01*
X261226800Y-163550900D02*
X261455100Y-163779200D01*
X240396600Y-152498300D02*
X240396600Y-151694000D01*
%TO.N,Net-(RN10-R3.2)*%
D47*
X262156800Y-164579200D02*
X261480100Y-164579200D01*
D45*
X230291600Y-149794000D02*
X240396600Y-149794000D01*
X226110800Y-153974800D02*
X230291600Y-149794000D01*
X218239000Y-157630200D02*
X217627200Y-158242000D01*
X226574500Y-157630200D02*
X218239000Y-157630200D01*
X227213900Y-156990800D02*
X226574500Y-157630200D01*
X227213900Y-155077900D02*
X227213900Y-156990800D01*
X226110800Y-153974800D02*
X227213900Y-155077900D01*
D47*
X261228700Y-164327800D02*
X260854700Y-164327800D01*
X261480100Y-164579200D02*
X261228700Y-164327800D01*
%TO.N,Net-(RN10-R1.2)*%
D45*
X262156800Y-166179200D02*
X261455100Y-166179200D01*
X261251200Y-166383100D02*
X261455100Y-166179200D01*
X242671600Y-149794000D02*
X242671600Y-148985200D01*
D47*
X218298000Y-160111200D02*
X218943400Y-160111200D01*
X217627200Y-160782000D02*
X218298000Y-160111200D01*
%TO.N,J4_Input_Stream*%
D45*
X217779600Y-64770000D02*
X217779600Y-66272400D01*
D47*
X218297700Y-162651500D02*
X218957000Y-162651500D01*
X217627200Y-163322000D02*
X218297700Y-162651500D01*
%TO.N,Net-(RN2-R3)*%
X213346400Y-158911200D02*
X212677200Y-158242000D01*
X213995400Y-158911200D02*
X213346400Y-158911200D01*
D45*
X242540200Y-161594800D02*
X251833700Y-152301300D01*
X226110800Y-161594800D02*
X242540200Y-161594800D01*
X251612400Y-152080000D02*
X251833700Y-152301300D01*
X253126000Y-153593600D02*
X262055200Y-153593600D01*
X251833700Y-152301300D02*
X253126000Y-153593600D01*
%TO.N,Net-(RN2-R4)*%
X213011200Y-157306000D02*
X212677200Y-156972000D01*
X214187500Y-157306000D02*
X213011200Y-157306000D01*
X262055200Y-154393600D02*
X261353500Y-154393600D01*
X261140800Y-154606300D02*
X261353500Y-154393600D01*
D47*
X251263200Y-150529200D02*
X251612400Y-150180000D01*
X250589200Y-150529200D02*
X251263200Y-150529200D01*
D45*
X250589200Y-152659200D02*
X250589200Y-150529200D01*
X244193600Y-159054800D02*
X250589200Y-152659200D01*
X226110800Y-159054800D02*
X244193600Y-159054800D01*
%TO.N,Net-(RN12-R1.2)*%
D47*
X260734400Y-72961200D02*
X261411100Y-72961200D01*
X261434600Y-72937700D02*
X261411100Y-72961200D01*
X261434600Y-69196300D02*
X261434600Y-72937700D01*
D45*
X251813800Y-55612100D02*
X251733900Y-55692000D01*
X253394000Y-55612100D02*
X251813800Y-55612100D01*
X216509600Y-64770000D02*
X216509600Y-66254100D01*
%TO.N,Net-(RN12-R2.2)*%
X260272600Y-72161200D02*
X260734400Y-72161200D01*
X259829100Y-72604700D02*
X260272600Y-72161200D01*
X251933200Y-57791300D02*
X251733900Y-57592000D01*
X252912400Y-57791300D02*
X251933200Y-57791300D01*
X215239600Y-63286700D02*
X215238500Y-63285600D01*
X215239600Y-64770000D02*
X215239600Y-63286700D01*
%TO.N,Net-(RN12-R4.2)*%
X260734400Y-70561200D02*
X260032700Y-70561200D01*
X260032700Y-70561200D02*
X259810400Y-70338900D01*
X212699600Y-65510900D02*
X213295100Y-66106400D01*
X212699600Y-64770000D02*
X212699600Y-65510900D01*
X249400100Y-57650800D02*
X249400100Y-58424500D01*
X249458900Y-57592000D02*
X249400100Y-57650800D01*
%TO.N,/1 Plyr Move Down*%
X262534400Y-70561200D02*
X263236100Y-70561200D01*
X263460000Y-70337300D02*
X263236100Y-70561200D01*
%TO.N,/1 Plyr Move Up*%
X266955600Y-70460000D02*
X266304200Y-71111400D01*
X273000000Y-70460000D02*
X266955600Y-70460000D01*
D47*
X263460900Y-71111400D02*
X263211100Y-71361200D01*
X266304200Y-71111400D02*
X263460900Y-71111400D01*
X262534400Y-71361200D02*
X263211100Y-71361200D01*
%TO.N,/1 Plyr Move Right*%
D45*
X272161200Y-72161200D02*
X262534400Y-72161200D01*
X273000000Y-73000000D02*
X272161200Y-72161200D01*
%TO.N,/1 Plyr Move Left*%
X262534400Y-72961200D02*
X263236100Y-72961200D01*
X263445100Y-73170200D02*
X263236100Y-72961200D01*
%TO.N,Net-(RN10-R2.2)*%
D47*
X262156800Y-165379200D02*
X261480100Y-165379200D01*
X218296400Y-158842800D02*
X217627200Y-159512000D01*
X218943400Y-158842800D02*
X218296400Y-158842800D01*
X261179100Y-165078200D02*
X260459600Y-165078200D01*
X261480100Y-165379200D02*
X261179100Y-165078200D01*
D45*
X243466600Y-152489000D02*
X243466600Y-152489400D01*
X242671600Y-151694000D02*
X243466600Y-152489000D01*
%TO.N,LED_27M*%
X123304800Y-118224800D02*
X120458400Y-118224800D01*
X125222000Y-120142000D02*
X123304800Y-118224800D01*
%TO.N,Net-(RN2-R2)*%
D47*
X213346400Y-160181200D02*
X212677200Y-159512000D01*
X213993400Y-160181200D02*
X213346400Y-160181200D01*
D45*
X248975300Y-149817900D02*
X249337400Y-150180000D01*
X248139900Y-149817900D02*
X248975300Y-149817900D01*
X261998000Y-152850800D02*
X262055200Y-152793600D01*
X260609900Y-152850800D02*
X261998000Y-152850800D01*
%TO.N,Net-(RN6-R8)*%
D47*
X105667600Y-69252400D02*
X107207600Y-69252400D01*
X105000000Y-69920000D02*
X105667600Y-69252400D01*
%TO.N,Net-(RN6-R7)*%
D45*
X108233300Y-67026700D02*
X112014000Y-63246000D01*
X108233300Y-69107100D02*
X108233300Y-67026700D01*
X106150400Y-71190000D02*
X108233300Y-69107100D01*
X105000000Y-71190000D02*
X106150400Y-71190000D01*
X91525000Y-74365000D02*
X87000000Y-78890000D01*
X101470200Y-74365000D02*
X91525000Y-74365000D01*
X104645200Y-71190000D02*
X101470200Y-74365000D01*
X105000000Y-71190000D02*
X104645200Y-71190000D01*
%TO.N,Net-(RN6-R6)*%
D47*
X105669200Y-71790800D02*
X105000000Y-72460000D01*
X106408600Y-71790800D02*
X105669200Y-71790800D01*
D45*
X112014000Y-66185400D02*
X112014000Y-65786000D01*
X106408600Y-71790800D02*
X112014000Y-66185400D01*
%TO.N,Net-(RN6-R5)*%
D47*
X105669200Y-73060800D02*
X105000000Y-73730000D01*
X106408600Y-73060800D02*
X105669200Y-73060800D01*
D45*
X111143400Y-68326000D02*
X106408600Y-73060800D01*
X112014000Y-68326000D02*
X111143400Y-68326000D01*
X103428900Y-73730000D02*
X103389700Y-73690800D01*
X105000000Y-73730000D02*
X103428900Y-73730000D01*
%TO.N,Net-(RN6-R4)*%
D47*
X100718600Y-73061400D02*
X101367400Y-73061400D01*
X100050000Y-73730000D02*
X100718600Y-73061400D01*
%TO.N,Net-(RN6-R3)*%
D45*
X100050300Y-72459700D02*
X100050000Y-72460000D01*
X101917100Y-72459700D02*
X100050300Y-72459700D01*
X101918500Y-72461100D02*
X101917100Y-72459700D01*
%TO.N,Net-(RN6-R2)*%
D47*
X100716700Y-71856700D02*
X101353400Y-71856700D01*
X100050000Y-71190000D02*
X100716700Y-71856700D01*
%TO.N,Net-(RN6-R1)*%
D45*
X99795700Y-69665700D02*
X100050000Y-69920000D01*
X98559400Y-69665700D02*
X99795700Y-69665700D01*
%TO.N,SW1_Input_Stream*%
X100387500Y-34042500D02*
X100550000Y-33880000D01*
X99054100Y-34042500D02*
X100387500Y-34042500D01*
D47*
X99383600Y-67983600D02*
X98734500Y-67983600D01*
X100050000Y-68650000D02*
X99383600Y-67983600D01*
%TO.N,Net-(D2-A)*%
D45*
X92557600Y-99044000D02*
X92557600Y-100778200D01*
X92608400Y-98993200D02*
X92557600Y-99044000D01*
%TO.N,Net-(U10-I1)*%
D47*
X228994000Y-18246000D02*
X229663200Y-17576800D01*
X228304200Y-18246000D02*
X228994000Y-18246000D01*
D45*
X223474500Y-20184700D02*
X223440800Y-20218400D01*
X227531000Y-20184700D02*
X223474500Y-20184700D01*
%TO.N,Out_Data*%
D47*
X222771600Y-22157600D02*
X223440800Y-21488400D01*
X222135500Y-22157600D02*
X222771600Y-22157600D01*
%TO.N,Out_En_N*%
D45*
X185782000Y-47154000D02*
X184879200Y-48056800D01*
X223425800Y-22773400D02*
X221576400Y-22773400D01*
X223440800Y-22758400D02*
X223425800Y-22773400D01*
X223538700Y-39351300D02*
X220787000Y-39351300D01*
X223621600Y-39268400D02*
X223538700Y-39351300D01*
%TO.N,Out_Latch*%
X221942900Y-24028400D02*
X223440800Y-24028400D01*
X222163400Y-40538400D02*
X222136300Y-40511300D01*
X223621600Y-40538400D02*
X222163400Y-40538400D01*
%TO.N,Out_Clock*%
X223436200Y-25293800D02*
X223440800Y-25298400D01*
X221944200Y-25293800D02*
X223436200Y-25293800D01*
X222131000Y-41808400D02*
X223621600Y-41808400D01*
%TO.N,Out_Clear*%
X223412700Y-26540300D02*
X223440800Y-26568400D01*
X221607700Y-26540300D02*
X223412700Y-26540300D01*
X223617500Y-43074300D02*
X223621600Y-43078400D01*
X222140900Y-43074300D02*
X223617500Y-43074300D01*
X215440900Y-29679400D02*
X215442500Y-29677800D01*
X215440900Y-30886400D02*
X215440900Y-29679400D01*
%TO.N,Net-(U8-QH')*%
X222287200Y-28992000D02*
X222287200Y-37329200D01*
X223440800Y-27838400D02*
X222287200Y-28992000D01*
D47*
X222952400Y-37329200D02*
X223621600Y-37998400D01*
X222287200Y-37329200D02*
X222952400Y-37329200D01*
%TO.N,Net-(U10-I8)*%
X228994000Y-25797600D02*
X229663200Y-26466800D01*
X228313100Y-25797600D02*
X228994000Y-25797600D01*
D45*
X220862500Y-25933400D02*
X220828300Y-25899200D01*
X228177300Y-25933400D02*
X220862500Y-25933400D01*
X228313100Y-25797600D02*
X228177300Y-25933400D01*
D47*
X219160000Y-25899200D02*
X218490800Y-26568400D01*
X220828300Y-25899200D02*
X219160000Y-25899200D01*
%TO.N,Net-(U10-I7)*%
X228994000Y-24527600D02*
X229663200Y-25196800D01*
X228300800Y-24527600D02*
X228994000Y-24527600D01*
X219160000Y-24629200D02*
X218490800Y-25298400D01*
X219899400Y-24629200D02*
X219160000Y-24629200D01*
D45*
X228165000Y-24663400D02*
X228300800Y-24527600D01*
X221133900Y-24663400D02*
X228165000Y-24663400D01*
X220850500Y-24946800D02*
X221133900Y-24663400D01*
X220352200Y-24946800D02*
X220850500Y-24946800D01*
X220068800Y-24663400D02*
X220352200Y-24946800D01*
X219933600Y-24663400D02*
X220068800Y-24663400D01*
X219899400Y-24629200D02*
X219933600Y-24663400D01*
%TO.N,Net-(U10-I6)*%
D47*
X228994000Y-23257600D02*
X229663200Y-23926800D01*
X228300800Y-23257600D02*
X228994000Y-23257600D01*
D45*
X219934300Y-24028400D02*
X218490800Y-24028400D01*
X220569300Y-23393400D02*
X219934300Y-24028400D01*
X228165000Y-23393400D02*
X220569300Y-23393400D01*
X228300800Y-23257600D02*
X228165000Y-23393400D01*
%TO.N,Net-(U10-I5)*%
X218837400Y-23105000D02*
X218490800Y-22758400D01*
X219985400Y-23105000D02*
X218837400Y-23105000D01*
X229500200Y-22493800D02*
X229663200Y-22656800D01*
X227897800Y-22493800D02*
X229500200Y-22493800D01*
%TO.N,Net-(U10-I4)*%
X229388200Y-21661800D02*
X228112600Y-21661800D01*
X229663200Y-21386800D02*
X229388200Y-21661800D01*
D47*
X217852800Y-22126400D02*
X217215500Y-22126400D01*
X218490800Y-21488400D02*
X217852800Y-22126400D01*
%TO.N,Net-(U10-I3)*%
X228994000Y-20786000D02*
X229663200Y-20116800D01*
X228300800Y-20786000D02*
X228994000Y-20786000D01*
D45*
X219898300Y-20853400D02*
X219864100Y-20887600D01*
X228233400Y-20853400D02*
X219898300Y-20853400D01*
X228300800Y-20786000D02*
X228233400Y-20853400D01*
D47*
X219160000Y-20887600D02*
X218490800Y-20218400D01*
X219864100Y-20887600D02*
X219160000Y-20887600D01*
%TO.N,Net-(U10-I2)*%
X228994000Y-19516000D02*
X229663200Y-18846800D01*
X228300800Y-19516000D02*
X228994000Y-19516000D01*
D45*
X219125800Y-19583400D02*
X218490800Y-18948400D01*
X227281500Y-19583400D02*
X219125800Y-19583400D01*
X227281900Y-19583000D02*
X227281500Y-19583400D01*
X227780200Y-19583000D02*
X227281900Y-19583000D01*
X227780600Y-19583400D02*
X227780200Y-19583000D01*
X228233400Y-19583400D02*
X227780600Y-19583400D01*
X228300800Y-19516000D02*
X228233400Y-19583400D01*
%TO.N,Net-(RN2-R1)*%
D47*
X262055200Y-151993600D02*
X261378500Y-151993600D01*
X261134900Y-152237200D02*
X261378500Y-151993600D01*
X213348000Y-161452800D02*
X213982000Y-161452800D01*
X212677200Y-160782000D02*
X213348000Y-161452800D01*
D45*
X249337400Y-152080000D02*
X248527500Y-152889900D01*
%TO.N,VID_R1*%
X166526400Y-47154000D02*
X167429200Y-48056800D01*
%TO.N,Net-(RN12-R3.2)*%
D47*
X260734400Y-71361200D02*
X260057700Y-71361200D01*
X260057700Y-71361200D02*
X259814100Y-71604800D01*
D45*
X248318700Y-55692000D02*
X248292400Y-55718300D01*
X249458900Y-55692000D02*
X248318700Y-55692000D01*
X213969600Y-65185600D02*
X213969600Y-64770000D01*
X215053700Y-66269700D02*
X213969600Y-65185600D01*
%TO.N,Net-(RN1-R5)*%
X217932000Y-186334400D02*
X217881200Y-186283600D01*
X225907600Y-186334400D02*
X217932000Y-186334400D01*
X260590500Y-187776000D02*
X261515600Y-187776000D01*
X246340200Y-183354200D02*
X246341500Y-183355500D01*
X246340200Y-182514400D02*
X246340200Y-183354200D01*
%TO.N,Net-(RN1-R6)*%
X225357600Y-184344400D02*
X218956800Y-184344400D01*
X225907600Y-183794400D02*
X225357600Y-184344400D01*
D47*
X218756600Y-184344400D02*
X218722400Y-184378600D01*
X218956800Y-184344400D02*
X218756600Y-184344400D01*
D45*
X215902600Y-185331900D02*
X215902600Y-186884400D01*
X216855900Y-184378600D02*
X215902600Y-185331900D01*
X218722400Y-184378600D02*
X216855900Y-184378600D01*
D47*
X217212000Y-186884400D02*
X217881200Y-187553600D01*
X215902600Y-186884400D02*
X217212000Y-186884400D01*
D45*
X259741300Y-186976000D02*
X261515600Y-186976000D01*
X259629300Y-187088000D02*
X259741300Y-186976000D01*
X245543200Y-179817400D02*
X246340200Y-180614400D01*
%TO.N,Net-(RN1-R8)*%
D47*
X218550400Y-189424400D02*
X217881200Y-190093600D01*
X219192400Y-189424400D02*
X218550400Y-189424400D01*
D45*
X261515600Y-185376000D02*
X260813900Y-185376000D01*
X260748800Y-185441100D02*
X260813900Y-185376000D01*
X260596200Y-185441100D02*
X260748800Y-185441100D01*
X249413400Y-179816200D02*
X248615200Y-180614400D01*
%TO.N,Net-(U1-Q7)*%
X217881200Y-193104000D02*
X217548500Y-193436700D01*
X217881200Y-192633600D02*
X217881200Y-193104000D01*
D47*
X218266100Y-161413100D02*
X218914700Y-161413100D01*
X217627200Y-162052000D02*
X218266100Y-161413100D01*
%TO.N,Net-(RN1-R1)*%
D45*
X261924800Y-196443600D02*
X261223100Y-196443600D01*
X261022500Y-196243000D02*
X261223100Y-196443600D01*
X237114500Y-182464700D02*
X237114500Y-183278000D01*
D47*
X213602000Y-190764400D02*
X214243400Y-190764400D01*
X212931200Y-190093600D02*
X213602000Y-190764400D01*
%TO.N,Net-(RN1-R2)*%
X213600400Y-189492800D02*
X212931200Y-188823600D01*
X214247400Y-189492800D02*
X213600400Y-189492800D01*
D45*
X261924800Y-197243600D02*
X261223100Y-197243600D01*
X261151200Y-197315500D02*
X261223100Y-197243600D01*
X261017900Y-197315500D02*
X261151200Y-197315500D01*
X229019100Y-180564700D02*
X228249000Y-179794600D01*
X237114500Y-180564700D02*
X229019100Y-180564700D01*
%TO.N,Net-(RN1-R3)*%
D47*
X213600400Y-188222800D02*
X212931200Y-187553600D01*
X214242100Y-188222800D02*
X213600400Y-188222800D01*
D45*
X261867600Y-197986400D02*
X261924800Y-198043600D01*
X260468200Y-197986400D02*
X261867600Y-197986400D01*
X239389500Y-182464700D02*
X239389500Y-183271300D01*
X225221800Y-190728600D02*
X225907600Y-191414400D01*
X216747900Y-190728600D02*
X225221800Y-190728600D01*
X214242100Y-188222800D02*
X216747900Y-190728600D01*
%TO.N,Net-(RN1-R4)*%
X213063800Y-186416200D02*
X212931200Y-186283600D01*
X214428000Y-186416200D02*
X213063800Y-186416200D01*
D47*
X261924800Y-198843600D02*
X261248100Y-198843600D01*
X261004500Y-198600000D02*
X261248100Y-198843600D01*
X239738700Y-180913900D02*
X239389500Y-180564700D01*
X241063700Y-180913900D02*
X239738700Y-180913900D01*
%TO.N,Net-(C2-Pad1)*%
D45*
X240980200Y-92500800D02*
X240755200Y-92725800D01*
X243855200Y-92500800D02*
X240980200Y-92500800D01*
X240755200Y-96175800D02*
X238930200Y-98000800D01*
X240755200Y-92725800D02*
X240755200Y-96175800D01*
%TO.N,AUD_PWM_L1*%
X238015900Y-93640100D02*
X238930200Y-92725800D01*
%TO.N,Net-(RN5-R8)*%
X111126700Y-32816800D02*
X108192700Y-35750800D01*
X112420400Y-32816800D02*
X111126700Y-32816800D01*
D47*
X106169200Y-35750800D02*
X105500000Y-36420000D01*
X108192700Y-35750800D02*
X106169200Y-35750800D01*
%TO.N,Net-(RN5-R7)*%
D45*
X111964400Y-35356800D02*
X111170200Y-36151000D01*
X112420400Y-35356800D02*
X111964400Y-35356800D01*
D47*
X111170200Y-36151000D02*
X107778400Y-36151000D01*
D45*
X107778400Y-36151000D02*
X106908600Y-37020800D01*
D47*
X106169200Y-37020800D02*
X105500000Y-37690000D01*
X106908600Y-37020800D02*
X106169200Y-37020800D01*
D45*
X96786400Y-38323600D02*
X88000000Y-47110000D01*
X104866400Y-38323600D02*
X96786400Y-38323600D01*
X105500000Y-37690000D02*
X104866400Y-38323600D01*
%TO.N,Net-(RN5-R6)*%
X112420400Y-37896800D02*
X112420400Y-38290800D01*
D47*
X106169200Y-38290800D02*
X105500000Y-38960000D01*
X112420400Y-38290800D02*
X106169200Y-38290800D01*
%TO.N,Net-(RN5-R5)*%
D45*
X105706800Y-40436800D02*
X105500000Y-40230000D01*
X112420400Y-40436800D02*
X105706800Y-40436800D01*
%TO.N,Net-(RN5-R4)*%
D47*
X101190600Y-39589400D02*
X101839200Y-39589400D01*
X100550000Y-40230000D02*
X101190600Y-39589400D01*
%TO.N,Net-(RN5-R3)*%
D45*
X107771700Y-40868100D02*
X112420400Y-45516800D01*
X103974900Y-40868100D02*
X107771700Y-40868100D01*
X102066800Y-38960000D02*
X103974900Y-40868100D01*
X100550000Y-38960000D02*
X102066800Y-38960000D01*
D47*
X98618400Y-38960000D02*
X100550000Y-38960000D01*
X97947600Y-39630800D02*
X98618400Y-38960000D01*
%TO.N,Net-(RN5-R2)*%
D45*
X100072200Y-37212200D02*
X99110900Y-37212200D01*
X100550000Y-37690000D02*
X100072200Y-37212200D01*
%TO.N,Net-(RN5-R1)*%
X90598100Y-34468100D02*
X90598100Y-35750800D01*
X88000000Y-31870000D02*
X90598100Y-34468100D01*
D47*
X99880800Y-35750800D02*
X100550000Y-36420000D01*
X90598100Y-35750800D02*
X99880800Y-35750800D01*
%TO.N,VID_G3*%
D45*
X176559000Y-47186600D02*
X176345700Y-47186600D01*
X177429200Y-48056800D02*
X176559000Y-47186600D01*
%TO.N,ADC_SDA*%
D47*
X245073200Y-79423600D02*
X243831200Y-79423600D01*
%TO.N,ADC_SCL*%
D45*
X241182600Y-80073600D02*
X241080500Y-79971500D01*
X245073200Y-80073600D02*
X241182600Y-80073600D01*
%TO.N,ADC_A1*%
X245073200Y-80723600D02*
X243817100Y-80723600D01*
%TO.N,ADC_A0*%
X246872600Y-81373600D02*
X246902300Y-81343900D01*
X245073200Y-81373600D02*
X246872600Y-81373600D01*
%TO.N,Net-(U14-CH0)*%
X239886400Y-86542900D02*
X239886500Y-86542900D01*
X239886400Y-86544600D02*
X239886400Y-86542900D01*
X238930200Y-87500800D02*
X239886400Y-86544600D01*
X239940700Y-86488700D02*
X239886500Y-86542900D01*
X242843100Y-86488700D02*
X239940700Y-86488700D01*
X243855200Y-87500800D02*
X242843100Y-86488700D01*
D47*
X239198800Y-78923000D02*
X239348200Y-78773600D01*
X238097400Y-78923000D02*
X239198800Y-78923000D01*
%TO.N,Net-(RN1-R7)*%
X218550400Y-188154400D02*
X217881200Y-188823600D01*
X219197400Y-188154400D02*
X218550400Y-188154400D01*
D45*
X252576600Y-186475800D02*
X260410300Y-186475800D01*
X248615200Y-182514400D02*
X252576600Y-186475800D01*
D47*
X260539100Y-186475800D02*
X260838900Y-186176000D01*
X260410300Y-186475800D02*
X260539100Y-186475800D01*
X261515600Y-186176000D02*
X260838900Y-186176000D01*
D45*
X247152900Y-183976700D02*
X248615200Y-182514400D01*
X228629900Y-183976700D02*
X247152900Y-183976700D01*
X225907600Y-181254400D02*
X228629900Y-183976700D01*
%TO.N,+12V*%
X238594700Y-28105300D02*
X238963200Y-27736800D01*
X237425800Y-28105300D02*
X238594700Y-28105300D01*
X55729900Y-99161600D02*
X55983900Y-98907600D01*
D46*
X50272100Y-99161600D02*
X55729900Y-99161600D01*
X57735600Y-98907600D02*
X55983900Y-98907600D01*
D45*
X56160300Y-115722400D02*
X56211100Y-115671600D01*
D46*
X50415200Y-115722400D02*
X56160300Y-115722400D01*
X57962800Y-115671600D02*
X56211100Y-115671600D01*
D45*
X239121600Y-44343800D02*
X239932700Y-45154900D01*
%TO.N,Net-(J2_RGBS_Out1-Pin_1)*%
X170148600Y-31161700D02*
X171041700Y-32054800D01*
%TO.N,Net-(J2_RGBS_Out1-Pin_5)*%
X180492400Y-34290000D02*
X180746400Y-34290000D01*
X169164000Y-22961600D02*
X180492400Y-34290000D01*
%TO.N,Net-(J2_RGBS_Out1-Pin_3)*%
X175410500Y-31326600D02*
X175410500Y-32054800D01*
X174932300Y-30848400D02*
X175410500Y-31326600D01*
%TO.N,Net-(U13-CH3_IN)*%
X179929200Y-49881800D02*
X177429200Y-49881800D01*
X179929200Y-49881800D02*
X182429200Y-49881800D01*
D47*
X175828400Y-48649400D02*
X175828400Y-48894800D01*
X175932100Y-48545700D02*
X175828400Y-48649400D01*
D45*
X175828400Y-49093800D02*
X176088300Y-49353700D01*
X175828400Y-48894800D02*
X175828400Y-49093800D01*
D49*
X176088300Y-49353700D02*
X176108300Y-49353700D01*
D50*
X176108300Y-49353700D02*
X176123300Y-49353700D01*
D45*
X176901100Y-49353700D02*
X177429200Y-49881800D01*
X176123300Y-49353700D02*
X176901100Y-49353700D01*
D47*
X172140000Y-37683200D02*
X172189200Y-37732400D01*
X169992200Y-37683200D02*
X172140000Y-37683200D01*
D45*
X176145500Y-48332300D02*
X176145500Y-47988400D01*
X175932100Y-48545700D02*
X176145500Y-48332300D01*
%TO.N,Net-(U13-CH2_IN)*%
X174929200Y-49881800D02*
X172429200Y-49881800D01*
X169929200Y-49881800D02*
X171164900Y-49881800D01*
X171164900Y-49881800D02*
X172429200Y-49881800D01*
X171737400Y-37033200D02*
X169992200Y-37033200D01*
X172008000Y-36762600D02*
X171737400Y-37033200D01*
X171164900Y-49881800D02*
X171164900Y-49746600D01*
%TO.N,Net-(U13-CH1_IN)*%
D47*
X169842800Y-36532600D02*
X168744700Y-36532600D01*
X169992200Y-36383200D02*
X169842800Y-36532600D01*
D45*
X164929200Y-49881800D02*
X167429200Y-49881800D01*
X164929200Y-49881800D02*
X162429200Y-49881800D01*
X167733100Y-49577900D02*
X167429200Y-49881800D01*
X168679200Y-49577900D02*
X167733100Y-49577900D01*
%TO.N,+3.3V*%
X217881200Y-118748500D02*
X217881200Y-119583200D01*
X209345900Y-63956300D02*
X210159600Y-64770000D01*
X213615900Y-32093100D02*
X213615900Y-30886400D01*
X100827900Y-63728500D02*
X101513600Y-63042800D01*
X100468100Y-63728500D02*
X100827900Y-63728500D01*
X101281000Y-30321400D02*
X102189200Y-29413200D01*
X213911100Y-132006300D02*
X214543600Y-132638800D01*
X213521500Y-132006300D02*
X213911100Y-132006300D01*
X208209700Y-63956300D02*
X204551200Y-67614800D01*
X209345900Y-63956300D02*
X208209700Y-63956300D01*
X216733200Y-153538000D02*
X217627200Y-154432000D01*
X216733200Y-152666800D02*
X216733200Y-153538000D01*
X214289600Y-150223200D02*
X216733200Y-152666800D01*
X214289600Y-149453600D02*
X214289600Y-150223200D01*
D46*
X99447900Y-117163300D02*
X100482400Y-116128800D01*
D45*
X99166900Y-117163300D02*
X99447900Y-117163300D01*
D46*
X84683600Y-113842800D02*
X89001600Y-118160800D01*
X82651600Y-113842800D02*
X84683600Y-113842800D01*
D45*
X185775600Y-50778200D02*
X184879200Y-49881800D01*
D46*
X96014800Y-114011200D02*
X93522800Y-114011200D01*
X99166900Y-117163300D02*
X96014800Y-114011200D01*
D45*
X100050000Y-76270000D02*
X100050000Y-77094400D01*
X114214400Y-139357900D02*
X114187100Y-139385200D01*
D48*
X114214400Y-138176000D02*
X114214400Y-139357900D01*
D46*
X93151200Y-114011200D02*
X89001600Y-118160800D01*
D45*
X93522800Y-114011200D02*
X93151200Y-114011200D01*
X100550000Y-42770000D02*
X99736100Y-43583900D01*
X216731600Y-182594000D02*
X216731600Y-182165600D01*
X217881200Y-183743600D02*
X216731600Y-182594000D01*
X214457200Y-179891200D02*
X216731600Y-182165600D01*
X214457200Y-178714400D02*
X214457200Y-179891200D01*
%TO.N,Net-(RN13-R4.2)*%
X225704400Y-122123200D02*
X217881200Y-122123200D01*
X226466400Y-121361200D02*
X225704400Y-122123200D01*
X261518400Y-130645200D02*
X260816700Y-130645200D01*
X260602200Y-130430700D02*
X260816700Y-130645200D01*
X251115400Y-117094000D02*
X251115400Y-117919800D01*
%TO.N,Net-(RN13-R3.2)*%
X223779600Y-121508000D02*
X216883900Y-121508000D01*
X226466400Y-118821200D02*
X223779600Y-121508000D01*
D47*
X216738200Y-121653700D02*
X216701200Y-121653700D01*
X216883900Y-121508000D02*
X216738200Y-121653700D01*
D45*
X216588400Y-121766500D02*
X216588400Y-122724000D01*
X216701200Y-121653700D02*
X216588400Y-121766500D01*
D47*
X217212000Y-122724000D02*
X217881200Y-123393200D01*
X216588400Y-122724000D02*
X217212000Y-122724000D01*
X261518400Y-131445200D02*
X260841700Y-131445200D01*
X255587800Y-131445200D02*
X255338000Y-131195400D01*
X260841700Y-131445200D02*
X255587800Y-131445200D01*
X251464600Y-115543200D02*
X251115400Y-115194000D01*
X252101200Y-115543200D02*
X251464600Y-115543200D01*
D45*
X252101200Y-117725400D02*
X252101200Y-115543200D01*
%TO.N,Net-(RN13-R2.2)*%
X253390400Y-117911700D02*
X253390400Y-117094000D01*
X261462800Y-132189600D02*
X260060600Y-132189600D01*
X261518400Y-132245200D02*
X261462800Y-132189600D01*
D47*
X218552000Y-123992400D02*
X219197400Y-123992400D01*
X217881200Y-124663200D02*
X218552000Y-123992400D01*
%TO.N,Net-(RN13-R1.2)*%
X261518400Y-133045200D02*
X260841700Y-133045200D01*
X260598100Y-132801600D02*
X260841700Y-133045200D01*
D45*
X252579200Y-114382800D02*
X253390400Y-115194000D01*
D47*
X218506900Y-125307500D02*
X219155500Y-125307500D01*
X217881200Y-125933200D02*
X218506900Y-125307500D01*
%TO.N,J5_Input_Stream*%
D45*
X219862600Y-65583000D02*
X219049600Y-64770000D01*
D47*
X218548400Y-126536000D02*
X217881200Y-127203200D01*
X219703200Y-126536000D02*
X218548400Y-126536000D01*
%TO.N,J6_Input_Stream*%
D45*
X217603200Y-128751200D02*
X217881200Y-128473200D01*
X216395100Y-128751200D02*
X217603200Y-128751200D01*
D47*
X101219200Y-35819200D02*
X101853200Y-35819200D01*
X100550000Y-35150000D02*
X101219200Y-35819200D01*
%TO.N,Net-(RN14-R4.2)*%
X242384200Y-116592400D02*
X242733400Y-116941600D01*
X241560700Y-116592400D02*
X242384200Y-116592400D01*
D45*
X260211400Y-115913200D02*
X260209900Y-115911700D01*
X261496400Y-115913200D02*
X260211400Y-115913200D01*
D47*
X213602000Y-126604000D02*
X214245000Y-126604000D01*
X212931200Y-125933200D02*
X213602000Y-126604000D01*
%TO.N,Net-(RN14-R3.2)*%
D45*
X260555000Y-116713200D02*
X261496400Y-116713200D01*
X242733400Y-114570800D02*
X243066300Y-114237900D01*
X242733400Y-115041600D02*
X242733400Y-114570800D01*
D47*
X213600400Y-125332400D02*
X214247400Y-125332400D01*
X212931200Y-124663200D02*
X213600400Y-125332400D01*
%TO.N,Net-(RN14-R2.2)*%
D45*
X245360300Y-117293500D02*
X246175400Y-117293500D01*
X245008400Y-116941600D02*
X245360300Y-117293500D01*
D47*
X213600400Y-124062400D02*
X212931200Y-123393200D01*
X214245800Y-124062400D02*
X213600400Y-124062400D01*
D45*
X248061800Y-119179900D02*
X246175400Y-117293500D01*
X261782300Y-119179900D02*
X248061800Y-119179900D01*
X262198100Y-118764100D02*
X261782300Y-119179900D01*
X262198100Y-117513200D02*
X262198100Y-118764100D01*
X261496400Y-117513200D02*
X262198100Y-117513200D01*
%TO.N,Net-(RN14-R1.2)*%
D47*
X213600400Y-122792400D02*
X212931200Y-122123200D01*
X214241900Y-122792400D02*
X213600400Y-122792400D01*
D45*
X261496400Y-118313200D02*
X260794700Y-118313200D01*
X250453100Y-118540500D02*
X260567400Y-118540500D01*
X246954200Y-115041600D02*
X250453100Y-118540500D01*
X245008400Y-115041600D02*
X246954200Y-115041600D01*
X260567400Y-118540500D02*
X260794700Y-118313200D01*
%TO.N,IN_CLK*%
X213239000Y-184705800D02*
X212931200Y-185013600D01*
X214415200Y-184705800D02*
X213239000Y-184705800D01*
D47*
X212008000Y-156371200D02*
X212677200Y-155702000D01*
X211377300Y-156371200D02*
X212008000Y-156371200D01*
X104830800Y-42169200D02*
X105500000Y-41500000D01*
X104166700Y-42169200D02*
X104830800Y-42169200D01*
D45*
X211429600Y-68241000D02*
X211429600Y-69720000D01*
D47*
X212262000Y-121522400D02*
X212931200Y-120853200D01*
X211632200Y-121522400D02*
X212262000Y-121522400D01*
X105666000Y-74334000D02*
X106318900Y-74334000D01*
X105000000Y-75000000D02*
X105666000Y-74334000D01*
%TO.N,IN_LOAD_N*%
D45*
X212931200Y-118739800D02*
X212931200Y-119583200D01*
X212123100Y-182935500D02*
X212931200Y-183743600D01*
X211849800Y-153604600D02*
X212677200Y-154432000D01*
X105500000Y-43608500D02*
X105500000Y-42770000D01*
X210159600Y-68230700D02*
X210159600Y-69720000D01*
X105000000Y-76270000D02*
X105000000Y-77085700D01*
%TO.N,+5V*%
X223440800Y-18948400D02*
X222618000Y-18125600D01*
D47*
X175866600Y-39132600D02*
X175717200Y-38983200D01*
X178128400Y-39132600D02*
X175866600Y-39132600D01*
X163614400Y-39122200D02*
X163763800Y-38972800D01*
X162521100Y-39122200D02*
X163614400Y-39122200D01*
D45*
X254386200Y-111587400D02*
X254386200Y-115794800D01*
X253796800Y-110998000D02*
X254386200Y-111587400D01*
D47*
X253739600Y-115794800D02*
X253390400Y-116144000D01*
X254386200Y-115794800D02*
X253739600Y-115794800D01*
X243020800Y-150394800D02*
X242671600Y-150744000D01*
X243590500Y-150394800D02*
X243020800Y-150394800D01*
D45*
X243842900Y-150142400D02*
X243590500Y-150394800D01*
D47*
X251961600Y-151479200D02*
X251612400Y-151130000D01*
X252779900Y-151479200D02*
X251961600Y-151479200D01*
X252083100Y-56292800D02*
X251733900Y-56642000D01*
X252609900Y-56292800D02*
X252083100Y-56292800D01*
D45*
X253796800Y-107526900D02*
X253796800Y-110998000D01*
X253949200Y-107374500D02*
X253796800Y-107526900D01*
X253949200Y-106222800D02*
X253949200Y-107374500D01*
X233410800Y-53334200D02*
X233410800Y-53898800D01*
X234034700Y-52710300D02*
X233410800Y-53334200D01*
X216210000Y-18125600D02*
X214238800Y-16154400D01*
X222618000Y-18125600D02*
X216210000Y-18125600D01*
D47*
X178353600Y-39132600D02*
X178128400Y-39132600D01*
D45*
X102174300Y-96383100D02*
X103225600Y-97434400D01*
X101891000Y-96383100D02*
X102174300Y-96383100D01*
D46*
X84558900Y-97563700D02*
X88036400Y-101041200D01*
X82186100Y-97563700D02*
X84558900Y-97563700D01*
D45*
X92084400Y-96993200D02*
X92608400Y-96993200D01*
D46*
X88036400Y-101041200D02*
X92084400Y-96993200D01*
D45*
X185299400Y-35628000D02*
X185875400Y-35052000D01*
X185299400Y-39132600D02*
X185299400Y-35628000D01*
X178353600Y-39132600D02*
X185299400Y-39132600D01*
X185299400Y-39132600D02*
X186654400Y-40487600D01*
X192631800Y-35052000D02*
X192631800Y-37422000D01*
X192631800Y-40455400D02*
X193070400Y-40894000D01*
X192631800Y-37422000D02*
X192631800Y-40455400D01*
X233507200Y-79612500D02*
X232783400Y-80336300D01*
X233507200Y-79248000D02*
X233507200Y-79612500D01*
X223621600Y-35458400D02*
X224444200Y-34635800D01*
D47*
X239909700Y-56940200D02*
X240749900Y-56940200D01*
X239561800Y-56592300D02*
X239909700Y-56940200D01*
D45*
X252910300Y-56292800D02*
X252910300Y-56294000D01*
X254638800Y-56292800D02*
X252910300Y-56292800D01*
X256575600Y-54356000D02*
X254638800Y-56292800D01*
X252910300Y-56292800D02*
X252609900Y-56292800D01*
D47*
X245222600Y-78923000D02*
X246333300Y-78923000D01*
X245073200Y-78773600D02*
X245222600Y-78923000D01*
D45*
X246162900Y-115991600D02*
X246173900Y-115980600D01*
X245008400Y-115991600D02*
X246162900Y-115991600D01*
X246454800Y-82673600D02*
X245073200Y-82673600D01*
%TO.N,GND*%
D47*
X217212000Y-185682800D02*
X217881200Y-185013600D01*
X216559900Y-185682800D02*
X217212000Y-185682800D01*
D45*
X218725200Y-27604000D02*
X218490800Y-27838400D01*
X219972200Y-27604000D02*
X218725200Y-27604000D01*
X211874500Y-164124700D02*
X212677200Y-163322000D01*
X217554200Y-155629000D02*
X217627200Y-155702000D01*
X216122800Y-155629000D02*
X217554200Y-155629000D01*
X244030500Y-82382000D02*
X244030500Y-83174200D01*
X244388900Y-82023600D02*
X244030500Y-82382000D01*
X245073200Y-82023600D02*
X244388900Y-82023600D01*
D47*
X244923800Y-83174200D02*
X245073200Y-83323600D01*
X244030500Y-83174200D02*
X244923800Y-83174200D01*
X101219200Y-40830800D02*
X100550000Y-41500000D01*
X101870800Y-40830800D02*
X101219200Y-40830800D01*
D45*
X103413600Y-65793600D02*
X105000000Y-67380000D01*
X103413600Y-63042800D02*
X103413600Y-65793600D01*
X100476500Y-75426500D02*
X100050000Y-75000000D01*
X101526300Y-75426500D02*
X100476500Y-75426500D01*
X219103900Y-69665700D02*
X219049600Y-69720000D01*
X219884500Y-69665700D02*
X219103900Y-69665700D01*
X169992200Y-38983200D02*
X169992200Y-39633200D01*
X169992200Y-38333200D02*
X169992200Y-38983200D01*
X158038800Y-38972800D02*
X158038800Y-39622800D01*
X158038800Y-38322800D02*
X158038800Y-37672800D01*
X158038800Y-38322800D02*
X158038800Y-38972800D01*
X154145400Y-39772200D02*
X155170600Y-39772200D01*
X151093200Y-42824400D02*
X154145400Y-39772200D01*
D47*
X157889400Y-39772200D02*
X158038800Y-39622800D01*
X155170600Y-39772200D02*
X155803600Y-39772200D01*
D45*
X250755200Y-116144000D02*
X251115400Y-116144000D01*
X250139600Y-115528400D02*
X250755200Y-116144000D01*
X250139600Y-112755200D02*
X250139600Y-115528400D01*
X251896800Y-110998000D02*
X250139600Y-112755200D01*
D47*
X236937600Y-56941500D02*
X237286800Y-56592300D01*
X236119600Y-56941500D02*
X236937600Y-56941500D01*
X240047400Y-151093200D02*
X240396600Y-150744000D01*
X239209500Y-151093200D02*
X240047400Y-151093200D01*
X248988200Y-150780800D02*
X249337400Y-151130000D01*
X248151000Y-150780800D02*
X248988200Y-150780800D01*
D45*
X250560000Y-55515400D02*
X250560000Y-56292800D01*
X251719400Y-54356000D02*
X250560000Y-55515400D01*
X254675600Y-54356000D02*
X251719400Y-54356000D01*
D47*
X249808100Y-56292800D02*
X249458900Y-56642000D01*
X250560000Y-56292800D02*
X249808100Y-56292800D01*
D45*
X248899600Y-108000800D02*
X251896800Y-110998000D01*
X245755200Y-108000800D02*
X248899600Y-108000800D01*
X254675600Y-53091300D02*
X254675600Y-54356000D01*
X234553500Y-56941500D02*
X231510800Y-53898800D01*
X236119600Y-56941500D02*
X234553500Y-56941500D01*
X216215300Y-16230900D02*
X216138800Y-16154400D01*
X217141700Y-16230900D02*
X216215300Y-16230900D01*
X215427600Y-35400800D02*
X215427600Y-35814000D01*
X216128300Y-34700100D02*
X215427600Y-35400800D01*
X103413600Y-63042800D02*
X103413600Y-61789700D01*
X105500000Y-31073900D02*
X105500000Y-33880000D01*
X104089200Y-29663100D02*
X104089200Y-29413200D01*
X105500000Y-31073900D02*
X104089200Y-29663100D01*
X213763600Y-129305600D02*
X212931200Y-128473200D01*
X213763600Y-129697900D02*
X213763600Y-129305600D01*
X216443600Y-132377900D02*
X213763600Y-129697900D01*
X216443600Y-132638800D02*
X216443600Y-132377900D01*
X208945900Y-67614800D02*
X210258300Y-66302400D01*
X206451200Y-67614800D02*
X208945900Y-67614800D01*
X211429600Y-65131100D02*
X211429600Y-64770000D01*
X210258300Y-66302400D02*
X211429600Y-65131100D01*
X216553900Y-149817900D02*
X216189600Y-149453600D01*
X217193500Y-149817900D02*
X216553900Y-149817900D01*
X225882000Y-97119200D02*
X225882000Y-93663600D01*
X225892400Y-97129600D02*
X225882000Y-97119200D01*
X245755200Y-87500800D02*
X245755200Y-92500800D01*
X245755200Y-108000800D02*
X245755200Y-105300000D01*
X245755200Y-105300000D02*
X245755200Y-103000800D01*
X245755200Y-103000800D02*
X245755200Y-98000800D01*
X194970400Y-35663400D02*
X194970400Y-40894000D01*
X195581800Y-35052000D02*
X194970400Y-35663400D01*
X225790800Y-101002300D02*
X225790800Y-100990400D01*
X224886700Y-101906400D02*
X225790800Y-101002300D01*
X225882000Y-92461100D02*
X225882000Y-93663600D01*
D46*
X99160000Y-120406400D02*
X100482400Y-121728800D01*
D45*
X101922200Y-104337800D02*
X103225600Y-103034400D01*
X89174400Y-119888000D02*
X89001600Y-120060800D01*
D46*
X93573600Y-119888000D02*
X89174400Y-119888000D01*
D45*
X141093200Y-42824400D02*
X146053200Y-42824400D01*
X136093200Y-42824400D02*
X139165500Y-42824400D01*
X139165500Y-42824400D02*
X141093200Y-42824400D01*
X146053200Y-42824400D02*
X151093200Y-42824400D01*
D46*
X92557600Y-102828200D02*
X89693800Y-102828200D01*
D45*
X88149400Y-102828200D02*
X88036400Y-102941200D01*
D46*
X89693800Y-102828200D02*
X88149400Y-102828200D01*
D45*
X94092000Y-120406400D02*
X93573600Y-119888000D01*
D46*
X99160000Y-120406400D02*
X94092000Y-120406400D01*
X90639200Y-136825400D02*
X89712800Y-135899000D01*
D45*
X188825400Y-35052000D02*
X188825400Y-37422000D01*
X188825400Y-40216600D02*
X188554400Y-40487600D01*
X188825400Y-37422000D02*
X188825400Y-40216600D01*
X195581800Y-34931100D02*
X195581800Y-35052000D01*
X194500500Y-33849800D02*
X195581800Y-34931100D01*
X225882000Y-90231200D02*
X225994000Y-90119200D01*
X225882000Y-92461100D02*
X225882000Y-90231200D01*
X225882000Y-92461100D02*
X225272100Y-92461100D01*
X237114500Y-181514700D02*
X235933200Y-181514700D01*
X236119600Y-56941500D02*
X236119600Y-56941800D01*
D47*
X245992600Y-181912000D02*
X245160400Y-181912000D01*
X246340200Y-181564400D02*
X245992600Y-181912000D01*
D45*
X241358700Y-115159400D02*
X241546800Y-115347500D01*
X238794600Y-115159400D02*
X241358700Y-115159400D01*
X237723600Y-116230400D02*
X238794600Y-115159400D01*
X242190900Y-115991600D02*
X242733400Y-115991600D01*
X241546800Y-115347500D02*
X242190900Y-115991600D01*
X216357200Y-178714400D02*
X217266400Y-179623600D01*
X217280400Y-191964400D02*
X214243400Y-191964400D01*
X217881200Y-191363600D02*
X217280400Y-191964400D01*
D47*
X213600400Y-191964400D02*
X212931200Y-192633600D01*
X214243400Y-191964400D02*
X213600400Y-191964400D01*
D45*
X217881200Y-120853200D02*
X216397200Y-120853200D01*
D47*
X170922900Y-39633200D02*
X171262800Y-39973100D01*
X169992200Y-39633200D02*
X170922900Y-39633200D01*
D45*
X229663200Y-27736800D02*
X228836700Y-28563300D01*
X245073200Y-83323600D02*
X245073200Y-84047300D01*
X245755200Y-84729300D02*
X245755200Y-87500800D01*
X245073200Y-84047300D02*
X245755200Y-84729300D01*
X235407200Y-79672100D02*
X236106900Y-80371800D01*
X235407200Y-79248000D02*
X235407200Y-79672100D01*
%TD*%
M02*
