M48
; DRILL file KiCad 10.0.1 date 2026-08-25T15:34:34
; FORMAT={-:-/ absolute / metric / decimal}
; #@! TF.CreationDate,2026-08-25T15:34:34-04:00
; #@! TF.GenerationSoftware,Kicad,Pcbnew,10.0.1
; #@! TF.FileFunction,Plated,1,4,PTH
FMAT,2
METRIC
; #@! TA.AperFunction,Plated,PTH,ViaDrill
T1C0.300
; #@! TA.AperFunction,Plated,PTH,ComponentDrill
T2C0.800
; #@! TA.AperFunction,Plated,PTH,ComponentDrill
T3C1.000
; #@! TA.AperFunction,Plated,PTH,ComponentDrill
T4C1.200
; #@! TA.AperFunction,Plated,PTH,ComponentDrill
T5C3.200
%
G90
G05
T1
X63.043Y-50.902
X63.144Y-63.246
X63.856Y-37.694
X65.284Y-87.477
X89.04Y-99.352
X90.639Y-136.825
X93.523Y-112.89
X93.53Y-103.851
X94.786Y-120.132
X97.949Y-39.631
X97.984Y-68.557
X98.298Y-74.981
X98.559Y-69.666
X98.734Y-67.98
X99.054Y-34.042
X99.109Y-37.211
X99.184Y-58.337
X99.736Y-43.584
X100.05Y-77.094
X101.367Y-73.063
X101.383Y-71.857
X101.838Y-39.589
X101.852Y-35.819
X101.87Y-40.832
X101.918Y-72.461
X102.653Y-73.512
X103.414Y-37.071
X103.888Y-108.257
X104.167Y-42.169
X105.001Y-77.089
X105.5Y-33.065
X105.5Y-43.608
X106.32Y-69.249
X106.32Y-74.332
X106.376Y-73.095
X106.857Y-111.225
X106.92Y-66.954
X107.468Y-113.585
X112.522Y-132.74
X112.522Y-138.125
X113.598Y-60.76
X114.345Y-121.31
X115.011Y-123.85
X115.337Y-119.519
X117.342Y-137.942
X118.262Y-132.74
X122.052Y-130.048
X123.441Y-145.924
X123.868Y-80.733
X124.358Y-24.638
X126.27Y-53.448
X129.239Y-50.479
X129.812Y-86.612
X130.454Y-135.382
X132.827Y-95.626
X135.148Y-45.819
X137.7Y-103.093
X138.176Y-24.689
X139.165Y-42.824
X139.864Y-45.473
X142.493Y-102.132
X145.108Y-45.819
X150.146Y-45.821
X154.372Y-34.042
X156.449Y-48.887
X156.535Y-50.776
X157.341Y-102.111
X157.43Y-47.036
X158.713Y-35.64
X159.038Y-50.774
X159.731Y-37.752
X159.929Y-47.039
X160.336Y-39.623
X162.518Y-101.477
X164.469Y-35.667
X164.929Y-47.025
X165.009Y-39.122
X165.022Y-36.873
X166.526Y-47.154
X169.038Y-48.948
X171.517Y-48.969
X174.277Y-39.633
X174.466Y-37.534
X175.009Y-35.675
X175.159Y-19.088
X175.797Y-47.147
X178.128Y-39.133
X178.137Y-45.917
X179.032Y-48.954
X181.517Y-48.969
X185.776Y-50.778
X185.782Y-47.154
X188.825Y-37.422
X192.632Y-37.422
X192.976Y-106.223
X204.439Y-43.251
X208.026Y-28.245
X209.036Y-22.544
X209.346Y-63.956
X209.488Y-70.971
X210.772Y-80.564
X211.377Y-156.371
X211.43Y-66.25
X211.43Y-68.217
X211.632Y-121.522
X211.85Y-153.605
X211.874Y-164.125
X212.123Y-182.935
X212.7Y-68.233
X212.931Y-118.741
X213.297Y-66.106
X213.735Y-129.277
X213.97Y-68.222
X213.983Y-161.451
X213.993Y-160.181
X213.995Y-158.911
X214.188Y-157.306
X214.242Y-122.792
X214.242Y-188.223
X214.243Y-190.764
X214.245Y-126.604
X214.245Y-191.964
X214.247Y-124.062
X214.247Y-125.331
X214.247Y-189.493
X214.415Y-184.706
X214.428Y-186.416
X215.055Y-66.272
X215.24Y-63.25
X215.24Y-71.217
X216.123Y-155.629
X216.395Y-120.853
X216.4Y-128.303
X216.51Y-63.263
X216.51Y-71.213
X216.56Y-185.683
X217.215Y-22.13
X217.78Y-66.271
X217.881Y-118.748
X218.455Y-153.605
X218.684Y-193.437
X218.69Y-182.934
X218.938Y-162.677
X218.943Y-157.573
X218.943Y-161.384
X219.123Y-159.509
X219.157Y-125.306
X219.192Y-189.424
X219.196Y-123.992
X219.197Y-188.154
X219.703Y-126.538
X219.863Y-65.583
X219.885Y-69.666
X219.968Y-38.617
X219.971Y-27.604
X219.985Y-23.105
X220.152Y-36.421
X220.169Y-35.367
X220.17Y-37.737
X220.6Y-124.845
X220.995Y-123.4
X221.244Y-39.227
X221.576Y-22.775
X221.943Y-24.028
X221.944Y-25.294
X222.101Y-40.813
X222.131Y-42.017
X222.135Y-22.158
X222.141Y-43.22
X222.518Y-186.884
X222.618Y-18.126
X224.004Y-92.432
X224.094Y-88.877
X224.444Y-34.636
X224.766Y-98.184
X224.935Y-36.06
X225.272Y-92.461
X225.822Y-27.238
X226.688Y-101.887
X226.748Y-102.692
X227.531Y-20.185
X227.621Y-98.198
X227.686Y-27.737
X227.898Y-22.494
X227.904Y-39.264
X227.911Y-43.675
X228.113Y-21.662
X228.287Y-37.011
X228.292Y-18.246
X228.441Y-34.785
X228.475Y-38.662
X229.012Y-33.375
X229.306Y-90.95
X229.38Y-92.679
X230.274Y-88.784
X230.842Y-66.532
X231.23Y-96.383
X234.486Y-69.795
X235.218Y-189.397
X235.422Y-65.25
X235.948Y-181.167
X235.949Y-182.472
X236.117Y-56.243
X236.319Y-179.769
X236.322Y-193.881
X236.493Y-54.848
X236.544Y-132.719
X236.59Y-70.749
X236.838Y-158.407
X237.068Y-167.218
X237.469Y-188.41
X237.52Y-78.923
X237.548Y-131.748
X238.016Y-93.64
X238.271Y-124.158
X238.303Y-164.296
X238.31Y-45.155
X238.591Y-156.547
X238.93Y-106.762
X238.963Y-28.566
X239.214Y-149.818
X239.221Y-151.093
X239.603Y-152.488
X240.185Y-179.769
X240.326Y-19.516
X240.356Y-54.848
X240.484Y-36.123
X240.484Y-37.393
X240.484Y-38.663
X240.484Y-41.135
X240.489Y-34.853
X240.49Y-86.279
X240.523Y-39.845
X240.572Y-182.472
X240.619Y-63.494
X240.743Y-56.941
X241.032Y-18.246
X241.065Y-195.873
X241.109Y-42.408
X241.297Y-128.024
X241.3Y-68.203
X241.382Y-57.791
X241.402Y-181.966
X241.554Y-116.341
X241.6Y-88.459
X241.96Y-193.846
X242.28Y-166.39
X242.535Y-71.12
X242.539Y-189.482
X242.702Y-188.41
X243.304Y-80.389
X243.421Y-125.007
X243.434Y-164.142
X243.465Y-152.488
X243.535Y-156.438
X243.571Y-79.571
X243.741Y-117.551
X243.795Y-81.273
X243.842Y-150.144
X243.855Y-96.754
X244.352Y-149.496
X244.353Y-78.053
X244.458Y-101.802
X244.653Y-122.116
X244.715Y-158.724
X245.156Y-182.193
X245.212Y-131.42
X245.361Y-127.867
X245.542Y-179.816
X245.575Y-183.326
X245.755Y-105.3
X245.802Y-114.248
X246.028Y-194.347
X246.183Y-116.341
X246.319Y-80.724
X246.319Y-82.674
X246.385Y-197.576
X247.147Y-63.556
X247.599Y-68.102
X247.602Y-163.899
X248.101Y-191.124
X248.14Y-149.818
X248.151Y-150.781
X248.272Y-56.293
X248.287Y-57.791
X248.528Y-152.89
X248.644Y-54.877
X248.829Y-71.018
X248.951Y-63.46
X249.413Y-179.816
X249.581Y-158.785
X249.774Y-166.71
X249.792Y-181.914
X249.941Y-115.543
X250.306Y-117.903
X250.679Y-127.811
X250.68Y-131.503
X250.69Y-126.28
X250.939Y-58.388
X251.512Y-194.347
X251.532Y-196.377
X251.641Y-188.408
X252.101Y-114.58
X252.137Y-164.556
X252.549Y-54.877
X252.648Y-64.618
X252.783Y-151.479
X252.815Y-149.818
X252.906Y-56.293
X253.092Y-156.892
X253.39Y-117.913
X253.483Y-70.197
X253.621Y-124.363
X253.75Y-129.007
X253.791Y-191.124
X254.556Y-116.144
X254.66Y-122.209
X254.915Y-158.785
X255.095Y-115.545
X255.671Y-64.376
X256.138Y-71.151
X258.092Y-72.064
X258.308Y-116.213
X258.308Y-152.293
X258.308Y-166.456
X259.024Y-132.123
X259.31Y-63.576
X259.345Y-61.774
X259.809Y-70.337
X259.826Y-71.567
X260.027Y-197.962
X260.069Y-187.376
X260.083Y-117.63
X260.107Y-131.521
X260.567Y-118.54
X260.576Y-116.957
X260.588Y-153.993
X260.595Y-186.42
X260.596Y-185.441
X260.603Y-130.858
X260.606Y-187.982
X260.65Y-196.444
X260.986Y-197.244
X261.135Y-153.037
X261.14Y-165.629
X261.141Y-154.606
X261.255Y-164.686
X262.974Y-61.744
X263.445Y-73.17
X263.46Y-70.337
X263.618Y-163.02
X263.777Y-61.994
X263.998Y-118.999
X264.217Y-116.157
X264.221Y-185.172
X264.221Y-133.246
X264.279Y-117.716
X264.623Y-132.495
X264.645Y-198.6
X264.74Y-116.772
X264.76Y-154.597
X264.876Y-166.397
X264.877Y-164.023
X265.028Y-131.745
X265.044Y-185.394
X265.046Y-197.857
X265.152Y-153.843
X265.26Y-165.629
X265.379Y-164.661
X265.561Y-153.093
X266.678Y-197.32
X267.216Y-130.945
T2
X79.38Y-63.65
X79.38Y-66.19
X79.38Y-68.73
X79.38Y-71.27
X79.38Y-73.81
X79.38Y-76.35
X79.38Y-78.89
X79.38Y-81.43
X80.38Y-31.87
X80.38Y-34.41
X80.38Y-36.95
X80.38Y-39.49
X80.38Y-42.03
X80.38Y-44.57
X80.38Y-47.11
X80.38Y-49.65
X87.0Y-63.65
X87.0Y-66.19
X87.0Y-68.73
X87.0Y-71.27
X87.0Y-73.81
X87.0Y-76.35
X87.0Y-78.89
X87.0Y-81.43
X88.0Y-31.87
X88.0Y-34.41
X88.0Y-36.95
X88.0Y-39.49
X88.0Y-42.03
X88.0Y-44.57
X88.0Y-47.11
X88.0Y-49.65
X112.014Y-60.706
X112.014Y-63.246
X112.014Y-65.786
X112.014Y-68.326
X112.014Y-70.866
X112.014Y-73.406
X112.014Y-75.946
X112.014Y-78.486
X112.014Y-81.026
X112.42Y-32.817
X112.42Y-35.357
X112.42Y-37.897
X112.42Y-40.437
X112.42Y-42.977
X112.42Y-45.517
X112.42Y-48.057
X112.42Y-50.597
X112.42Y-53.137
X225.908Y-178.714
X225.908Y-181.254
X225.908Y-183.794
X225.908Y-186.334
X225.908Y-188.874
X225.908Y-191.414
X225.908Y-193.954
X225.908Y-196.494
X225.908Y-199.034
X225.958Y-57.201
X225.958Y-59.741
X225.958Y-62.281
X225.958Y-64.821
X225.958Y-67.361
X225.958Y-69.901
X225.958Y-72.441
X225.958Y-74.981
X225.958Y-77.521
X226.111Y-148.895
X226.111Y-151.435
X226.111Y-153.975
X226.111Y-156.515
X226.111Y-159.055
X226.111Y-161.595
X226.111Y-164.135
X226.111Y-166.675
X226.111Y-169.215
X226.466Y-113.741
X226.466Y-116.281
X226.466Y-118.821
X226.466Y-121.361
X226.466Y-123.901
X226.466Y-126.441
X226.466Y-128.981
X226.466Y-131.521
X226.466Y-134.061
T3
X31.0Y-60.82
X31.0Y-63.36
X31.0Y-65.9
X31.0Y-68.44
X31.0Y-70.98
X31.0Y-73.52
X31.0Y-76.06
X31.0Y-78.6
X31.0Y-81.14
X31.0Y-83.68
X31.0Y-86.22
X31.0Y-88.76
X31.0Y-91.3
X31.0Y-93.84
X31.0Y-96.38
X31.0Y-98.92
X31.0Y-101.46
X31.0Y-104.0
X31.0Y-106.54
X31.0Y-109.08
X45.272Y-99.162
X45.415Y-115.722
X50.272Y-99.162
X50.415Y-115.722
X63.0Y-32.85
X63.0Y-35.39
X63.0Y-45.85
X63.0Y-48.39
X63.0Y-58.35
X63.0Y-60.89
X77.876Y-136.703
X78.283Y-126.594
X84.734Y-108.966
X85.395Y-91.592
X104.851Y-112.827
X108.052Y-122.072
X125.222Y-99.822
X125.222Y-102.362
X125.222Y-104.902
X125.222Y-107.442
X125.222Y-109.982
X125.222Y-112.522
X125.222Y-115.062
X125.222Y-117.602
X125.222Y-120.142
X125.222Y-122.682
X125.222Y-125.222
X125.222Y-127.762
X125.222Y-130.302
X125.222Y-132.842
X125.222Y-135.382
X125.222Y-137.922
X125.222Y-140.462
X125.222Y-143.002
X125.222Y-145.542
X125.222Y-148.082
X126.16Y-24.404
X127.305Y-22.504
X127.305Y-26.304
X127.762Y-99.822
X127.762Y-102.362
X127.762Y-104.902
X127.762Y-107.442
X127.762Y-109.982
X127.762Y-112.522
X127.762Y-115.062
X127.762Y-117.602
X127.762Y-120.142
X127.762Y-122.682
X127.762Y-125.222
X127.762Y-127.762
X127.762Y-130.302
X127.762Y-132.842
X127.762Y-135.382
X127.762Y-137.922
X127.762Y-140.462
X127.762Y-143.002
X127.762Y-145.542
X127.762Y-148.082
X128.45Y-24.404
X129.595Y-22.504
X129.595Y-26.304
X130.74Y-24.404
X131.885Y-22.504
X131.885Y-26.304
X133.03Y-24.404
X134.175Y-22.504
X134.175Y-26.304
X135.32Y-24.404
X136.465Y-22.504
X136.465Y-26.304
X159.004Y-22.962
X161.544Y-22.962
X164.084Y-22.962
X166.624Y-22.962
X169.164Y-22.962
X171.704Y-22.962
X174.244Y-22.962
X176.784Y-22.962
X179.324Y-22.962
X191.719Y-17.374
X191.973Y-24.587
X253.949Y-83.363
X253.949Y-85.903
X253.949Y-88.443
X253.949Y-90.983
X253.949Y-93.523
X253.949Y-96.063
X253.949Y-98.603
X253.949Y-101.143
X253.949Y-103.683
X253.949Y-106.223
X256.946Y-142.138
X273.0Y-19.66
X273.0Y-22.2
X273.0Y-24.74
X273.0Y-27.28
X273.0Y-29.82
X273.0Y-32.36
X273.0Y-34.9
X273.0Y-37.44
X273.0Y-39.98
X273.0Y-42.52
X273.0Y-45.06
X273.0Y-47.6
X273.0Y-50.14
X273.0Y-52.68
X273.0Y-55.22
X273.0Y-57.76
X273.0Y-60.3
X273.0Y-62.84
X273.0Y-65.38
X273.0Y-67.92
X273.0Y-70.46
X273.0Y-73.0
X273.0Y-75.54
X273.304Y-85.039
X273.304Y-87.579
X273.304Y-90.119
X273.304Y-92.659
X273.304Y-95.199
X273.304Y-97.739
X273.304Y-100.279
X273.304Y-102.819
X273.304Y-105.359
X273.507Y-117.653
X273.507Y-120.193
X273.507Y-122.733
X273.507Y-125.273
X273.507Y-127.813
X273.507Y-130.353
X273.507Y-132.893
X273.507Y-135.433
X273.507Y-137.973
X273.507Y-140.513
X273.863Y-151.384
X273.863Y-153.924
X273.863Y-156.464
X273.863Y-159.004
X273.863Y-161.544
X273.863Y-164.084
X273.863Y-166.624
X273.863Y-169.164
X273.863Y-171.704
X273.863Y-174.244
X273.863Y-176.784
X273.863Y-179.324
X273.863Y-181.864
X273.863Y-184.404
X273.863Y-186.944
X273.863Y-189.484
X273.863Y-192.024
X273.863Y-194.564
X273.863Y-197.104
T4
X77.106Y-97.564
X77.572Y-113.843
X79.646Y-97.564
X80.112Y-113.843
X82.186Y-97.564
X82.652Y-113.843
T5
X119.12Y-24.414
X144.12Y-24.414
M30
