%TF.GenerationSoftware,KiCad,Pcbnew,10.0.1*%
%TF.CreationDate,2026-08-28T09:51:09-04:00*%
%TF.ProjectId,MCR_prototype_PCB,4d43525f-7072-46f7-946f-747970655f50,rev?*%
%TF.SameCoordinates,Original*%
%TF.FileFunction,Paste,Top*%
%TF.FilePolarity,Positive*%
%FSLAX46Y46*%
G04 Gerber Fmt 4.6, Leading zero omitted, Abs format (unit mm)*
G04 Created by KiCad (PCBNEW 10.0.1) date 2026-08-28 09:51:09*
%MOMM*%
%LPD*%
G01*
G04 APERTURE LIST*
G04 Aperture macros list*
%AMRoundRect*
0 Rectangle with rounded corners*
0 $1 Rounding radius*
0 $2 $3 $4 $5 $6 $7 $8 $9 X,Y pos of 4 corners*
0 Add a 4 corners polygon primitive as box body*
4,1,4,$2,$3,$4,$5,$6,$7,$8,$9,$2,$3,0*
0 Add four circle primitives for the rounded corners*
1,1,$1+$1,$2,$3*
1,1,$1+$1,$4,$5*
1,1,$1+$1,$6,$7*
1,1,$1+$1,$8,$9*
0 Add four rect primitives between the rounded corners*
20,1,$1+$1,$2,$3,$4,$5,0*
20,1,$1+$1,$4,$5,$6,$7,0*
20,1,$1+$1,$6,$7,$8,$9,0*
20,1,$1+$1,$8,$9,$2,$3,0*%
G04 Aperture macros list end*
%ADD10RoundRect,0.250000X-0.450000X0.262500X-0.450000X-0.262500X0.450000X-0.262500X0.450000X0.262500X0*%
%ADD11RoundRect,0.250000X-0.475000X0.250000X-0.475000X-0.250000X0.475000X-0.250000X0.475000X0.250000X0*%
%ADD12RoundRect,0.150000X-0.825000X-0.150000X0.825000X-0.150000X0.825000X0.150000X-0.825000X0.150000X0*%
%ADD13RoundRect,0.100000X-0.637500X-0.100000X0.637500X-0.100000X0.637500X0.100000X-0.637500X0.100000X0*%
%ADD14RoundRect,0.250000X-0.450000X0.325000X-0.450000X-0.325000X0.450000X-0.325000X0.450000X0.325000X0*%
%ADD15R,2.900000X5.400000*%
%ADD16RoundRect,0.150000X-0.512500X-0.150000X0.512500X-0.150000X0.512500X0.150000X-0.512500X0.150000X0*%
%ADD17RoundRect,0.250000X-0.250000X-0.475000X0.250000X-0.475000X0.250000X0.475000X-0.250000X0.475000X0*%
%ADD18RoundRect,0.250000X0.450000X-0.262500X0.450000X0.262500X-0.450000X0.262500X-0.450000X-0.262500X0*%
%ADD19RoundRect,0.250000X-0.262500X-0.450000X0.262500X-0.450000X0.262500X0.450000X-0.262500X0.450000X0*%
%ADD20RoundRect,0.250000X0.450000X-0.325000X0.450000X0.325000X-0.450000X0.325000X-0.450000X-0.325000X0*%
%ADD21RoundRect,0.150000X0.825000X0.150000X-0.825000X0.150000X-0.825000X-0.150000X0.825000X-0.150000X0*%
%ADD22RoundRect,0.250000X-0.525000X-0.400000X0.525000X-0.400000X0.525000X0.400000X-0.525000X0.400000X0*%
%ADD23R,0.800000X0.500000*%
%ADD24R,0.800000X0.400000*%
%ADD25RoundRect,0.250000X-0.450000X0.350000X-0.450000X-0.350000X0.450000X-0.350000X0.450000X0.350000X0*%
%ADD26RoundRect,0.250000X-0.350000X-0.450000X0.350000X-0.450000X0.350000X0.450000X-0.350000X0.450000X0*%
%ADD27RoundRect,0.250000X-0.550000X1.500000X-0.550000X-1.500000X0.550000X-1.500000X0.550000X1.500000X0*%
%ADD28RoundRect,0.250000X-0.325000X-1.100000X0.325000X-1.100000X0.325000X1.100000X-0.325000X1.100000X0*%
%ADD29RoundRect,0.150000X-0.875000X-0.150000X0.875000X-0.150000X0.875000X0.150000X-0.875000X0.150000X0*%
%ADD30RoundRect,0.150000X0.150000X-0.825000X0.150000X0.825000X-0.150000X0.825000X-0.150000X-0.825000X0*%
G04 APERTURE END LIST*
D10*
%TO.C,R23*%
X244805200Y-75541500D03*
X244805200Y-77366500D03*
%TD*%
%TO.C,R22*%
X249123200Y-76608300D03*
X249123200Y-78433300D03*
%TD*%
%TO.C,R21*%
X180644800Y-55270400D03*
X180644800Y-57095400D03*
%TD*%
%TO.C,R20*%
X174498000Y-55323100D03*
X174498000Y-57148100D03*
%TD*%
%TO.C,R19*%
X166979600Y-55372000D03*
X166979600Y-57197000D03*
%TD*%
D11*
%TO.C,C65*%
X249834400Y-81752400D03*
X249834400Y-83652400D03*
%TD*%
D12*
%TO.C,U4*%
X212931200Y-119583200D03*
X212931200Y-120853200D03*
X212931200Y-122123200D03*
X212931200Y-123393200D03*
X212931200Y-124663200D03*
X212931200Y-125933200D03*
X212931200Y-127203200D03*
X212931200Y-128473200D03*
X217881200Y-128473200D03*
X217881200Y-127203200D03*
X217881200Y-125933200D03*
X217881200Y-124663200D03*
X217881200Y-123393200D03*
X217881200Y-122123200D03*
X217881200Y-120853200D03*
X217881200Y-119583200D03*
%TD*%
D13*
%TO.C,U13*%
X169992200Y-36383200D03*
X169992200Y-37033200D03*
X169992200Y-37683200D03*
X169992200Y-38333200D03*
X169992200Y-38983200D03*
X169992200Y-39633200D03*
X169992200Y-40283200D03*
X175717200Y-40283200D03*
X175717200Y-39633200D03*
X175717200Y-38983200D03*
X175717200Y-38333200D03*
X175717200Y-37683200D03*
X175717200Y-37033200D03*
X175717200Y-36383200D03*
%TD*%
D14*
%TO.C,D36*%
X146053200Y-42824400D03*
X146053200Y-44874400D03*
%TD*%
D15*
%TO.C,L1*%
X57735600Y-98907600D03*
X67435600Y-98907600D03*
%TD*%
D16*
%TO.C,U22*%
X242733400Y-115041600D03*
X242733400Y-115991600D03*
X242733400Y-116941600D03*
X245008400Y-116941600D03*
X245008400Y-115991600D03*
X245008400Y-115041600D03*
%TD*%
D17*
%TO.C,C62*%
X254675600Y-54356000D03*
X256575600Y-54356000D03*
%TD*%
D13*
%TO.C,U14*%
X239348200Y-78773600D03*
X239348200Y-79423600D03*
X239348200Y-80073600D03*
X239348200Y-80723600D03*
X239348200Y-81373600D03*
X239348200Y-82023600D03*
X239348200Y-82673600D03*
X239348200Y-83323600D03*
X245073200Y-83323600D03*
X245073200Y-82673600D03*
X245073200Y-82023600D03*
X245073200Y-81373600D03*
X245073200Y-80723600D03*
X245073200Y-80073600D03*
X245073200Y-79423600D03*
X245073200Y-78773600D03*
%TD*%
D18*
%TO.C,R100*%
X177429200Y-49881800D03*
X177429200Y-48056800D03*
%TD*%
D19*
%TO.C,R2*%
X238930200Y-92725800D03*
X240755200Y-92725800D03*
%TD*%
D12*
%TO.C,U1*%
X212931200Y-183743600D03*
X212931200Y-185013600D03*
X212931200Y-186283600D03*
X212931200Y-187553600D03*
X212931200Y-188823600D03*
X212931200Y-190093600D03*
X212931200Y-191363600D03*
X212931200Y-192633600D03*
X217881200Y-192633600D03*
X217881200Y-191363600D03*
X217881200Y-190093600D03*
X217881200Y-188823600D03*
X217881200Y-187553600D03*
X217881200Y-186283600D03*
X217881200Y-185013600D03*
X217881200Y-183743600D03*
%TD*%
D17*
%TO.C,C63*%
X237723600Y-116230400D03*
X239623600Y-116230400D03*
%TD*%
D18*
%TO.C,R96*%
X167429200Y-49881800D03*
X167429200Y-48056800D03*
%TD*%
D19*
%TO.C,R15*%
X164595800Y-32054800D03*
X166420800Y-32054800D03*
%TD*%
D12*
%TO.C,U8*%
X218490800Y-18948400D03*
X218490800Y-20218400D03*
X218490800Y-21488400D03*
X218490800Y-22758400D03*
X218490800Y-24028400D03*
X218490800Y-25298400D03*
X218490800Y-26568400D03*
X218490800Y-27838400D03*
X223440800Y-27838400D03*
X223440800Y-26568400D03*
X223440800Y-25298400D03*
X223440800Y-24028400D03*
X223440800Y-22758400D03*
X223440800Y-21488400D03*
X223440800Y-20218400D03*
X223440800Y-18948400D03*
%TD*%
D17*
%TO.C,C55*%
X214543600Y-132638800D03*
X216443600Y-132638800D03*
%TD*%
%TO.C,C41*%
X186654400Y-40487600D03*
X188554400Y-40487600D03*
%TD*%
D20*
%TO.C,D2*%
X92557600Y-102828200D03*
X92557600Y-100778200D03*
%TD*%
D17*
%TO.C,C57*%
X101513600Y-63042800D03*
X103413600Y-63042800D03*
%TD*%
D21*
%TO.C,U6*%
X105500000Y-42770000D03*
X105500000Y-41500000D03*
X105500000Y-40230000D03*
X105500000Y-38960000D03*
X105500000Y-37690000D03*
X105500000Y-36420000D03*
X105500000Y-35150000D03*
X105500000Y-33880000D03*
X100550000Y-33880000D03*
X100550000Y-35150000D03*
X100550000Y-36420000D03*
X100550000Y-37690000D03*
X100550000Y-38960000D03*
X100550000Y-40230000D03*
X100550000Y-41500000D03*
X100550000Y-42770000D03*
%TD*%
D22*
%TO.C,SW3*%
X201602600Y-16415000D03*
X209562600Y-16415000D03*
X201602600Y-20915000D03*
X209562600Y-20915000D03*
%TD*%
D14*
%TO.C,D37*%
X141093200Y-42824400D03*
X141093200Y-44874400D03*
%TD*%
D23*
%TO.C,RN12*%
X262534400Y-72961200D03*
D24*
X262534400Y-72161200D03*
X262534400Y-71361200D03*
D23*
X262534400Y-70561200D03*
X260734400Y-70561200D03*
D24*
X260734400Y-71361200D03*
X260734400Y-72161200D03*
D23*
X260734400Y-72961200D03*
%TD*%
D12*
%TO.C,U2*%
X212677200Y-154432000D03*
X212677200Y-155702000D03*
X212677200Y-156972000D03*
X212677200Y-158242000D03*
X212677200Y-159512000D03*
X212677200Y-160782000D03*
X212677200Y-162052000D03*
X212677200Y-163322000D03*
X217627200Y-163322000D03*
X217627200Y-162052000D03*
X217627200Y-160782000D03*
X217627200Y-159512000D03*
X217627200Y-158242000D03*
X217627200Y-156972000D03*
X217627200Y-155702000D03*
X217627200Y-154432000D03*
%TD*%
D17*
%TO.C,C56*%
X102189200Y-29413200D03*
X104089200Y-29413200D03*
%TD*%
D25*
%TO.C,R6*%
X89662000Y-129946400D03*
X89662000Y-131946400D03*
%TD*%
%TO.C,R8*%
X93522800Y-114011200D03*
X93522800Y-116011200D03*
%TD*%
D17*
%TO.C,C1*%
X243855200Y-87500800D03*
X245755200Y-87500800D03*
%TD*%
D21*
%TO.C,U7*%
X105000000Y-76270000D03*
X105000000Y-75000000D03*
X105000000Y-73730000D03*
X105000000Y-72460000D03*
X105000000Y-71190000D03*
X105000000Y-69920000D03*
X105000000Y-68650000D03*
X105000000Y-67380000D03*
X100050000Y-67380000D03*
X100050000Y-68650000D03*
X100050000Y-69920000D03*
X100050000Y-71190000D03*
X100050000Y-72460000D03*
X100050000Y-73730000D03*
X100050000Y-75000000D03*
X100050000Y-76270000D03*
%TD*%
D17*
%TO.C,C54*%
X204551200Y-67614800D03*
X206451200Y-67614800D03*
%TD*%
D14*
%TO.C,D38*%
X136093200Y-42824400D03*
X136093200Y-44874400D03*
%TD*%
D26*
%TO.C,R9*%
X114214400Y-138176000D03*
X116214400Y-138176000D03*
%TD*%
D11*
%TO.C,C50*%
X89001600Y-118160800D03*
X89001600Y-120060800D03*
%TD*%
D27*
%TO.C,C49*%
X103225600Y-97434400D03*
X103225600Y-103034400D03*
%TD*%
D19*
%TO.C,R14*%
X160074600Y-31953200D03*
X161899600Y-31953200D03*
%TD*%
D18*
%TO.C,R98*%
X172429200Y-49881800D03*
X172429200Y-48056800D03*
%TD*%
D28*
%TO.C,C43*%
X185875400Y-35052000D03*
X188825400Y-35052000D03*
%TD*%
D29*
%TO.C,U11*%
X229821600Y-34183800D03*
X229821600Y-35453800D03*
X229821600Y-36723800D03*
X229821600Y-37993800D03*
X229821600Y-39263800D03*
X229821600Y-40533800D03*
X229821600Y-41803800D03*
X229821600Y-43073800D03*
X229821600Y-44343800D03*
X239121600Y-44343800D03*
X239121600Y-43073800D03*
X239121600Y-41803800D03*
X239121600Y-40533800D03*
X239121600Y-39263800D03*
X239121600Y-37993800D03*
X239121600Y-36723800D03*
X239121600Y-35453800D03*
X239121600Y-34183800D03*
%TD*%
D16*
%TO.C,U23*%
X251115400Y-115194000D03*
X251115400Y-116144000D03*
X251115400Y-117094000D03*
X253390400Y-117094000D03*
X253390400Y-116144000D03*
X253390400Y-115194000D03*
%TD*%
D17*
%TO.C,C59*%
X233507200Y-79248000D03*
X235407200Y-79248000D03*
%TD*%
D19*
%TO.C,R16*%
X169216700Y-32054800D03*
X171041700Y-32054800D03*
%TD*%
D18*
%TO.C,R94*%
X162429200Y-49881800D03*
X162429200Y-48056800D03*
%TD*%
D16*
%TO.C,U18*%
X237286800Y-55642300D03*
X237286800Y-56592300D03*
X237286800Y-57542300D03*
X239561800Y-57542300D03*
X239561800Y-56592300D03*
X239561800Y-55642300D03*
%TD*%
D27*
%TO.C,C51*%
X100482400Y-116128800D03*
X100482400Y-121728800D03*
%TD*%
D20*
%TO.C,D3*%
X93573600Y-119888000D03*
X93573600Y-117838000D03*
%TD*%
D16*
%TO.C,U5*%
X240396600Y-149794000D03*
X240396600Y-150744000D03*
X240396600Y-151694000D03*
X242671600Y-151694000D03*
X242671600Y-150744000D03*
X242671600Y-149794000D03*
%TD*%
D17*
%TO.C,C8*%
X223982000Y-93663600D03*
X225882000Y-93663600D03*
%TD*%
D18*
%TO.C,R92*%
X157429200Y-49881800D03*
X157429200Y-48056800D03*
%TD*%
D17*
%TO.C,R18*%
X178846400Y-34290000D03*
X180746400Y-34290000D03*
%TD*%
%TO.C,C4*%
X243855200Y-103000800D03*
X245755200Y-103000800D03*
%TD*%
D23*
%TO.C,RN14*%
X263296400Y-118313200D03*
D24*
X263296400Y-117513200D03*
X263296400Y-116713200D03*
D23*
X263296400Y-115913200D03*
X261496400Y-115913200D03*
D24*
X261496400Y-116713200D03*
X261496400Y-117513200D03*
D23*
X261496400Y-118313200D03*
%TD*%
D18*
%TO.C,R102*%
X182429200Y-49881800D03*
X182429200Y-48056800D03*
%TD*%
D23*
%TO.C,RN9*%
X263855200Y-154393600D03*
D24*
X263855200Y-153593600D03*
X263855200Y-152793600D03*
D23*
X263855200Y-151993600D03*
X262055200Y-151993600D03*
D24*
X262055200Y-152793600D03*
X262055200Y-153593600D03*
D23*
X262055200Y-154393600D03*
%TD*%
D11*
%TO.C,C48*%
X88036400Y-101041200D03*
X88036400Y-102941200D03*
%TD*%
D17*
%TO.C,C58*%
X213527600Y-35814000D03*
X215427600Y-35814000D03*
%TD*%
D23*
%TO.C,RN8*%
X263724800Y-198843600D03*
D24*
X263724800Y-198043600D03*
X263724800Y-197243600D03*
D23*
X263724800Y-196443600D03*
X261924800Y-196443600D03*
D24*
X261924800Y-197243600D03*
X261924800Y-198043600D03*
D23*
X261924800Y-198843600D03*
%TD*%
D19*
%TO.C,R3*%
X238930200Y-98000800D03*
X240755200Y-98000800D03*
%TD*%
D17*
%TO.C,C60*%
X214238800Y-16154400D03*
X216138800Y-16154400D03*
%TD*%
D16*
%TO.C,U15*%
X249337400Y-150180000D03*
X249337400Y-151130000D03*
X249337400Y-152080000D03*
X251612400Y-152080000D03*
X251612400Y-151130000D03*
X251612400Y-150180000D03*
%TD*%
D17*
%TO.C,C64*%
X251896800Y-110998000D03*
X253796800Y-110998000D03*
%TD*%
D18*
%TO.C,R95*%
X164929200Y-49881800D03*
X164929200Y-48056800D03*
%TD*%
D19*
%TO.C,R13*%
X228398700Y-101041200D03*
X230223700Y-101041200D03*
%TD*%
D16*
%TO.C,U19*%
X249458900Y-55692000D03*
X249458900Y-56642000D03*
X249458900Y-57592000D03*
X251733900Y-57592000D03*
X251733900Y-56642000D03*
X251733900Y-55692000D03*
%TD*%
D19*
%TO.C,R1*%
X238930200Y-87500800D03*
X240755200Y-87500800D03*
%TD*%
D18*
%TO.C,R97*%
X169929200Y-49881800D03*
X169929200Y-48056800D03*
%TD*%
D28*
%TO.C,C44*%
X192631800Y-35052000D03*
X195581800Y-35052000D03*
%TD*%
D23*
%TO.C,RN11*%
X262048400Y-64376000D03*
D24*
X262048400Y-63576000D03*
X262048400Y-62776000D03*
D23*
X262048400Y-61976000D03*
X260248400Y-61976000D03*
D24*
X260248400Y-62776000D03*
X260248400Y-63576000D03*
D23*
X260248400Y-64376000D03*
%TD*%
D14*
%TO.C,D35*%
X151093200Y-42824400D03*
X151093200Y-44874400D03*
%TD*%
D19*
%TO.C,R11*%
X228449500Y-93573600D03*
X230274500Y-93573600D03*
%TD*%
D17*
%TO.C,C2*%
X243855200Y-92500800D03*
X245755200Y-92500800D03*
%TD*%
%TO.C,C45*%
X243855200Y-108000800D03*
X245755200Y-108000800D03*
%TD*%
D19*
%TO.C,R5*%
X238930200Y-108000800D03*
X240755200Y-108000800D03*
%TD*%
D18*
%TO.C,R99*%
X174929200Y-49881800D03*
X174929200Y-48056800D03*
%TD*%
%TO.C,R103*%
X184879200Y-49881800D03*
X184879200Y-48056800D03*
%TD*%
D17*
%TO.C,C3*%
X243855200Y-98000800D03*
X245755200Y-98000800D03*
%TD*%
D29*
%TO.C,U10*%
X229663200Y-17576800D03*
X229663200Y-18846800D03*
X229663200Y-20116800D03*
X229663200Y-21386800D03*
X229663200Y-22656800D03*
X229663200Y-23926800D03*
X229663200Y-25196800D03*
X229663200Y-26466800D03*
X229663200Y-27736800D03*
X238963200Y-27736800D03*
X238963200Y-26466800D03*
X238963200Y-25196800D03*
X238963200Y-23926800D03*
X238963200Y-22656800D03*
X238963200Y-21386800D03*
X238963200Y-20116800D03*
X238963200Y-18846800D03*
X238963200Y-17576800D03*
%TD*%
D17*
%TO.C,C42*%
X193070400Y-40894000D03*
X194970400Y-40894000D03*
%TD*%
D20*
%TO.C,D1*%
X89712800Y-135899000D03*
X89712800Y-133849000D03*
%TD*%
D19*
%TO.C,R17*%
X173585500Y-32054800D03*
X175410500Y-32054800D03*
%TD*%
D17*
%TO.C,C46*%
X223992400Y-97129600D03*
X225892400Y-97129600D03*
%TD*%
D16*
%TO.C,U16*%
X237114500Y-180564700D03*
X237114500Y-181514700D03*
X237114500Y-182464700D03*
X239389500Y-182464700D03*
X239389500Y-181514700D03*
X239389500Y-180564700D03*
%TD*%
D17*
%TO.C,C53*%
X214289600Y-149453600D03*
X216189600Y-149453600D03*
%TD*%
%TO.C,C47*%
X223890800Y-100990400D03*
X225790800Y-100990400D03*
%TD*%
D16*
%TO.C,U17*%
X246340200Y-180614400D03*
X246340200Y-181564400D03*
X246340200Y-182514400D03*
X248615200Y-182514400D03*
X248615200Y-181564400D03*
X248615200Y-180614400D03*
%TD*%
D18*
%TO.C,R93*%
X159929200Y-49881800D03*
X159929200Y-48056800D03*
%TD*%
D23*
%TO.C,RN13*%
X263318400Y-133045200D03*
D24*
X263318400Y-132245200D03*
X263318400Y-131445200D03*
D23*
X263318400Y-130645200D03*
X261518400Y-130645200D03*
D24*
X261518400Y-131445200D03*
X261518400Y-132245200D03*
D23*
X261518400Y-133045200D03*
%TD*%
D25*
%TO.C,R7*%
X92608400Y-96993200D03*
X92608400Y-98993200D03*
%TD*%
D18*
%TO.C,R101*%
X179929200Y-49881800D03*
X179929200Y-48056800D03*
%TD*%
D15*
%TO.C,L2*%
X57962800Y-115671600D03*
X67662800Y-115671600D03*
%TD*%
D19*
%TO.C,R10*%
X228449500Y-90017600D03*
X230274500Y-90017600D03*
%TD*%
D17*
%TO.C,C52*%
X214457200Y-178714400D03*
X216357200Y-178714400D03*
%TD*%
D19*
%TO.C,R104*%
X213615900Y-30886400D03*
X215440900Y-30886400D03*
%TD*%
%TO.C,R4*%
X238930200Y-103050800D03*
X240755200Y-103050800D03*
%TD*%
D17*
%TO.C,C6*%
X224094000Y-90119200D03*
X225994000Y-90119200D03*
%TD*%
D19*
%TO.C,R12*%
X228449500Y-97231200D03*
X230274500Y-97231200D03*
%TD*%
D17*
%TO.C,C61*%
X231510800Y-53898800D03*
X233410800Y-53898800D03*
%TD*%
D30*
%TO.C,U3*%
X210159600Y-69720000D03*
X211429600Y-69720000D03*
X212699600Y-69720000D03*
X213969600Y-69720000D03*
X215239600Y-69720000D03*
X216509600Y-69720000D03*
X217779600Y-69720000D03*
X219049600Y-69720000D03*
X219049600Y-64770000D03*
X217779600Y-64770000D03*
X216509600Y-64770000D03*
X215239600Y-64770000D03*
X213969600Y-64770000D03*
X212699600Y-64770000D03*
X211429600Y-64770000D03*
X210159600Y-64770000D03*
%TD*%
D13*
%TO.C,U12*%
X158038800Y-36372800D03*
X158038800Y-37022800D03*
X158038800Y-37672800D03*
X158038800Y-38322800D03*
X158038800Y-38972800D03*
X158038800Y-39622800D03*
X158038800Y-40272800D03*
X163763800Y-40272800D03*
X163763800Y-39622800D03*
X163763800Y-38972800D03*
X163763800Y-38322800D03*
X163763800Y-37672800D03*
X163763800Y-37022800D03*
X163763800Y-36372800D03*
%TD*%
D23*
%TO.C,RN10*%
X263956800Y-166179200D03*
D24*
X263956800Y-165379200D03*
X263956800Y-164579200D03*
D23*
X263956800Y-163779200D03*
X262156800Y-163779200D03*
D24*
X262156800Y-164579200D03*
X262156800Y-165379200D03*
D23*
X262156800Y-166179200D03*
%TD*%
D12*
%TO.C,U9*%
X218671600Y-35458400D03*
X218671600Y-36728400D03*
X218671600Y-37998400D03*
X218671600Y-39268400D03*
X218671600Y-40538400D03*
X218671600Y-41808400D03*
X218671600Y-43078400D03*
X218671600Y-44348400D03*
X223621600Y-44348400D03*
X223621600Y-43078400D03*
X223621600Y-41808400D03*
X223621600Y-40538400D03*
X223621600Y-39268400D03*
X223621600Y-37998400D03*
X223621600Y-36728400D03*
X223621600Y-35458400D03*
%TD*%
D23*
%TO.C,RN7*%
X263315600Y-187776000D03*
D24*
X263315600Y-186976000D03*
X263315600Y-186176000D03*
D23*
X263315600Y-185376000D03*
X261515600Y-185376000D03*
D24*
X261515600Y-186176000D03*
X261515600Y-186976000D03*
D23*
X261515600Y-187776000D03*
%TD*%
M02*
