M48
; DRILL file KiCad 10.0.1 date 2026-08-28T09:51:14
; FORMAT={-:-/ absolute / metric / decimal}
; #@! TF.CreationDate,2026-08-28T09:51:14-04:00
; #@! TF.GenerationSoftware,Kicad,Pcbnew,10.0.1
; #@! TF.FileFunction,Plated,1,4,PTH
FMAT,2
METRIC
; #@! TA.AperFunction,Plated,PTH,ViaDrill
T1C0.300
; #@! TA.AperFunction,Plated,PTH,ComponentDrill
T2C0.800
; #@! TA.AperFunction,Plated,PTH,ComponentDrill
T3C1.000
; #@! TA.AperFunction,Plated,PTH,ComponentDrill
T4C1.200
; #@! TA.AperFunction,Plated,PTH,ComponentDrill
T5C1.600
; #@! TA.AperFunction,Plated,PTH,ComponentDrill
T6C3.200
%
G90
G05
T1
X62.738Y-77.622
X65.284Y-84.509
X65.284Y-90.446
X72.034Y-133.706
X89.694Y-102.828
X90.639Y-136.825
X97.023Y-67.623
X97.948Y-39.631
X98.559Y-69.666
X98.734Y-67.984
X99.054Y-34.042
X99.111Y-37.212
X99.16Y-120.406
X99.167Y-117.163
X99.736Y-43.584
X100.05Y-77.094
X100.468Y-63.728
X101.281Y-30.321
X101.353Y-71.857
X101.367Y-73.061
X101.526Y-75.426
X101.545Y-67.162
X101.747Y-70.505
X101.839Y-39.589
X101.853Y-35.819
X101.871Y-40.831
X101.891Y-96.383
X101.918Y-72.461
X101.922Y-104.338
X103.287Y-69.49
X103.39Y-73.691
X103.414Y-61.79
X104.167Y-42.169
X105.0Y-77.086
X105.5Y-31.074
X105.5Y-43.608
X106.138Y-85.228
X106.319Y-74.334
X107.208Y-69.252
X112.797Y-108.257
X114.187Y-139.385
X117.341Y-137.944
X118.733Y-72.634
X120.458Y-118.225
X120.895Y-119.511
X121.688Y-120.35
X124.612Y-24.892
X124.614Y-51.916
X129.582Y-104.141
X133.584Y-58.003
X135.738Y-46.482
X137.109Y-24.689
X139.165Y-42.824
X140.513Y-46.33
X141.07Y-100.897
X145.553Y-89.206
X145.593Y-46.279
X150.622Y-46.228
X154.372Y-36.522
X154.57Y-37.341
X156.451Y-48.884
X156.535Y-50.776
X157.429Y-47.037
X159.038Y-50.773
X159.929Y-47.02
X160.022Y-83.123
X162.521Y-39.122
X162.943Y-31.953
X164.596Y-33.261
X164.929Y-47.025
X165.006Y-36.836
X166.25Y-39.772
X166.526Y-47.154
X167.314Y-31.162
X168.679Y-49.578
X168.745Y-36.533
X169.026Y-47.154
X170.118Y-32.956
X170.149Y-31.162
X171.165Y-49.747
X171.263Y-39.973
X171.519Y-48.967
X172.008Y-36.763
X172.189Y-37.732
X173.475Y-91.732
X173.887Y-48.792
X174.475Y-39.783
X174.932Y-30.848
X175.009Y-35.675
X176.145Y-47.988
X176.346Y-47.187
X178.003Y-56.49
X178.128Y-39.133
X178.664Y-46.584
X181.516Y-48.968
X181.74Y-61.401
X182.42Y-53.175
X185.776Y-50.778
X185.782Y-47.154
X188.397Y-76.761
X188.825Y-37.422
X192.632Y-37.422
X194.5Y-33.85
X195.958Y-57.779
X199.847Y-14.58
X202.92Y-127.103
X206.773Y-25.038
X209.346Y-63.956
X209.634Y-106.573
X210.16Y-68.231
X210.258Y-66.302
X211.377Y-156.371
X211.43Y-68.241
X211.632Y-121.522
X211.85Y-153.605
X211.874Y-164.125
X212.123Y-182.935
X212.311Y-106.806
X212.7Y-68.231
X212.931Y-118.74
X212.954Y-37.236
X213.295Y-66.106
X213.522Y-132.006
X213.616Y-32.093
X213.764Y-129.698
X213.971Y-68.222
X213.982Y-161.453
X213.993Y-160.181
X213.995Y-158.911
X214.188Y-157.306
X214.242Y-122.792
X214.243Y-190.764
X214.243Y-191.964
X214.245Y-126.604
X214.246Y-124.062
X214.247Y-125.332
X214.247Y-189.493
X214.415Y-184.706
X214.428Y-186.416
X215.054Y-66.27
X215.238Y-63.286
X215.24Y-71.217
X215.442Y-29.678
X216.123Y-155.629
X216.128Y-34.7
X216.237Y-102.32
X216.395Y-128.751
X216.397Y-120.853
X216.51Y-66.254
X216.51Y-71.213
X216.56Y-185.683
X216.732Y-182.166
X216.733Y-152.667
X217.142Y-16.231
X217.194Y-149.818
X217.215Y-22.126
X217.266Y-179.624
X217.548Y-193.437
X217.78Y-66.272
X217.881Y-118.748
X218.915Y-161.413
X218.943Y-158.843
X218.943Y-160.111
X218.957Y-162.651
X219.155Y-125.307
X219.192Y-189.424
X219.197Y-123.992
X219.197Y-188.154
X219.49Y-34.64
X219.703Y-126.536
X219.863Y-65.583
X219.885Y-69.666
X219.972Y-27.604
X219.985Y-23.105
X219.988Y-38.599
X220.152Y-36.421
X220.17Y-37.737
X220.787Y-39.351
X220.879Y-92.584
X221.576Y-22.773
X221.608Y-26.54
X221.943Y-24.028
X221.944Y-25.294
X222.131Y-41.808
X222.135Y-22.158
X222.136Y-40.511
X222.141Y-43.074
X222.618Y-18.126
X223.982Y-92.411
X224.094Y-88.877
X224.444Y-34.636
X224.766Y-98.184
X224.887Y-101.906
X224.934Y-36.059
X224.993Y-82.601
X225.272Y-92.461
X227.486Y-101.953
X227.531Y-20.185
X227.621Y-98.198
X227.898Y-22.494
X227.904Y-39.264
X228.113Y-21.662
X228.249Y-179.795
X228.287Y-37.011
X228.304Y-18.246
X228.441Y-34.785
X228.475Y-38.662
X228.837Y-28.563
X229.012Y-33.375
X229.306Y-90.95
X229.38Y-92.679
X230.276Y-88.785
X231.23Y-96.383
X232.783Y-80.336
X234.035Y-52.71
X235.204Y-89.306
X235.933Y-181.515
X236.107Y-80.372
X236.12Y-56.942
X237.114Y-183.278
X237.287Y-58.405
X237.426Y-28.105
X238.016Y-93.64
X238.097Y-78.923
X238.93Y-106.762
X239.116Y-15.85
X239.209Y-151.093
X239.389Y-183.271
X239.562Y-58.363
X239.886Y-86.543
X239.933Y-45.155
X240.397Y-152.498
X240.444Y-39.906
X240.484Y-36.123
X240.484Y-37.393
X240.489Y-34.853
X240.492Y-42.405
X240.657Y-38.358
X240.736Y-55.991
X240.75Y-56.94
X240.853Y-116.966
X240.989Y-39.264
X241.064Y-180.914
X241.081Y-79.971
X241.547Y-115.347
X241.561Y-116.592
X241.6Y-88.459
X242.672Y-148.985
X243.066Y-114.238
X243.467Y-152.489
X243.688Y-180.797
X243.817Y-80.724
X243.831Y-79.424
X243.843Y-150.142
X244.46Y-101.803
X244.776Y-97.08
X245.073Y-84.047
X245.16Y-181.912
X245.543Y-179.817
X245.755Y-105.3
X246.174Y-115.981
X246.175Y-117.293
X246.341Y-183.355
X246.429Y-61.962
X246.902Y-81.344
X248.14Y-149.818
X248.151Y-150.781
X248.292Y-55.718
X248.527Y-152.89
X249.4Y-58.424
X249.413Y-179.816
X250.589Y-152.659
X251.115Y-117.92
X251.155Y-79.502
X252.101Y-117.725
X252.579Y-114.383
X252.78Y-151.479
X252.91Y-56.294
X252.912Y-57.791
X253.39Y-117.912
X253.394Y-55.612
X254.676Y-53.091
X255.338Y-131.195
X255.422Y-115.519
X258.788Y-63.518
X259.319Y-61.748
X259.328Y-64.132
X259.629Y-187.088
X259.81Y-70.339
X259.814Y-71.605
X259.829Y-72.605
X260.061Y-132.19
X260.21Y-115.912
X260.46Y-165.078
X260.468Y-197.986
X260.555Y-116.713
X260.567Y-118.54
X260.59Y-187.776
X260.596Y-185.441
X260.598Y-132.802
X260.602Y-130.431
X260.61Y-152.851
X260.855Y-164.328
X261.005Y-198.6
X261.018Y-197.315
X261.022Y-196.243
X261.135Y-152.237
X261.141Y-154.606
X261.227Y-163.551
X261.251Y-166.383
X261.435Y-69.196
X262.974Y-61.744
X263.445Y-73.17
X263.46Y-70.337
X263.777Y-61.994
X263.998Y-118.999
X264.217Y-116.157
X264.221Y-185.172
X264.221Y-133.246
X264.253Y-117.716
X264.623Y-132.495
X264.645Y-198.6
X264.74Y-116.772
X264.76Y-154.597
X264.876Y-166.397
X264.877Y-164.023
X265.028Y-131.745
X265.044Y-185.394
X265.046Y-197.857
X265.152Y-153.843
X265.26Y-165.629
X265.379Y-164.661
X265.561Y-153.093
X266.678Y-197.32
X267.216Y-130.945
T2
X79.38Y-63.65
X79.38Y-66.19
X79.38Y-68.73
X79.38Y-71.27
X79.38Y-73.81
X79.38Y-76.35
X79.38Y-78.89
X79.38Y-81.43
X80.38Y-31.87
X80.38Y-34.41
X80.38Y-36.95
X80.38Y-39.49
X80.38Y-42.03
X80.38Y-44.57
X80.38Y-47.11
X80.38Y-49.65
X87.0Y-63.65
X87.0Y-66.19
X87.0Y-68.73
X87.0Y-71.27
X87.0Y-73.81
X87.0Y-76.35
X87.0Y-78.89
X87.0Y-81.43
X88.0Y-31.87
X88.0Y-34.41
X88.0Y-36.95
X88.0Y-39.49
X88.0Y-42.03
X88.0Y-44.57
X88.0Y-47.11
X88.0Y-49.65
X112.014Y-60.706
X112.014Y-63.246
X112.014Y-65.786
X112.014Y-68.326
X112.014Y-70.866
X112.014Y-73.406
X112.014Y-75.946
X112.014Y-78.486
X112.014Y-81.026
X112.42Y-32.817
X112.42Y-35.357
X112.42Y-37.897
X112.42Y-40.437
X112.42Y-42.977
X112.42Y-45.517
X112.42Y-48.057
X112.42Y-50.597
X112.42Y-53.137
X225.908Y-178.714
X225.908Y-181.254
X225.908Y-183.794
X225.908Y-186.334
X225.908Y-188.874
X225.908Y-191.414
X225.908Y-193.954
X225.908Y-196.494
X225.908Y-199.034
X225.958Y-57.201
X225.958Y-59.741
X225.958Y-62.281
X225.958Y-64.821
X225.958Y-67.361
X225.958Y-69.901
X225.958Y-72.441
X225.958Y-74.981
X225.958Y-77.521
X226.111Y-148.895
X226.111Y-151.435
X226.111Y-153.975
X226.111Y-156.515
X226.111Y-159.055
X226.111Y-161.595
X226.111Y-164.135
X226.111Y-166.675
X226.111Y-169.215
X226.466Y-113.741
X226.466Y-116.281
X226.466Y-118.821
X226.466Y-121.361
X226.466Y-123.901
X226.466Y-126.441
X226.466Y-128.981
X226.466Y-131.521
X226.466Y-134.061
T3
X31.0Y-60.82
X31.0Y-63.36
X31.0Y-65.9
X31.0Y-68.44
X31.0Y-70.98
X31.0Y-73.52
X31.0Y-76.06
X31.0Y-78.6
X31.0Y-81.14
X31.0Y-83.68
X31.0Y-86.22
X31.0Y-88.76
X31.0Y-91.3
X31.0Y-93.84
X31.0Y-96.38
X31.0Y-98.92
X31.0Y-101.46
X31.0Y-104.0
X31.0Y-106.54
X31.0Y-109.08
X45.272Y-99.162
X45.415Y-115.722
X50.272Y-99.162
X50.415Y-115.722
X57.912Y-128.321
X61.265Y-59.939
X61.265Y-62.479
X62.84Y-82.093
X62.84Y-87.093
X63.0Y-32.85
X63.0Y-35.39
X63.0Y-45.85
X63.0Y-48.39
X72.187Y-124.124
X72.187Y-129.124
X84.734Y-108.966
X85.395Y-91.592
X89.662Y-141.884
X104.851Y-112.827
X108.052Y-122.072
X125.222Y-99.822
X125.222Y-102.362
X125.222Y-104.902
X125.222Y-107.442
X125.222Y-109.982
X125.222Y-112.522
X125.222Y-115.062
X125.222Y-117.602
X125.222Y-120.142
X125.222Y-122.682
X125.222Y-125.222
X125.222Y-127.762
X125.222Y-130.302
X125.222Y-132.842
X125.222Y-135.382
X125.222Y-137.922
X125.222Y-140.462
X125.222Y-143.002
X125.222Y-145.542
X125.222Y-148.082
X125.374Y-38.1
X125.374Y-40.64
X125.374Y-43.18
X126.16Y-24.404
X127.305Y-22.504
X127.305Y-26.304
X127.762Y-99.822
X127.762Y-102.362
X127.762Y-104.902
X127.762Y-107.442
X127.762Y-109.982
X127.762Y-112.522
X127.762Y-115.062
X127.762Y-117.602
X127.762Y-120.142
X127.762Y-122.682
X127.762Y-125.222
X127.762Y-127.762
X127.762Y-130.302
X127.762Y-132.842
X127.762Y-135.382
X127.762Y-137.922
X127.762Y-140.462
X127.762Y-143.002
X127.762Y-145.542
X127.762Y-148.082
X128.45Y-24.404
X129.595Y-22.504
X129.595Y-26.304
X130.74Y-24.404
X131.885Y-22.504
X131.885Y-26.304
X133.03Y-24.404
X134.175Y-22.504
X134.175Y-26.304
X135.32Y-24.404
X136.465Y-22.504
X136.465Y-26.304
X159.004Y-22.962
X161.544Y-22.962
X164.084Y-22.962
X166.624Y-22.962
X169.164Y-22.962
X171.704Y-22.962
X174.244Y-22.962
X176.784Y-22.962
X179.324Y-22.962
X191.719Y-17.374
X191.973Y-24.587
X253.949Y-83.363
X253.949Y-85.903
X253.949Y-88.443
X253.949Y-90.983
X253.949Y-93.523
X253.949Y-96.063
X253.949Y-98.603
X253.949Y-101.143
X253.949Y-103.683
X253.949Y-106.223
X256.946Y-142.138
X273.0Y-19.66
X273.0Y-22.2
X273.0Y-24.74
X273.0Y-27.28
X273.0Y-29.82
X273.0Y-32.36
X273.0Y-34.9
X273.0Y-37.44
X273.0Y-39.98
X273.0Y-42.52
X273.0Y-45.06
X273.0Y-47.6
X273.0Y-50.14
X273.0Y-52.68
X273.0Y-55.22
X273.0Y-57.76
X273.0Y-60.3
X273.0Y-62.84
X273.0Y-65.38
X273.0Y-67.92
X273.0Y-70.46
X273.0Y-73.0
X273.0Y-75.54
X273.304Y-85.039
X273.304Y-87.579
X273.304Y-90.119
X273.304Y-92.659
X273.304Y-95.199
X273.304Y-97.739
X273.304Y-100.279
X273.304Y-102.819
X273.304Y-105.359
X273.507Y-117.653
X273.507Y-120.193
X273.507Y-122.733
X273.507Y-125.273
X273.507Y-127.813
X273.507Y-130.353
X273.507Y-132.893
X273.507Y-135.433
X273.507Y-137.973
X273.507Y-140.513
X273.863Y-151.384
X273.863Y-153.924
X273.863Y-156.464
X273.863Y-159.004
X273.863Y-161.544
X273.863Y-164.084
X273.863Y-166.624
X273.863Y-169.164
X273.863Y-171.704
X273.863Y-174.244
X273.863Y-176.784
X273.863Y-179.324
X273.863Y-181.864
X273.863Y-184.404
X273.863Y-186.944
X273.863Y-189.484
X273.863Y-192.024
X273.863Y-194.564
X273.863Y-197.104
T4
X77.106Y-97.564
X77.572Y-113.843
X79.646Y-97.564
X80.112Y-113.843
X82.186Y-97.564
X82.652Y-113.843
T5
X100.127Y-132.791
X115.367Y-132.791
T6
X119.12Y-24.414
X144.12Y-24.414
M30
